M48
; DRILL file {KiCad 5.1.9-73d0e3b20d~88~ubuntu20.04.1} date Wed Mar 10 20:51:38 2021
; FORMAT={3:3/ absolute / metric / suppress leading zeros}
; #@! TF.CreationDate,2021-03-10T20:51:38-03:00
; #@! TF.GenerationSoftware,Kicad,Pcbnew,5.1.9-73d0e3b20d~88~ubuntu20.04.1
FMAT,2
METRIC,TZ
T1C0.400
T2C0.750
T3C0.762
T4C0.800
T5C1.000
T6C1.100
T7C1.300
T8C1.520
T9C4.200
%
G90
G05
T1
X1143Y-44450
X3048Y-30988
X4191Y-32004
X5588Y-33020
X5588Y-36576
X6477Y-52959
X7366Y-37592
X7493Y-90678
X8255Y-33655
X8255Y-38481
X9142Y-58418
X9144Y-76708
X9906Y-39497
X11049Y-53340
X11049Y-56642
X11049Y-58674
X12192Y-78232
X12192Y-80010
X12192Y-83058
X12700Y-49276
X13081Y-76327
X13081Y-86741
X14605Y-66421
X15397Y-73055
X15748Y-75057
X15748Y-78486
X15875Y-83566
X16256Y-55626
X16447Y-80645
X17018Y-89154
X17780Y-31877
X18034Y-66548
X18034Y-70485
X18923Y-22860
X18923Y-58801
X18923Y-82042
X19939Y-27940
X19939Y-75819
X20193Y-84582
X20955Y-59944
X20955Y-63246
X21971Y-75946
X22225Y-68961
X22465Y-49262
X23813Y-22924
X23876Y-60071
X24511Y-20320
X24892Y-60071
X24892Y-74930
X24892Y-83820
X26162Y-25400
X26416Y-89154
X27686Y-35560
X27813Y-76327
X28067Y-53086
X28765Y-64325
X28765Y-66548
X29083Y-51943
X29718Y-55880
X30607Y-64389
X31115Y-85852
X31496Y-80010
X33147Y-9017
X35433Y-9017
X35687Y-81661
X36322Y-73914
X36322Y-77216
X36449Y-74930
X37084Y-62230
X38354Y-74930
X38354Y-78994
X38735Y-56134
X40005Y-85852
X40132Y-81788
X41656Y-50673
X41910Y-84836
X42418Y-62230
X43434Y-54356
X43434Y-71374
X44196Y-42418
X44450Y-54356
X44450Y-70358
X45466Y-54356
X45466Y-69342
X45720Y-84836
X46101Y-10160
X46482Y-33528
X46482Y-36322
X47371Y-78359
X47435Y-61024
X47498Y-62230
X47752Y-81788
X48006Y-10160
X48768Y-65151
X49530Y-84836
X50038Y-70358
X50800Y-57023
X51181Y-64135
X51181Y-68326
X51562Y-76708
X51689Y-61468
X52324Y-82677
X52578Y-48641
X52578Y-48641
X52578Y-79756
X53848Y-81788
X54610Y-54229
X54610Y-55372
X56960Y-60198
X56960Y-60198
X57404Y-70358
X57404Y-71374
X58547Y-44958
X59436Y-70358
X60198Y-80264
X61214Y-81026
X61214Y-83312
X61214Y-86106
X62230Y-80010
X62484Y-74295
X62611Y-63627
X62738Y-72390
X63564Y-47625
X65278Y-83312
X65405Y-75184
X66167Y-72390
X67564Y-83312
X70739Y-69723
X70866Y-87122
X70866Y-89154
X71628Y-68834
X72136Y-81788
X73406Y-68834
X75692Y-79756
X76708Y-78994
X79502Y-91948
X80391Y-95885
X81280Y-82804
X81280Y-89027
X81280Y-91948
X82995Y-51244
X82995Y-51244
X83312Y-70104
X84709Y-91948
X87884Y-79756
X90170Y-65278
X90170Y-81280
T2
X86360Y-73660
X87630Y-72390
X87630Y-74930
T3
X54737Y-39751
X54737Y-44831
X56134Y-86106
X58674Y-86106
X59182Y-62230
X59182Y-67310
X61214Y-86106
X61976Y-49530
X61976Y-54610
X62103Y-39751
X62103Y-44831
X63754Y-86106
X66294Y-86106
X68834Y-49616
X68834Y-54696
X68834Y-86106
X75184Y-62738
X77216Y-89916
X77216Y-94996
X80264Y-62738
T4
X12700Y0
X12700Y-2540
X12700Y-5080
X12700Y-7620
X12700Y-10160
X12700Y-12700
X12700Y-15240
X12700Y-17780
X12700Y-20320
X12700Y-22860
X12700Y-25400
X12700Y-27940
X12700Y-30480
X12700Y-33020
X12700Y-35560
X12700Y-38100
X12700Y-40640
X12700Y-43180
X12700Y-45720
X38100Y0
X38100Y-2540
X38100Y-5080
X38100Y-7620
X38100Y-10160
X38100Y-12700
X38100Y-15240
X38100Y-17780
X38100Y-20320
X38100Y-22860
X38100Y-25400
X38100Y-27940
X38100Y-30480
X38100Y-33020
X38100Y-35560
X38100Y-38100
X38100Y-40640
X38100Y-43180
X38100Y-45720
X55245Y-2540
X55245Y-5080
X55245Y-7620
X55245Y-15240
X55245Y-17780
X55245Y-20320
X55245Y-27940
X55245Y-30480
X55245Y-33020
X62865Y-2540
X62865Y-5080
X62865Y-7620
X62865Y-15240
X62865Y-17780
X62865Y-20320
X62865Y-27940
X62865Y-30480
X62865Y-33020
X66040Y-635
X66040Y-10795
X66040Y-13335
X66040Y-23495
X66040Y-26035
X66040Y-36195
X70612Y-755
X70612Y-8255
X70612Y-13455
X70612Y-20955
X70612Y-26155
X70612Y-33655
X74930Y-635
X74930Y-10795
X74930Y-13335
X74930Y-23495
X74930Y-26035
X74930Y-36195
X84836Y-635
X84836Y-10635
X84836Y-13462
X84836Y-23462
X84836Y-26670
X84836Y-36670
X86865Y-53220
X88265Y-45720
X88900Y-635
X88900Y-10795
X88900Y-13335
X88900Y-23495
X88900Y-26162
X88900Y-36322
X88900Y-39878
X89916Y-83820
X89916Y-93980
X96400Y-41278
T5
X3810Y-41910
X3810Y-44450
X3810Y-46990
X3810Y-49530
X6350Y-41910
X6350Y-44450
X6350Y-46990
X6350Y-49530
X32639Y-62738
X32639Y-65278
X32639Y-67818
X44958Y-72898
X44958Y-75438
X44958Y-77978
X49911Y-72898
X49911Y-75438
X49911Y-77978
X77216Y-80772
X77216Y-83312
X77216Y-85852
X85852Y-78740
X85852Y-81280
X85852Y-83820
X85852Y-86360
X96012Y-78740
X96012Y-81280
X96012Y-83820
X96012Y-86360
T6
X78740Y-1905
X78740Y-4445
X78740Y-6985
X78740Y-14605
X78740Y-17145
X78740Y-19685
X78740Y-27305
X78740Y-29845
X78740Y-32385
T7
X67564Y-63072
X67564Y-68072
X68406Y-42164
X73406Y-42164
X77978Y-42164
X82978Y-42164
T8
X4064Y-59690
X4064Y-64770
X4064Y-70358
X4064Y-75438
X4064Y-81026
X4064Y-86106
X10287Y-93726
X15367Y-93726
X20447Y-93726
X25527Y-93726
X30607Y-93726
X35687Y-93726
X40767Y-93726
X45847Y-93726
X50927Y-93726
X56007Y-93726
X61087Y-93726
X66167Y-93726
X71247Y-93726
X94996Y-8890
X94996Y-13970
X94996Y-19050
X94996Y-24130
X94996Y-29210
X94996Y-45720
X94996Y-50800
X94996Y-56134
X94996Y-61214
X94996Y-66294
X94996Y-71374
T9
X3556Y-2286
X3556Y-94234
X95504Y-2286
X95504Y-94234
T0
M30
