G04 #@! TF.GenerationSoftware,KiCad,Pcbnew,5.1.9-73d0e3b20d~88~ubuntu20.04.1*
G04 #@! TF.CreationDate,2021-03-09T21:18:06-03:00*
G04 #@! TF.ProjectId,std_board,7374645f-626f-4617-9264-2e6b69636164,rev?*
G04 #@! TF.SameCoordinates,Original*
G04 #@! TF.FileFunction,Legend,Bot*
G04 #@! TF.FilePolarity,Positive*
%FSLAX46Y46*%
G04 Gerber Fmt 4.6, Leading zero omitted, Abs format (unit mm)*
G04 Created by KiCad (PCBNEW 5.1.9-73d0e3b20d~88~ubuntu20.04.1) date 2021-03-09 21:18:06*
%MOMM*%
%LPD*%
G01*
G04 APERTURE LIST*
%ADD10C,0.150000*%
%ADD11C,0.140000*%
%ADD12C,0.120000*%
%ADD13C,0.152400*%
G04 APERTURE END LIST*
D10*
X85765000Y-64175000D02*
X86765000Y-64175000D01*
X86765000Y-62825000D02*
X85765000Y-62825000D01*
X16597000Y-75446000D02*
X16597000Y-76446000D01*
X17947000Y-76446000D02*
X17947000Y-75446000D01*
X16597000Y-84082000D02*
X16597000Y-85082000D01*
X17947000Y-85082000D02*
X17947000Y-84082000D01*
D11*
X86749000Y-59476000D02*
X87749000Y-59476000D01*
X87749000Y-58126000D02*
X86749000Y-58126000D01*
D10*
X25741000Y-84082000D02*
X25741000Y-85082000D01*
X27091000Y-85082000D02*
X27091000Y-84082000D01*
X25741000Y-75192000D02*
X25741000Y-76192000D01*
X27091000Y-76192000D02*
X27091000Y-75192000D01*
D12*
X89665000Y-61850000D02*
X84265000Y-61850000D01*
X89665000Y-65150000D02*
X84265000Y-65150000D01*
X89665000Y-61850000D02*
X89665000Y-65150000D01*
D10*
X49744000Y-45982000D02*
X49744000Y-46982000D01*
X51094000Y-46982000D02*
X51094000Y-45982000D01*
D11*
X49494000Y-54972000D02*
X55504000Y-54972000D01*
X51744000Y-48152000D02*
X55504000Y-48152000D01*
X55504000Y-54972000D02*
X55504000Y-53712000D01*
X55504000Y-48152000D02*
X55504000Y-49412000D01*
X16518000Y-23535000D02*
X17518000Y-23535000D01*
X17518000Y-22185000D02*
X16518000Y-22185000D01*
X17518000Y-24725000D02*
X16518000Y-24725000D01*
X16518000Y-26075000D02*
X17518000Y-26075000D01*
D10*
X9898000Y-90130000D02*
X8898000Y-90130000D01*
X8898000Y-91480000D02*
X9898000Y-91480000D01*
D11*
X21836000Y-22185000D02*
X20836000Y-22185000D01*
X20836000Y-23535000D02*
X21836000Y-23535000D01*
X20836000Y-20995000D02*
X21836000Y-20995000D01*
X21836000Y-19645000D02*
X20836000Y-19645000D01*
X16518000Y-28615000D02*
X17518000Y-28615000D01*
X17518000Y-27265000D02*
X16518000Y-27265000D01*
X86011248Y-60511000D02*
X88783752Y-60511000D01*
X86011248Y-57091000D02*
X88783752Y-57091000D01*
X94012248Y-33596000D02*
X96784752Y-33596000D01*
X94012248Y-37016000D02*
X96784752Y-37016000D01*
X16518000Y-31155000D02*
X17518000Y-31155000D01*
X17518000Y-29805000D02*
X16518000Y-29805000D01*
D10*
X95004000Y-35981000D02*
X96004000Y-35981000D01*
X96004000Y-34631000D02*
X95004000Y-34631000D01*
X62095000Y-46569000D02*
X61095000Y-46569000D01*
X61095000Y-47919000D02*
X62095000Y-47919000D01*
X53332000Y-46569000D02*
X52332000Y-46569000D01*
X52332000Y-47919000D02*
X53332000Y-47919000D01*
X58174000Y-47919000D02*
X59174000Y-47919000D01*
X59174000Y-46569000D02*
X58174000Y-46569000D01*
X55253000Y-47919000D02*
X56253000Y-47919000D01*
X56253000Y-46569000D02*
X55253000Y-46569000D01*
X17518000Y-34885000D02*
X16518000Y-34885000D01*
X16518000Y-36235000D02*
X17518000Y-36235000D01*
D13*
X84629523Y-62952380D02*
X84629523Y-63666666D01*
X84677142Y-63809523D01*
X84772380Y-63904761D01*
X84915238Y-63952380D01*
X85010476Y-63952380D01*
X83629523Y-63952380D02*
X84200952Y-63952380D01*
X83915238Y-63952380D02*
X83915238Y-62952380D01*
X84010476Y-63095238D01*
X84105714Y-63190476D01*
X84200952Y-63238095D01*
X82772380Y-62952380D02*
X82962857Y-62952380D01*
X83058095Y-63000000D01*
X83105714Y-63047619D01*
X83200952Y-63190476D01*
X83248571Y-63380952D01*
X83248571Y-63761904D01*
X83200952Y-63857142D01*
X83153333Y-63904761D01*
X83058095Y-63952380D01*
X82867619Y-63952380D01*
X82772380Y-63904761D01*
X82724761Y-63857142D01*
X82677142Y-63761904D01*
X82677142Y-63523809D01*
X82724761Y-63428571D01*
X82772380Y-63380952D01*
X82867619Y-63333333D01*
X83058095Y-63333333D01*
X83153333Y-63380952D01*
X83200952Y-63428571D01*
X83248571Y-63523809D01*
X14824380Y-75612666D02*
X15538666Y-75612666D01*
X15681523Y-75565047D01*
X15776761Y-75469809D01*
X15824380Y-75326952D01*
X15824380Y-75231714D01*
X14824380Y-76565047D02*
X14824380Y-76088857D01*
X15300571Y-76041238D01*
X15252952Y-76088857D01*
X15205333Y-76184095D01*
X15205333Y-76422190D01*
X15252952Y-76517428D01*
X15300571Y-76565047D01*
X15395809Y-76612666D01*
X15633904Y-76612666D01*
X15729142Y-76565047D01*
X15776761Y-76517428D01*
X15824380Y-76422190D01*
X15824380Y-76184095D01*
X15776761Y-76088857D01*
X15729142Y-76041238D01*
X15200380Y-84248666D02*
X15914666Y-84248666D01*
X16057523Y-84201047D01*
X16152761Y-84105809D01*
X16200380Y-83962952D01*
X16200380Y-83867714D01*
X15533714Y-85153428D02*
X16200380Y-85153428D01*
X15152761Y-84915333D02*
X15867047Y-84677238D01*
X15867047Y-85296285D01*
X90182619Y-58507380D02*
X90182619Y-59221666D01*
X90220714Y-59364523D01*
X90296904Y-59459761D01*
X90411190Y-59507380D01*
X90487380Y-59507380D01*
X89877857Y-58507380D02*
X89382619Y-58507380D01*
X89649285Y-58888333D01*
X89535000Y-58888333D01*
X89458809Y-58935952D01*
X89420714Y-58983571D01*
X89382619Y-59078809D01*
X89382619Y-59316904D01*
X89420714Y-59412142D01*
X89458809Y-59459761D01*
X89535000Y-59507380D01*
X89763571Y-59507380D01*
X89839761Y-59459761D01*
X89877857Y-59412142D01*
X88620714Y-59507380D02*
X89077857Y-59507380D01*
X88849285Y-59507380D02*
X88849285Y-58507380D01*
X88925476Y-58650238D01*
X89001666Y-58745476D01*
X89077857Y-58793095D01*
X23968380Y-83772476D02*
X24682666Y-83772476D01*
X24825523Y-83724857D01*
X24920761Y-83629619D01*
X24968380Y-83486761D01*
X24968380Y-83391523D01*
X24968380Y-84772476D02*
X24968380Y-84201047D01*
X24968380Y-84486761D02*
X23968380Y-84486761D01*
X24111238Y-84391523D01*
X24206476Y-84296285D01*
X24254095Y-84201047D01*
X24968380Y-85724857D02*
X24968380Y-85153428D01*
X24968380Y-85439142D02*
X23968380Y-85439142D01*
X24111238Y-85343904D01*
X24206476Y-85248666D01*
X24254095Y-85153428D01*
X23968380Y-74882476D02*
X24682666Y-74882476D01*
X24825523Y-74834857D01*
X24920761Y-74739619D01*
X24968380Y-74596761D01*
X24968380Y-74501523D01*
X24968380Y-75882476D02*
X24968380Y-75311047D01*
X24968380Y-75596761D02*
X23968380Y-75596761D01*
X24111238Y-75501523D01*
X24206476Y-75406285D01*
X24254095Y-75311047D01*
X24063619Y-76263428D02*
X24016000Y-76311047D01*
X23968380Y-76406285D01*
X23968380Y-76644380D01*
X24016000Y-76739619D01*
X24063619Y-76787238D01*
X24158857Y-76834857D01*
X24254095Y-76834857D01*
X24396952Y-76787238D01*
X24968380Y-76215809D01*
X24968380Y-76834857D01*
D10*
X88220476Y-63861904D02*
X88220476Y-63061904D01*
X88030000Y-63061904D01*
X87915714Y-63100000D01*
X87839523Y-63176190D01*
X87801428Y-63252380D01*
X87763333Y-63404761D01*
X87763333Y-63519047D01*
X87801428Y-63671428D01*
X87839523Y-63747619D01*
X87915714Y-63823809D01*
X88030000Y-63861904D01*
X88220476Y-63861904D01*
X87077619Y-63328571D02*
X87077619Y-63861904D01*
X87268095Y-63023809D02*
X87458571Y-63595238D01*
X86963333Y-63595238D01*
D13*
X49980904Y-43294380D02*
X50552333Y-43294380D01*
X50666619Y-43256285D01*
X50742809Y-43180095D01*
X50780904Y-43065809D01*
X50780904Y-42989619D01*
X49980904Y-43599142D02*
X49980904Y-44094380D01*
X50285666Y-43827714D01*
X50285666Y-43942000D01*
X50323761Y-44018190D01*
X50361857Y-44056285D01*
X50438047Y-44094380D01*
X50628523Y-44094380D01*
X50704714Y-44056285D01*
X50742809Y-44018190D01*
X50780904Y-43942000D01*
X50780904Y-43713428D01*
X50742809Y-43637238D01*
X50704714Y-43599142D01*
X49980904Y-44818190D02*
X49980904Y-44437238D01*
X50361857Y-44399142D01*
X50323761Y-44437238D01*
X50285666Y-44513428D01*
X50285666Y-44703904D01*
X50323761Y-44780095D01*
X50361857Y-44818190D01*
X50438047Y-44856285D01*
X50628523Y-44856285D01*
X50704714Y-44818190D01*
X50742809Y-44780095D01*
X50780904Y-44703904D01*
X50780904Y-44513428D01*
X50742809Y-44437238D01*
X50704714Y-44399142D01*
D10*
X54374952Y-56514380D02*
X54374952Y-55514380D01*
X53536857Y-56419142D02*
X53574952Y-56466761D01*
X53689238Y-56514380D01*
X53765428Y-56514380D01*
X53879714Y-56466761D01*
X53955904Y-56371523D01*
X53994000Y-56276285D01*
X54032095Y-56085809D01*
X54032095Y-55942952D01*
X53994000Y-55752476D01*
X53955904Y-55657238D01*
X53879714Y-55562000D01*
X53765428Y-55514380D01*
X53689238Y-55514380D01*
X53574952Y-55562000D01*
X53536857Y-55609619D01*
X52851142Y-55847714D02*
X52851142Y-56514380D01*
X53041619Y-55466761D02*
X53232095Y-56181047D01*
X52736857Y-56181047D01*
D13*
X19570666Y-22312380D02*
X19570666Y-23026666D01*
X19608761Y-23169523D01*
X19684952Y-23264761D01*
X19799238Y-23312380D01*
X19875428Y-23312380D01*
X19265904Y-22312380D02*
X18732571Y-22312380D01*
X19075428Y-23312380D01*
X19570666Y-24852380D02*
X19570666Y-25566666D01*
X19608761Y-25709523D01*
X19684952Y-25804761D01*
X19799238Y-25852380D01*
X19875428Y-25852380D01*
X19075428Y-25280952D02*
X19151619Y-25233333D01*
X19189714Y-25185714D01*
X19227809Y-25090476D01*
X19227809Y-25042857D01*
X19189714Y-24947619D01*
X19151619Y-24900000D01*
X19075428Y-24852380D01*
X18923047Y-24852380D01*
X18846857Y-24900000D01*
X18808761Y-24947619D01*
X18770666Y-25042857D01*
X18770666Y-25090476D01*
X18808761Y-25185714D01*
X18846857Y-25233333D01*
X18923047Y-25280952D01*
X19075428Y-25280952D01*
X19151619Y-25328571D01*
X19189714Y-25376190D01*
X19227809Y-25471428D01*
X19227809Y-25661904D01*
X19189714Y-25757142D01*
X19151619Y-25804761D01*
X19075428Y-25852380D01*
X18923047Y-25852380D01*
X18846857Y-25804761D01*
X18808761Y-25757142D01*
X18770666Y-25661904D01*
X18770666Y-25471428D01*
X18808761Y-25376190D01*
X18846857Y-25328571D01*
X18923047Y-25280952D01*
X9731333Y-88357380D02*
X9731333Y-89071666D01*
X9778952Y-89214523D01*
X9874190Y-89309761D01*
X10017047Y-89357380D01*
X10112285Y-89357380D01*
X9207523Y-89357380D02*
X9017047Y-89357380D01*
X8921809Y-89309761D01*
X8874190Y-89262142D01*
X8778952Y-89119285D01*
X8731333Y-88928809D01*
X8731333Y-88547857D01*
X8778952Y-88452619D01*
X8826571Y-88405000D01*
X8921809Y-88357380D01*
X9112285Y-88357380D01*
X9207523Y-88405000D01*
X9255142Y-88452619D01*
X9302761Y-88547857D01*
X9302761Y-88785952D01*
X9255142Y-88881190D01*
X9207523Y-88928809D01*
X9112285Y-88976428D01*
X8921809Y-88976428D01*
X8826571Y-88928809D01*
X8778952Y-88881190D01*
X8731333Y-88785952D01*
X24523619Y-22312380D02*
X24523619Y-23026666D01*
X24561714Y-23169523D01*
X24637904Y-23264761D01*
X24752190Y-23312380D01*
X24828380Y-23312380D01*
X24180761Y-22407619D02*
X24142666Y-22360000D01*
X24066476Y-22312380D01*
X23876000Y-22312380D01*
X23799809Y-22360000D01*
X23761714Y-22407619D01*
X23723619Y-22502857D01*
X23723619Y-22598095D01*
X23761714Y-22740952D01*
X24218857Y-23312380D01*
X23723619Y-23312380D01*
X23418857Y-22407619D02*
X23380761Y-22360000D01*
X23304571Y-22312380D01*
X23114095Y-22312380D01*
X23037904Y-22360000D01*
X22999809Y-22407619D01*
X22961714Y-22502857D01*
X22961714Y-22598095D01*
X22999809Y-22740952D01*
X23456952Y-23312380D01*
X22961714Y-23312380D01*
X24523619Y-19772380D02*
X24523619Y-20486666D01*
X24561714Y-20629523D01*
X24637904Y-20724761D01*
X24752190Y-20772380D01*
X24828380Y-20772380D01*
X24180761Y-19867619D02*
X24142666Y-19820000D01*
X24066476Y-19772380D01*
X23876000Y-19772380D01*
X23799809Y-19820000D01*
X23761714Y-19867619D01*
X23723619Y-19962857D01*
X23723619Y-20058095D01*
X23761714Y-20200952D01*
X24218857Y-20772380D01*
X23723619Y-20772380D01*
X23037904Y-20105714D02*
X23037904Y-20772380D01*
X23228380Y-19724761D02*
X23418857Y-20439047D01*
X22923619Y-20439047D01*
X20205619Y-27392380D02*
X20205619Y-28106666D01*
X20243714Y-28249523D01*
X20319904Y-28344761D01*
X20434190Y-28392380D01*
X20510380Y-28392380D01*
X19862761Y-27487619D02*
X19824666Y-27440000D01*
X19748476Y-27392380D01*
X19558000Y-27392380D01*
X19481809Y-27440000D01*
X19443714Y-27487619D01*
X19405619Y-27582857D01*
X19405619Y-27678095D01*
X19443714Y-27820952D01*
X19900857Y-28392380D01*
X19405619Y-28392380D01*
X18681809Y-27392380D02*
X19062761Y-27392380D01*
X19100857Y-27868571D01*
X19062761Y-27820952D01*
X18986571Y-27773333D01*
X18796095Y-27773333D01*
X18719904Y-27820952D01*
X18681809Y-27868571D01*
X18643714Y-27963809D01*
X18643714Y-28201904D01*
X18681809Y-28297142D01*
X18719904Y-28344761D01*
X18796095Y-28392380D01*
X18986571Y-28392380D01*
X19062761Y-28344761D01*
X19100857Y-28297142D01*
D10*
X85356666Y-58983571D02*
X85623333Y-58983571D01*
X85623333Y-59507380D02*
X85623333Y-58507380D01*
X85242380Y-58507380D01*
X85013809Y-58507380D02*
X84518571Y-58507380D01*
X84785238Y-58888333D01*
X84670952Y-58888333D01*
X84594761Y-58935952D01*
X84556666Y-58983571D01*
X84518571Y-59078809D01*
X84518571Y-59316904D01*
X84556666Y-59412142D01*
X84594761Y-59459761D01*
X84670952Y-59507380D01*
X84899523Y-59507380D01*
X84975714Y-59459761D01*
X85013809Y-59412142D01*
X91071666Y-37393571D02*
X91338333Y-37393571D01*
X91338333Y-37917380D02*
X91338333Y-36917380D01*
X90957380Y-36917380D01*
X90233571Y-37917380D02*
X90690714Y-37917380D01*
X90462142Y-37917380D02*
X90462142Y-36917380D01*
X90538333Y-37060238D01*
X90614523Y-37155476D01*
X90690714Y-37203095D01*
D13*
X20078619Y-29932380D02*
X20078619Y-30646666D01*
X20116714Y-30789523D01*
X20192904Y-30884761D01*
X20307190Y-30932380D01*
X20383380Y-30932380D01*
X19735761Y-30027619D02*
X19697666Y-29980000D01*
X19621476Y-29932380D01*
X19431000Y-29932380D01*
X19354809Y-29980000D01*
X19316714Y-30027619D01*
X19278619Y-30122857D01*
X19278619Y-30218095D01*
X19316714Y-30360952D01*
X19773857Y-30932380D01*
X19278619Y-30932380D01*
X18592904Y-29932380D02*
X18745285Y-29932380D01*
X18821476Y-29980000D01*
X18859571Y-30027619D01*
X18935761Y-30170476D01*
X18973857Y-30360952D01*
X18973857Y-30741904D01*
X18935761Y-30837142D01*
X18897666Y-30884761D01*
X18821476Y-30932380D01*
X18669095Y-30932380D01*
X18592904Y-30884761D01*
X18554809Y-30837142D01*
X18516714Y-30741904D01*
X18516714Y-30503809D01*
X18554809Y-30408571D01*
X18592904Y-30360952D01*
X18669095Y-30313333D01*
X18821476Y-30313333D01*
X18897666Y-30360952D01*
X18935761Y-30408571D01*
X18973857Y-30503809D01*
D10*
X97607428Y-55840666D02*
X97607428Y-56602571D01*
X97988380Y-56221619D02*
X97226476Y-56221619D01*
X96988380Y-57554952D02*
X96988380Y-57078761D01*
X97464571Y-57031142D01*
X97416952Y-57078761D01*
X97369333Y-57174000D01*
X97369333Y-57412095D01*
X97416952Y-57507333D01*
X97464571Y-57554952D01*
X97559809Y-57602571D01*
X97797904Y-57602571D01*
X97893142Y-57554952D01*
X97940761Y-57507333D01*
X97988380Y-57412095D01*
X97988380Y-57174000D01*
X97940761Y-57078761D01*
X97893142Y-57031142D01*
X96988380Y-57888285D02*
X97988380Y-58221619D01*
X96988380Y-58554952D01*
X98083619Y-58650190D02*
X98083619Y-59412095D01*
X97988380Y-59650190D02*
X96988380Y-59650190D01*
X97321714Y-60126380D02*
X97988380Y-60126380D01*
X97416952Y-60126380D02*
X97369333Y-60174000D01*
X97321714Y-60269238D01*
X97321714Y-60412095D01*
X97369333Y-60507333D01*
X97464571Y-60554952D01*
X97988380Y-60554952D01*
X97083619Y-60983523D02*
X97036000Y-61031142D01*
X96988380Y-61126380D01*
X96988380Y-61364476D01*
X97036000Y-61459714D01*
X97083619Y-61507333D01*
X97178857Y-61554952D01*
X97274095Y-61554952D01*
X97416952Y-61507333D01*
X97988380Y-60935904D01*
X97988380Y-61554952D01*
X97083619Y-44894952D02*
X97036000Y-44942571D01*
X96988380Y-45037809D01*
X96988380Y-45275904D01*
X97036000Y-45371142D01*
X97083619Y-45418761D01*
X97178857Y-45466380D01*
X97274095Y-45466380D01*
X97416952Y-45418761D01*
X97988380Y-44847333D01*
X97988380Y-45466380D01*
X97321714Y-46323523D02*
X97988380Y-46323523D01*
X96940761Y-46085428D02*
X97655047Y-45847333D01*
X97655047Y-46466380D01*
X96988380Y-46704476D02*
X97988380Y-47037809D01*
X96988380Y-47371142D01*
X97988380Y-48133047D02*
X97464571Y-48133047D01*
X97369333Y-48085428D01*
X97321714Y-47990190D01*
X97321714Y-47799714D01*
X97369333Y-47704476D01*
X97940761Y-48133047D02*
X97988380Y-48037809D01*
X97988380Y-47799714D01*
X97940761Y-47704476D01*
X97845523Y-47656857D01*
X97750285Y-47656857D01*
X97655047Y-47704476D01*
X97607428Y-47799714D01*
X97607428Y-48037809D01*
X97559809Y-48133047D01*
X97940761Y-49037809D02*
X97988380Y-48942571D01*
X97988380Y-48752095D01*
X97940761Y-48656857D01*
X97893142Y-48609238D01*
X97797904Y-48561619D01*
X97512190Y-48561619D01*
X97416952Y-48609238D01*
X97369333Y-48656857D01*
X97321714Y-48752095D01*
X97321714Y-48942571D01*
X97369333Y-49037809D01*
X98083619Y-49228285D02*
X98083619Y-49990190D01*
X97988380Y-50228285D02*
X96988380Y-50228285D01*
X97321714Y-50704476D02*
X97988380Y-50704476D01*
X97416952Y-50704476D02*
X97369333Y-50752095D01*
X97321714Y-50847333D01*
X97321714Y-50990190D01*
X97369333Y-51085428D01*
X97464571Y-51133047D01*
X97988380Y-51133047D01*
X97988380Y-52133047D02*
X97988380Y-51561619D01*
X97988380Y-51847333D02*
X96988380Y-51847333D01*
X97131238Y-51752095D01*
X97226476Y-51656857D01*
X97274095Y-51561619D01*
X97702666Y-14494380D02*
X97702666Y-14970571D01*
X97988380Y-14399142D02*
X96988380Y-14732476D01*
X97988380Y-15065809D01*
X97893142Y-15970571D02*
X97940761Y-15922952D01*
X97988380Y-15780095D01*
X97988380Y-15684857D01*
X97940761Y-15542000D01*
X97845523Y-15446761D01*
X97750285Y-15399142D01*
X97559809Y-15351523D01*
X97416952Y-15351523D01*
X97226476Y-15399142D01*
X97131238Y-15446761D01*
X97036000Y-15542000D01*
X96988380Y-15684857D01*
X96988380Y-15780095D01*
X97036000Y-15922952D01*
X97083619Y-15970571D01*
X98083619Y-16161047D02*
X98083619Y-16922952D01*
X96988380Y-17351523D02*
X96988380Y-17542000D01*
X97036000Y-17637238D01*
X97131238Y-17732476D01*
X97321714Y-17780095D01*
X97655047Y-17780095D01*
X97845523Y-17732476D01*
X97940761Y-17637238D01*
X97988380Y-17542000D01*
X97988380Y-17351523D01*
X97940761Y-17256285D01*
X97845523Y-17161047D01*
X97655047Y-17113428D01*
X97321714Y-17113428D01*
X97131238Y-17161047D01*
X97036000Y-17256285D01*
X96988380Y-17351523D01*
X97321714Y-18637238D02*
X97988380Y-18637238D01*
X97321714Y-18208666D02*
X97845523Y-18208666D01*
X97940761Y-18256285D01*
X97988380Y-18351523D01*
X97988380Y-18494380D01*
X97940761Y-18589619D01*
X97893142Y-18637238D01*
X97321714Y-18970571D02*
X97321714Y-19351523D01*
X96988380Y-19113428D02*
X97845523Y-19113428D01*
X97940761Y-19161047D01*
X97988380Y-19256285D01*
X97988380Y-19351523D01*
X97321714Y-19684857D02*
X98321714Y-19684857D01*
X97369333Y-19684857D02*
X97321714Y-19780095D01*
X97321714Y-19970571D01*
X97369333Y-20065809D01*
X97416952Y-20113428D01*
X97512190Y-20161047D01*
X97797904Y-20161047D01*
X97893142Y-20113428D01*
X97940761Y-20065809D01*
X97988380Y-19970571D01*
X97988380Y-19780095D01*
X97940761Y-19684857D01*
X97321714Y-21018190D02*
X97988380Y-21018190D01*
X97321714Y-20589619D02*
X97845523Y-20589619D01*
X97940761Y-20637238D01*
X97988380Y-20732476D01*
X97988380Y-20875333D01*
X97940761Y-20970571D01*
X97893142Y-21018190D01*
X97321714Y-21351523D02*
X97321714Y-21732476D01*
X96988380Y-21494380D02*
X97845523Y-21494380D01*
X97940761Y-21542000D01*
X97988380Y-21637238D01*
X97988380Y-21732476D01*
X97988380Y-22589619D02*
X97988380Y-22018190D01*
X97988380Y-22303904D02*
X96988380Y-22303904D01*
X97131238Y-22208666D01*
X97226476Y-22113428D01*
X97274095Y-22018190D01*
X97940761Y-63429238D02*
X97988380Y-63334000D01*
X97988380Y-63143523D01*
X97940761Y-63048285D01*
X97893142Y-63000666D01*
X97797904Y-62953047D01*
X97512190Y-62953047D01*
X97416952Y-63000666D01*
X97369333Y-63048285D01*
X97321714Y-63143523D01*
X97321714Y-63334000D01*
X97369333Y-63429238D01*
X97321714Y-64286380D02*
X97988380Y-64286380D01*
X97321714Y-63857809D02*
X97845523Y-63857809D01*
X97940761Y-63905428D01*
X97988380Y-64000666D01*
X97988380Y-64143523D01*
X97940761Y-64238761D01*
X97893142Y-64286380D01*
X97988380Y-64762571D02*
X97321714Y-64762571D01*
X97512190Y-64762571D02*
X97416952Y-64810190D01*
X97369333Y-64857809D01*
X97321714Y-64953047D01*
X97321714Y-65048285D01*
X97988380Y-65381619D02*
X97321714Y-65381619D01*
X97512190Y-65381619D02*
X97416952Y-65429238D01*
X97369333Y-65476857D01*
X97321714Y-65572095D01*
X97321714Y-65667333D01*
X97940761Y-66381619D02*
X97988380Y-66286380D01*
X97988380Y-66095904D01*
X97940761Y-66000666D01*
X97845523Y-65953047D01*
X97464571Y-65953047D01*
X97369333Y-66000666D01*
X97321714Y-66095904D01*
X97321714Y-66286380D01*
X97369333Y-66381619D01*
X97464571Y-66429238D01*
X97559809Y-66429238D01*
X97655047Y-65953047D01*
X97321714Y-66857809D02*
X97988380Y-66857809D01*
X97416952Y-66857809D02*
X97369333Y-66905428D01*
X97321714Y-67000666D01*
X97321714Y-67143523D01*
X97369333Y-67238761D01*
X97464571Y-67286380D01*
X97988380Y-67286380D01*
X97321714Y-67619714D02*
X97321714Y-68000666D01*
X96988380Y-67762571D02*
X97845523Y-67762571D01*
X97940761Y-67810190D01*
X97988380Y-67905428D01*
X97988380Y-68000666D01*
X97940761Y-68286380D02*
X97988380Y-68429238D01*
X97988380Y-68667333D01*
X97940761Y-68762571D01*
X97893142Y-68810190D01*
X97797904Y-68857809D01*
X97702666Y-68857809D01*
X97607428Y-68810190D01*
X97559809Y-68762571D01*
X97512190Y-68667333D01*
X97464571Y-68476857D01*
X97416952Y-68381619D01*
X97369333Y-68334000D01*
X97274095Y-68286380D01*
X97178857Y-68286380D01*
X97083619Y-68334000D01*
X97036000Y-68381619D01*
X96988380Y-68476857D01*
X96988380Y-68714952D01*
X97036000Y-68857809D01*
X97988380Y-69429238D02*
X97940761Y-69334000D01*
X97893142Y-69286380D01*
X97797904Y-69238761D01*
X97512190Y-69238761D01*
X97416952Y-69286380D01*
X97369333Y-69334000D01*
X97321714Y-69429238D01*
X97321714Y-69572095D01*
X97369333Y-69667333D01*
X97416952Y-69714952D01*
X97512190Y-69762571D01*
X97797904Y-69762571D01*
X97893142Y-69714952D01*
X97940761Y-69667333D01*
X97988380Y-69572095D01*
X97988380Y-69429238D01*
X97321714Y-70619714D02*
X97988380Y-70619714D01*
X97321714Y-70191142D02*
X97845523Y-70191142D01*
X97940761Y-70238761D01*
X97988380Y-70334000D01*
X97988380Y-70476857D01*
X97940761Y-70572095D01*
X97893142Y-70619714D01*
X97988380Y-71095904D02*
X97321714Y-71095904D01*
X97512190Y-71095904D02*
X97416952Y-71143523D01*
X97369333Y-71191142D01*
X97321714Y-71286380D01*
X97321714Y-71381619D01*
X97940761Y-72143523D02*
X97988380Y-72048285D01*
X97988380Y-71857809D01*
X97940761Y-71762571D01*
X97893142Y-71714952D01*
X97797904Y-71667333D01*
X97512190Y-71667333D01*
X97416952Y-71714952D01*
X97369333Y-71762571D01*
X97321714Y-71857809D01*
X97321714Y-72048285D01*
X97369333Y-72143523D01*
X97940761Y-72953047D02*
X97988380Y-72857809D01*
X97988380Y-72667333D01*
X97940761Y-72572095D01*
X97845523Y-72524476D01*
X97464571Y-72524476D01*
X97369333Y-72572095D01*
X97321714Y-72667333D01*
X97321714Y-72857809D01*
X97369333Y-72953047D01*
X97464571Y-73000666D01*
X97559809Y-73000666D01*
X97655047Y-72524476D01*
X98083619Y-73191142D02*
X98083619Y-73953047D01*
X97988380Y-74714952D02*
X97988380Y-74143523D01*
X97988380Y-74429238D02*
X96988380Y-74429238D01*
X97131238Y-74334000D01*
X97226476Y-74238761D01*
X97274095Y-74143523D01*
X24637523Y-96464380D02*
X25113714Y-96464380D01*
X25113714Y-95464380D01*
X23923238Y-96416761D02*
X24018476Y-96464380D01*
X24208952Y-96464380D01*
X24304190Y-96416761D01*
X24351809Y-96321523D01*
X24351809Y-95940571D01*
X24304190Y-95845333D01*
X24208952Y-95797714D01*
X24018476Y-95797714D01*
X23923238Y-95845333D01*
X23875619Y-95940571D01*
X23875619Y-96035809D01*
X24351809Y-96131047D01*
X23542285Y-95797714D02*
X23304190Y-96464380D01*
X23066095Y-95797714D01*
X22304190Y-96416761D02*
X22399428Y-96464380D01*
X22589904Y-96464380D01*
X22685142Y-96416761D01*
X22732761Y-96321523D01*
X22732761Y-95940571D01*
X22685142Y-95845333D01*
X22589904Y-95797714D01*
X22399428Y-95797714D01*
X22304190Y-95845333D01*
X22256571Y-95940571D01*
X22256571Y-96035809D01*
X22732761Y-96131047D01*
X21685142Y-96464380D02*
X21780380Y-96416761D01*
X21828000Y-96321523D01*
X21828000Y-95464380D01*
X21351809Y-96416761D02*
X21208952Y-96464380D01*
X20970857Y-96464380D01*
X20875619Y-96416761D01*
X20828000Y-96369142D01*
X20780380Y-96273904D01*
X20780380Y-96178666D01*
X20828000Y-96083428D01*
X20875619Y-96035809D01*
X20970857Y-95988190D01*
X21161333Y-95940571D01*
X21256571Y-95892952D01*
X21304190Y-95845333D01*
X21351809Y-95750095D01*
X21351809Y-95654857D01*
X21304190Y-95559619D01*
X21256571Y-95512000D01*
X21161333Y-95464380D01*
X20923238Y-95464380D01*
X20780380Y-95512000D01*
X19970857Y-96416761D02*
X20066095Y-96464380D01*
X20256571Y-96464380D01*
X20351809Y-96416761D01*
X20399428Y-96321523D01*
X20399428Y-95940571D01*
X20351809Y-95845333D01*
X20256571Y-95797714D01*
X20066095Y-95797714D01*
X19970857Y-95845333D01*
X19923238Y-95940571D01*
X19923238Y-96035809D01*
X20399428Y-96131047D01*
X19494666Y-95797714D02*
X19494666Y-96464380D01*
X19494666Y-95892952D02*
X19447047Y-95845333D01*
X19351809Y-95797714D01*
X19208952Y-95797714D01*
X19113714Y-95845333D01*
X19066095Y-95940571D01*
X19066095Y-96464380D01*
X18637523Y-96416761D02*
X18542285Y-96464380D01*
X18351809Y-96464380D01*
X18256571Y-96416761D01*
X18208952Y-96321523D01*
X18208952Y-96273904D01*
X18256571Y-96178666D01*
X18351809Y-96131047D01*
X18494666Y-96131047D01*
X18589904Y-96083428D01*
X18637523Y-95988190D01*
X18637523Y-95940571D01*
X18589904Y-95845333D01*
X18494666Y-95797714D01*
X18351809Y-95797714D01*
X18256571Y-95845333D01*
X18018476Y-96559619D02*
X17256571Y-96559619D01*
X16494666Y-96464380D02*
X17066095Y-96464380D01*
X16780380Y-96464380D02*
X16780380Y-95464380D01*
X16875619Y-95607238D01*
X16970857Y-95702476D01*
X17066095Y-95750095D01*
X73418095Y-95573904D02*
X73151428Y-96373904D01*
X72884761Y-95573904D01*
X72503809Y-96373904D02*
X72580000Y-96335809D01*
X72618095Y-96297714D01*
X72656190Y-96221523D01*
X72656190Y-95992952D01*
X72618095Y-95916761D01*
X72580000Y-95878666D01*
X72503809Y-95840571D01*
X72389523Y-95840571D01*
X72313333Y-95878666D01*
X72275238Y-95916761D01*
X72237142Y-95992952D01*
X72237142Y-96221523D01*
X72275238Y-96297714D01*
X72313333Y-96335809D01*
X72389523Y-96373904D01*
X72503809Y-96373904D01*
X71780000Y-96373904D02*
X71856190Y-96335809D01*
X71894285Y-96259619D01*
X71894285Y-95573904D01*
X71589523Y-95840571D02*
X71284761Y-95840571D01*
X71475238Y-95573904D02*
X71475238Y-96259619D01*
X71437142Y-96335809D01*
X71360952Y-96373904D01*
X71284761Y-96373904D01*
X71018095Y-96373904D02*
X71018095Y-95840571D01*
X71018095Y-95573904D02*
X71056190Y-95612000D01*
X71018095Y-95650095D01*
X70980000Y-95612000D01*
X71018095Y-95573904D01*
X71018095Y-95650095D01*
X70637142Y-96373904D02*
X70637142Y-95840571D01*
X70637142Y-95916761D02*
X70599047Y-95878666D01*
X70522857Y-95840571D01*
X70408571Y-95840571D01*
X70332380Y-95878666D01*
X70294285Y-95954857D01*
X70294285Y-96373904D01*
X70294285Y-95954857D02*
X70256190Y-95878666D01*
X70180000Y-95840571D01*
X70065714Y-95840571D01*
X69989523Y-95878666D01*
X69951428Y-95954857D01*
X69951428Y-96373904D01*
X69265714Y-96335809D02*
X69341904Y-96373904D01*
X69494285Y-96373904D01*
X69570476Y-96335809D01*
X69608571Y-96259619D01*
X69608571Y-95954857D01*
X69570476Y-95878666D01*
X69494285Y-95840571D01*
X69341904Y-95840571D01*
X69265714Y-95878666D01*
X69227619Y-95954857D01*
X69227619Y-96031047D01*
X69608571Y-96107238D01*
X68999047Y-95840571D02*
X68694285Y-95840571D01*
X68884761Y-95573904D02*
X68884761Y-96259619D01*
X68846666Y-96335809D01*
X68770476Y-96373904D01*
X68694285Y-96373904D01*
X68122857Y-96335809D02*
X68199047Y-96373904D01*
X68351428Y-96373904D01*
X68427619Y-96335809D01*
X68465714Y-96259619D01*
X68465714Y-95954857D01*
X68427619Y-95878666D01*
X68351428Y-95840571D01*
X68199047Y-95840571D01*
X68122857Y-95878666D01*
X68084761Y-95954857D01*
X68084761Y-96031047D01*
X68465714Y-96107238D01*
X67741904Y-96373904D02*
X67741904Y-95840571D01*
X67741904Y-95992952D02*
X67703809Y-95916761D01*
X67665714Y-95878666D01*
X67589523Y-95840571D01*
X67513333Y-95840571D01*
X67437142Y-96450095D02*
X66827619Y-96450095D01*
X66637142Y-96373904D02*
X66637142Y-95573904D01*
X66446666Y-95573904D01*
X66332380Y-95612000D01*
X66256190Y-95688190D01*
X66218095Y-95764380D01*
X66180000Y-95916761D01*
X66180000Y-96031047D01*
X66218095Y-96183428D01*
X66256190Y-96259619D01*
X66332380Y-96335809D01*
X66446666Y-96373904D01*
X66637142Y-96373904D01*
X65875238Y-96335809D02*
X65760952Y-96373904D01*
X65570476Y-96373904D01*
X65494285Y-96335809D01*
X65456190Y-96297714D01*
X65418095Y-96221523D01*
X65418095Y-96145333D01*
X65456190Y-96069142D01*
X65494285Y-96031047D01*
X65570476Y-95992952D01*
X65722857Y-95954857D01*
X65799047Y-95916761D01*
X65837142Y-95878666D01*
X65875238Y-95802476D01*
X65875238Y-95726285D01*
X65837142Y-95650095D01*
X65799047Y-95612000D01*
X65722857Y-95573904D01*
X65532380Y-95573904D01*
X65418095Y-95612000D01*
X64922857Y-95573904D02*
X64770476Y-95573904D01*
X64694285Y-95612000D01*
X64618095Y-95688190D01*
X64580000Y-95840571D01*
X64580000Y-96107238D01*
X64618095Y-96259619D01*
X64694285Y-96335809D01*
X64770476Y-96373904D01*
X64922857Y-96373904D01*
X64999047Y-96335809D01*
X65075238Y-96259619D01*
X65113333Y-96107238D01*
X65113333Y-95840571D01*
X65075238Y-95688190D01*
X64999047Y-95612000D01*
X64922857Y-95573904D01*
X63818095Y-96373904D02*
X64275238Y-96373904D01*
X64046666Y-96373904D02*
X64046666Y-95573904D01*
X64122857Y-95688190D01*
X64199047Y-95764380D01*
X64275238Y-95802476D01*
X1722380Y-58007809D02*
X1055714Y-58007809D01*
X722380Y-58007809D02*
X770000Y-57960190D01*
X817619Y-58007809D01*
X770000Y-58055428D01*
X722380Y-58007809D01*
X817619Y-58007809D01*
X1674761Y-58436380D02*
X1722380Y-58579238D01*
X1722380Y-58817333D01*
X1674761Y-58912571D01*
X1627142Y-58960190D01*
X1531904Y-59007809D01*
X1436666Y-59007809D01*
X1341428Y-58960190D01*
X1293809Y-58912571D01*
X1246190Y-58817333D01*
X1198571Y-58626857D01*
X1150952Y-58531619D01*
X1103333Y-58484000D01*
X1008095Y-58436380D01*
X912857Y-58436380D01*
X817619Y-58484000D01*
X770000Y-58531619D01*
X722380Y-58626857D01*
X722380Y-58864952D01*
X770000Y-59007809D01*
X1674761Y-59817333D02*
X1722380Y-59722095D01*
X1722380Y-59531619D01*
X1674761Y-59436380D01*
X1579523Y-59388761D01*
X1198571Y-59388761D01*
X1103333Y-59436380D01*
X1055714Y-59531619D01*
X1055714Y-59722095D01*
X1103333Y-59817333D01*
X1198571Y-59864952D01*
X1293809Y-59864952D01*
X1389047Y-59388761D01*
X1055714Y-60293523D02*
X1722380Y-60293523D01*
X1150952Y-60293523D02*
X1103333Y-60341142D01*
X1055714Y-60436380D01*
X1055714Y-60579238D01*
X1103333Y-60674476D01*
X1198571Y-60722095D01*
X1722380Y-60722095D01*
X1674761Y-61150666D02*
X1722380Y-61245904D01*
X1722380Y-61436380D01*
X1674761Y-61531619D01*
X1579523Y-61579238D01*
X1531904Y-61579238D01*
X1436666Y-61531619D01*
X1389047Y-61436380D01*
X1389047Y-61293523D01*
X1341428Y-61198285D01*
X1246190Y-61150666D01*
X1198571Y-61150666D01*
X1103333Y-61198285D01*
X1055714Y-61293523D01*
X1055714Y-61436380D01*
X1103333Y-61531619D01*
X1627142Y-62579238D02*
X1674761Y-62531619D01*
X1722380Y-62388761D01*
X1722380Y-62293523D01*
X1674761Y-62150666D01*
X1579523Y-62055428D01*
X1484285Y-62007809D01*
X1293809Y-61960190D01*
X1150952Y-61960190D01*
X960476Y-62007809D01*
X865238Y-62055428D01*
X770000Y-62150666D01*
X722380Y-62293523D01*
X722380Y-62388761D01*
X770000Y-62531619D01*
X817619Y-62579238D01*
X1722380Y-63150666D02*
X1674761Y-63055428D01*
X1627142Y-63007809D01*
X1531904Y-62960190D01*
X1246190Y-62960190D01*
X1150952Y-63007809D01*
X1103333Y-63055428D01*
X1055714Y-63150666D01*
X1055714Y-63293523D01*
X1103333Y-63388761D01*
X1150952Y-63436380D01*
X1246190Y-63484000D01*
X1531904Y-63484000D01*
X1627142Y-63436380D01*
X1674761Y-63388761D01*
X1722380Y-63293523D01*
X1722380Y-63150666D01*
X1055714Y-63912571D02*
X1722380Y-63912571D01*
X1150952Y-63912571D02*
X1103333Y-63960190D01*
X1055714Y-64055428D01*
X1055714Y-64198285D01*
X1103333Y-64293523D01*
X1198571Y-64341142D01*
X1722380Y-64341142D01*
X1055714Y-64817333D02*
X1722380Y-64817333D01*
X1150952Y-64817333D02*
X1103333Y-64864952D01*
X1055714Y-64960190D01*
X1055714Y-65103047D01*
X1103333Y-65198285D01*
X1198571Y-65245904D01*
X1722380Y-65245904D01*
X1817619Y-65484000D02*
X1817619Y-66245904D01*
X722380Y-66674476D02*
X722380Y-66769714D01*
X769999Y-66864952D01*
X817619Y-66912571D01*
X912857Y-66960190D01*
X1103333Y-67007809D01*
X1341428Y-67007809D01*
X1531904Y-66960190D01*
X1627142Y-66912571D01*
X1674761Y-66864952D01*
X1722380Y-66769714D01*
X1722380Y-66674476D01*
X1674761Y-66579238D01*
X1627142Y-66531619D01*
X1531904Y-66484000D01*
X1341428Y-66436380D01*
X1103333Y-66436380D01*
X912857Y-66484000D01*
X817619Y-66531619D01*
X769999Y-66579238D01*
X722380Y-66674476D01*
X1976380Y-83431142D02*
X1976380Y-82954952D01*
X976380Y-82954952D01*
X1928761Y-83716857D02*
X1976380Y-83859714D01*
X1976380Y-84097809D01*
X1928761Y-84193047D01*
X1881142Y-84240666D01*
X1785904Y-84288285D01*
X1690666Y-84288285D01*
X1595428Y-84240666D01*
X1547809Y-84193047D01*
X1500190Y-84097809D01*
X1452571Y-83907333D01*
X1404952Y-83812095D01*
X1357333Y-83764476D01*
X1262095Y-83716857D01*
X1166857Y-83716857D01*
X1071619Y-83764476D01*
X1024000Y-83812095D01*
X976380Y-83907333D01*
X976380Y-84145428D01*
X1024000Y-84288285D01*
X1976380Y-85240666D02*
X1976380Y-84669238D01*
X1976380Y-84954952D02*
X976380Y-84954952D01*
X1119238Y-84859714D01*
X1214476Y-84764476D01*
X1262095Y-84669238D01*
X1976380Y-72509142D02*
X1976380Y-72032952D01*
X976380Y-72032952D01*
X1928761Y-72794857D02*
X1976380Y-72937714D01*
X1976380Y-73175809D01*
X1928761Y-73271047D01*
X1881142Y-73318666D01*
X1785904Y-73366285D01*
X1690666Y-73366285D01*
X1595428Y-73318666D01*
X1547809Y-73271047D01*
X1500190Y-73175809D01*
X1452571Y-72985333D01*
X1404952Y-72890095D01*
X1357333Y-72842476D01*
X1262095Y-72794857D01*
X1166857Y-72794857D01*
X1071619Y-72842476D01*
X1024000Y-72890095D01*
X976380Y-72985333D01*
X976380Y-73223428D01*
X1024000Y-73366285D01*
X1071619Y-73747238D02*
X1024000Y-73794857D01*
X976380Y-73890095D01*
X976380Y-74128190D01*
X1024000Y-74223428D01*
X1071619Y-74271047D01*
X1166857Y-74318666D01*
X1262095Y-74318666D01*
X1404952Y-74271047D01*
X1976380Y-73699619D01*
X1976380Y-74318666D01*
D13*
X97242380Y-34750476D02*
X97956666Y-34750476D01*
X98099523Y-34702857D01*
X98194761Y-34607619D01*
X98242380Y-34464761D01*
X98242380Y-34369523D01*
X97242380Y-35131428D02*
X97242380Y-35750476D01*
X97623333Y-35417142D01*
X97623333Y-35560000D01*
X97670952Y-35655238D01*
X97718571Y-35702857D01*
X97813809Y-35750476D01*
X98051904Y-35750476D01*
X98147142Y-35702857D01*
X98194761Y-35655238D01*
X98242380Y-35560000D01*
X98242380Y-35274285D01*
X98194761Y-35179047D01*
X98147142Y-35131428D01*
X97242380Y-36607619D02*
X97242380Y-36417142D01*
X97290000Y-36321904D01*
X97337619Y-36274285D01*
X97480476Y-36179047D01*
X97670952Y-36131428D01*
X98051904Y-36131428D01*
X98147142Y-36179047D01*
X98194761Y-36226666D01*
X98242380Y-36321904D01*
X98242380Y-36512380D01*
X98194761Y-36607619D01*
X98147142Y-36655238D01*
X98051904Y-36702857D01*
X97813809Y-36702857D01*
X97718571Y-36655238D01*
X97670952Y-36607619D01*
X97623333Y-36512380D01*
X97623333Y-36321904D01*
X97670952Y-36226666D01*
X97718571Y-36179047D01*
X97813809Y-36131428D01*
X60920380Y-43894476D02*
X61634666Y-43894476D01*
X61777523Y-43846857D01*
X61872761Y-43751619D01*
X61920380Y-43608761D01*
X61920380Y-43513523D01*
X60920380Y-44275428D02*
X60920380Y-44894476D01*
X61301333Y-44561142D01*
X61301333Y-44704000D01*
X61348952Y-44799238D01*
X61396571Y-44846857D01*
X61491809Y-44894476D01*
X61729904Y-44894476D01*
X61825142Y-44846857D01*
X61872761Y-44799238D01*
X61920380Y-44704000D01*
X61920380Y-44418285D01*
X61872761Y-44323047D01*
X61825142Y-44275428D01*
X61348952Y-45465904D02*
X61301333Y-45370666D01*
X61253714Y-45323047D01*
X61158476Y-45275428D01*
X61110857Y-45275428D01*
X61015619Y-45323047D01*
X60968000Y-45370666D01*
X60920380Y-45465904D01*
X60920380Y-45656380D01*
X60968000Y-45751619D01*
X61015619Y-45799238D01*
X61110857Y-45846857D01*
X61158476Y-45846857D01*
X61253714Y-45799238D01*
X61301333Y-45751619D01*
X61348952Y-45656380D01*
X61348952Y-45465904D01*
X61396571Y-45370666D01*
X61444190Y-45323047D01*
X61539428Y-45275428D01*
X61729904Y-45275428D01*
X61825142Y-45323047D01*
X61872761Y-45370666D01*
X61920380Y-45465904D01*
X61920380Y-45656380D01*
X61872761Y-45751619D01*
X61825142Y-45799238D01*
X61729904Y-45846857D01*
X61539428Y-45846857D01*
X61444190Y-45799238D01*
X61396571Y-45751619D01*
X61348952Y-45656380D01*
X52284380Y-43894476D02*
X52998666Y-43894476D01*
X53141523Y-43846857D01*
X53236761Y-43751619D01*
X53284380Y-43608761D01*
X53284380Y-43513523D01*
X52617714Y-44799238D02*
X53284380Y-44799238D01*
X52236761Y-44561142D02*
X52951047Y-44323047D01*
X52951047Y-44942095D01*
X52379619Y-45275428D02*
X52332000Y-45323047D01*
X52284380Y-45418285D01*
X52284380Y-45656380D01*
X52332000Y-45751619D01*
X52379619Y-45799238D01*
X52474857Y-45846857D01*
X52570095Y-45846857D01*
X52712952Y-45799238D01*
X53284380Y-45227809D01*
X53284380Y-45846857D01*
X58126380Y-43894476D02*
X58840666Y-43894476D01*
X58983523Y-43846857D01*
X59078761Y-43751619D01*
X59126380Y-43608761D01*
X59126380Y-43513523D01*
X58459714Y-44799238D02*
X59126380Y-44799238D01*
X58078761Y-44561142D02*
X58793047Y-44323047D01*
X58793047Y-44942095D01*
X59126380Y-45846857D02*
X59126380Y-45275428D01*
X59126380Y-45561142D02*
X58126380Y-45561142D01*
X58269238Y-45465904D01*
X58364476Y-45370666D01*
X58412095Y-45275428D01*
X55332380Y-43894476D02*
X56046666Y-43894476D01*
X56189523Y-43846857D01*
X56284761Y-43751619D01*
X56332380Y-43608761D01*
X56332380Y-43513523D01*
X55665714Y-44799238D02*
X56332380Y-44799238D01*
X55284761Y-44561142D02*
X55999047Y-44323047D01*
X55999047Y-44942095D01*
X55665714Y-45751619D02*
X56332380Y-45751619D01*
X55284761Y-45513523D02*
X55999047Y-45275428D01*
X55999047Y-45894476D01*
D10*
X51799809Y-96464380D02*
X51799809Y-95464380D01*
X51323619Y-95797714D02*
X51323619Y-96464380D01*
X51323619Y-95892952D02*
X51276000Y-95845333D01*
X51180761Y-95797714D01*
X51037904Y-95797714D01*
X50942666Y-95845333D01*
X50895047Y-95940571D01*
X50895047Y-96464380D01*
X50418857Y-95797714D02*
X50418857Y-96797714D01*
X50418857Y-95845333D02*
X50323619Y-95797714D01*
X50133142Y-95797714D01*
X50037904Y-95845333D01*
X49990285Y-95892952D01*
X49942666Y-95988190D01*
X49942666Y-96273904D01*
X49990285Y-96369142D01*
X50037904Y-96416761D01*
X50133142Y-96464380D01*
X50323619Y-96464380D01*
X50418857Y-96416761D01*
X49085523Y-95797714D02*
X49085523Y-96464380D01*
X49514095Y-95797714D02*
X49514095Y-96321523D01*
X49466476Y-96416761D01*
X49371238Y-96464380D01*
X49228380Y-96464380D01*
X49133142Y-96416761D01*
X49085523Y-96369142D01*
X48752190Y-95797714D02*
X48371238Y-95797714D01*
X48609333Y-95464380D02*
X48609333Y-96321523D01*
X48561714Y-96416761D01*
X48466476Y-96464380D01*
X48371238Y-96464380D01*
X48085523Y-96416761D02*
X47990285Y-96464380D01*
X47799809Y-96464380D01*
X47704571Y-96416761D01*
X47656952Y-96321523D01*
X47656952Y-96273904D01*
X47704571Y-96178666D01*
X47799809Y-96131047D01*
X47942666Y-96131047D01*
X48037904Y-96083428D01*
X48085523Y-95988190D01*
X48085523Y-95940571D01*
X48037904Y-95845333D01*
X47942666Y-95797714D01*
X47799809Y-95797714D01*
X47704571Y-95845333D01*
X46704571Y-96464380D02*
X47276000Y-96464380D01*
X46990285Y-96464380D02*
X46990285Y-95464380D01*
X47085523Y-95607238D01*
X47180761Y-95702476D01*
X47276000Y-95750095D01*
D13*
X20367523Y-35012380D02*
X20367523Y-35726666D01*
X20415142Y-35869523D01*
X20510380Y-35964761D01*
X20653238Y-36012380D01*
X20748476Y-36012380D01*
X19367523Y-36012380D02*
X19938952Y-36012380D01*
X19653238Y-36012380D02*
X19653238Y-35012380D01*
X19748476Y-35155238D01*
X19843714Y-35250476D01*
X19938952Y-35298095D01*
X18891333Y-36012380D02*
X18700857Y-36012380D01*
X18605619Y-35964761D01*
X18558000Y-35917142D01*
X18462761Y-35774285D01*
X18415142Y-35583809D01*
X18415142Y-35202857D01*
X18462761Y-35107619D01*
X18510380Y-35060000D01*
X18605619Y-35012380D01*
X18796095Y-35012380D01*
X18891333Y-35060000D01*
X18938952Y-35107619D01*
X18986571Y-35202857D01*
X18986571Y-35440952D01*
X18938952Y-35536190D01*
X18891333Y-35583809D01*
X18796095Y-35631428D01*
X18605619Y-35631428D01*
X18510380Y-35583809D01*
X18462761Y-35536190D01*
X18415142Y-35440952D01*
M02*
