G04 #@! TF.GenerationSoftware,KiCad,Pcbnew,5.1.9-73d0e3b20d~88~ubuntu20.04.1*
G04 #@! TF.CreationDate,2021-03-10T20:51:34-03:00*
G04 #@! TF.ProjectId,std_board,7374645f-626f-4617-9264-2e6b69636164,rev?*
G04 #@! TF.SameCoordinates,Original*
G04 #@! TF.FileFunction,Soldermask,Bot*
G04 #@! TF.FilePolarity,Negative*
%FSLAX46Y46*%
G04 Gerber Fmt 4.6, Leading zero omitted, Abs format (unit mm)*
G04 Created by KiCad (PCBNEW 5.1.9-73d0e3b20d~88~ubuntu20.04.1) date 2021-03-10 20:51:34*
%MOMM*%
%LPD*%
G01*
G04 APERTURE LIST*
%ADD10O,2.000000X1.200000*%
%ADD11O,1.600000X1.600000*%
%ADD12C,1.600000*%
%ADD13C,2.600000*%
%ADD14C,1.524000*%
%ADD15R,1.600000X1.600000*%
%ADD16R,1.000000X0.200000*%
%ADD17R,1.000000X0.254000*%
%ADD18R,0.762000X1.016000*%
%ADD19R,0.200000X1.000000*%
%ADD20R,0.254000X1.000000*%
%ADD21R,1.016000X0.762000*%
%ADD22C,6.000000*%
%ADD23C,1.800000*%
%ADD24R,2.500000X1.800000*%
%ADD25O,1.700000X1.700000*%
%ADD26R,1.700000X1.700000*%
%ADD27R,2.000000X1.500000*%
%ADD28R,2.000000X3.800000*%
%ADD29O,2.000000X1.905000*%
%ADD30R,2.000000X1.905000*%
%ADD31R,1.300000X1.300000*%
%ADD32C,1.300000*%
%ADD33C,3.000000*%
%ADD34R,3.000000X3.000000*%
G04 APERTURE END LIST*
D10*
X12700000Y-45720000D03*
X38100000Y-45720000D03*
X12700000Y-43180000D03*
X38100000Y-43180000D03*
X12700000Y-40640000D03*
X38100000Y-40640000D03*
X12700000Y-38100000D03*
X38100000Y-38100000D03*
X12700000Y-35560000D03*
X38100000Y-35560000D03*
X12700000Y-33020000D03*
X38100000Y-33020000D03*
X12700000Y-30480000D03*
X38100000Y-30480000D03*
X12700000Y-27940000D03*
X38100000Y-27940000D03*
X12700000Y-25400000D03*
X38100000Y-25400000D03*
X12700000Y-22860000D03*
X38100000Y-22860000D03*
X12700000Y-20320000D03*
X38100000Y-20320000D03*
X12700000Y-17780000D03*
X38100000Y-17780000D03*
X12700000Y-15240000D03*
X38100000Y-15240000D03*
X12700000Y-12700000D03*
X38100000Y-12700000D03*
X12700000Y-10160000D03*
X38100000Y-10160000D03*
X12700000Y-7620000D03*
X38100000Y-7620000D03*
X12700000Y-5080000D03*
X38100000Y-5080000D03*
X12700000Y-2540000D03*
X38100000Y-2540000D03*
X12700000Y0D03*
X38100000Y0D03*
D11*
X89916000Y-93980000D03*
D12*
X89916000Y-83820000D03*
D13*
X77978000Y-42164000D03*
X82978000Y-42164000D03*
D14*
X61976000Y-54610000D03*
X61976000Y-49530000D03*
D11*
X66040000Y-10795000D03*
D12*
X66040000Y-635000D03*
D11*
X62865000Y-2540000D03*
X55245000Y-7620000D03*
X62865000Y-5080000D03*
X55245000Y-5080000D03*
X62865000Y-7620000D03*
D15*
X55245000Y-2540000D03*
D11*
X88900000Y-23495000D03*
D12*
X88900000Y-13335000D03*
D11*
X88900000Y-36322000D03*
D12*
X88900000Y-26162000D03*
D16*
X86582500Y-63500000D03*
D17*
X85884000Y-63881000D03*
D18*
X85503000Y-63500000D03*
D17*
X85884000Y-63119000D03*
D18*
X87027000Y-63500000D03*
D19*
X17272000Y-76263500D03*
D20*
X16891000Y-75565000D03*
D21*
X17272000Y-75184000D03*
D20*
X17653000Y-75565000D03*
D21*
X17272000Y-76708000D03*
D19*
X17272000Y-84899500D03*
D20*
X16891000Y-84201000D03*
D21*
X17272000Y-83820000D03*
D20*
X17653000Y-84201000D03*
D21*
X17272000Y-85344000D03*
D16*
X87566500Y-58801000D03*
D17*
X86868000Y-59182000D03*
D18*
X86487000Y-58801000D03*
D17*
X86868000Y-58420000D03*
D18*
X88011000Y-58801000D03*
D22*
X3556000Y-94234000D03*
X3556000Y-2286000D03*
D19*
X26416000Y-84899500D03*
D20*
X26035000Y-84201000D03*
D21*
X26416000Y-83820000D03*
D20*
X26797000Y-84201000D03*
D21*
X26416000Y-85344000D03*
D19*
X26416000Y-76009500D03*
D20*
X26035000Y-75311000D03*
D21*
X26416000Y-74930000D03*
D20*
X26797000Y-75311000D03*
D21*
X26416000Y-76454000D03*
D23*
X96400000Y-41278000D03*
X88900000Y-39878000D03*
X88265000Y-45720000D03*
X86865000Y-53220000D03*
D11*
X62865000Y-27940000D03*
X55245000Y-33020000D03*
X62865000Y-30480000D03*
X55245000Y-30480000D03*
X62865000Y-33020000D03*
D15*
X55245000Y-27940000D03*
D11*
X62865000Y-15240000D03*
X55245000Y-20320000D03*
X62865000Y-17780000D03*
X55245000Y-17780000D03*
X62865000Y-20320000D03*
D15*
X55245000Y-15240000D03*
D24*
X84265000Y-63500000D03*
X88265000Y-63500000D03*
D12*
X84836000Y-635000D03*
X84836000Y-10635000D03*
X70612000Y-755000D03*
X70612000Y-8255000D03*
X84836000Y-13462000D03*
X84836000Y-23462000D03*
X70612000Y-13455000D03*
X70612000Y-20955000D03*
X84836000Y-26670000D03*
X84836000Y-36670000D03*
X70612000Y-26155000D03*
X70612000Y-33655000D03*
D25*
X44958000Y-77978000D03*
X44958000Y-75438000D03*
D26*
X44958000Y-72898000D03*
D25*
X49911000Y-77978000D03*
X49911000Y-75438000D03*
D26*
X49911000Y-72898000D03*
D25*
X77216000Y-85852000D03*
X77216000Y-83312000D03*
D26*
X77216000Y-80772000D03*
D25*
X96012000Y-86360000D03*
X96012000Y-83820000D03*
X96012000Y-81280000D03*
D26*
X96012000Y-78740000D03*
D25*
X85852000Y-86360000D03*
X85852000Y-83820000D03*
X85852000Y-81280000D03*
D26*
X85852000Y-78740000D03*
D22*
X95504000Y-2286000D03*
X95504000Y-94234000D03*
D19*
X50419000Y-46799500D03*
D20*
X50038000Y-46101000D03*
D21*
X50419000Y-45720000D03*
D20*
X50800000Y-46101000D03*
D21*
X50419000Y-47244000D03*
D27*
X50444000Y-53862000D03*
X50444000Y-49262000D03*
X50444000Y-51562000D03*
D28*
X56744000Y-51562000D03*
D13*
X73406000Y-42164000D03*
X68406000Y-42164000D03*
D16*
X17335500Y-22860000D03*
D17*
X16637000Y-23241000D03*
D18*
X16256000Y-22860000D03*
D17*
X16637000Y-22479000D03*
D18*
X17780000Y-22860000D03*
D16*
X17335500Y-25400000D03*
D17*
X16637000Y-25781000D03*
D18*
X16256000Y-25400000D03*
D17*
X16637000Y-25019000D03*
D18*
X17780000Y-25400000D03*
D16*
X9080500Y-90805000D03*
D17*
X9779000Y-90424000D03*
D18*
X10160000Y-90805000D03*
D17*
X9779000Y-91186000D03*
D18*
X8636000Y-90805000D03*
D25*
X32639000Y-62738000D03*
X32639000Y-65278000D03*
D26*
X32639000Y-67818000D03*
D16*
X21653500Y-22860000D03*
D17*
X20955000Y-23241000D03*
D18*
X20574000Y-22860000D03*
D17*
X20955000Y-22479000D03*
D18*
X22098000Y-22860000D03*
D16*
X21653500Y-20320000D03*
D17*
X20955000Y-20701000D03*
D18*
X20574000Y-20320000D03*
D17*
X20955000Y-19939000D03*
D18*
X22098000Y-20320000D03*
D16*
X17335500Y-27940000D03*
D17*
X16637000Y-28321000D03*
D18*
X16256000Y-27940000D03*
D17*
X16637000Y-27559000D03*
D18*
X17780000Y-27940000D03*
G36*
G01*
X88972500Y-60251001D02*
X88972500Y-57350999D01*
G75*
G02*
X89222499Y-57101000I249999J0D01*
G01*
X89847501Y-57101000D01*
G75*
G02*
X90097500Y-57350999I0J-249999D01*
G01*
X90097500Y-60251001D01*
G75*
G02*
X89847501Y-60501000I-249999J0D01*
G01*
X89222499Y-60501000D01*
G75*
G02*
X88972500Y-60251001I0J249999D01*
G01*
G37*
G36*
G01*
X84697500Y-60251001D02*
X84697500Y-57350999D01*
G75*
G02*
X84947499Y-57101000I249999J0D01*
G01*
X85572501Y-57101000D01*
G75*
G02*
X85822500Y-57350999I0J-249999D01*
G01*
X85822500Y-60251001D01*
G75*
G02*
X85572501Y-60501000I-249999J0D01*
G01*
X84947499Y-60501000D01*
G75*
G02*
X84697500Y-60251001I0J249999D01*
G01*
G37*
G36*
G01*
X96973500Y-36756001D02*
X96973500Y-33855999D01*
G75*
G02*
X97223499Y-33606000I249999J0D01*
G01*
X97848501Y-33606000D01*
G75*
G02*
X98098500Y-33855999I0J-249999D01*
G01*
X98098500Y-36756001D01*
G75*
G02*
X97848501Y-37006000I-249999J0D01*
G01*
X97223499Y-37006000D01*
G75*
G02*
X96973500Y-36756001I0J249999D01*
G01*
G37*
G36*
G01*
X92698500Y-36756001D02*
X92698500Y-33855999D01*
G75*
G02*
X92948499Y-33606000I249999J0D01*
G01*
X93573501Y-33606000D01*
G75*
G02*
X93823500Y-33855999I0J-249999D01*
G01*
X93823500Y-36756001D01*
G75*
G02*
X93573501Y-37006000I-249999J0D01*
G01*
X92948499Y-37006000D01*
G75*
G02*
X92698500Y-36756001I0J249999D01*
G01*
G37*
D16*
X17335500Y-30480000D03*
D17*
X16637000Y-30861000D03*
D18*
X16256000Y-30480000D03*
D17*
X16637000Y-30099000D03*
D18*
X17780000Y-30480000D03*
D29*
X78740000Y-6985000D03*
X78740000Y-4445000D03*
D30*
X78740000Y-1905000D03*
D29*
X78740000Y-19685000D03*
X78740000Y-17145000D03*
D30*
X78740000Y-14605000D03*
D29*
X78740000Y-32385000D03*
X78740000Y-29845000D03*
D30*
X78740000Y-27305000D03*
D11*
X74930000Y-10795000D03*
D12*
X74930000Y-635000D03*
D11*
X88900000Y-10795000D03*
D12*
X88900000Y-635000D03*
D11*
X66040000Y-23495000D03*
D12*
X66040000Y-13335000D03*
D11*
X74930000Y-23495000D03*
D12*
X74930000Y-13335000D03*
D11*
X66040000Y-36195000D03*
D12*
X66040000Y-26035000D03*
D11*
X74930000Y-36195000D03*
D12*
X74930000Y-26035000D03*
D31*
X87630000Y-74930000D03*
D32*
X87630000Y-72390000D03*
X86360000Y-73660000D03*
D14*
X77216000Y-89916000D03*
X77216000Y-94996000D03*
X56134000Y-86106000D03*
X58674000Y-86106000D03*
X68834000Y-86106000D03*
X66294000Y-86106000D03*
X61214000Y-86106000D03*
X63754000Y-86106000D03*
D33*
X94996000Y-56134000D03*
D34*
X94996000Y-61214000D03*
D33*
X94996000Y-45720000D03*
D34*
X94996000Y-50800000D03*
D33*
X94996000Y-8890000D03*
X94996000Y-13970000D03*
D34*
X94996000Y-29210000D03*
D33*
X94996000Y-19050000D03*
X94996000Y-24130000D03*
X94996000Y-66294000D03*
D34*
X94996000Y-71374000D03*
D33*
X10287000Y-93726000D03*
X15367000Y-93726000D03*
D34*
X30607000Y-93726000D03*
D33*
X20447000Y-93726000D03*
X25527000Y-93726000D03*
X66167000Y-93726000D03*
D34*
X71247000Y-93726000D03*
D33*
X4064000Y-64770000D03*
D34*
X4064000Y-59690000D03*
D33*
X4064000Y-86106000D03*
D34*
X4064000Y-81026000D03*
D33*
X4064000Y-75438000D03*
D34*
X4064000Y-70358000D03*
D16*
X95821500Y-35306000D03*
D17*
X95123000Y-35687000D03*
D18*
X94742000Y-35306000D03*
D17*
X95123000Y-34925000D03*
D18*
X96266000Y-35306000D03*
D14*
X54737000Y-39751000D03*
X54737000Y-44831000D03*
X62103000Y-39751000D03*
X62103000Y-44831000D03*
X59182000Y-67310000D03*
X59182000Y-62230000D03*
X68834000Y-54696360D03*
X68834000Y-49616360D03*
X80264000Y-62738000D03*
X75184000Y-62738000D03*
D13*
X67564000Y-63072000D03*
X67564000Y-68072000D03*
D16*
X61277500Y-47244000D03*
D17*
X61976000Y-46863000D03*
D18*
X62357000Y-47244000D03*
D17*
X61976000Y-47625000D03*
D18*
X60833000Y-47244000D03*
D16*
X53149500Y-47244000D03*
D17*
X52451000Y-47625000D03*
D18*
X52070000Y-47244000D03*
D17*
X52451000Y-46863000D03*
D18*
X53594000Y-47244000D03*
D16*
X58991500Y-47244000D03*
D17*
X58293000Y-47625000D03*
D18*
X57912000Y-47244000D03*
D17*
X58293000Y-46863000D03*
D18*
X59436000Y-47244000D03*
D16*
X56070500Y-47244000D03*
D17*
X55372000Y-47625000D03*
D18*
X54991000Y-47244000D03*
D17*
X55372000Y-46863000D03*
D18*
X56515000Y-47244000D03*
D25*
X6350000Y-49530000D03*
X3810000Y-49530000D03*
X6350000Y-46990000D03*
X3810000Y-46990000D03*
X6350000Y-44450000D03*
X3810000Y-44450000D03*
X6350000Y-41910000D03*
D26*
X3810000Y-41910000D03*
D33*
X35687000Y-93726000D03*
X40767000Y-93726000D03*
X45847000Y-93726000D03*
D34*
X61087000Y-93726000D03*
D33*
X50927000Y-93726000D03*
X56007000Y-93726000D03*
D16*
X17335500Y-35560000D03*
D17*
X16637000Y-35941000D03*
D18*
X16256000Y-35560000D03*
D17*
X16637000Y-35179000D03*
D18*
X17780000Y-35560000D03*
M02*
