M48
; DRILL file {KiCad 5.1.9-73d0e3b20d~88~ubuntu20.04.1} date Tue Mar  9 21:17:12 2021
; FORMAT={-:-/ absolute / metric / decimal}
; #@! TF.CreationDate,2021-03-09T21:17:12-03:00
; #@! TF.GenerationSoftware,Kicad,Pcbnew,5.1.9-73d0e3b20d~88~ubuntu20.04.1
; #@! TF.FileFunction,Plated,1,2,PTH
FMAT,2
METRIC
T1C0.400
T2C0.750
T3C0.762
T4C0.800
T5C1.000
T6C1.100
T7C1.300
T8C1.520
T9C4.200
%
G90
G05
T1
X1.143Y-44.45
X3.048Y-30.988
X4.191Y-32.004
X5.588Y-33.02
X5.588Y-36.576
X6.477Y-52.959
X7.366Y-37.592
X7.493Y-90.678
X8.255Y-33.655
X8.255Y-38.481
X9.142Y-58.418
X9.144Y-76.708
X9.906Y-39.497
X11.049Y-53.34
X11.049Y-56.642
X11.049Y-58.674
X12.192Y-78.232
X12.192Y-80.01
X12.192Y-83.058
X12.7Y-49.276
X13.081Y-76.327
X13.081Y-86.741
X14.605Y-66.421
X15.397Y-73.055
X15.748Y-75.057
X15.748Y-78.486
X15.875Y-83.566
X16.256Y-55.626
X16.447Y-80.645
X17.018Y-89.154
X17.78Y-31.877
X18.034Y-66.548
X18.034Y-70.485
X18.923Y-22.86
X18.923Y-58.801
X18.923Y-82.042
X19.939Y-27.94
X19.939Y-75.819
X20.193Y-84.582
X20.955Y-59.944
X20.955Y-63.246
X21.971Y-75.946
X22.225Y-68.961
X22.465Y-49.262
X23.812Y-22.924
X23.876Y-60.071
X24.511Y-20.32
X24.892Y-60.071
X24.892Y-74.93
X24.892Y-83.82
X26.162Y-25.4
X26.416Y-89.154
X27.686Y-35.56
X27.813Y-76.327
X28.067Y-53.086
X28.765Y-64.325
X28.765Y-66.548
X29.083Y-51.943
X29.718Y-55.88
X30.607Y-64.389
X31.115Y-85.852
X31.496Y-80.01
X33.147Y-9.017
X35.433Y-9.017
X35.687Y-81.661
X36.322Y-73.914
X36.322Y-77.216
X36.449Y-74.93
X37.084Y-62.23
X38.354Y-74.93
X38.354Y-78.994
X38.735Y-56.134
X40.005Y-85.852
X40.132Y-81.788
X41.656Y-50.673
X41.91Y-84.836
X42.418Y-62.23
X43.434Y-54.356
X43.434Y-71.374
X44.196Y-42.418
X44.45Y-54.356
X44.45Y-70.358
X45.466Y-54.356
X45.466Y-69.342
X45.72Y-84.836
X46.101Y-10.16
X46.482Y-33.528
X46.482Y-36.322
X47.371Y-78.359
X47.434Y-61.023
X47.498Y-62.23
X47.752Y-81.788
X48.006Y-10.16
X48.768Y-65.151
X49.53Y-84.836
X50.038Y-70.358
X50.8Y-57.023
X51.181Y-64.135
X51.181Y-68.326
X51.562Y-76.708
X51.689Y-61.468
X52.324Y-82.677
X52.578Y-48.641
X52.578Y-48.641
X52.578Y-79.756
X53.848Y-81.788
X54.61Y-54.229
X54.61Y-55.372
X56.959Y-60.198
X56.959Y-60.198
X57.404Y-70.358
X57.404Y-71.374
X58.547Y-44.958
X59.436Y-70.358
X60.198Y-80.264
X61.214Y-81.026
X61.214Y-83.312
X61.214Y-86.106
X62.23Y-80.01
X62.484Y-74.295
X62.611Y-63.627
X62.738Y-72.39
X63.563Y-47.625
X65.278Y-83.312
X65.405Y-75.184
X66.167Y-72.39
X67.564Y-83.312
X70.739Y-69.723
X70.866Y-87.122
X70.866Y-89.154
X71.628Y-68.834
X72.136Y-81.788
X73.406Y-68.834
X75.692Y-79.756
X76.708Y-78.994
X79.502Y-91.948
X80.391Y-95.885
X81.28Y-82.804
X81.28Y-89.027
X81.28Y-91.948
X82.995Y-51.244
X82.995Y-51.244
X83.312Y-70.104
X84.709Y-91.948
X87.884Y-79.756
X90.17Y-65.278
X90.17Y-81.28
T2
X86.36Y-73.66
X87.63Y-72.39
X87.63Y-74.93
T3
X54.737Y-39.751
X54.737Y-44.831
X56.134Y-86.106
X58.674Y-86.106
X59.182Y-62.23
X59.182Y-67.31
X61.214Y-86.106
X61.976Y-49.53
X61.976Y-54.61
X62.103Y-39.751
X62.103Y-44.831
X63.754Y-86.106
X66.294Y-86.106
X68.834Y-49.616
X68.834Y-54.696
X68.834Y-86.106
X75.184Y-62.738
X77.216Y-89.916
X77.216Y-94.996
X80.264Y-62.738
T4
X12.7Y0.0
X12.7Y-2.54
X12.7Y-5.08
X12.7Y-7.62
X12.7Y-10.16
X12.7Y-12.7
X12.7Y-15.24
X12.7Y-17.78
X12.7Y-20.32
X12.7Y-22.86
X12.7Y-25.4
X12.7Y-27.94
X12.7Y-30.48
X12.7Y-33.02
X12.7Y-35.56
X12.7Y-38.1
X12.7Y-40.64
X12.7Y-43.18
X12.7Y-45.72
X38.1Y0.0
X38.1Y-2.54
X38.1Y-5.08
X38.1Y-7.62
X38.1Y-10.16
X38.1Y-12.7
X38.1Y-15.24
X38.1Y-17.78
X38.1Y-20.32
X38.1Y-22.86
X38.1Y-25.4
X38.1Y-27.94
X38.1Y-30.48
X38.1Y-33.02
X38.1Y-35.56
X38.1Y-38.1
X38.1Y-40.64
X38.1Y-43.18
X38.1Y-45.72
X55.245Y-2.54
X55.245Y-5.08
X55.245Y-7.62
X55.245Y-15.24
X55.245Y-17.78
X55.245Y-20.32
X55.245Y-27.94
X55.245Y-30.48
X55.245Y-33.02
X62.865Y-2.54
X62.865Y-5.08
X62.865Y-7.62
X62.865Y-15.24
X62.865Y-17.78
X62.865Y-20.32
X62.865Y-27.94
X62.865Y-30.48
X62.865Y-33.02
X66.04Y-0.635
X66.04Y-10.795
X66.04Y-13.335
X66.04Y-23.495
X66.04Y-26.035
X66.04Y-36.195
X70.612Y-0.755
X70.612Y-8.255
X70.612Y-13.455
X70.612Y-20.955
X70.612Y-26.155
X70.612Y-33.655
X74.93Y-0.635
X74.93Y-10.795
X74.93Y-13.335
X74.93Y-23.495
X74.93Y-26.035
X74.93Y-36.195
X84.836Y-0.635
X84.836Y-10.635
X84.836Y-13.462
X84.836Y-23.462
X84.836Y-26.67
X84.836Y-36.67
X86.865Y-53.22
X88.265Y-45.72
X88.9Y-0.635
X88.9Y-10.795
X88.9Y-13.335
X88.9Y-23.495
X88.9Y-26.162
X88.9Y-36.322
X88.9Y-39.878
X89.916Y-83.82
X89.916Y-93.98
X96.4Y-41.278
T5
X3.81Y-41.91
X3.81Y-44.45
X3.81Y-46.99
X3.81Y-49.53
X6.35Y-41.91
X6.35Y-44.45
X6.35Y-46.99
X6.35Y-49.53
X32.639Y-62.738
X32.639Y-65.278
X32.639Y-67.818
X44.958Y-72.898
X44.958Y-75.438
X44.958Y-77.978
X49.911Y-72.898
X49.911Y-75.438
X49.911Y-77.978
X77.216Y-80.772
X77.216Y-83.312
X77.216Y-85.852
X85.852Y-78.74
X85.852Y-81.28
X85.852Y-83.82
X85.852Y-86.36
X96.012Y-78.74
X96.012Y-81.28
X96.012Y-83.82
X96.012Y-86.36
T6
X78.74Y-1.905
X78.74Y-4.445
X78.74Y-6.985
X78.74Y-14.605
X78.74Y-17.145
X78.74Y-19.685
X78.74Y-27.305
X78.74Y-29.845
X78.74Y-32.385
T7
X67.564Y-63.072
X67.564Y-68.072
X68.406Y-42.164
X73.406Y-42.164
X77.978Y-42.164
X82.978Y-42.164
T8
X4.064Y-59.69
X4.064Y-64.77
X4.064Y-70.358
X4.064Y-75.438
X4.064Y-81.026
X4.064Y-86.106
X10.287Y-93.726
X15.367Y-93.726
X20.447Y-93.726
X25.527Y-93.726
X30.607Y-93.726
X35.687Y-93.726
X40.767Y-93.726
X45.847Y-93.726
X50.927Y-93.726
X56.007Y-93.726
X61.087Y-93.726
X66.167Y-93.726
X71.247Y-93.726
X94.996Y-8.89
X94.996Y-13.97
X94.996Y-19.05
X94.996Y-24.13
X94.996Y-29.21
X94.996Y-45.72
X94.996Y-50.8
X94.996Y-56.134
X94.996Y-61.214
X94.996Y-66.294
X94.996Y-71.374
T9
X3.556Y-2.286
X3.556Y-94.234
X95.504Y-2.286
X95.504Y-94.234
T0
M30
