G04 #@! TF.GenerationSoftware,KiCad,Pcbnew,5.1.9-73d0e3b20d~88~ubuntu20.04.1*
G04 #@! TF.CreationDate,2021-03-10T20:51:34-03:00*
G04 #@! TF.ProjectId,std_board,7374645f-626f-4617-9264-2e6b69636164,rev?*
G04 #@! TF.SameCoordinates,Original*
G04 #@! TF.FileFunction,Soldermask,Top*
G04 #@! TF.FilePolarity,Negative*
%FSLAX46Y46*%
G04 Gerber Fmt 4.6, Leading zero omitted, Abs format (unit mm)*
G04 Created by KiCad (PCBNEW 5.1.9-73d0e3b20d~88~ubuntu20.04.1) date 2021-03-10 20:51:34*
%MOMM*%
%LPD*%
G01*
G04 APERTURE LIST*
%ADD10O,2.000000X1.200000*%
%ADD11O,1.600000X1.600000*%
%ADD12C,1.600000*%
%ADD13C,2.600000*%
%ADD14C,1.524000*%
%ADD15R,1.600200X2.999740*%
%ADD16R,1.600000X1.600000*%
%ADD17C,6.000000*%
%ADD18R,0.200000X1.000000*%
%ADD19R,0.254000X1.000000*%
%ADD20R,1.016000X0.762000*%
%ADD21C,1.800000*%
%ADD22O,1.700000X1.700000*%
%ADD23R,1.700000X1.700000*%
%ADD24C,0.100000*%
%ADD25R,1.300000X0.900000*%
%ADD26R,1.000000X0.200000*%
%ADD27R,1.000000X0.254000*%
%ADD28R,0.762000X1.016000*%
%ADD29R,1.200000X0.900000*%
%ADD30R,0.800000X0.900000*%
%ADD31O,2.000000X1.905000*%
%ADD32R,2.000000X1.905000*%
%ADD33R,1.300000X1.300000*%
%ADD34C,1.300000*%
%ADD35R,0.900000X0.800000*%
%ADD36R,2.000000X1.500000*%
%ADD37C,3.000000*%
%ADD38R,3.000000X3.000000*%
%ADD39R,2.999740X1.600200*%
%ADD40R,2.500000X1.800000*%
%ADD41R,1.800000X2.500000*%
%ADD42R,1.170000X2.000000*%
%ADD43R,1.520000X2.000000*%
G04 APERTURE END LIST*
D10*
X12700000Y-45720000D03*
X38100000Y-45720000D03*
X12700000Y-43180000D03*
X38100000Y-43180000D03*
X12700000Y-40640000D03*
X38100000Y-40640000D03*
X12700000Y-38100000D03*
X38100000Y-38100000D03*
X12700000Y-35560000D03*
X38100000Y-35560000D03*
X12700000Y-33020000D03*
X38100000Y-33020000D03*
X12700000Y-30480000D03*
X38100000Y-30480000D03*
X12700000Y-27940000D03*
X38100000Y-27940000D03*
X12700000Y-25400000D03*
X38100000Y-25400000D03*
X12700000Y-22860000D03*
X38100000Y-22860000D03*
X12700000Y-20320000D03*
X38100000Y-20320000D03*
X12700000Y-17780000D03*
X38100000Y-17780000D03*
X12700000Y-15240000D03*
X38100000Y-15240000D03*
X12700000Y-12700000D03*
X38100000Y-12700000D03*
X12700000Y-10160000D03*
X38100000Y-10160000D03*
X12700000Y-7620000D03*
X38100000Y-7620000D03*
X12700000Y-5080000D03*
X38100000Y-5080000D03*
X12700000Y-2540000D03*
X38100000Y-2540000D03*
X12700000Y0D03*
X38100000Y0D03*
D11*
X89916000Y-93980000D03*
D12*
X89916000Y-83820000D03*
G36*
G01*
X92513999Y-80077500D02*
X93414001Y-80077500D01*
G75*
G02*
X93664000Y-80327499I0J-249999D01*
G01*
X93664000Y-80852501D01*
G75*
G02*
X93414001Y-81102500I-249999J0D01*
G01*
X92513999Y-81102500D01*
G75*
G02*
X92264000Y-80852501I0J249999D01*
G01*
X92264000Y-80327499D01*
G75*
G02*
X92513999Y-80077500I249999J0D01*
G01*
G37*
G36*
G01*
X92513999Y-78252500D02*
X93414001Y-78252500D01*
G75*
G02*
X93664000Y-78502499I0J-249999D01*
G01*
X93664000Y-79027501D01*
G75*
G02*
X93414001Y-79277500I-249999J0D01*
G01*
X92513999Y-79277500D01*
G75*
G02*
X92264000Y-79027501I0J249999D01*
G01*
X92264000Y-78502499D01*
G75*
G02*
X92513999Y-78252500I249999J0D01*
G01*
G37*
D13*
X77978000Y-42164000D03*
X82978000Y-42164000D03*
D14*
X61976000Y-54610000D03*
X61976000Y-49530000D03*
D15*
X61976000Y-54269640D03*
X61976000Y-49870360D03*
D11*
X66040000Y-10795000D03*
D12*
X66040000Y-635000D03*
D11*
X62865000Y-2540000D03*
X55245000Y-7620000D03*
X62865000Y-5080000D03*
X55245000Y-5080000D03*
X62865000Y-7620000D03*
D16*
X55245000Y-2540000D03*
G36*
G01*
X16901000Y-61110000D02*
X16901000Y-60810000D01*
G75*
G02*
X17051000Y-60660000I150000J0D01*
G01*
X18651000Y-60660000D01*
G75*
G02*
X18801000Y-60810000I0J-150000D01*
G01*
X18801000Y-61110000D01*
G75*
G02*
X18651000Y-61260000I-150000J0D01*
G01*
X17051000Y-61260000D01*
G75*
G02*
X16901000Y-61110000I0J150000D01*
G01*
G37*
G36*
G01*
X16901000Y-62380000D02*
X16901000Y-62080000D01*
G75*
G02*
X17051000Y-61930000I150000J0D01*
G01*
X18651000Y-61930000D01*
G75*
G02*
X18801000Y-62080000I0J-150000D01*
G01*
X18801000Y-62380000D01*
G75*
G02*
X18651000Y-62530000I-150000J0D01*
G01*
X17051000Y-62530000D01*
G75*
G02*
X16901000Y-62380000I0J150000D01*
G01*
G37*
G36*
G01*
X16901000Y-63650000D02*
X16901000Y-63350000D01*
G75*
G02*
X17051000Y-63200000I150000J0D01*
G01*
X18651000Y-63200000D01*
G75*
G02*
X18801000Y-63350000I0J-150000D01*
G01*
X18801000Y-63650000D01*
G75*
G02*
X18651000Y-63800000I-150000J0D01*
G01*
X17051000Y-63800000D01*
G75*
G02*
X16901000Y-63650000I0J150000D01*
G01*
G37*
G36*
G01*
X16901000Y-64920000D02*
X16901000Y-64620000D01*
G75*
G02*
X17051000Y-64470000I150000J0D01*
G01*
X18651000Y-64470000D01*
G75*
G02*
X18801000Y-64620000I0J-150000D01*
G01*
X18801000Y-64920000D01*
G75*
G02*
X18651000Y-65070000I-150000J0D01*
G01*
X17051000Y-65070000D01*
G75*
G02*
X16901000Y-64920000I0J150000D01*
G01*
G37*
G36*
G01*
X9901000Y-64920000D02*
X9901000Y-64620000D01*
G75*
G02*
X10051000Y-64470000I150000J0D01*
G01*
X11651000Y-64470000D01*
G75*
G02*
X11801000Y-64620000I0J-150000D01*
G01*
X11801000Y-64920000D01*
G75*
G02*
X11651000Y-65070000I-150000J0D01*
G01*
X10051000Y-65070000D01*
G75*
G02*
X9901000Y-64920000I0J150000D01*
G01*
G37*
G36*
G01*
X9901000Y-63650000D02*
X9901000Y-63350000D01*
G75*
G02*
X10051000Y-63200000I150000J0D01*
G01*
X11651000Y-63200000D01*
G75*
G02*
X11801000Y-63350000I0J-150000D01*
G01*
X11801000Y-63650000D01*
G75*
G02*
X11651000Y-63800000I-150000J0D01*
G01*
X10051000Y-63800000D01*
G75*
G02*
X9901000Y-63650000I0J150000D01*
G01*
G37*
G36*
G01*
X9901000Y-62380000D02*
X9901000Y-62080000D01*
G75*
G02*
X10051000Y-61930000I150000J0D01*
G01*
X11651000Y-61930000D01*
G75*
G02*
X11801000Y-62080000I0J-150000D01*
G01*
X11801000Y-62380000D01*
G75*
G02*
X11651000Y-62530000I-150000J0D01*
G01*
X10051000Y-62530000D01*
G75*
G02*
X9901000Y-62380000I0J150000D01*
G01*
G37*
G36*
G01*
X9901000Y-61110000D02*
X9901000Y-60810000D01*
G75*
G02*
X10051000Y-60660000I150000J0D01*
G01*
X11651000Y-60660000D01*
G75*
G02*
X11801000Y-60810000I0J-150000D01*
G01*
X11801000Y-61110000D01*
G75*
G02*
X11651000Y-61260000I-150000J0D01*
G01*
X10051000Y-61260000D01*
G75*
G02*
X9901000Y-61110000I0J150000D01*
G01*
G37*
G36*
G01*
X49055000Y-87493500D02*
X50005000Y-87493500D01*
G75*
G02*
X50255000Y-87743500I0J-250000D01*
G01*
X50255000Y-88243500D01*
G75*
G02*
X50005000Y-88493500I-250000J0D01*
G01*
X49055000Y-88493500D01*
G75*
G02*
X48805000Y-88243500I0J250000D01*
G01*
X48805000Y-87743500D01*
G75*
G02*
X49055000Y-87493500I250000J0D01*
G01*
G37*
G36*
G01*
X49055000Y-85593500D02*
X50005000Y-85593500D01*
G75*
G02*
X50255000Y-85843500I0J-250000D01*
G01*
X50255000Y-86343500D01*
G75*
G02*
X50005000Y-86593500I-250000J0D01*
G01*
X49055000Y-86593500D01*
G75*
G02*
X48805000Y-86343500I0J250000D01*
G01*
X48805000Y-85843500D01*
G75*
G02*
X49055000Y-85593500I250000J0D01*
G01*
G37*
D11*
X88900000Y-23495000D03*
D12*
X88900000Y-13335000D03*
D11*
X88900000Y-36322000D03*
D12*
X88900000Y-26162000D03*
G36*
G01*
X51359750Y-6975500D02*
X52272250Y-6975500D01*
G75*
G02*
X52516000Y-7219250I0J-243750D01*
G01*
X52516000Y-7706750D01*
G75*
G02*
X52272250Y-7950500I-243750J0D01*
G01*
X51359750Y-7950500D01*
G75*
G02*
X51116000Y-7706750I0J243750D01*
G01*
X51116000Y-7219250D01*
G75*
G02*
X51359750Y-6975500I243750J0D01*
G01*
G37*
G36*
G01*
X51359750Y-5100500D02*
X52272250Y-5100500D01*
G75*
G02*
X52516000Y-5344250I0J-243750D01*
G01*
X52516000Y-5831750D01*
G75*
G02*
X52272250Y-6075500I-243750J0D01*
G01*
X51359750Y-6075500D01*
G75*
G02*
X51116000Y-5831750I0J243750D01*
G01*
X51116000Y-5344250D01*
G75*
G02*
X51359750Y-5100500I243750J0D01*
G01*
G37*
G36*
G01*
X86810001Y-90580500D02*
X85909999Y-90580500D01*
G75*
G02*
X85660000Y-90330501I0J249999D01*
G01*
X85660000Y-89805499D01*
G75*
G02*
X85909999Y-89555500I249999J0D01*
G01*
X86810001Y-89555500D01*
G75*
G02*
X87060000Y-89805499I0J-249999D01*
G01*
X87060000Y-90330501D01*
G75*
G02*
X86810001Y-90580500I-249999J0D01*
G01*
G37*
G36*
G01*
X86810001Y-92405500D02*
X85909999Y-92405500D01*
G75*
G02*
X85660000Y-92155501I0J249999D01*
G01*
X85660000Y-91630499D01*
G75*
G02*
X85909999Y-91380500I249999J0D01*
G01*
X86810001Y-91380500D01*
G75*
G02*
X87060000Y-91630499I0J-249999D01*
G01*
X87060000Y-92155501D01*
G75*
G02*
X86810001Y-92405500I-249999J0D01*
G01*
G37*
D17*
X3556000Y-94234000D03*
X3556000Y-2286000D03*
G36*
G01*
X41435000Y-87493500D02*
X42385000Y-87493500D01*
G75*
G02*
X42635000Y-87743500I0J-250000D01*
G01*
X42635000Y-88243500D01*
G75*
G02*
X42385000Y-88493500I-250000J0D01*
G01*
X41435000Y-88493500D01*
G75*
G02*
X41185000Y-88243500I0J250000D01*
G01*
X41185000Y-87743500D01*
G75*
G02*
X41435000Y-87493500I250000J0D01*
G01*
G37*
G36*
G01*
X41435000Y-85593500D02*
X42385000Y-85593500D01*
G75*
G02*
X42635000Y-85843500I0J-250000D01*
G01*
X42635000Y-86343500D01*
G75*
G02*
X42385000Y-86593500I-250000J0D01*
G01*
X41435000Y-86593500D01*
G75*
G02*
X41185000Y-86343500I0J250000D01*
G01*
X41185000Y-85843500D01*
G75*
G02*
X41435000Y-85593500I250000J0D01*
G01*
G37*
G36*
G01*
X45245000Y-87493500D02*
X46195000Y-87493500D01*
G75*
G02*
X46445000Y-87743500I0J-250000D01*
G01*
X46445000Y-88243500D01*
G75*
G02*
X46195000Y-88493500I-250000J0D01*
G01*
X45245000Y-88493500D01*
G75*
G02*
X44995000Y-88243500I0J250000D01*
G01*
X44995000Y-87743500D01*
G75*
G02*
X45245000Y-87493500I250000J0D01*
G01*
G37*
G36*
G01*
X45245000Y-85593500D02*
X46195000Y-85593500D01*
G75*
G02*
X46445000Y-85843500I0J-250000D01*
G01*
X46445000Y-86343500D01*
G75*
G02*
X46195000Y-86593500I-250000J0D01*
G01*
X45245000Y-86593500D01*
G75*
G02*
X44995000Y-86343500I0J250000D01*
G01*
X44995000Y-85843500D01*
G75*
G02*
X45245000Y-85593500I250000J0D01*
G01*
G37*
G36*
G01*
X32987000Y-86339500D02*
X32037000Y-86339500D01*
G75*
G02*
X31787000Y-86089500I0J250000D01*
G01*
X31787000Y-85589500D01*
G75*
G02*
X32037000Y-85339500I250000J0D01*
G01*
X32987000Y-85339500D01*
G75*
G02*
X33237000Y-85589500I0J-250000D01*
G01*
X33237000Y-86089500D01*
G75*
G02*
X32987000Y-86339500I-250000J0D01*
G01*
G37*
G36*
G01*
X32987000Y-88239500D02*
X32037000Y-88239500D01*
G75*
G02*
X31787000Y-87989500I0J250000D01*
G01*
X31787000Y-87489500D01*
G75*
G02*
X32037000Y-87239500I250000J0D01*
G01*
X32987000Y-87239500D01*
G75*
G02*
X33237000Y-87489500I0J-250000D01*
G01*
X33237000Y-87989500D01*
G75*
G02*
X32987000Y-88239500I-250000J0D01*
G01*
G37*
G36*
G01*
X26830000Y-69362500D02*
X27780000Y-69362500D01*
G75*
G02*
X28030000Y-69612500I0J-250000D01*
G01*
X28030000Y-70112500D01*
G75*
G02*
X27780000Y-70362500I-250000J0D01*
G01*
X26830000Y-70362500D01*
G75*
G02*
X26580000Y-70112500I0J250000D01*
G01*
X26580000Y-69612500D01*
G75*
G02*
X26830000Y-69362500I250000J0D01*
G01*
G37*
G36*
G01*
X26830000Y-67462500D02*
X27780000Y-67462500D01*
G75*
G02*
X28030000Y-67712500I0J-250000D01*
G01*
X28030000Y-68212500D01*
G75*
G02*
X27780000Y-68462500I-250000J0D01*
G01*
X26830000Y-68462500D01*
G75*
G02*
X26580000Y-68212500I0J250000D01*
G01*
X26580000Y-67712500D01*
G75*
G02*
X26830000Y-67462500I250000J0D01*
G01*
G37*
D18*
X52070000Y-3111500D03*
D19*
X52451000Y-2413000D03*
D20*
X52070000Y-2032000D03*
D19*
X51689000Y-2413000D03*
D20*
X52070000Y-3556000D03*
D18*
X52070000Y-27876500D03*
D19*
X51689000Y-28575000D03*
D20*
X52070000Y-28956000D03*
D19*
X52451000Y-28575000D03*
D20*
X52070000Y-27432000D03*
D18*
X52070000Y-15176500D03*
D19*
X51689000Y-15875000D03*
D20*
X52070000Y-16256000D03*
D19*
X52451000Y-15875000D03*
D20*
X52070000Y-14732000D03*
D18*
X41402000Y-72326500D03*
D19*
X41021000Y-73025000D03*
D20*
X41402000Y-73406000D03*
D19*
X41783000Y-73025000D03*
D20*
X41402000Y-71882000D03*
G36*
G01*
X49676000Y-15690001D02*
X49676000Y-14789999D01*
G75*
G02*
X49925999Y-14540000I249999J0D01*
G01*
X50451001Y-14540000D01*
G75*
G02*
X50701000Y-14789999I0J-249999D01*
G01*
X50701000Y-15690001D01*
G75*
G02*
X50451001Y-15940000I-249999J0D01*
G01*
X49925999Y-15940000D01*
G75*
G02*
X49676000Y-15690001I0J249999D01*
G01*
G37*
G36*
G01*
X47851000Y-15690001D02*
X47851000Y-14789999D01*
G75*
G02*
X48100999Y-14540000I249999J0D01*
G01*
X48626001Y-14540000D01*
G75*
G02*
X48876000Y-14789999I0J-249999D01*
G01*
X48876000Y-15690001D01*
G75*
G02*
X48626001Y-15940000I-249999J0D01*
G01*
X48100999Y-15940000D01*
G75*
G02*
X47851000Y-15690001I0J249999D01*
G01*
G37*
G36*
G01*
X16567999Y-82950000D02*
X17468001Y-82950000D01*
G75*
G02*
X17718000Y-83199999I0J-249999D01*
G01*
X17718000Y-83725001D01*
G75*
G02*
X17468001Y-83975000I-249999J0D01*
G01*
X16567999Y-83975000D01*
G75*
G02*
X16318000Y-83725001I0J249999D01*
G01*
X16318000Y-83199999D01*
G75*
G02*
X16567999Y-82950000I249999J0D01*
G01*
G37*
G36*
G01*
X16567999Y-81125000D02*
X17468001Y-81125000D01*
G75*
G02*
X17718000Y-81374999I0J-249999D01*
G01*
X17718000Y-81900001D01*
G75*
G02*
X17468001Y-82150000I-249999J0D01*
G01*
X16567999Y-82150000D01*
G75*
G02*
X16318000Y-81900001I0J249999D01*
G01*
X16318000Y-81374999D01*
G75*
G02*
X16567999Y-81125000I249999J0D01*
G01*
G37*
G36*
G01*
X16821999Y-74392500D02*
X17722001Y-74392500D01*
G75*
G02*
X17972000Y-74642499I0J-249999D01*
G01*
X17972000Y-75167501D01*
G75*
G02*
X17722001Y-75417500I-249999J0D01*
G01*
X16821999Y-75417500D01*
G75*
G02*
X16572000Y-75167501I0J249999D01*
G01*
X16572000Y-74642499D01*
G75*
G02*
X16821999Y-74392500I249999J0D01*
G01*
G37*
G36*
G01*
X16821999Y-72567500D02*
X17722001Y-72567500D01*
G75*
G02*
X17972000Y-72817499I0J-249999D01*
G01*
X17972000Y-73342501D01*
G75*
G02*
X17722001Y-73592500I-249999J0D01*
G01*
X16821999Y-73592500D01*
G75*
G02*
X16572000Y-73342501I0J249999D01*
G01*
X16572000Y-72817499D01*
G75*
G02*
X16821999Y-72567500I249999J0D01*
G01*
G37*
G36*
G01*
X20770001Y-77499500D02*
X19869999Y-77499500D01*
G75*
G02*
X19620000Y-77249501I0J249999D01*
G01*
X19620000Y-76724499D01*
G75*
G02*
X19869999Y-76474500I249999J0D01*
G01*
X20770001Y-76474500D01*
G75*
G02*
X21020000Y-76724499I0J-249999D01*
G01*
X21020000Y-77249501D01*
G75*
G02*
X20770001Y-77499500I-249999J0D01*
G01*
G37*
G36*
G01*
X20770001Y-79324500D02*
X19869999Y-79324500D01*
G75*
G02*
X19620000Y-79074501I0J249999D01*
G01*
X19620000Y-78549499D01*
G75*
G02*
X19869999Y-78299500I249999J0D01*
G01*
X20770001Y-78299500D01*
G75*
G02*
X21020000Y-78549499I0J-249999D01*
G01*
X21020000Y-79074501D01*
G75*
G02*
X20770001Y-79324500I-249999J0D01*
G01*
G37*
G36*
G01*
X20643001Y-86389500D02*
X19742999Y-86389500D01*
G75*
G02*
X19493000Y-86139501I0J249999D01*
G01*
X19493000Y-85614499D01*
G75*
G02*
X19742999Y-85364500I249999J0D01*
G01*
X20643001Y-85364500D01*
G75*
G02*
X20893000Y-85614499I0J-249999D01*
G01*
X20893000Y-86139501D01*
G75*
G02*
X20643001Y-86389500I-249999J0D01*
G01*
G37*
G36*
G01*
X20643001Y-88214500D02*
X19742999Y-88214500D01*
G75*
G02*
X19493000Y-87964501I0J249999D01*
G01*
X19493000Y-87439499D01*
G75*
G02*
X19742999Y-87189500I249999J0D01*
G01*
X20643001Y-87189500D01*
G75*
G02*
X20893000Y-87439499I0J-249999D01*
G01*
X20893000Y-87964501D01*
G75*
G02*
X20643001Y-88214500I-249999J0D01*
G01*
G37*
G36*
G01*
X17722001Y-77402500D02*
X16821999Y-77402500D01*
G75*
G02*
X16572000Y-77152501I0J249999D01*
G01*
X16572000Y-76627499D01*
G75*
G02*
X16821999Y-76377500I249999J0D01*
G01*
X17722001Y-76377500D01*
G75*
G02*
X17972000Y-76627499I0J-249999D01*
G01*
X17972000Y-77152501D01*
G75*
G02*
X17722001Y-77402500I-249999J0D01*
G01*
G37*
G36*
G01*
X17722001Y-79227500D02*
X16821999Y-79227500D01*
G75*
G02*
X16572000Y-78977501I0J249999D01*
G01*
X16572000Y-78452499D01*
G75*
G02*
X16821999Y-78202500I249999J0D01*
G01*
X17722001Y-78202500D01*
G75*
G02*
X17972000Y-78452499I0J-249999D01*
G01*
X17972000Y-78977501D01*
G75*
G02*
X17722001Y-79227500I-249999J0D01*
G01*
G37*
G36*
G01*
X26866001Y-82150000D02*
X25965999Y-82150000D01*
G75*
G02*
X25716000Y-81900001I0J249999D01*
G01*
X25716000Y-81374999D01*
G75*
G02*
X25965999Y-81125000I249999J0D01*
G01*
X26866001Y-81125000D01*
G75*
G02*
X27116000Y-81374999I0J-249999D01*
G01*
X27116000Y-81900001D01*
G75*
G02*
X26866001Y-82150000I-249999J0D01*
G01*
G37*
G36*
G01*
X26866001Y-83975000D02*
X25965999Y-83975000D01*
G75*
G02*
X25716000Y-83725001I0J249999D01*
G01*
X25716000Y-83199999D01*
G75*
G02*
X25965999Y-82950000I249999J0D01*
G01*
X26866001Y-82950000D01*
G75*
G02*
X27116000Y-83199999I0J-249999D01*
G01*
X27116000Y-83725001D01*
G75*
G02*
X26866001Y-83975000I-249999J0D01*
G01*
G37*
G36*
G01*
X26866001Y-73592500D02*
X25965999Y-73592500D01*
G75*
G02*
X25716000Y-73342501I0J249999D01*
G01*
X25716000Y-72817499D01*
G75*
G02*
X25965999Y-72567500I249999J0D01*
G01*
X26866001Y-72567500D01*
G75*
G02*
X27116000Y-72817499I0J-249999D01*
G01*
X27116000Y-73342501D01*
G75*
G02*
X26866001Y-73592500I-249999J0D01*
G01*
G37*
G36*
G01*
X26866001Y-75417500D02*
X25965999Y-75417500D01*
G75*
G02*
X25716000Y-75167501I0J249999D01*
G01*
X25716000Y-74642499D01*
G75*
G02*
X25965999Y-74392500I249999J0D01*
G01*
X26866001Y-74392500D01*
G75*
G02*
X27116000Y-74642499I0J-249999D01*
G01*
X27116000Y-75167501D01*
G75*
G02*
X26866001Y-75417500I-249999J0D01*
G01*
G37*
G36*
G01*
X37903999Y-73298000D02*
X38804001Y-73298000D01*
G75*
G02*
X39054000Y-73547999I0J-249999D01*
G01*
X39054000Y-74073001D01*
G75*
G02*
X38804001Y-74323000I-249999J0D01*
G01*
X37903999Y-74323000D01*
G75*
G02*
X37654000Y-74073001I0J249999D01*
G01*
X37654000Y-73547999D01*
G75*
G02*
X37903999Y-73298000I249999J0D01*
G01*
G37*
G36*
G01*
X37903999Y-71473000D02*
X38804001Y-71473000D01*
G75*
G02*
X39054000Y-71722999I0J-249999D01*
G01*
X39054000Y-72248001D01*
G75*
G02*
X38804001Y-72498000I-249999J0D01*
G01*
X37903999Y-72498000D01*
G75*
G02*
X37654000Y-72248001I0J249999D01*
G01*
X37654000Y-71722999D01*
G75*
G02*
X37903999Y-71473000I249999J0D01*
G01*
G37*
G36*
G01*
X26866001Y-86389500D02*
X25965999Y-86389500D01*
G75*
G02*
X25716000Y-86139501I0J249999D01*
G01*
X25716000Y-85614499D01*
G75*
G02*
X25965999Y-85364500I249999J0D01*
G01*
X26866001Y-85364500D01*
G75*
G02*
X27116000Y-85614499I0J-249999D01*
G01*
X27116000Y-86139501D01*
G75*
G02*
X26866001Y-86389500I-249999J0D01*
G01*
G37*
G36*
G01*
X26866001Y-88214500D02*
X25965999Y-88214500D01*
G75*
G02*
X25716000Y-87964501I0J249999D01*
G01*
X25716000Y-87439499D01*
G75*
G02*
X25965999Y-87189500I249999J0D01*
G01*
X26866001Y-87189500D01*
G75*
G02*
X27116000Y-87439499I0J-249999D01*
G01*
X27116000Y-87964501D01*
G75*
G02*
X26866001Y-88214500I-249999J0D01*
G01*
G37*
G36*
G01*
X29914001Y-77499500D02*
X29013999Y-77499500D01*
G75*
G02*
X28764000Y-77249501I0J249999D01*
G01*
X28764000Y-76724499D01*
G75*
G02*
X29013999Y-76474500I249999J0D01*
G01*
X29914001Y-76474500D01*
G75*
G02*
X30164000Y-76724499I0J-249999D01*
G01*
X30164000Y-77249501D01*
G75*
G02*
X29914001Y-77499500I-249999J0D01*
G01*
G37*
G36*
G01*
X29914001Y-79324500D02*
X29013999Y-79324500D01*
G75*
G02*
X28764000Y-79074501I0J249999D01*
G01*
X28764000Y-78549499D01*
G75*
G02*
X29013999Y-78299500I249999J0D01*
G01*
X29914001Y-78299500D01*
G75*
G02*
X30164000Y-78549499I0J-249999D01*
G01*
X30164000Y-79074501D01*
G75*
G02*
X29914001Y-79324500I-249999J0D01*
G01*
G37*
G36*
G01*
X29914001Y-86389500D02*
X29013999Y-86389500D01*
G75*
G02*
X28764000Y-86139501I0J249999D01*
G01*
X28764000Y-85614499D01*
G75*
G02*
X29013999Y-85364500I249999J0D01*
G01*
X29914001Y-85364500D01*
G75*
G02*
X30164000Y-85614499I0J-249999D01*
G01*
X30164000Y-86139501D01*
G75*
G02*
X29914001Y-86389500I-249999J0D01*
G01*
G37*
G36*
G01*
X29914001Y-88214500D02*
X29013999Y-88214500D01*
G75*
G02*
X28764000Y-87964501I0J249999D01*
G01*
X28764000Y-87439499D01*
G75*
G02*
X29013999Y-87189500I249999J0D01*
G01*
X29914001Y-87189500D01*
G75*
G02*
X30164000Y-87439499I0J-249999D01*
G01*
X30164000Y-87964501D01*
G75*
G02*
X29914001Y-88214500I-249999J0D01*
G01*
G37*
G36*
G01*
X26866001Y-77499500D02*
X25965999Y-77499500D01*
G75*
G02*
X25716000Y-77249501I0J249999D01*
G01*
X25716000Y-76724499D01*
G75*
G02*
X25965999Y-76474500I249999J0D01*
G01*
X26866001Y-76474500D01*
G75*
G02*
X27116000Y-76724499I0J-249999D01*
G01*
X27116000Y-77249501D01*
G75*
G02*
X26866001Y-77499500I-249999J0D01*
G01*
G37*
G36*
G01*
X26866001Y-79324500D02*
X25965999Y-79324500D01*
G75*
G02*
X25716000Y-79074501I0J249999D01*
G01*
X25716000Y-78549499D01*
G75*
G02*
X25965999Y-78299500I249999J0D01*
G01*
X26866001Y-78299500D01*
G75*
G02*
X27116000Y-78549499I0J-249999D01*
G01*
X27116000Y-79074501D01*
G75*
G02*
X26866001Y-79324500I-249999J0D01*
G01*
G37*
G36*
G01*
X41078999Y-77283500D02*
X41979001Y-77283500D01*
G75*
G02*
X42229000Y-77533499I0J-249999D01*
G01*
X42229000Y-78058501D01*
G75*
G02*
X41979001Y-78308500I-249999J0D01*
G01*
X41078999Y-78308500D01*
G75*
G02*
X40829000Y-78058501I0J249999D01*
G01*
X40829000Y-77533499D01*
G75*
G02*
X41078999Y-77283500I249999J0D01*
G01*
G37*
G36*
G01*
X41078999Y-75458500D02*
X41979001Y-75458500D01*
G75*
G02*
X42229000Y-75708499I0J-249999D01*
G01*
X42229000Y-76233501D01*
G75*
G02*
X41979001Y-76483500I-249999J0D01*
G01*
X41078999Y-76483500D01*
G75*
G02*
X40829000Y-76233501I0J249999D01*
G01*
X40829000Y-75708499D01*
G75*
G02*
X41078999Y-75458500I249999J0D01*
G01*
G37*
G36*
G01*
X10217999Y-78680500D02*
X11118001Y-78680500D01*
G75*
G02*
X11368000Y-78930499I0J-249999D01*
G01*
X11368000Y-79455501D01*
G75*
G02*
X11118001Y-79705500I-249999J0D01*
G01*
X10217999Y-79705500D01*
G75*
G02*
X9968000Y-79455501I0J249999D01*
G01*
X9968000Y-78930499D01*
G75*
G02*
X10217999Y-78680500I249999J0D01*
G01*
G37*
G36*
G01*
X10217999Y-76855500D02*
X11118001Y-76855500D01*
G75*
G02*
X11368000Y-77105499I0J-249999D01*
G01*
X11368000Y-77630501D01*
G75*
G02*
X11118001Y-77880500I-249999J0D01*
G01*
X10217999Y-77880500D01*
G75*
G02*
X9968000Y-77630501I0J249999D01*
G01*
X9968000Y-77105499D01*
G75*
G02*
X10217999Y-76855500I249999J0D01*
G01*
G37*
D21*
X96400000Y-41278000D03*
X88900000Y-39878000D03*
X88265000Y-45720000D03*
X86865000Y-53220000D03*
D11*
X62865000Y-27940000D03*
X55245000Y-33020000D03*
X62865000Y-30480000D03*
X55245000Y-30480000D03*
X62865000Y-33020000D03*
D16*
X55245000Y-27940000D03*
D11*
X62865000Y-15240000D03*
X55245000Y-20320000D03*
X62865000Y-17780000D03*
X55245000Y-17780000D03*
X62865000Y-20320000D03*
D16*
X55245000Y-15240000D03*
G36*
G01*
X45269999Y-83125500D02*
X46170001Y-83125500D01*
G75*
G02*
X46420000Y-83375499I0J-249999D01*
G01*
X46420000Y-83900501D01*
G75*
G02*
X46170001Y-84150500I-249999J0D01*
G01*
X45269999Y-84150500D01*
G75*
G02*
X45020000Y-83900501I0J249999D01*
G01*
X45020000Y-83375499D01*
G75*
G02*
X45269999Y-83125500I249999J0D01*
G01*
G37*
G36*
G01*
X45269999Y-81300500D02*
X46170001Y-81300500D01*
G75*
G02*
X46420000Y-81550499I0J-249999D01*
G01*
X46420000Y-82075501D01*
G75*
G02*
X46170001Y-82325500I-249999J0D01*
G01*
X45269999Y-82325500D01*
G75*
G02*
X45020000Y-82075501I0J249999D01*
G01*
X45020000Y-81550499D01*
G75*
G02*
X45269999Y-81300500I249999J0D01*
G01*
G37*
G36*
G01*
X51359750Y-19675500D02*
X52272250Y-19675500D01*
G75*
G02*
X52516000Y-19919250I0J-243750D01*
G01*
X52516000Y-20406750D01*
G75*
G02*
X52272250Y-20650500I-243750J0D01*
G01*
X51359750Y-20650500D01*
G75*
G02*
X51116000Y-20406750I0J243750D01*
G01*
X51116000Y-19919250D01*
G75*
G02*
X51359750Y-19675500I243750J0D01*
G01*
G37*
G36*
G01*
X51359750Y-17800500D02*
X52272250Y-17800500D01*
G75*
G02*
X52516000Y-18044250I0J-243750D01*
G01*
X52516000Y-18531750D01*
G75*
G02*
X52272250Y-18775500I-243750J0D01*
G01*
X51359750Y-18775500D01*
G75*
G02*
X51116000Y-18531750I0J243750D01*
G01*
X51116000Y-18044250D01*
G75*
G02*
X51359750Y-17800500I243750J0D01*
G01*
G37*
G36*
G01*
X42778500Y-30912750D02*
X42778500Y-31825250D01*
G75*
G02*
X42534750Y-32069000I-243750J0D01*
G01*
X42047250Y-32069000D01*
G75*
G02*
X41803500Y-31825250I0J243750D01*
G01*
X41803500Y-30912750D01*
G75*
G02*
X42047250Y-30669000I243750J0D01*
G01*
X42534750Y-30669000D01*
G75*
G02*
X42778500Y-30912750I0J-243750D01*
G01*
G37*
G36*
G01*
X44653500Y-30912750D02*
X44653500Y-31825250D01*
G75*
G02*
X44409750Y-32069000I-243750J0D01*
G01*
X43922250Y-32069000D01*
G75*
G02*
X43678500Y-31825250I0J243750D01*
G01*
X43678500Y-30912750D01*
G75*
G02*
X43922250Y-30669000I243750J0D01*
G01*
X44409750Y-30669000D01*
G75*
G02*
X44653500Y-30912750I0J-243750D01*
G01*
G37*
G36*
G01*
X13265999Y-82490500D02*
X14166001Y-82490500D01*
G75*
G02*
X14416000Y-82740499I0J-249999D01*
G01*
X14416000Y-83265501D01*
G75*
G02*
X14166001Y-83515500I-249999J0D01*
G01*
X13265999Y-83515500D01*
G75*
G02*
X13016000Y-83265501I0J249999D01*
G01*
X13016000Y-82740499D01*
G75*
G02*
X13265999Y-82490500I249999J0D01*
G01*
G37*
G36*
G01*
X13265999Y-80665500D02*
X14166001Y-80665500D01*
G75*
G02*
X14416000Y-80915499I0J-249999D01*
G01*
X14416000Y-81440501D01*
G75*
G02*
X14166001Y-81690500I-249999J0D01*
G01*
X13265999Y-81690500D01*
G75*
G02*
X13016000Y-81440501I0J249999D01*
G01*
X13016000Y-80915499D01*
G75*
G02*
X13265999Y-80665500I249999J0D01*
G01*
G37*
G36*
G01*
X23843000Y-86339500D02*
X22893000Y-86339500D01*
G75*
G02*
X22643000Y-86089500I0J250000D01*
G01*
X22643000Y-85589500D01*
G75*
G02*
X22893000Y-85339500I250000J0D01*
G01*
X23843000Y-85339500D01*
G75*
G02*
X24093000Y-85589500I0J-250000D01*
G01*
X24093000Y-86089500D01*
G75*
G02*
X23843000Y-86339500I-250000J0D01*
G01*
G37*
G36*
G01*
X23843000Y-88239500D02*
X22893000Y-88239500D01*
G75*
G02*
X22643000Y-87989500I0J250000D01*
G01*
X22643000Y-87489500D01*
G75*
G02*
X22893000Y-87239500I250000J0D01*
G01*
X23843000Y-87239500D01*
G75*
G02*
X24093000Y-87489500I0J-250000D01*
G01*
X24093000Y-87989500D01*
G75*
G02*
X23843000Y-88239500I-250000J0D01*
G01*
G37*
G36*
G01*
X20480000Y-69362500D02*
X21430000Y-69362500D01*
G75*
G02*
X21680000Y-69612500I0J-250000D01*
G01*
X21680000Y-70112500D01*
G75*
G02*
X21430000Y-70362500I-250000J0D01*
G01*
X20480000Y-70362500D01*
G75*
G02*
X20230000Y-70112500I0J250000D01*
G01*
X20230000Y-69612500D01*
G75*
G02*
X20480000Y-69362500I250000J0D01*
G01*
G37*
G36*
G01*
X20480000Y-67462500D02*
X21430000Y-67462500D01*
G75*
G02*
X21680000Y-67712500I0J-250000D01*
G01*
X21680000Y-68212500D01*
G75*
G02*
X21430000Y-68462500I-250000J0D01*
G01*
X20480000Y-68462500D01*
G75*
G02*
X20230000Y-68212500I0J250000D01*
G01*
X20230000Y-67712500D01*
G75*
G02*
X20480000Y-67462500I250000J0D01*
G01*
G37*
G36*
G01*
X49597500Y-28390001D02*
X49597500Y-27489999D01*
G75*
G02*
X49847499Y-27240000I249999J0D01*
G01*
X50372501Y-27240000D01*
G75*
G02*
X50622500Y-27489999I0J-249999D01*
G01*
X50622500Y-28390001D01*
G75*
G02*
X50372501Y-28640000I-249999J0D01*
G01*
X49847499Y-28640000D01*
G75*
G02*
X49597500Y-28390001I0J249999D01*
G01*
G37*
G36*
G01*
X47772500Y-28390001D02*
X47772500Y-27489999D01*
G75*
G02*
X48022499Y-27240000I249999J0D01*
G01*
X48547501Y-27240000D01*
G75*
G02*
X48797500Y-27489999I0J-249999D01*
G01*
X48797500Y-28390001D01*
G75*
G02*
X48547501Y-28640000I-249999J0D01*
G01*
X48022499Y-28640000D01*
G75*
G02*
X47772500Y-28390001I0J249999D01*
G01*
G37*
G36*
G01*
X41459999Y-83125500D02*
X42360001Y-83125500D01*
G75*
G02*
X42610000Y-83375499I0J-249999D01*
G01*
X42610000Y-83900501D01*
G75*
G02*
X42360001Y-84150500I-249999J0D01*
G01*
X41459999Y-84150500D01*
G75*
G02*
X41210000Y-83900501I0J249999D01*
G01*
X41210000Y-83375499D01*
G75*
G02*
X41459999Y-83125500I249999J0D01*
G01*
G37*
G36*
G01*
X41459999Y-81300500D02*
X42360001Y-81300500D01*
G75*
G02*
X42610000Y-81550499I0J-249999D01*
G01*
X42610000Y-82075501D01*
G75*
G02*
X42360001Y-82325500I-249999J0D01*
G01*
X41459999Y-82325500D01*
G75*
G02*
X41210000Y-82075501I0J249999D01*
G01*
X41210000Y-81550499D01*
G75*
G02*
X41459999Y-81300500I249999J0D01*
G01*
G37*
G36*
G01*
X10217999Y-70425500D02*
X11118001Y-70425500D01*
G75*
G02*
X11368000Y-70675499I0J-249999D01*
G01*
X11368000Y-71200501D01*
G75*
G02*
X11118001Y-71450500I-249999J0D01*
G01*
X10217999Y-71450500D01*
G75*
G02*
X9968000Y-71200501I0J249999D01*
G01*
X9968000Y-70675499D01*
G75*
G02*
X10217999Y-70425500I249999J0D01*
G01*
G37*
G36*
G01*
X10217999Y-68600500D02*
X11118001Y-68600500D01*
G75*
G02*
X11368000Y-68850499I0J-249999D01*
G01*
X11368000Y-69375501D01*
G75*
G02*
X11118001Y-69625500I-249999J0D01*
G01*
X10217999Y-69625500D01*
G75*
G02*
X9968000Y-69375501I0J249999D01*
G01*
X9968000Y-68850499D01*
G75*
G02*
X10217999Y-68600500I249999J0D01*
G01*
G37*
G36*
G01*
X13265999Y-70425500D02*
X14166001Y-70425500D01*
G75*
G02*
X14416000Y-70675499I0J-249999D01*
G01*
X14416000Y-71200501D01*
G75*
G02*
X14166001Y-71450500I-249999J0D01*
G01*
X13265999Y-71450500D01*
G75*
G02*
X13016000Y-71200501I0J249999D01*
G01*
X13016000Y-70675499D01*
G75*
G02*
X13265999Y-70425500I249999J0D01*
G01*
G37*
G36*
G01*
X13265999Y-68600500D02*
X14166001Y-68600500D01*
G75*
G02*
X14416000Y-68850499I0J-249999D01*
G01*
X14416000Y-69375501D01*
G75*
G02*
X14166001Y-69625500I-249999J0D01*
G01*
X13265999Y-69625500D01*
G75*
G02*
X13016000Y-69375501I0J249999D01*
G01*
X13016000Y-68850499D01*
G75*
G02*
X13265999Y-68600500I249999J0D01*
G01*
G37*
G36*
G01*
X23679999Y-69282500D02*
X24580001Y-69282500D01*
G75*
G02*
X24830000Y-69532499I0J-249999D01*
G01*
X24830000Y-70057501D01*
G75*
G02*
X24580001Y-70307500I-249999J0D01*
G01*
X23679999Y-70307500D01*
G75*
G02*
X23430000Y-70057501I0J249999D01*
G01*
X23430000Y-69532499D01*
G75*
G02*
X23679999Y-69282500I249999J0D01*
G01*
G37*
G36*
G01*
X23679999Y-67457500D02*
X24580001Y-67457500D01*
G75*
G02*
X24830000Y-67707499I0J-249999D01*
G01*
X24830000Y-68232501D01*
G75*
G02*
X24580001Y-68482500I-249999J0D01*
G01*
X23679999Y-68482500D01*
G75*
G02*
X23430000Y-68232501I0J249999D01*
G01*
X23430000Y-67707499D01*
G75*
G02*
X23679999Y-67457500I249999J0D01*
G01*
G37*
G36*
G01*
X37625000Y-87493500D02*
X38575000Y-87493500D01*
G75*
G02*
X38825000Y-87743500I0J-250000D01*
G01*
X38825000Y-88243500D01*
G75*
G02*
X38575000Y-88493500I-250000J0D01*
G01*
X37625000Y-88493500D01*
G75*
G02*
X37375000Y-88243500I0J250000D01*
G01*
X37375000Y-87743500D01*
G75*
G02*
X37625000Y-87493500I250000J0D01*
G01*
G37*
G36*
G01*
X37625000Y-85593500D02*
X38575000Y-85593500D01*
G75*
G02*
X38825000Y-85843500I0J-250000D01*
G01*
X38825000Y-86343500D01*
G75*
G02*
X38575000Y-86593500I-250000J0D01*
G01*
X37625000Y-86593500D01*
G75*
G02*
X37375000Y-86343500I0J250000D01*
G01*
X37375000Y-85843500D01*
G75*
G02*
X37625000Y-85593500I250000J0D01*
G01*
G37*
G36*
G01*
X23843000Y-77449500D02*
X22893000Y-77449500D01*
G75*
G02*
X22643000Y-77199500I0J250000D01*
G01*
X22643000Y-76699500D01*
G75*
G02*
X22893000Y-76449500I250000J0D01*
G01*
X23843000Y-76449500D01*
G75*
G02*
X24093000Y-76699500I0J-250000D01*
G01*
X24093000Y-77199500D01*
G75*
G02*
X23843000Y-77449500I-250000J0D01*
G01*
G37*
G36*
G01*
X23843000Y-79349500D02*
X22893000Y-79349500D01*
G75*
G02*
X22643000Y-79099500I0J250000D01*
G01*
X22643000Y-78599500D01*
G75*
G02*
X22893000Y-78349500I250000J0D01*
G01*
X23843000Y-78349500D01*
G75*
G02*
X24093000Y-78599500I0J-250000D01*
G01*
X24093000Y-79099500D01*
G75*
G02*
X23843000Y-79349500I-250000J0D01*
G01*
G37*
G36*
G01*
X32987000Y-77449500D02*
X32037000Y-77449500D01*
G75*
G02*
X31787000Y-77199500I0J250000D01*
G01*
X31787000Y-76699500D01*
G75*
G02*
X32037000Y-76449500I250000J0D01*
G01*
X32987000Y-76449500D01*
G75*
G02*
X33237000Y-76699500I0J-250000D01*
G01*
X33237000Y-77199500D01*
G75*
G02*
X32987000Y-77449500I-250000J0D01*
G01*
G37*
G36*
G01*
X32987000Y-79349500D02*
X32037000Y-79349500D01*
G75*
G02*
X31787000Y-79099500I0J250000D01*
G01*
X31787000Y-78599500D01*
G75*
G02*
X32037000Y-78349500I250000J0D01*
G01*
X32987000Y-78349500D01*
G75*
G02*
X33237000Y-78599500I0J-250000D01*
G01*
X33237000Y-79099500D01*
G75*
G02*
X32987000Y-79349500I-250000J0D01*
G01*
G37*
G36*
G01*
X37879000Y-77333500D02*
X38829000Y-77333500D01*
G75*
G02*
X39079000Y-77583500I0J-250000D01*
G01*
X39079000Y-78083500D01*
G75*
G02*
X38829000Y-78333500I-250000J0D01*
G01*
X37879000Y-78333500D01*
G75*
G02*
X37629000Y-78083500I0J250000D01*
G01*
X37629000Y-77583500D01*
G75*
G02*
X37879000Y-77333500I250000J0D01*
G01*
G37*
G36*
G01*
X37879000Y-75433500D02*
X38829000Y-75433500D01*
G75*
G02*
X39079000Y-75683500I0J-250000D01*
G01*
X39079000Y-76183500D01*
G75*
G02*
X38829000Y-76433500I-250000J0D01*
G01*
X37879000Y-76433500D01*
G75*
G02*
X37629000Y-76183500I0J250000D01*
G01*
X37629000Y-75683500D01*
G75*
G02*
X37879000Y-75433500I250000J0D01*
G01*
G37*
G36*
G01*
X51359750Y-32375500D02*
X52272250Y-32375500D01*
G75*
G02*
X52516000Y-32619250I0J-243750D01*
G01*
X52516000Y-33106750D01*
G75*
G02*
X52272250Y-33350500I-243750J0D01*
G01*
X51359750Y-33350500D01*
G75*
G02*
X51116000Y-33106750I0J243750D01*
G01*
X51116000Y-32619250D01*
G75*
G02*
X51359750Y-32375500I243750J0D01*
G01*
G37*
G36*
G01*
X51359750Y-30500500D02*
X52272250Y-30500500D01*
G75*
G02*
X52516000Y-30744250I0J-243750D01*
G01*
X52516000Y-31231750D01*
G75*
G02*
X52272250Y-31475500I-243750J0D01*
G01*
X51359750Y-31475500D01*
G75*
G02*
X51116000Y-31231750I0J243750D01*
G01*
X51116000Y-30744250D01*
G75*
G02*
X51359750Y-30500500I243750J0D01*
G01*
G37*
G36*
G01*
X49597500Y-2990001D02*
X49597500Y-2089999D01*
G75*
G02*
X49847499Y-1840000I249999J0D01*
G01*
X50372501Y-1840000D01*
G75*
G02*
X50622500Y-2089999I0J-249999D01*
G01*
X50622500Y-2990001D01*
G75*
G02*
X50372501Y-3240000I-249999J0D01*
G01*
X49847499Y-3240000D01*
G75*
G02*
X49597500Y-2990001I0J249999D01*
G01*
G37*
G36*
G01*
X47772500Y-2990001D02*
X47772500Y-2089999D01*
G75*
G02*
X48022499Y-1840000I249999J0D01*
G01*
X48547501Y-1840000D01*
G75*
G02*
X48797500Y-2089999I0J-249999D01*
G01*
X48797500Y-2990001D01*
G75*
G02*
X48547501Y-3240000I-249999J0D01*
G01*
X48022499Y-3240000D01*
G75*
G02*
X47772500Y-2990001I0J249999D01*
G01*
G37*
G36*
G01*
X48317999Y-32325500D02*
X49218001Y-32325500D01*
G75*
G02*
X49468000Y-32575499I0J-249999D01*
G01*
X49468000Y-33100501D01*
G75*
G02*
X49218001Y-33350500I-249999J0D01*
G01*
X48317999Y-33350500D01*
G75*
G02*
X48068000Y-33100501I0J249999D01*
G01*
X48068000Y-32575499D01*
G75*
G02*
X48317999Y-32325500I249999J0D01*
G01*
G37*
G36*
G01*
X48317999Y-30500500D02*
X49218001Y-30500500D01*
G75*
G02*
X49468000Y-30750499I0J-249999D01*
G01*
X49468000Y-31275501D01*
G75*
G02*
X49218001Y-31525500I-249999J0D01*
G01*
X48317999Y-31525500D01*
G75*
G02*
X48068000Y-31275501I0J249999D01*
G01*
X48068000Y-30750499D01*
G75*
G02*
X48317999Y-30500500I249999J0D01*
G01*
G37*
G36*
G01*
X48317999Y-19625500D02*
X49218001Y-19625500D01*
G75*
G02*
X49468000Y-19875499I0J-249999D01*
G01*
X49468000Y-20400501D01*
G75*
G02*
X49218001Y-20650500I-249999J0D01*
G01*
X48317999Y-20650500D01*
G75*
G02*
X48068000Y-20400501I0J249999D01*
G01*
X48068000Y-19875499D01*
G75*
G02*
X48317999Y-19625500I249999J0D01*
G01*
G37*
G36*
G01*
X48317999Y-17800500D02*
X49218001Y-17800500D01*
G75*
G02*
X49468000Y-18050499I0J-249999D01*
G01*
X49468000Y-18575501D01*
G75*
G02*
X49218001Y-18825500I-249999J0D01*
G01*
X48317999Y-18825500D01*
G75*
G02*
X48068000Y-18575501I0J249999D01*
G01*
X48068000Y-18050499D01*
G75*
G02*
X48317999Y-17800500I249999J0D01*
G01*
G37*
G36*
G01*
X37649999Y-83125500D02*
X38550001Y-83125500D01*
G75*
G02*
X38800000Y-83375499I0J-249999D01*
G01*
X38800000Y-83900501D01*
G75*
G02*
X38550001Y-84150500I-249999J0D01*
G01*
X37649999Y-84150500D01*
G75*
G02*
X37400000Y-83900501I0J249999D01*
G01*
X37400000Y-83375499D01*
G75*
G02*
X37649999Y-83125500I249999J0D01*
G01*
G37*
G36*
G01*
X37649999Y-81300500D02*
X38550001Y-81300500D01*
G75*
G02*
X38800000Y-81550499I0J-249999D01*
G01*
X38800000Y-82075501D01*
G75*
G02*
X38550001Y-82325500I-249999J0D01*
G01*
X37649999Y-82325500D01*
G75*
G02*
X37400000Y-82075501I0J249999D01*
G01*
X37400000Y-81550499D01*
G75*
G02*
X37649999Y-81300500I249999J0D01*
G01*
G37*
G36*
G01*
X49079999Y-83125500D02*
X49980001Y-83125500D01*
G75*
G02*
X50230000Y-83375499I0J-249999D01*
G01*
X50230000Y-83900501D01*
G75*
G02*
X49980001Y-84150500I-249999J0D01*
G01*
X49079999Y-84150500D01*
G75*
G02*
X48830000Y-83900501I0J249999D01*
G01*
X48830000Y-83375499D01*
G75*
G02*
X49079999Y-83125500I249999J0D01*
G01*
G37*
G36*
G01*
X49079999Y-81300500D02*
X49980001Y-81300500D01*
G75*
G02*
X50230000Y-81550499I0J-249999D01*
G01*
X50230000Y-82075501D01*
G75*
G02*
X49980001Y-82325500I-249999J0D01*
G01*
X49079999Y-82325500D01*
G75*
G02*
X48830000Y-82075501I0J249999D01*
G01*
X48830000Y-81550499D01*
G75*
G02*
X49079999Y-81300500I249999J0D01*
G01*
G37*
G36*
G01*
X17468001Y-86389500D02*
X16567999Y-86389500D01*
G75*
G02*
X16318000Y-86139501I0J249999D01*
G01*
X16318000Y-85614499D01*
G75*
G02*
X16567999Y-85364500I249999J0D01*
G01*
X17468001Y-85364500D01*
G75*
G02*
X17718000Y-85614499I0J-249999D01*
G01*
X17718000Y-86139501D01*
G75*
G02*
X17468001Y-86389500I-249999J0D01*
G01*
G37*
G36*
G01*
X17468001Y-88214500D02*
X16567999Y-88214500D01*
G75*
G02*
X16318000Y-87964501I0J249999D01*
G01*
X16318000Y-87439499D01*
G75*
G02*
X16567999Y-87189500I249999J0D01*
G01*
X17468001Y-87189500D01*
G75*
G02*
X17718000Y-87439499I0J-249999D01*
G01*
X17718000Y-87964501D01*
G75*
G02*
X17468001Y-88214500I-249999J0D01*
G01*
G37*
G36*
G01*
X13265999Y-78680500D02*
X14166001Y-78680500D01*
G75*
G02*
X14416000Y-78930499I0J-249999D01*
G01*
X14416000Y-79455501D01*
G75*
G02*
X14166001Y-79705500I-249999J0D01*
G01*
X13265999Y-79705500D01*
G75*
G02*
X13016000Y-79455501I0J249999D01*
G01*
X13016000Y-78930499D01*
G75*
G02*
X13265999Y-78680500I249999J0D01*
G01*
G37*
G36*
G01*
X13265999Y-76855500D02*
X14166001Y-76855500D01*
G75*
G02*
X14416000Y-77105499I0J-249999D01*
G01*
X14416000Y-77630501D01*
G75*
G02*
X14166001Y-77880500I-249999J0D01*
G01*
X13265999Y-77880500D01*
G75*
G02*
X13016000Y-77630501I0J249999D01*
G01*
X13016000Y-77105499D01*
G75*
G02*
X13265999Y-76855500I249999J0D01*
G01*
G37*
G36*
G01*
X43628500Y-28390001D02*
X43628500Y-27489999D01*
G75*
G02*
X43878499Y-27240000I249999J0D01*
G01*
X44403501Y-27240000D01*
G75*
G02*
X44653500Y-27489999I0J-249999D01*
G01*
X44653500Y-28390001D01*
G75*
G02*
X44403501Y-28640000I-249999J0D01*
G01*
X43878499Y-28640000D01*
G75*
G02*
X43628500Y-28390001I0J249999D01*
G01*
G37*
G36*
G01*
X41803500Y-28390001D02*
X41803500Y-27489999D01*
G75*
G02*
X42053499Y-27240000I249999J0D01*
G01*
X42578501Y-27240000D01*
G75*
G02*
X42828500Y-27489999I0J-249999D01*
G01*
X42828500Y-28390001D01*
G75*
G02*
X42578501Y-28640000I-249999J0D01*
G01*
X42053499Y-28640000D01*
G75*
G02*
X41803500Y-28390001I0J249999D01*
G01*
G37*
G36*
G01*
X13265999Y-74265500D02*
X14166001Y-74265500D01*
G75*
G02*
X14416000Y-74515499I0J-249999D01*
G01*
X14416000Y-75040501D01*
G75*
G02*
X14166001Y-75290500I-249999J0D01*
G01*
X13265999Y-75290500D01*
G75*
G02*
X13016000Y-75040501I0J249999D01*
G01*
X13016000Y-74515499D01*
G75*
G02*
X13265999Y-74265500I249999J0D01*
G01*
G37*
G36*
G01*
X13265999Y-72440500D02*
X14166001Y-72440500D01*
G75*
G02*
X14416000Y-72690499I0J-249999D01*
G01*
X14416000Y-73215501D01*
G75*
G02*
X14166001Y-73465500I-249999J0D01*
G01*
X13265999Y-73465500D01*
G75*
G02*
X13016000Y-73215501I0J249999D01*
G01*
X13016000Y-72690499D01*
G75*
G02*
X13265999Y-72440500I249999J0D01*
G01*
G37*
G36*
G01*
X10193000Y-82540500D02*
X11143000Y-82540500D01*
G75*
G02*
X11393000Y-82790500I0J-250000D01*
G01*
X11393000Y-83290500D01*
G75*
G02*
X11143000Y-83540500I-250000J0D01*
G01*
X10193000Y-83540500D01*
G75*
G02*
X9943000Y-83290500I0J250000D01*
G01*
X9943000Y-82790500D01*
G75*
G02*
X10193000Y-82540500I250000J0D01*
G01*
G37*
G36*
G01*
X10193000Y-80640500D02*
X11143000Y-80640500D01*
G75*
G02*
X11393000Y-80890500I0J-250000D01*
G01*
X11393000Y-81390500D01*
G75*
G02*
X11143000Y-81640500I-250000J0D01*
G01*
X10193000Y-81640500D01*
G75*
G02*
X9943000Y-81390500I0J250000D01*
G01*
X9943000Y-80890500D01*
G75*
G02*
X10193000Y-80640500I250000J0D01*
G01*
G37*
D18*
X92964000Y-85026500D03*
D19*
X92583000Y-85725000D03*
D20*
X92964000Y-86106000D03*
D19*
X93345000Y-85725000D03*
D20*
X92964000Y-84582000D03*
G36*
G01*
X82353999Y-86173500D02*
X83254001Y-86173500D01*
G75*
G02*
X83504000Y-86423499I0J-249999D01*
G01*
X83504000Y-86948501D01*
G75*
G02*
X83254001Y-87198500I-249999J0D01*
G01*
X82353999Y-87198500D01*
G75*
G02*
X82104000Y-86948501I0J249999D01*
G01*
X82104000Y-86423499D01*
G75*
G02*
X82353999Y-86173500I249999J0D01*
G01*
G37*
G36*
G01*
X82353999Y-84348500D02*
X83254001Y-84348500D01*
G75*
G02*
X83504000Y-84598499I0J-249999D01*
G01*
X83504000Y-85123501D01*
G75*
G02*
X83254001Y-85373500I-249999J0D01*
G01*
X82353999Y-85373500D01*
G75*
G02*
X82104000Y-85123501I0J249999D01*
G01*
X82104000Y-84598499D01*
G75*
G02*
X82353999Y-84348500I249999J0D01*
G01*
G37*
G36*
G01*
X82353999Y-82188000D02*
X83254001Y-82188000D01*
G75*
G02*
X83504000Y-82437999I0J-249999D01*
G01*
X83504000Y-82963001D01*
G75*
G02*
X83254001Y-83213000I-249999J0D01*
G01*
X82353999Y-83213000D01*
G75*
G02*
X82104000Y-82963001I0J249999D01*
G01*
X82104000Y-82437999D01*
G75*
G02*
X82353999Y-82188000I249999J0D01*
G01*
G37*
G36*
G01*
X82353999Y-80363000D02*
X83254001Y-80363000D01*
G75*
G02*
X83504000Y-80612999I0J-249999D01*
G01*
X83504000Y-81138001D01*
G75*
G02*
X83254001Y-81388000I-249999J0D01*
G01*
X82353999Y-81388000D01*
G75*
G02*
X82104000Y-81138001I0J249999D01*
G01*
X82104000Y-80612999D01*
G75*
G02*
X82353999Y-80363000I249999J0D01*
G01*
G37*
G36*
G01*
X48317999Y-6925500D02*
X49218001Y-6925500D01*
G75*
G02*
X49468000Y-7175499I0J-249999D01*
G01*
X49468000Y-7700501D01*
G75*
G02*
X49218001Y-7950500I-249999J0D01*
G01*
X48317999Y-7950500D01*
G75*
G02*
X48068000Y-7700501I0J249999D01*
G01*
X48068000Y-7175499D01*
G75*
G02*
X48317999Y-6925500I249999J0D01*
G01*
G37*
G36*
G01*
X48317999Y-5100500D02*
X49218001Y-5100500D01*
G75*
G02*
X49468000Y-5350499I0J-249999D01*
G01*
X49468000Y-5875501D01*
G75*
G02*
X49218001Y-6125500I-249999J0D01*
G01*
X48317999Y-6125500D01*
G75*
G02*
X48068000Y-5875501I0J249999D01*
G01*
X48068000Y-5350499D01*
G75*
G02*
X48317999Y-5100500I249999J0D01*
G01*
G37*
D12*
X84836000Y-635000D03*
X84836000Y-10635000D03*
X70612000Y-755000D03*
X70612000Y-8255000D03*
X84836000Y-13462000D03*
X84836000Y-23462000D03*
X70612000Y-13455000D03*
X70612000Y-20955000D03*
X84836000Y-26670000D03*
X84836000Y-36670000D03*
X70612000Y-26155000D03*
X70612000Y-33655000D03*
G36*
G01*
X10737001Y-85627500D02*
X9836999Y-85627500D01*
G75*
G02*
X9587000Y-85377501I0J249999D01*
G01*
X9587000Y-84852499D01*
G75*
G02*
X9836999Y-84602500I249999J0D01*
G01*
X10737001Y-84602500D01*
G75*
G02*
X10987000Y-84852499I0J-249999D01*
G01*
X10987000Y-85377501D01*
G75*
G02*
X10737001Y-85627500I-249999J0D01*
G01*
G37*
G36*
G01*
X10737001Y-87452500D02*
X9836999Y-87452500D01*
G75*
G02*
X9587000Y-87202501I0J249999D01*
G01*
X9587000Y-86677499D01*
G75*
G02*
X9836999Y-86427500I249999J0D01*
G01*
X10737001Y-86427500D01*
G75*
G02*
X10987000Y-86677499I0J-249999D01*
G01*
X10987000Y-87202501D01*
G75*
G02*
X10737001Y-87452500I-249999J0D01*
G01*
G37*
G36*
G01*
X83254001Y-94517500D02*
X82353999Y-94517500D01*
G75*
G02*
X82104000Y-94267501I0J249999D01*
G01*
X82104000Y-93742499D01*
G75*
G02*
X82353999Y-93492500I249999J0D01*
G01*
X83254001Y-93492500D01*
G75*
G02*
X83504000Y-93742499I0J-249999D01*
G01*
X83504000Y-94267501D01*
G75*
G02*
X83254001Y-94517500I-249999J0D01*
G01*
G37*
G36*
G01*
X83254001Y-96342500D02*
X82353999Y-96342500D01*
G75*
G02*
X82104000Y-96092501I0J249999D01*
G01*
X82104000Y-95567499D01*
G75*
G02*
X82353999Y-95317500I249999J0D01*
G01*
X83254001Y-95317500D01*
G75*
G02*
X83504000Y-95567499I0J-249999D01*
G01*
X83504000Y-96092501D01*
G75*
G02*
X83254001Y-96342500I-249999J0D01*
G01*
G37*
G36*
G01*
X83254001Y-90580500D02*
X82353999Y-90580500D01*
G75*
G02*
X82104000Y-90330501I0J249999D01*
G01*
X82104000Y-89805499D01*
G75*
G02*
X82353999Y-89555500I249999J0D01*
G01*
X83254001Y-89555500D01*
G75*
G02*
X83504000Y-89805499I0J-249999D01*
G01*
X83504000Y-90330501D01*
G75*
G02*
X83254001Y-90580500I-249999J0D01*
G01*
G37*
G36*
G01*
X83254001Y-92405500D02*
X82353999Y-92405500D01*
G75*
G02*
X82104000Y-92155501I0J249999D01*
G01*
X82104000Y-91630499D01*
G75*
G02*
X82353999Y-91380500I249999J0D01*
G01*
X83254001Y-91380500D01*
G75*
G02*
X83504000Y-91630499I0J-249999D01*
G01*
X83504000Y-92155501D01*
G75*
G02*
X83254001Y-92405500I-249999J0D01*
G01*
G37*
D22*
X44958000Y-77978000D03*
X44958000Y-75438000D03*
D23*
X44958000Y-72898000D03*
G36*
G01*
X53373000Y-78095500D02*
X54323000Y-78095500D01*
G75*
G02*
X54573000Y-78345500I0J-250000D01*
G01*
X54573000Y-78845500D01*
G75*
G02*
X54323000Y-79095500I-250000J0D01*
G01*
X53373000Y-79095500D01*
G75*
G02*
X53123000Y-78845500I0J250000D01*
G01*
X53123000Y-78345500D01*
G75*
G02*
X53373000Y-78095500I250000J0D01*
G01*
G37*
G36*
G01*
X53373000Y-76195500D02*
X54323000Y-76195500D01*
G75*
G02*
X54573000Y-76445500I0J-250000D01*
G01*
X54573000Y-76945500D01*
G75*
G02*
X54323000Y-77195500I-250000J0D01*
G01*
X53373000Y-77195500D01*
G75*
G02*
X53123000Y-76945500I0J250000D01*
G01*
X53123000Y-76445500D01*
G75*
G02*
X53373000Y-76195500I250000J0D01*
G01*
G37*
D18*
X56388000Y-73215500D03*
D19*
X56007000Y-73914000D03*
D20*
X56388000Y-74295000D03*
D19*
X56769000Y-73914000D03*
D20*
X56388000Y-72771000D03*
G36*
G01*
X53397999Y-73473500D02*
X54298001Y-73473500D01*
G75*
G02*
X54548000Y-73723499I0J-249999D01*
G01*
X54548000Y-74248501D01*
G75*
G02*
X54298001Y-74498500I-249999J0D01*
G01*
X53397999Y-74498500D01*
G75*
G02*
X53148000Y-74248501I0J249999D01*
G01*
X53148000Y-73723499D01*
G75*
G02*
X53397999Y-73473500I249999J0D01*
G01*
G37*
G36*
G01*
X53397999Y-71648500D02*
X54298001Y-71648500D01*
G75*
G02*
X54548000Y-71898499I0J-249999D01*
G01*
X54548000Y-72423501D01*
G75*
G02*
X54298001Y-72673500I-249999J0D01*
G01*
X53397999Y-72673500D01*
G75*
G02*
X53148000Y-72423501I0J249999D01*
G01*
X53148000Y-71898499D01*
G75*
G02*
X53397999Y-71648500I249999J0D01*
G01*
G37*
G36*
G01*
X55937999Y-78045500D02*
X56838001Y-78045500D01*
G75*
G02*
X57088000Y-78295499I0J-249999D01*
G01*
X57088000Y-78820501D01*
G75*
G02*
X56838001Y-79070500I-249999J0D01*
G01*
X55937999Y-79070500D01*
G75*
G02*
X55688000Y-78820501I0J249999D01*
G01*
X55688000Y-78295499D01*
G75*
G02*
X55937999Y-78045500I249999J0D01*
G01*
G37*
G36*
G01*
X55937999Y-76220500D02*
X56838001Y-76220500D01*
G75*
G02*
X57088000Y-76470499I0J-249999D01*
G01*
X57088000Y-76995501D01*
G75*
G02*
X56838001Y-77245500I-249999J0D01*
G01*
X55937999Y-77245500D01*
G75*
G02*
X55688000Y-76995501I0J249999D01*
G01*
X55688000Y-76470499D01*
G75*
G02*
X55937999Y-76220500I249999J0D01*
G01*
G37*
D22*
X49911000Y-77978000D03*
X49911000Y-75438000D03*
D23*
X49911000Y-72898000D03*
D22*
X77216000Y-85852000D03*
X77216000Y-83312000D03*
D23*
X77216000Y-80772000D03*
D22*
X96012000Y-86360000D03*
X96012000Y-83820000D03*
X96012000Y-81280000D03*
D23*
X96012000Y-78740000D03*
D22*
X85852000Y-86360000D03*
X85852000Y-83820000D03*
X85852000Y-81280000D03*
D23*
X85852000Y-78740000D03*
G36*
G01*
X10193000Y-74315500D02*
X11143000Y-74315500D01*
G75*
G02*
X11393000Y-74565500I0J-250000D01*
G01*
X11393000Y-75065500D01*
G75*
G02*
X11143000Y-75315500I-250000J0D01*
G01*
X10193000Y-75315500D01*
G75*
G02*
X9943000Y-75065500I0J250000D01*
G01*
X9943000Y-74565500D01*
G75*
G02*
X10193000Y-74315500I250000J0D01*
G01*
G37*
G36*
G01*
X10193000Y-72415500D02*
X11143000Y-72415500D01*
G75*
G02*
X11393000Y-72665500I0J-250000D01*
G01*
X11393000Y-73165500D01*
G75*
G02*
X11143000Y-73415500I-250000J0D01*
G01*
X10193000Y-73415500D01*
G75*
G02*
X9943000Y-73165500I0J250000D01*
G01*
X9943000Y-72665500D01*
G75*
G02*
X10193000Y-72415500I250000J0D01*
G01*
G37*
D17*
X95504000Y-2286000D03*
X95504000Y-94234000D03*
D24*
G36*
X56910000Y-52174500D02*
G01*
X53785000Y-52174500D01*
X53785000Y-51758000D01*
X52310000Y-51758000D01*
X52310000Y-50858000D01*
X53785000Y-50858000D01*
X53785000Y-50441500D01*
X56910000Y-50441500D01*
X56910000Y-52174500D01*
G37*
D25*
X52960000Y-52808000D03*
X52960000Y-49808000D03*
D26*
X79438500Y-44450000D03*
D27*
X80137000Y-44831000D03*
D28*
X80518000Y-44450000D03*
D27*
X80137000Y-44069000D03*
D28*
X78994000Y-44450000D03*
D13*
X73406000Y-42164000D03*
X68406000Y-42164000D03*
G36*
G01*
X74618001Y-81309500D02*
X73717999Y-81309500D01*
G75*
G02*
X73468000Y-81059501I0J249999D01*
G01*
X73468000Y-80534499D01*
G75*
G02*
X73717999Y-80284500I249999J0D01*
G01*
X74618001Y-80284500D01*
G75*
G02*
X74868000Y-80534499I0J-249999D01*
G01*
X74868000Y-81059501D01*
G75*
G02*
X74618001Y-81309500I-249999J0D01*
G01*
G37*
G36*
G01*
X74618001Y-83134500D02*
X73717999Y-83134500D01*
G75*
G02*
X73468000Y-82884501I0J249999D01*
G01*
X73468000Y-82359499D01*
G75*
G02*
X73717999Y-82109500I249999J0D01*
G01*
X74618001Y-82109500D01*
G75*
G02*
X74868000Y-82359499I0J-249999D01*
G01*
X74868000Y-82884501D01*
G75*
G02*
X74618001Y-83134500I-249999J0D01*
G01*
G37*
D22*
X32639000Y-62738000D03*
X32639000Y-65278000D03*
D23*
X32639000Y-67818000D03*
D18*
X27305000Y-64579500D03*
D19*
X26924000Y-65278000D03*
D20*
X27305000Y-65659000D03*
D19*
X27686000Y-65278000D03*
D20*
X27305000Y-64135000D03*
D18*
X20955000Y-64579500D03*
D19*
X20574000Y-65278000D03*
D20*
X20955000Y-65659000D03*
D19*
X21336000Y-65278000D03*
D20*
X20955000Y-64135000D03*
D18*
X18288000Y-68897500D03*
D19*
X18669000Y-68199000D03*
D20*
X18288000Y-67818000D03*
D19*
X17907000Y-68199000D03*
D20*
X18288000Y-69342000D03*
G36*
G01*
X23679999Y-64867500D02*
X24580001Y-64867500D01*
G75*
G02*
X24830000Y-65117499I0J-249999D01*
G01*
X24830000Y-65642501D01*
G75*
G02*
X24580001Y-65892500I-249999J0D01*
G01*
X23679999Y-65892500D01*
G75*
G02*
X23430000Y-65642501I0J249999D01*
G01*
X23430000Y-65117499D01*
G75*
G02*
X23679999Y-64867500I249999J0D01*
G01*
G37*
G36*
G01*
X23679999Y-63042500D02*
X24580001Y-63042500D01*
G75*
G02*
X24830000Y-63292499I0J-249999D01*
G01*
X24830000Y-63817501D01*
G75*
G02*
X24580001Y-64067500I-249999J0D01*
G01*
X23679999Y-64067500D01*
G75*
G02*
X23430000Y-63817501I0J249999D01*
G01*
X23430000Y-63292499D01*
G75*
G02*
X23679999Y-63042500I249999J0D01*
G01*
G37*
D29*
X13335000Y-88391000D03*
X13335000Y-85091000D03*
D18*
X36195000Y-79946500D03*
D19*
X36576000Y-79248000D03*
D20*
X36195000Y-78867000D03*
D19*
X35814000Y-79248000D03*
D20*
X36195000Y-80391000D03*
D18*
X34417000Y-79946500D03*
D19*
X34798000Y-79248000D03*
D20*
X34417000Y-78867000D03*
D19*
X34036000Y-79248000D03*
D20*
X34417000Y-80391000D03*
D30*
X22098000Y-81550000D03*
X23048000Y-83550000D03*
X21148000Y-83550000D03*
X22098000Y-72914000D03*
X23048000Y-74914000D03*
X21148000Y-74914000D03*
X31242000Y-81550000D03*
X32192000Y-83550000D03*
X30292000Y-83550000D03*
X31242000Y-72914000D03*
X32192000Y-74914000D03*
X30292000Y-74914000D03*
D31*
X78740000Y-6985000D03*
X78740000Y-4445000D03*
D32*
X78740000Y-1905000D03*
D31*
X78740000Y-19685000D03*
X78740000Y-17145000D03*
D32*
X78740000Y-14605000D03*
D31*
X78740000Y-32385000D03*
X78740000Y-29845000D03*
D32*
X78740000Y-27305000D03*
D11*
X74930000Y-10795000D03*
D12*
X74930000Y-635000D03*
D11*
X88900000Y-10795000D03*
D12*
X88900000Y-635000D03*
D11*
X66040000Y-23495000D03*
D12*
X66040000Y-13335000D03*
D11*
X74930000Y-23495000D03*
D12*
X74930000Y-13335000D03*
D11*
X66040000Y-36195000D03*
D12*
X66040000Y-26035000D03*
D11*
X74930000Y-36195000D03*
D12*
X74930000Y-26035000D03*
D26*
X78803500Y-50038000D03*
D27*
X78105000Y-49657000D03*
D28*
X77724000Y-50038000D03*
D27*
X78105000Y-50419000D03*
D28*
X79248000Y-50038000D03*
G36*
G01*
X81601500Y-75634001D02*
X81601500Y-74733999D01*
G75*
G02*
X81851499Y-74484000I249999J0D01*
G01*
X82376501Y-74484000D01*
G75*
G02*
X82626500Y-74733999I0J-249999D01*
G01*
X82626500Y-75634001D01*
G75*
G02*
X82376501Y-75884000I-249999J0D01*
G01*
X81851499Y-75884000D01*
G75*
G02*
X81601500Y-75634001I0J249999D01*
G01*
G37*
G36*
G01*
X79776500Y-75634001D02*
X79776500Y-74733999D01*
G75*
G02*
X80026499Y-74484000I249999J0D01*
G01*
X80551501Y-74484000D01*
G75*
G02*
X80801500Y-74733999I0J-249999D01*
G01*
X80801500Y-75634001D01*
G75*
G02*
X80551501Y-75884000I-249999J0D01*
G01*
X80026499Y-75884000D01*
G75*
G02*
X79776500Y-75634001I0J249999D01*
G01*
G37*
G36*
G01*
X80801500Y-77527999D02*
X80801500Y-78428001D01*
G75*
G02*
X80551501Y-78678000I-249999J0D01*
G01*
X80026499Y-78678000D01*
G75*
G02*
X79776500Y-78428001I0J249999D01*
G01*
X79776500Y-77527999D01*
G75*
G02*
X80026499Y-77278000I249999J0D01*
G01*
X80551501Y-77278000D01*
G75*
G02*
X80801500Y-77527999I0J-249999D01*
G01*
G37*
G36*
G01*
X82626500Y-77527999D02*
X82626500Y-78428001D01*
G75*
G02*
X82376501Y-78678000I-249999J0D01*
G01*
X81851499Y-78678000D01*
G75*
G02*
X81601500Y-78428001I0J249999D01*
G01*
X81601500Y-77527999D01*
G75*
G02*
X81851499Y-77278000I249999J0D01*
G01*
X82376501Y-77278000D01*
G75*
G02*
X82626500Y-77527999I0J-249999D01*
G01*
G37*
G36*
G01*
X73602001Y-74197500D02*
X72701999Y-74197500D01*
G75*
G02*
X72452000Y-73947501I0J249999D01*
G01*
X72452000Y-73422499D01*
G75*
G02*
X72701999Y-73172500I249999J0D01*
G01*
X73602001Y-73172500D01*
G75*
G02*
X73852000Y-73422499I0J-249999D01*
G01*
X73852000Y-73947501D01*
G75*
G02*
X73602001Y-74197500I-249999J0D01*
G01*
G37*
G36*
G01*
X73602001Y-76022500D02*
X72701999Y-76022500D01*
G75*
G02*
X72452000Y-75772501I0J249999D01*
G01*
X72452000Y-75247499D01*
G75*
G02*
X72701999Y-74997500I249999J0D01*
G01*
X73602001Y-74997500D01*
G75*
G02*
X73852000Y-75247499I0J-249999D01*
G01*
X73852000Y-75772501D01*
G75*
G02*
X73602001Y-76022500I-249999J0D01*
G01*
G37*
G36*
G01*
X87941999Y-68296500D02*
X88842001Y-68296500D01*
G75*
G02*
X89092000Y-68546499I0J-249999D01*
G01*
X89092000Y-69071501D01*
G75*
G02*
X88842001Y-69321500I-249999J0D01*
G01*
X87941999Y-69321500D01*
G75*
G02*
X87692000Y-69071501I0J249999D01*
G01*
X87692000Y-68546499D01*
G75*
G02*
X87941999Y-68296500I249999J0D01*
G01*
G37*
G36*
G01*
X87941999Y-66471500D02*
X88842001Y-66471500D01*
G75*
G02*
X89092000Y-66721499I0J-249999D01*
G01*
X89092000Y-67246501D01*
G75*
G02*
X88842001Y-67496500I-249999J0D01*
G01*
X87941999Y-67496500D01*
G75*
G02*
X87692000Y-67246501I0J249999D01*
G01*
X87692000Y-66721499D01*
G75*
G02*
X87941999Y-66471500I249999J0D01*
G01*
G37*
G36*
G01*
X85401999Y-68296500D02*
X86302001Y-68296500D01*
G75*
G02*
X86552000Y-68546499I0J-249999D01*
G01*
X86552000Y-69071501D01*
G75*
G02*
X86302001Y-69321500I-249999J0D01*
G01*
X85401999Y-69321500D01*
G75*
G02*
X85152000Y-69071501I0J249999D01*
G01*
X85152000Y-68546499D01*
G75*
G02*
X85401999Y-68296500I249999J0D01*
G01*
G37*
G36*
G01*
X85401999Y-66471500D02*
X86302001Y-66471500D01*
G75*
G02*
X86552000Y-66721499I0J-249999D01*
G01*
X86552000Y-67246501D01*
G75*
G02*
X86302001Y-67496500I-249999J0D01*
G01*
X85401999Y-67496500D01*
G75*
G02*
X85152000Y-67246501I0J249999D01*
G01*
X85152000Y-66721499D01*
G75*
G02*
X85401999Y-66471500I249999J0D01*
G01*
G37*
G36*
G01*
X82861999Y-68296500D02*
X83762001Y-68296500D01*
G75*
G02*
X84012000Y-68546499I0J-249999D01*
G01*
X84012000Y-69071501D01*
G75*
G02*
X83762001Y-69321500I-249999J0D01*
G01*
X82861999Y-69321500D01*
G75*
G02*
X82612000Y-69071501I0J249999D01*
G01*
X82612000Y-68546499D01*
G75*
G02*
X82861999Y-68296500I249999J0D01*
G01*
G37*
G36*
G01*
X82861999Y-66471500D02*
X83762001Y-66471500D01*
G75*
G02*
X84012000Y-66721499I0J-249999D01*
G01*
X84012000Y-67246501D01*
G75*
G02*
X83762001Y-67496500I-249999J0D01*
G01*
X82861999Y-67496500D01*
G75*
G02*
X82612000Y-67246501I0J249999D01*
G01*
X82612000Y-66721499D01*
G75*
G02*
X82861999Y-66471500I249999J0D01*
G01*
G37*
G36*
G01*
X80321999Y-68296500D02*
X81222001Y-68296500D01*
G75*
G02*
X81472000Y-68546499I0J-249999D01*
G01*
X81472000Y-69071501D01*
G75*
G02*
X81222001Y-69321500I-249999J0D01*
G01*
X80321999Y-69321500D01*
G75*
G02*
X80072000Y-69071501I0J249999D01*
G01*
X80072000Y-68546499D01*
G75*
G02*
X80321999Y-68296500I249999J0D01*
G01*
G37*
G36*
G01*
X80321999Y-66471500D02*
X81222001Y-66471500D01*
G75*
G02*
X81472000Y-66721499I0J-249999D01*
G01*
X81472000Y-67246501D01*
G75*
G02*
X81222001Y-67496500I-249999J0D01*
G01*
X80321999Y-67496500D01*
G75*
G02*
X80072000Y-67246501I0J249999D01*
G01*
X80072000Y-66721499D01*
G75*
G02*
X80321999Y-66471500I249999J0D01*
G01*
G37*
G36*
G01*
X77781999Y-68296500D02*
X78682001Y-68296500D01*
G75*
G02*
X78932000Y-68546499I0J-249999D01*
G01*
X78932000Y-69071501D01*
G75*
G02*
X78682001Y-69321500I-249999J0D01*
G01*
X77781999Y-69321500D01*
G75*
G02*
X77532000Y-69071501I0J249999D01*
G01*
X77532000Y-68546499D01*
G75*
G02*
X77781999Y-68296500I249999J0D01*
G01*
G37*
G36*
G01*
X77781999Y-66471500D02*
X78682001Y-66471500D01*
G75*
G02*
X78932000Y-66721499I0J-249999D01*
G01*
X78932000Y-67246501D01*
G75*
G02*
X78682001Y-67496500I-249999J0D01*
G01*
X77781999Y-67496500D01*
G75*
G02*
X77532000Y-67246501I0J249999D01*
G01*
X77532000Y-66721499D01*
G75*
G02*
X77781999Y-66471500I249999J0D01*
G01*
G37*
G36*
G01*
X74987999Y-68296500D02*
X75888001Y-68296500D01*
G75*
G02*
X76138000Y-68546499I0J-249999D01*
G01*
X76138000Y-69071501D01*
G75*
G02*
X75888001Y-69321500I-249999J0D01*
G01*
X74987999Y-69321500D01*
G75*
G02*
X74738000Y-69071501I0J249999D01*
G01*
X74738000Y-68546499D01*
G75*
G02*
X74987999Y-68296500I249999J0D01*
G01*
G37*
G36*
G01*
X74987999Y-66471500D02*
X75888001Y-66471500D01*
G75*
G02*
X76138000Y-66721499I0J-249999D01*
G01*
X76138000Y-67246501D01*
G75*
G02*
X75888001Y-67496500I-249999J0D01*
G01*
X74987999Y-67496500D01*
G75*
G02*
X74738000Y-67246501I0J249999D01*
G01*
X74738000Y-66721499D01*
G75*
G02*
X74987999Y-66471500I249999J0D01*
G01*
G37*
D33*
X87630000Y-74930000D03*
D34*
X87630000Y-72390000D03*
X86360000Y-73660000D03*
D35*
X77692000Y-74422000D03*
X75692000Y-75372000D03*
X75692000Y-73472000D03*
D14*
X77216000Y-89916000D03*
X77216000Y-94996000D03*
D15*
X77216000Y-90256360D03*
X77216000Y-94655640D03*
G36*
G01*
X55212000Y-41762500D02*
X54262000Y-41762500D01*
G75*
G02*
X54012000Y-41512500I0J250000D01*
G01*
X54012000Y-41012500D01*
G75*
G02*
X54262000Y-40762500I250000J0D01*
G01*
X55212000Y-40762500D01*
G75*
G02*
X55462000Y-41012500I0J-250000D01*
G01*
X55462000Y-41512500D01*
G75*
G02*
X55212000Y-41762500I-250000J0D01*
G01*
G37*
G36*
G01*
X55212000Y-43662500D02*
X54262000Y-43662500D01*
G75*
G02*
X54012000Y-43412500I0J250000D01*
G01*
X54012000Y-42912500D01*
G75*
G02*
X54262000Y-42662500I250000J0D01*
G01*
X55212000Y-42662500D01*
G75*
G02*
X55462000Y-42912500I0J-250000D01*
G01*
X55462000Y-43412500D01*
G75*
G02*
X55212000Y-43662500I-250000J0D01*
G01*
G37*
D36*
X82856000Y-49393000D03*
X82856000Y-54493000D03*
X74116000Y-54493000D03*
X74116000Y-49393000D03*
D14*
X56134000Y-86106000D03*
X58674000Y-86106000D03*
X68834000Y-86106000D03*
X66294000Y-86106000D03*
X61214000Y-86106000D03*
X63754000Y-86106000D03*
D37*
X94996000Y-56134000D03*
D38*
X94996000Y-61214000D03*
D37*
X94996000Y-45720000D03*
D38*
X94996000Y-50800000D03*
D37*
X94996000Y-8890000D03*
X94996000Y-13970000D03*
D38*
X94996000Y-29210000D03*
D37*
X94996000Y-19050000D03*
X94996000Y-24130000D03*
X94996000Y-66294000D03*
D38*
X94996000Y-71374000D03*
D37*
X10287000Y-93726000D03*
X15367000Y-93726000D03*
D38*
X30607000Y-93726000D03*
D37*
X20447000Y-93726000D03*
X25527000Y-93726000D03*
X66167000Y-93726000D03*
D38*
X71247000Y-93726000D03*
D37*
X4064000Y-64770000D03*
D38*
X4064000Y-59690000D03*
D37*
X4064000Y-86106000D03*
D38*
X4064000Y-81026000D03*
D37*
X4064000Y-75438000D03*
D38*
X4064000Y-70358000D03*
D14*
X54737000Y-39751000D03*
X54737000Y-44831000D03*
D15*
X54737000Y-40091360D03*
X54737000Y-44490640D03*
D14*
X62103000Y-39751000D03*
X62103000Y-44831000D03*
D15*
X62103000Y-40091360D03*
X62103000Y-44490640D03*
G36*
G01*
X54110000Y-59149000D02*
X54110000Y-58199000D01*
G75*
G02*
X54360000Y-57949000I250000J0D01*
G01*
X54860000Y-57949000D01*
G75*
G02*
X55110000Y-58199000I0J-250000D01*
G01*
X55110000Y-59149000D01*
G75*
G02*
X54860000Y-59399000I-250000J0D01*
G01*
X54360000Y-59399000D01*
G75*
G02*
X54110000Y-59149000I0J250000D01*
G01*
G37*
G36*
G01*
X52210000Y-59149000D02*
X52210000Y-58199000D01*
G75*
G02*
X52460000Y-57949000I250000J0D01*
G01*
X52960000Y-57949000D01*
G75*
G02*
X53210000Y-58199000I0J-250000D01*
G01*
X53210000Y-59149000D01*
G75*
G02*
X52960000Y-59399000I-250000J0D01*
G01*
X52460000Y-59399000D01*
G75*
G02*
X52210000Y-59149000I0J250000D01*
G01*
G37*
D14*
X59182000Y-67310000D03*
X59182000Y-62230000D03*
D15*
X59182000Y-66969640D03*
X59182000Y-62570360D03*
D14*
X68834000Y-54696360D03*
X68834000Y-49616360D03*
D15*
X68834000Y-54356000D03*
X68834000Y-49956720D03*
D14*
X80264000Y-62738000D03*
X75184000Y-62738000D03*
D39*
X79923640Y-62738000D03*
X75524360Y-62738000D03*
D40*
X65310000Y-58674000D03*
X69310000Y-58674000D03*
D41*
X53594000Y-62548000D03*
X53594000Y-66548000D03*
G36*
G01*
X62018500Y-59124001D02*
X62018500Y-58223999D01*
G75*
G02*
X62268499Y-57974000I249999J0D01*
G01*
X62793501Y-57974000D01*
G75*
G02*
X63043500Y-58223999I0J-249999D01*
G01*
X63043500Y-59124001D01*
G75*
G02*
X62793501Y-59374000I-249999J0D01*
G01*
X62268499Y-59374000D01*
G75*
G02*
X62018500Y-59124001I0J249999D01*
G01*
G37*
G36*
G01*
X60193500Y-59124001D02*
X60193500Y-58223999D01*
G75*
G02*
X60443499Y-57974000I249999J0D01*
G01*
X60968501Y-57974000D01*
G75*
G02*
X61218500Y-58223999I0J-249999D01*
G01*
X61218500Y-59124001D01*
G75*
G02*
X60968501Y-59374000I-249999J0D01*
G01*
X60443499Y-59374000D01*
G75*
G02*
X60193500Y-59124001I0J249999D01*
G01*
G37*
G36*
G01*
X57615500Y-58223999D02*
X57615500Y-59124001D01*
G75*
G02*
X57365501Y-59374000I-249999J0D01*
G01*
X56840499Y-59374000D01*
G75*
G02*
X56590500Y-59124001I0J249999D01*
G01*
X56590500Y-58223999D01*
G75*
G02*
X56840499Y-57974000I249999J0D01*
G01*
X57365501Y-57974000D01*
G75*
G02*
X57615500Y-58223999I0J-249999D01*
G01*
G37*
G36*
G01*
X59440500Y-58223999D02*
X59440500Y-59124001D01*
G75*
G02*
X59190501Y-59374000I-249999J0D01*
G01*
X58665499Y-59374000D01*
G75*
G02*
X58415500Y-59124001I0J249999D01*
G01*
X58415500Y-58223999D01*
G75*
G02*
X58665499Y-57974000I249999J0D01*
G01*
X59190501Y-57974000D01*
G75*
G02*
X59440500Y-58223999I0J-249999D01*
G01*
G37*
G36*
G01*
X80259500Y-58616001D02*
X80259500Y-57715999D01*
G75*
G02*
X80509499Y-57466000I249999J0D01*
G01*
X81034501Y-57466000D01*
G75*
G02*
X81284500Y-57715999I0J-249999D01*
G01*
X81284500Y-58616001D01*
G75*
G02*
X81034501Y-58866000I-249999J0D01*
G01*
X80509499Y-58866000D01*
G75*
G02*
X80259500Y-58616001I0J249999D01*
G01*
G37*
G36*
G01*
X78434500Y-58616001D02*
X78434500Y-57715999D01*
G75*
G02*
X78684499Y-57466000I249999J0D01*
G01*
X79209501Y-57466000D01*
G75*
G02*
X79459500Y-57715999I0J-249999D01*
G01*
X79459500Y-58616001D01*
G75*
G02*
X79209501Y-58866000I-249999J0D01*
G01*
X78684499Y-58866000D01*
G75*
G02*
X78434500Y-58616001I0J249999D01*
G01*
G37*
D13*
X67564000Y-63072000D03*
X67564000Y-68072000D03*
D26*
X76771500Y-58166000D03*
D27*
X76073000Y-57785000D03*
D28*
X75692000Y-58166000D03*
D27*
X76073000Y-58547000D03*
D28*
X77216000Y-58166000D03*
D26*
X78803500Y-54610000D03*
D27*
X78105000Y-54229000D03*
D28*
X77724000Y-54610000D03*
D27*
X78105000Y-54991000D03*
D28*
X79248000Y-54610000D03*
D18*
X80264000Y-72453500D03*
D19*
X80645000Y-71755000D03*
D20*
X80264000Y-71374000D03*
D19*
X79883000Y-71755000D03*
D20*
X80264000Y-72898000D03*
D18*
X82804000Y-72453500D03*
D19*
X83185000Y-71755000D03*
D20*
X82804000Y-71374000D03*
D19*
X82423000Y-71755000D03*
D20*
X82804000Y-72898000D03*
D26*
X70421500Y-44450000D03*
D27*
X69723000Y-44069000D03*
D28*
X69342000Y-44450000D03*
D27*
X69723000Y-44831000D03*
D28*
X70866000Y-44450000D03*
D42*
X48768000Y-67546000D03*
D43*
X46228000Y-67546000D03*
D42*
X41148000Y-67546000D03*
X41148000Y-58946000D03*
D43*
X43688000Y-58946000D03*
X46228000Y-58946000D03*
D42*
X48768000Y-58946000D03*
D26*
X92646500Y-90043000D03*
D27*
X93345000Y-90424000D03*
D28*
X93726000Y-90043000D03*
D27*
X93345000Y-89662000D03*
D28*
X92202000Y-90043000D03*
D22*
X6350000Y-49530000D03*
X3810000Y-49530000D03*
X6350000Y-46990000D03*
X3810000Y-46990000D03*
X6350000Y-44450000D03*
X3810000Y-44450000D03*
X6350000Y-41910000D03*
D23*
X3810000Y-41910000D03*
D37*
X35687000Y-93726000D03*
X40767000Y-93726000D03*
X45847000Y-93726000D03*
D38*
X61087000Y-93726000D03*
D37*
X50927000Y-93726000D03*
X56007000Y-93726000D03*
D26*
X86296500Y-96520000D03*
D27*
X86995000Y-96901000D03*
D28*
X87376000Y-96520000D03*
D27*
X86995000Y-96139000D03*
D28*
X85852000Y-96520000D03*
G36*
G01*
X55683999Y-83307500D02*
X56584001Y-83307500D01*
G75*
G02*
X56834000Y-83557499I0J-249999D01*
G01*
X56834000Y-84082501D01*
G75*
G02*
X56584001Y-84332500I-249999J0D01*
G01*
X55683999Y-84332500D01*
G75*
G02*
X55434000Y-84082501I0J249999D01*
G01*
X55434000Y-83557499D01*
G75*
G02*
X55683999Y-83307500I249999J0D01*
G01*
G37*
G36*
G01*
X55683999Y-81482500D02*
X56584001Y-81482500D01*
G75*
G02*
X56834000Y-81732499I0J-249999D01*
G01*
X56834000Y-82257501D01*
G75*
G02*
X56584001Y-82507500I-249999J0D01*
G01*
X55683999Y-82507500D01*
G75*
G02*
X55434000Y-82257501I0J249999D01*
G01*
X55434000Y-81732499D01*
G75*
G02*
X55683999Y-81482500I249999J0D01*
G01*
G37*
G36*
G01*
X58223999Y-83354500D02*
X59124001Y-83354500D01*
G75*
G02*
X59374000Y-83604499I0J-249999D01*
G01*
X59374000Y-84129501D01*
G75*
G02*
X59124001Y-84379500I-249999J0D01*
G01*
X58223999Y-84379500D01*
G75*
G02*
X57974000Y-84129501I0J249999D01*
G01*
X57974000Y-83604499D01*
G75*
G02*
X58223999Y-83354500I249999J0D01*
G01*
G37*
G36*
G01*
X58223999Y-81529500D02*
X59124001Y-81529500D01*
G75*
G02*
X59374000Y-81779499I0J-249999D01*
G01*
X59374000Y-82304501D01*
G75*
G02*
X59124001Y-82554500I-249999J0D01*
G01*
X58223999Y-82554500D01*
G75*
G02*
X57974000Y-82304501I0J249999D01*
G01*
X57974000Y-81779499D01*
G75*
G02*
X58223999Y-81529500I249999J0D01*
G01*
G37*
M02*
