%FSLAX45Y45*%
G04 Gerber Fmt 4.5, Leading zero omitted, Abs format (unit mm)*
G04 Created by KiCad (PCBNEW 5.1.9-73d0e3b20d~88~ubuntu20.04.1) date 2021-03-09 21:17:13*
%MOMM*%
%LPD*%
G01*
G04 APERTURE LIST*
%TA.AperFunction,Profile*%
%ADD10C,0.050000*%
%TD*%
%ADD11C,0.200000*%
%ADD12C,0.300000*%
G04 APERTURE END LIST*
D10*
X0Y-9779000D02*
X0Y127000D01*
X9906000Y-9779000D02*
X0Y-9779000D01*
X9906000Y127000D02*
X9906000Y-9779000D01*
X0Y127000D02*
X9906000Y127000D01*
D11*
D12*
X283928Y-10247214D02*
X283928Y-9947214D01*
X355357Y-9947214D01*
X398214Y-9961500D01*
X426786Y-9990072D01*
X441071Y-10018643D01*
X455357Y-10075786D01*
X455357Y-10118643D01*
X441071Y-10175786D01*
X426786Y-10204357D01*
X398214Y-10232929D01*
X355357Y-10247214D01*
X283928Y-10247214D01*
X583928Y-10247214D02*
X583928Y-10047214D01*
X583928Y-10104357D02*
X598214Y-10075786D01*
X612500Y-10061500D01*
X641071Y-10047214D01*
X669643Y-10047214D01*
X769643Y-10247214D02*
X769643Y-10047214D01*
X769643Y-9947214D02*
X755357Y-9961500D01*
X769643Y-9975786D01*
X783928Y-9961500D01*
X769643Y-9947214D01*
X769643Y-9975786D01*
X955357Y-10247214D02*
X926786Y-10232929D01*
X912500Y-10204357D01*
X912500Y-9947214D01*
X1112500Y-10247214D02*
X1083928Y-10232929D01*
X1069643Y-10204357D01*
X1069643Y-9947214D01*
X1455357Y-10247214D02*
X1455357Y-9947214D01*
X1555357Y-10161500D01*
X1655357Y-9947214D01*
X1655357Y-10247214D01*
X1926786Y-10247214D02*
X1926786Y-10090072D01*
X1912500Y-10061500D01*
X1883928Y-10047214D01*
X1826786Y-10047214D01*
X1798214Y-10061500D01*
X1926786Y-10232929D02*
X1898214Y-10247214D01*
X1826786Y-10247214D01*
X1798214Y-10232929D01*
X1783928Y-10204357D01*
X1783928Y-10175786D01*
X1798214Y-10147214D01*
X1826786Y-10132929D01*
X1898214Y-10132929D01*
X1926786Y-10118643D01*
X2069643Y-10047214D02*
X2069643Y-10347214D01*
X2069643Y-10061500D02*
X2098214Y-10047214D01*
X2155357Y-10047214D01*
X2183928Y-10061500D01*
X2198214Y-10075786D01*
X2212500Y-10104357D01*
X2212500Y-10190072D01*
X2198214Y-10218643D01*
X2183928Y-10232929D01*
X2155357Y-10247214D01*
X2098214Y-10247214D01*
X2069643Y-10232929D01*
X2341071Y-10218643D02*
X2355357Y-10232929D01*
X2341071Y-10247214D01*
X2326786Y-10232929D01*
X2341071Y-10218643D01*
X2341071Y-10247214D01*
X2341071Y-10061500D02*
X2355357Y-10075786D01*
X2341071Y-10090072D01*
X2326786Y-10075786D01*
X2341071Y-10061500D01*
X2341071Y-10090072D01*
M02*
