G04 #@! TF.GenerationSoftware,KiCad,Pcbnew,5.1.9-73d0e3b20d~88~ubuntu20.04.1*
G04 #@! TF.CreationDate,2021-03-09T21:18:06-03:00*
G04 #@! TF.ProjectId,std_board,7374645f-626f-4617-9264-2e6b69636164,rev?*
G04 #@! TF.SameCoordinates,Original*
G04 #@! TF.FileFunction,Soldermask,Bot*
G04 #@! TF.FilePolarity,Negative*
%FSLAX46Y46*%
G04 Gerber Fmt 4.6, Leading zero omitted, Abs format (unit mm)*
G04 Created by KiCad (PCBNEW 5.1.9-73d0e3b20d~88~ubuntu20.04.1) date 2021-03-09 21:18:06*
%MOMM*%
%LPD*%
G01*
G04 APERTURE LIST*
%ADD10O,2.102000X1.302000*%
%ADD11C,1.702000*%
%ADD12O,1.702000X1.702000*%
%ADD13C,2.702000*%
%ADD14C,1.626000*%
%ADD15C,6.102000*%
%ADD16C,1.902000*%
%ADD17O,1.802000X1.802000*%
%ADD18O,2.102000X2.007000*%
%ADD19C,1.402000*%
%ADD20C,3.102000*%
%ADD21C,0.100000*%
G04 APERTURE END LIST*
D10*
X38100000Y0D03*
X12700000Y0D03*
X38100000Y-2540000D03*
X12700000Y-2540000D03*
X38100000Y-5080000D03*
X12700000Y-5080000D03*
X38100000Y-7620000D03*
X12700000Y-7620000D03*
X38100000Y-10160000D03*
X12700000Y-10160000D03*
X38100000Y-12700000D03*
X12700000Y-12700000D03*
X38100000Y-15240000D03*
X12700000Y-15240000D03*
X38100000Y-17780000D03*
X12700000Y-17780000D03*
X38100000Y-20320000D03*
X12700000Y-20320000D03*
X38100000Y-22860000D03*
X12700000Y-22860000D03*
X38100000Y-25400000D03*
X12700000Y-25400000D03*
X38100000Y-27940000D03*
X12700000Y-27940000D03*
X38100000Y-30480000D03*
X12700000Y-30480000D03*
X38100000Y-33020000D03*
X12700000Y-33020000D03*
X38100000Y-35560000D03*
X12700000Y-35560000D03*
X38100000Y-38100000D03*
X12700000Y-38100000D03*
X38100000Y-40640000D03*
X12700000Y-40640000D03*
X38100000Y-43180000D03*
X12700000Y-43180000D03*
X38100000Y-45720000D03*
X12700000Y-45720000D03*
D11*
X89916000Y-83820000D03*
D12*
X89916000Y-93980000D03*
D13*
X77978000Y-42164000D03*
X82978000Y-42164000D03*
D14*
X61976000Y-54610000D03*
X61976000Y-49530000D03*
D11*
X66040000Y-635000D03*
D12*
X66040000Y-10795000D03*
X62865000Y-2540000D03*
X55245000Y-7620000D03*
X62865000Y-5080000D03*
X55245000Y-5080000D03*
X62865000Y-7620000D03*
G36*
G01*
X54394000Y-3340000D02*
X54394000Y-1740000D01*
G75*
G02*
X54445000Y-1689000I51000J0D01*
G01*
X56045000Y-1689000D01*
G75*
G02*
X56096000Y-1740000I0J-51000D01*
G01*
X56096000Y-3340000D01*
G75*
G02*
X56045000Y-3391000I-51000J0D01*
G01*
X54445000Y-3391000D01*
G75*
G02*
X54394000Y-3340000I0J51000D01*
G01*
G37*
D11*
X88900000Y-13335000D03*
D12*
X88900000Y-23495000D03*
X88900000Y-36322000D03*
D11*
X88900000Y-26162000D03*
G36*
G01*
X86122000Y-63627001D02*
X86122000Y-63372999D01*
G75*
G02*
X86172999Y-63322000I50999J0D01*
G01*
X87373001Y-63322000D01*
G75*
G02*
X87424000Y-63372999I0J-50999D01*
G01*
X87424000Y-63627001D01*
G75*
G02*
X87373001Y-63678000I-50999J0D01*
G01*
X86172999Y-63678000D01*
G75*
G02*
X86122000Y-63627001I0J50999D01*
G01*
G37*
G36*
G01*
X85261500Y-64008001D02*
X85261500Y-63753999D01*
G75*
G02*
X85312499Y-63703000I50999J0D01*
G01*
X86455501Y-63703000D01*
G75*
G02*
X86506500Y-63753999I0J-50999D01*
G01*
X86506500Y-64008001D01*
G75*
G02*
X86455501Y-64059000I-50999J0D01*
G01*
X85312499Y-64059000D01*
G75*
G02*
X85261500Y-64008001I0J50999D01*
G01*
G37*
G36*
G01*
X85071000Y-64008000D02*
X85071000Y-62992000D01*
G75*
G02*
X85122000Y-62941000I51000J0D01*
G01*
X85884000Y-62941000D01*
G75*
G02*
X85935000Y-62992000I0J-51000D01*
G01*
X85935000Y-64008000D01*
G75*
G02*
X85884000Y-64059000I-51000J0D01*
G01*
X85122000Y-64059000D01*
G75*
G02*
X85071000Y-64008000I0J51000D01*
G01*
G37*
G36*
G01*
X85261500Y-63246001D02*
X85261500Y-62991999D01*
G75*
G02*
X85312499Y-62941000I50999J0D01*
G01*
X86455501Y-62941000D01*
G75*
G02*
X86506500Y-62991999I0J-50999D01*
G01*
X86506500Y-63246001D01*
G75*
G02*
X86455501Y-63297000I-50999J0D01*
G01*
X85312499Y-63297000D01*
G75*
G02*
X85261500Y-63246001I0J50999D01*
G01*
G37*
G36*
G01*
X86595000Y-64008000D02*
X86595000Y-62992000D01*
G75*
G02*
X86646000Y-62941000I51000J0D01*
G01*
X87408000Y-62941000D01*
G75*
G02*
X87459000Y-62992000I0J-51000D01*
G01*
X87459000Y-64008000D01*
G75*
G02*
X87408000Y-64059000I-51000J0D01*
G01*
X86646000Y-64059000D01*
G75*
G02*
X86595000Y-64008000I0J51000D01*
G01*
G37*
G36*
G01*
X17144999Y-75803000D02*
X17399001Y-75803000D01*
G75*
G02*
X17450000Y-75853999I0J-50999D01*
G01*
X17450000Y-77054001D01*
G75*
G02*
X17399001Y-77105000I-50999J0D01*
G01*
X17144999Y-77105000D01*
G75*
G02*
X17094000Y-77054001I0J50999D01*
G01*
X17094000Y-75853999D01*
G75*
G02*
X17144999Y-75803000I50999J0D01*
G01*
G37*
G36*
G01*
X16763999Y-74942500D02*
X17018001Y-74942500D01*
G75*
G02*
X17069000Y-74993499I0J-50999D01*
G01*
X17069000Y-76136501D01*
G75*
G02*
X17018001Y-76187500I-50999J0D01*
G01*
X16763999Y-76187500D01*
G75*
G02*
X16713000Y-76136501I0J50999D01*
G01*
X16713000Y-74993499D01*
G75*
G02*
X16763999Y-74942500I50999J0D01*
G01*
G37*
G36*
G01*
X16764000Y-74752000D02*
X17780000Y-74752000D01*
G75*
G02*
X17831000Y-74803000I0J-51000D01*
G01*
X17831000Y-75565000D01*
G75*
G02*
X17780000Y-75616000I-51000J0D01*
G01*
X16764000Y-75616000D01*
G75*
G02*
X16713000Y-75565000I0J51000D01*
G01*
X16713000Y-74803000D01*
G75*
G02*
X16764000Y-74752000I51000J0D01*
G01*
G37*
G36*
G01*
X17525999Y-74942500D02*
X17780001Y-74942500D01*
G75*
G02*
X17831000Y-74993499I0J-50999D01*
G01*
X17831000Y-76136501D01*
G75*
G02*
X17780001Y-76187500I-50999J0D01*
G01*
X17525999Y-76187500D01*
G75*
G02*
X17475000Y-76136501I0J50999D01*
G01*
X17475000Y-74993499D01*
G75*
G02*
X17525999Y-74942500I50999J0D01*
G01*
G37*
G36*
G01*
X16764000Y-76276000D02*
X17780000Y-76276000D01*
G75*
G02*
X17831000Y-76327000I0J-51000D01*
G01*
X17831000Y-77089000D01*
G75*
G02*
X17780000Y-77140000I-51000J0D01*
G01*
X16764000Y-77140000D01*
G75*
G02*
X16713000Y-77089000I0J51000D01*
G01*
X16713000Y-76327000D01*
G75*
G02*
X16764000Y-76276000I51000J0D01*
G01*
G37*
G36*
G01*
X17144999Y-84439000D02*
X17399001Y-84439000D01*
G75*
G02*
X17450000Y-84489999I0J-50999D01*
G01*
X17450000Y-85690001D01*
G75*
G02*
X17399001Y-85741000I-50999J0D01*
G01*
X17144999Y-85741000D01*
G75*
G02*
X17094000Y-85690001I0J50999D01*
G01*
X17094000Y-84489999D01*
G75*
G02*
X17144999Y-84439000I50999J0D01*
G01*
G37*
G36*
G01*
X16763999Y-83578500D02*
X17018001Y-83578500D01*
G75*
G02*
X17069000Y-83629499I0J-50999D01*
G01*
X17069000Y-84772501D01*
G75*
G02*
X17018001Y-84823500I-50999J0D01*
G01*
X16763999Y-84823500D01*
G75*
G02*
X16713000Y-84772501I0J50999D01*
G01*
X16713000Y-83629499D01*
G75*
G02*
X16763999Y-83578500I50999J0D01*
G01*
G37*
G36*
G01*
X16764000Y-83388000D02*
X17780000Y-83388000D01*
G75*
G02*
X17831000Y-83439000I0J-51000D01*
G01*
X17831000Y-84201000D01*
G75*
G02*
X17780000Y-84252000I-51000J0D01*
G01*
X16764000Y-84252000D01*
G75*
G02*
X16713000Y-84201000I0J51000D01*
G01*
X16713000Y-83439000D01*
G75*
G02*
X16764000Y-83388000I51000J0D01*
G01*
G37*
G36*
G01*
X17525999Y-83578500D02*
X17780001Y-83578500D01*
G75*
G02*
X17831000Y-83629499I0J-50999D01*
G01*
X17831000Y-84772501D01*
G75*
G02*
X17780001Y-84823500I-50999J0D01*
G01*
X17525999Y-84823500D01*
G75*
G02*
X17475000Y-84772501I0J50999D01*
G01*
X17475000Y-83629499D01*
G75*
G02*
X17525999Y-83578500I50999J0D01*
G01*
G37*
G36*
G01*
X16764000Y-84912000D02*
X17780000Y-84912000D01*
G75*
G02*
X17831000Y-84963000I0J-51000D01*
G01*
X17831000Y-85725000D01*
G75*
G02*
X17780000Y-85776000I-51000J0D01*
G01*
X16764000Y-85776000D01*
G75*
G02*
X16713000Y-85725000I0J51000D01*
G01*
X16713000Y-84963000D01*
G75*
G02*
X16764000Y-84912000I51000J0D01*
G01*
G37*
G36*
G01*
X87106000Y-58928001D02*
X87106000Y-58673999D01*
G75*
G02*
X87156999Y-58623000I50999J0D01*
G01*
X88357001Y-58623000D01*
G75*
G02*
X88408000Y-58673999I0J-50999D01*
G01*
X88408000Y-58928001D01*
G75*
G02*
X88357001Y-58979000I-50999J0D01*
G01*
X87156999Y-58979000D01*
G75*
G02*
X87106000Y-58928001I0J50999D01*
G01*
G37*
G36*
G01*
X86245500Y-59309001D02*
X86245500Y-59054999D01*
G75*
G02*
X86296499Y-59004000I50999J0D01*
G01*
X87439501Y-59004000D01*
G75*
G02*
X87490500Y-59054999I0J-50999D01*
G01*
X87490500Y-59309001D01*
G75*
G02*
X87439501Y-59360000I-50999J0D01*
G01*
X86296499Y-59360000D01*
G75*
G02*
X86245500Y-59309001I0J50999D01*
G01*
G37*
G36*
G01*
X86055000Y-59309000D02*
X86055000Y-58293000D01*
G75*
G02*
X86106000Y-58242000I51000J0D01*
G01*
X86868000Y-58242000D01*
G75*
G02*
X86919000Y-58293000I0J-51000D01*
G01*
X86919000Y-59309000D01*
G75*
G02*
X86868000Y-59360000I-51000J0D01*
G01*
X86106000Y-59360000D01*
G75*
G02*
X86055000Y-59309000I0J51000D01*
G01*
G37*
G36*
G01*
X86245500Y-58547001D02*
X86245500Y-58292999D01*
G75*
G02*
X86296499Y-58242000I50999J0D01*
G01*
X87439501Y-58242000D01*
G75*
G02*
X87490500Y-58292999I0J-50999D01*
G01*
X87490500Y-58547001D01*
G75*
G02*
X87439501Y-58598000I-50999J0D01*
G01*
X86296499Y-58598000D01*
G75*
G02*
X86245500Y-58547001I0J50999D01*
G01*
G37*
G36*
G01*
X87579000Y-59309000D02*
X87579000Y-58293000D01*
G75*
G02*
X87630000Y-58242000I51000J0D01*
G01*
X88392000Y-58242000D01*
G75*
G02*
X88443000Y-58293000I0J-51000D01*
G01*
X88443000Y-59309000D01*
G75*
G02*
X88392000Y-59360000I-51000J0D01*
G01*
X87630000Y-59360000D01*
G75*
G02*
X87579000Y-59309000I0J51000D01*
G01*
G37*
D15*
X3556000Y-94234000D03*
X3556000Y-2286000D03*
G36*
G01*
X26288999Y-84439000D02*
X26543001Y-84439000D01*
G75*
G02*
X26594000Y-84489999I0J-50999D01*
G01*
X26594000Y-85690001D01*
G75*
G02*
X26543001Y-85741000I-50999J0D01*
G01*
X26288999Y-85741000D01*
G75*
G02*
X26238000Y-85690001I0J50999D01*
G01*
X26238000Y-84489999D01*
G75*
G02*
X26288999Y-84439000I50999J0D01*
G01*
G37*
G36*
G01*
X25907999Y-83578500D02*
X26162001Y-83578500D01*
G75*
G02*
X26213000Y-83629499I0J-50999D01*
G01*
X26213000Y-84772501D01*
G75*
G02*
X26162001Y-84823500I-50999J0D01*
G01*
X25907999Y-84823500D01*
G75*
G02*
X25857000Y-84772501I0J50999D01*
G01*
X25857000Y-83629499D01*
G75*
G02*
X25907999Y-83578500I50999J0D01*
G01*
G37*
G36*
G01*
X25908000Y-83388000D02*
X26924000Y-83388000D01*
G75*
G02*
X26975000Y-83439000I0J-51000D01*
G01*
X26975000Y-84201000D01*
G75*
G02*
X26924000Y-84252000I-51000J0D01*
G01*
X25908000Y-84252000D01*
G75*
G02*
X25857000Y-84201000I0J51000D01*
G01*
X25857000Y-83439000D01*
G75*
G02*
X25908000Y-83388000I51000J0D01*
G01*
G37*
G36*
G01*
X26669999Y-83578500D02*
X26924001Y-83578500D01*
G75*
G02*
X26975000Y-83629499I0J-50999D01*
G01*
X26975000Y-84772501D01*
G75*
G02*
X26924001Y-84823500I-50999J0D01*
G01*
X26669999Y-84823500D01*
G75*
G02*
X26619000Y-84772501I0J50999D01*
G01*
X26619000Y-83629499D01*
G75*
G02*
X26669999Y-83578500I50999J0D01*
G01*
G37*
G36*
G01*
X25908000Y-84912000D02*
X26924000Y-84912000D01*
G75*
G02*
X26975000Y-84963000I0J-51000D01*
G01*
X26975000Y-85725000D01*
G75*
G02*
X26924000Y-85776000I-51000J0D01*
G01*
X25908000Y-85776000D01*
G75*
G02*
X25857000Y-85725000I0J51000D01*
G01*
X25857000Y-84963000D01*
G75*
G02*
X25908000Y-84912000I51000J0D01*
G01*
G37*
G36*
G01*
X26288999Y-75549000D02*
X26543001Y-75549000D01*
G75*
G02*
X26594000Y-75599999I0J-50999D01*
G01*
X26594000Y-76800001D01*
G75*
G02*
X26543001Y-76851000I-50999J0D01*
G01*
X26288999Y-76851000D01*
G75*
G02*
X26238000Y-76800001I0J50999D01*
G01*
X26238000Y-75599999D01*
G75*
G02*
X26288999Y-75549000I50999J0D01*
G01*
G37*
G36*
G01*
X25907999Y-74688500D02*
X26162001Y-74688500D01*
G75*
G02*
X26213000Y-74739499I0J-50999D01*
G01*
X26213000Y-75882501D01*
G75*
G02*
X26162001Y-75933500I-50999J0D01*
G01*
X25907999Y-75933500D01*
G75*
G02*
X25857000Y-75882501I0J50999D01*
G01*
X25857000Y-74739499D01*
G75*
G02*
X25907999Y-74688500I50999J0D01*
G01*
G37*
G36*
G01*
X25908000Y-74498000D02*
X26924000Y-74498000D01*
G75*
G02*
X26975000Y-74549000I0J-51000D01*
G01*
X26975000Y-75311000D01*
G75*
G02*
X26924000Y-75362000I-51000J0D01*
G01*
X25908000Y-75362000D01*
G75*
G02*
X25857000Y-75311000I0J51000D01*
G01*
X25857000Y-74549000D01*
G75*
G02*
X25908000Y-74498000I51000J0D01*
G01*
G37*
G36*
G01*
X26669999Y-74688500D02*
X26924001Y-74688500D01*
G75*
G02*
X26975000Y-74739499I0J-50999D01*
G01*
X26975000Y-75882501D01*
G75*
G02*
X26924001Y-75933500I-50999J0D01*
G01*
X26669999Y-75933500D01*
G75*
G02*
X26619000Y-75882501I0J50999D01*
G01*
X26619000Y-74739499D01*
G75*
G02*
X26669999Y-74688500I50999J0D01*
G01*
G37*
G36*
G01*
X25908000Y-76022000D02*
X26924000Y-76022000D01*
G75*
G02*
X26975000Y-76073000I0J-51000D01*
G01*
X26975000Y-76835000D01*
G75*
G02*
X26924000Y-76886000I-51000J0D01*
G01*
X25908000Y-76886000D01*
G75*
G02*
X25857000Y-76835000I0J51000D01*
G01*
X25857000Y-76073000D01*
G75*
G02*
X25908000Y-76022000I51000J0D01*
G01*
G37*
D16*
X96400000Y-41278000D03*
X88900000Y-39878000D03*
X88265000Y-45720000D03*
X86865000Y-53220000D03*
D12*
X62865000Y-27940000D03*
X55245000Y-33020000D03*
X62865000Y-30480000D03*
X55245000Y-30480000D03*
X62865000Y-33020000D03*
G36*
G01*
X54394000Y-28740000D02*
X54394000Y-27140000D01*
G75*
G02*
X54445000Y-27089000I51000J0D01*
G01*
X56045000Y-27089000D01*
G75*
G02*
X56096000Y-27140000I0J-51000D01*
G01*
X56096000Y-28740000D01*
G75*
G02*
X56045000Y-28791000I-51000J0D01*
G01*
X54445000Y-28791000D01*
G75*
G02*
X54394000Y-28740000I0J51000D01*
G01*
G37*
X62865000Y-15240000D03*
X55245000Y-20320000D03*
X62865000Y-17780000D03*
X55245000Y-17780000D03*
X62865000Y-20320000D03*
G36*
G01*
X54394000Y-16040000D02*
X54394000Y-14440000D01*
G75*
G02*
X54445000Y-14389000I51000J0D01*
G01*
X56045000Y-14389000D01*
G75*
G02*
X56096000Y-14440000I0J-51000D01*
G01*
X56096000Y-16040000D01*
G75*
G02*
X56045000Y-16091000I-51000J0D01*
G01*
X54445000Y-16091000D01*
G75*
G02*
X54394000Y-16040000I0J51000D01*
G01*
G37*
G36*
G01*
X85566000Y-62600000D02*
X85566000Y-64400000D01*
G75*
G02*
X85515000Y-64451000I-51000J0D01*
G01*
X83015000Y-64451000D01*
G75*
G02*
X82964000Y-64400000I0J51000D01*
G01*
X82964000Y-62600000D01*
G75*
G02*
X83015000Y-62549000I51000J0D01*
G01*
X85515000Y-62549000D01*
G75*
G02*
X85566000Y-62600000I0J-51000D01*
G01*
G37*
G36*
G01*
X89566000Y-62600000D02*
X89566000Y-64400000D01*
G75*
G02*
X89515000Y-64451000I-51000J0D01*
G01*
X87015000Y-64451000D01*
G75*
G02*
X86964000Y-64400000I0J51000D01*
G01*
X86964000Y-62600000D01*
G75*
G02*
X87015000Y-62549000I51000J0D01*
G01*
X89515000Y-62549000D01*
G75*
G02*
X89566000Y-62600000I0J-51000D01*
G01*
G37*
D11*
X84836000Y-10635000D03*
X84836000Y-635000D03*
X70612000Y-8255000D03*
X70612000Y-755000D03*
X84836000Y-23462000D03*
X84836000Y-13462000D03*
X70612000Y-13455000D03*
X70612000Y-20955000D03*
X84836000Y-26670000D03*
X84836000Y-36670000D03*
X70612000Y-33655000D03*
X70612000Y-26155000D03*
G36*
G01*
X44057000Y-73748000D02*
X44057000Y-72048000D01*
G75*
G02*
X44108000Y-71997000I51000J0D01*
G01*
X45808000Y-71997000D01*
G75*
G02*
X45859000Y-72048000I0J-51000D01*
G01*
X45859000Y-73748000D01*
G75*
G02*
X45808000Y-73799000I-51000J0D01*
G01*
X44108000Y-73799000D01*
G75*
G02*
X44057000Y-73748000I0J51000D01*
G01*
G37*
D17*
X44958000Y-75438000D03*
X44958000Y-77978000D03*
G36*
G01*
X49010000Y-73748000D02*
X49010000Y-72048000D01*
G75*
G02*
X49061000Y-71997000I51000J0D01*
G01*
X50761000Y-71997000D01*
G75*
G02*
X50812000Y-72048000I0J-51000D01*
G01*
X50812000Y-73748000D01*
G75*
G02*
X50761000Y-73799000I-51000J0D01*
G01*
X49061000Y-73799000D01*
G75*
G02*
X49010000Y-73748000I0J51000D01*
G01*
G37*
X49911000Y-75438000D03*
X49911000Y-77978000D03*
X77216000Y-85852000D03*
X77216000Y-83312000D03*
G36*
G01*
X76315000Y-81622000D02*
X76315000Y-79922000D01*
G75*
G02*
X76366000Y-79871000I51000J0D01*
G01*
X78066000Y-79871000D01*
G75*
G02*
X78117000Y-79922000I0J-51000D01*
G01*
X78117000Y-81622000D01*
G75*
G02*
X78066000Y-81673000I-51000J0D01*
G01*
X76366000Y-81673000D01*
G75*
G02*
X76315000Y-81622000I0J51000D01*
G01*
G37*
G36*
G01*
X95111000Y-79590000D02*
X95111000Y-77890000D01*
G75*
G02*
X95162000Y-77839000I51000J0D01*
G01*
X96862000Y-77839000D01*
G75*
G02*
X96913000Y-77890000I0J-51000D01*
G01*
X96913000Y-79590000D01*
G75*
G02*
X96862000Y-79641000I-51000J0D01*
G01*
X95162000Y-79641000D01*
G75*
G02*
X95111000Y-79590000I0J51000D01*
G01*
G37*
X96012000Y-81280000D03*
X96012000Y-83820000D03*
X96012000Y-86360000D03*
X85852000Y-86360000D03*
X85852000Y-83820000D03*
X85852000Y-81280000D03*
G36*
G01*
X84951000Y-79590000D02*
X84951000Y-77890000D01*
G75*
G02*
X85002000Y-77839000I51000J0D01*
G01*
X86702000Y-77839000D01*
G75*
G02*
X86753000Y-77890000I0J-51000D01*
G01*
X86753000Y-79590000D01*
G75*
G02*
X86702000Y-79641000I-51000J0D01*
G01*
X85002000Y-79641000D01*
G75*
G02*
X84951000Y-79590000I0J51000D01*
G01*
G37*
D15*
X95504000Y-2286000D03*
X95504000Y-94234000D03*
G36*
G01*
X49911000Y-46812000D02*
X50927000Y-46812000D01*
G75*
G02*
X50978000Y-46863000I0J-51000D01*
G01*
X50978000Y-47625000D01*
G75*
G02*
X50927000Y-47676000I-51000J0D01*
G01*
X49911000Y-47676000D01*
G75*
G02*
X49860000Y-47625000I0J51000D01*
G01*
X49860000Y-46863000D01*
G75*
G02*
X49911000Y-46812000I51000J0D01*
G01*
G37*
G36*
G01*
X50672999Y-45478500D02*
X50927001Y-45478500D01*
G75*
G02*
X50978000Y-45529499I0J-50999D01*
G01*
X50978000Y-46672501D01*
G75*
G02*
X50927001Y-46723500I-50999J0D01*
G01*
X50672999Y-46723500D01*
G75*
G02*
X50622000Y-46672501I0J50999D01*
G01*
X50622000Y-45529499D01*
G75*
G02*
X50672999Y-45478500I50999J0D01*
G01*
G37*
G36*
G01*
X49911000Y-45288000D02*
X50927000Y-45288000D01*
G75*
G02*
X50978000Y-45339000I0J-51000D01*
G01*
X50978000Y-46101000D01*
G75*
G02*
X50927000Y-46152000I-51000J0D01*
G01*
X49911000Y-46152000D01*
G75*
G02*
X49860000Y-46101000I0J51000D01*
G01*
X49860000Y-45339000D01*
G75*
G02*
X49911000Y-45288000I51000J0D01*
G01*
G37*
G36*
G01*
X49910999Y-45478500D02*
X50165001Y-45478500D01*
G75*
G02*
X50216000Y-45529499I0J-50999D01*
G01*
X50216000Y-46672501D01*
G75*
G02*
X50165001Y-46723500I-50999J0D01*
G01*
X49910999Y-46723500D01*
G75*
G02*
X49860000Y-46672501I0J50999D01*
G01*
X49860000Y-45529499D01*
G75*
G02*
X49910999Y-45478500I50999J0D01*
G01*
G37*
G36*
G01*
X50291999Y-46339000D02*
X50546001Y-46339000D01*
G75*
G02*
X50597000Y-46389999I0J-50999D01*
G01*
X50597000Y-47590001D01*
G75*
G02*
X50546001Y-47641000I-50999J0D01*
G01*
X50291999Y-47641000D01*
G75*
G02*
X50241000Y-47590001I0J50999D01*
G01*
X50241000Y-46389999D01*
G75*
G02*
X50291999Y-46339000I50999J0D01*
G01*
G37*
G36*
G01*
X55693000Y-53462000D02*
X55693000Y-49662000D01*
G75*
G02*
X55744000Y-49611000I51000J0D01*
G01*
X57744000Y-49611000D01*
G75*
G02*
X57795000Y-49662000I0J-51000D01*
G01*
X57795000Y-53462000D01*
G75*
G02*
X57744000Y-53513000I-51000J0D01*
G01*
X55744000Y-53513000D01*
G75*
G02*
X55693000Y-53462000I0J51000D01*
G01*
G37*
G36*
G01*
X49393000Y-52312000D02*
X49393000Y-50812000D01*
G75*
G02*
X49444000Y-50761000I51000J0D01*
G01*
X51444000Y-50761000D01*
G75*
G02*
X51495000Y-50812000I0J-51000D01*
G01*
X51495000Y-52312000D01*
G75*
G02*
X51444000Y-52363000I-51000J0D01*
G01*
X49444000Y-52363000D01*
G75*
G02*
X49393000Y-52312000I0J51000D01*
G01*
G37*
G36*
G01*
X49393000Y-50012000D02*
X49393000Y-48512000D01*
G75*
G02*
X49444000Y-48461000I51000J0D01*
G01*
X51444000Y-48461000D01*
G75*
G02*
X51495000Y-48512000I0J-51000D01*
G01*
X51495000Y-50012000D01*
G75*
G02*
X51444000Y-50063000I-51000J0D01*
G01*
X49444000Y-50063000D01*
G75*
G02*
X49393000Y-50012000I0J51000D01*
G01*
G37*
G36*
G01*
X49393000Y-54612000D02*
X49393000Y-53112000D01*
G75*
G02*
X49444000Y-53061000I51000J0D01*
G01*
X51444000Y-53061000D01*
G75*
G02*
X51495000Y-53112000I0J-51000D01*
G01*
X51495000Y-54612000D01*
G75*
G02*
X51444000Y-54663000I-51000J0D01*
G01*
X49444000Y-54663000D01*
G75*
G02*
X49393000Y-54612000I0J51000D01*
G01*
G37*
D13*
X68406000Y-42164000D03*
X73406000Y-42164000D03*
G36*
G01*
X17348000Y-23368000D02*
X17348000Y-22352000D01*
G75*
G02*
X17399000Y-22301000I51000J0D01*
G01*
X18161000Y-22301000D01*
G75*
G02*
X18212000Y-22352000I0J-51000D01*
G01*
X18212000Y-23368000D01*
G75*
G02*
X18161000Y-23419000I-51000J0D01*
G01*
X17399000Y-23419000D01*
G75*
G02*
X17348000Y-23368000I0J51000D01*
G01*
G37*
G36*
G01*
X16014500Y-22606001D02*
X16014500Y-22351999D01*
G75*
G02*
X16065499Y-22301000I50999J0D01*
G01*
X17208501Y-22301000D01*
G75*
G02*
X17259500Y-22351999I0J-50999D01*
G01*
X17259500Y-22606001D01*
G75*
G02*
X17208501Y-22657000I-50999J0D01*
G01*
X16065499Y-22657000D01*
G75*
G02*
X16014500Y-22606001I0J50999D01*
G01*
G37*
G36*
G01*
X15824000Y-23368000D02*
X15824000Y-22352000D01*
G75*
G02*
X15875000Y-22301000I51000J0D01*
G01*
X16637000Y-22301000D01*
G75*
G02*
X16688000Y-22352000I0J-51000D01*
G01*
X16688000Y-23368000D01*
G75*
G02*
X16637000Y-23419000I-51000J0D01*
G01*
X15875000Y-23419000D01*
G75*
G02*
X15824000Y-23368000I0J51000D01*
G01*
G37*
G36*
G01*
X16014500Y-23368001D02*
X16014500Y-23113999D01*
G75*
G02*
X16065499Y-23063000I50999J0D01*
G01*
X17208501Y-23063000D01*
G75*
G02*
X17259500Y-23113999I0J-50999D01*
G01*
X17259500Y-23368001D01*
G75*
G02*
X17208501Y-23419000I-50999J0D01*
G01*
X16065499Y-23419000D01*
G75*
G02*
X16014500Y-23368001I0J50999D01*
G01*
G37*
G36*
G01*
X16875000Y-22987001D02*
X16875000Y-22732999D01*
G75*
G02*
X16925999Y-22682000I50999J0D01*
G01*
X18126001Y-22682000D01*
G75*
G02*
X18177000Y-22732999I0J-50999D01*
G01*
X18177000Y-22987001D01*
G75*
G02*
X18126001Y-23038000I-50999J0D01*
G01*
X16925999Y-23038000D01*
G75*
G02*
X16875000Y-22987001I0J50999D01*
G01*
G37*
G36*
G01*
X16875000Y-25527001D02*
X16875000Y-25272999D01*
G75*
G02*
X16925999Y-25222000I50999J0D01*
G01*
X18126001Y-25222000D01*
G75*
G02*
X18177000Y-25272999I0J-50999D01*
G01*
X18177000Y-25527001D01*
G75*
G02*
X18126001Y-25578000I-50999J0D01*
G01*
X16925999Y-25578000D01*
G75*
G02*
X16875000Y-25527001I0J50999D01*
G01*
G37*
G36*
G01*
X16014500Y-25908001D02*
X16014500Y-25653999D01*
G75*
G02*
X16065499Y-25603000I50999J0D01*
G01*
X17208501Y-25603000D01*
G75*
G02*
X17259500Y-25653999I0J-50999D01*
G01*
X17259500Y-25908001D01*
G75*
G02*
X17208501Y-25959000I-50999J0D01*
G01*
X16065499Y-25959000D01*
G75*
G02*
X16014500Y-25908001I0J50999D01*
G01*
G37*
G36*
G01*
X15824000Y-25908000D02*
X15824000Y-24892000D01*
G75*
G02*
X15875000Y-24841000I51000J0D01*
G01*
X16637000Y-24841000D01*
G75*
G02*
X16688000Y-24892000I0J-51000D01*
G01*
X16688000Y-25908000D01*
G75*
G02*
X16637000Y-25959000I-51000J0D01*
G01*
X15875000Y-25959000D01*
G75*
G02*
X15824000Y-25908000I0J51000D01*
G01*
G37*
G36*
G01*
X16014500Y-25146001D02*
X16014500Y-24891999D01*
G75*
G02*
X16065499Y-24841000I50999J0D01*
G01*
X17208501Y-24841000D01*
G75*
G02*
X17259500Y-24891999I0J-50999D01*
G01*
X17259500Y-25146001D01*
G75*
G02*
X17208501Y-25197000I-50999J0D01*
G01*
X16065499Y-25197000D01*
G75*
G02*
X16014500Y-25146001I0J50999D01*
G01*
G37*
G36*
G01*
X17348000Y-25908000D02*
X17348000Y-24892000D01*
G75*
G02*
X17399000Y-24841000I51000J0D01*
G01*
X18161000Y-24841000D01*
G75*
G02*
X18212000Y-24892000I0J-51000D01*
G01*
X18212000Y-25908000D01*
G75*
G02*
X18161000Y-25959000I-51000J0D01*
G01*
X17399000Y-25959000D01*
G75*
G02*
X17348000Y-25908000I0J51000D01*
G01*
G37*
G36*
G01*
X9068000Y-90297000D02*
X9068000Y-91313000D01*
G75*
G02*
X9017000Y-91364000I-51000J0D01*
G01*
X8255000Y-91364000D01*
G75*
G02*
X8204000Y-91313000I0J51000D01*
G01*
X8204000Y-90297000D01*
G75*
G02*
X8255000Y-90246000I51000J0D01*
G01*
X9017000Y-90246000D01*
G75*
G02*
X9068000Y-90297000I0J-51000D01*
G01*
G37*
G36*
G01*
X10401500Y-91058999D02*
X10401500Y-91313001D01*
G75*
G02*
X10350501Y-91364000I-50999J0D01*
G01*
X9207499Y-91364000D01*
G75*
G02*
X9156500Y-91313001I0J50999D01*
G01*
X9156500Y-91058999D01*
G75*
G02*
X9207499Y-91008000I50999J0D01*
G01*
X10350501Y-91008000D01*
G75*
G02*
X10401500Y-91058999I0J-50999D01*
G01*
G37*
G36*
G01*
X10592000Y-90297000D02*
X10592000Y-91313000D01*
G75*
G02*
X10541000Y-91364000I-51000J0D01*
G01*
X9779000Y-91364000D01*
G75*
G02*
X9728000Y-91313000I0J51000D01*
G01*
X9728000Y-90297000D01*
G75*
G02*
X9779000Y-90246000I51000J0D01*
G01*
X10541000Y-90246000D01*
G75*
G02*
X10592000Y-90297000I0J-51000D01*
G01*
G37*
G36*
G01*
X10401500Y-90296999D02*
X10401500Y-90551001D01*
G75*
G02*
X10350501Y-90602000I-50999J0D01*
G01*
X9207499Y-90602000D01*
G75*
G02*
X9156500Y-90551001I0J50999D01*
G01*
X9156500Y-90296999D01*
G75*
G02*
X9207499Y-90246000I50999J0D01*
G01*
X10350501Y-90246000D01*
G75*
G02*
X10401500Y-90296999I0J-50999D01*
G01*
G37*
G36*
G01*
X9541000Y-90677999D02*
X9541000Y-90932001D01*
G75*
G02*
X9490001Y-90983000I-50999J0D01*
G01*
X8289999Y-90983000D01*
G75*
G02*
X8239000Y-90932001I0J50999D01*
G01*
X8239000Y-90677999D01*
G75*
G02*
X8289999Y-90627000I50999J0D01*
G01*
X9490001Y-90627000D01*
G75*
G02*
X9541000Y-90677999I0J-50999D01*
G01*
G37*
G36*
G01*
X33540000Y-66968000D02*
X33540000Y-68668000D01*
G75*
G02*
X33489000Y-68719000I-51000J0D01*
G01*
X31789000Y-68719000D01*
G75*
G02*
X31738000Y-68668000I0J51000D01*
G01*
X31738000Y-66968000D01*
G75*
G02*
X31789000Y-66917000I51000J0D01*
G01*
X33489000Y-66917000D01*
G75*
G02*
X33540000Y-66968000I0J-51000D01*
G01*
G37*
D17*
X32639000Y-65278000D03*
X32639000Y-62738000D03*
G36*
G01*
X21666000Y-23368000D02*
X21666000Y-22352000D01*
G75*
G02*
X21717000Y-22301000I51000J0D01*
G01*
X22479000Y-22301000D01*
G75*
G02*
X22530000Y-22352000I0J-51000D01*
G01*
X22530000Y-23368000D01*
G75*
G02*
X22479000Y-23419000I-51000J0D01*
G01*
X21717000Y-23419000D01*
G75*
G02*
X21666000Y-23368000I0J51000D01*
G01*
G37*
G36*
G01*
X20332500Y-22606001D02*
X20332500Y-22351999D01*
G75*
G02*
X20383499Y-22301000I50999J0D01*
G01*
X21526501Y-22301000D01*
G75*
G02*
X21577500Y-22351999I0J-50999D01*
G01*
X21577500Y-22606001D01*
G75*
G02*
X21526501Y-22657000I-50999J0D01*
G01*
X20383499Y-22657000D01*
G75*
G02*
X20332500Y-22606001I0J50999D01*
G01*
G37*
G36*
G01*
X20142000Y-23368000D02*
X20142000Y-22352000D01*
G75*
G02*
X20193000Y-22301000I51000J0D01*
G01*
X20955000Y-22301000D01*
G75*
G02*
X21006000Y-22352000I0J-51000D01*
G01*
X21006000Y-23368000D01*
G75*
G02*
X20955000Y-23419000I-51000J0D01*
G01*
X20193000Y-23419000D01*
G75*
G02*
X20142000Y-23368000I0J51000D01*
G01*
G37*
G36*
G01*
X20332500Y-23368001D02*
X20332500Y-23113999D01*
G75*
G02*
X20383499Y-23063000I50999J0D01*
G01*
X21526501Y-23063000D01*
G75*
G02*
X21577500Y-23113999I0J-50999D01*
G01*
X21577500Y-23368001D01*
G75*
G02*
X21526501Y-23419000I-50999J0D01*
G01*
X20383499Y-23419000D01*
G75*
G02*
X20332500Y-23368001I0J50999D01*
G01*
G37*
G36*
G01*
X21193000Y-22987001D02*
X21193000Y-22732999D01*
G75*
G02*
X21243999Y-22682000I50999J0D01*
G01*
X22444001Y-22682000D01*
G75*
G02*
X22495000Y-22732999I0J-50999D01*
G01*
X22495000Y-22987001D01*
G75*
G02*
X22444001Y-23038000I-50999J0D01*
G01*
X21243999Y-23038000D01*
G75*
G02*
X21193000Y-22987001I0J50999D01*
G01*
G37*
G36*
G01*
X21193000Y-20447001D02*
X21193000Y-20192999D01*
G75*
G02*
X21243999Y-20142000I50999J0D01*
G01*
X22444001Y-20142000D01*
G75*
G02*
X22495000Y-20192999I0J-50999D01*
G01*
X22495000Y-20447001D01*
G75*
G02*
X22444001Y-20498000I-50999J0D01*
G01*
X21243999Y-20498000D01*
G75*
G02*
X21193000Y-20447001I0J50999D01*
G01*
G37*
G36*
G01*
X20332500Y-20828001D02*
X20332500Y-20573999D01*
G75*
G02*
X20383499Y-20523000I50999J0D01*
G01*
X21526501Y-20523000D01*
G75*
G02*
X21577500Y-20573999I0J-50999D01*
G01*
X21577500Y-20828001D01*
G75*
G02*
X21526501Y-20879000I-50999J0D01*
G01*
X20383499Y-20879000D01*
G75*
G02*
X20332500Y-20828001I0J50999D01*
G01*
G37*
G36*
G01*
X20142000Y-20828000D02*
X20142000Y-19812000D01*
G75*
G02*
X20193000Y-19761000I51000J0D01*
G01*
X20955000Y-19761000D01*
G75*
G02*
X21006000Y-19812000I0J-51000D01*
G01*
X21006000Y-20828000D01*
G75*
G02*
X20955000Y-20879000I-51000J0D01*
G01*
X20193000Y-20879000D01*
G75*
G02*
X20142000Y-20828000I0J51000D01*
G01*
G37*
G36*
G01*
X20332500Y-20066001D02*
X20332500Y-19811999D01*
G75*
G02*
X20383499Y-19761000I50999J0D01*
G01*
X21526501Y-19761000D01*
G75*
G02*
X21577500Y-19811999I0J-50999D01*
G01*
X21577500Y-20066001D01*
G75*
G02*
X21526501Y-20117000I-50999J0D01*
G01*
X20383499Y-20117000D01*
G75*
G02*
X20332500Y-20066001I0J50999D01*
G01*
G37*
G36*
G01*
X21666000Y-20828000D02*
X21666000Y-19812000D01*
G75*
G02*
X21717000Y-19761000I51000J0D01*
G01*
X22479000Y-19761000D01*
G75*
G02*
X22530000Y-19812000I0J-51000D01*
G01*
X22530000Y-20828000D01*
G75*
G02*
X22479000Y-20879000I-51000J0D01*
G01*
X21717000Y-20879000D01*
G75*
G02*
X21666000Y-20828000I0J51000D01*
G01*
G37*
G36*
G01*
X16875000Y-28067001D02*
X16875000Y-27812999D01*
G75*
G02*
X16925999Y-27762000I50999J0D01*
G01*
X18126001Y-27762000D01*
G75*
G02*
X18177000Y-27812999I0J-50999D01*
G01*
X18177000Y-28067001D01*
G75*
G02*
X18126001Y-28118000I-50999J0D01*
G01*
X16925999Y-28118000D01*
G75*
G02*
X16875000Y-28067001I0J50999D01*
G01*
G37*
G36*
G01*
X16014500Y-28448001D02*
X16014500Y-28193999D01*
G75*
G02*
X16065499Y-28143000I50999J0D01*
G01*
X17208501Y-28143000D01*
G75*
G02*
X17259500Y-28193999I0J-50999D01*
G01*
X17259500Y-28448001D01*
G75*
G02*
X17208501Y-28499000I-50999J0D01*
G01*
X16065499Y-28499000D01*
G75*
G02*
X16014500Y-28448001I0J50999D01*
G01*
G37*
G36*
G01*
X15824000Y-28448000D02*
X15824000Y-27432000D01*
G75*
G02*
X15875000Y-27381000I51000J0D01*
G01*
X16637000Y-27381000D01*
G75*
G02*
X16688000Y-27432000I0J-51000D01*
G01*
X16688000Y-28448000D01*
G75*
G02*
X16637000Y-28499000I-51000J0D01*
G01*
X15875000Y-28499000D01*
G75*
G02*
X15824000Y-28448000I0J51000D01*
G01*
G37*
G36*
G01*
X16014500Y-27686001D02*
X16014500Y-27431999D01*
G75*
G02*
X16065499Y-27381000I50999J0D01*
G01*
X17208501Y-27381000D01*
G75*
G02*
X17259500Y-27431999I0J-50999D01*
G01*
X17259500Y-27686001D01*
G75*
G02*
X17208501Y-27737000I-50999J0D01*
G01*
X16065499Y-27737000D01*
G75*
G02*
X16014500Y-27686001I0J50999D01*
G01*
G37*
G36*
G01*
X17348000Y-28448000D02*
X17348000Y-27432000D01*
G75*
G02*
X17399000Y-27381000I51000J0D01*
G01*
X18161000Y-27381000D01*
G75*
G02*
X18212000Y-27432000I0J-51000D01*
G01*
X18212000Y-28448000D01*
G75*
G02*
X18161000Y-28499000I-51000J0D01*
G01*
X17399000Y-28499000D01*
G75*
G02*
X17348000Y-28448000I0J51000D01*
G01*
G37*
G36*
G01*
X88921500Y-60279335D02*
X88921500Y-57322665D01*
G75*
G02*
X89194165Y-57050000I272665J0D01*
G01*
X89875835Y-57050000D01*
G75*
G02*
X90148500Y-57322665I0J-272665D01*
G01*
X90148500Y-60279335D01*
G75*
G02*
X89875835Y-60552000I-272665J0D01*
G01*
X89194165Y-60552000D01*
G75*
G02*
X88921500Y-60279335I0J272665D01*
G01*
G37*
G36*
G01*
X84646500Y-60279335D02*
X84646500Y-57322665D01*
G75*
G02*
X84919165Y-57050000I272665J0D01*
G01*
X85600835Y-57050000D01*
G75*
G02*
X85873500Y-57322665I0J-272665D01*
G01*
X85873500Y-60279335D01*
G75*
G02*
X85600835Y-60552000I-272665J0D01*
G01*
X84919165Y-60552000D01*
G75*
G02*
X84646500Y-60279335I0J272665D01*
G01*
G37*
G36*
G01*
X92647500Y-36784335D02*
X92647500Y-33827665D01*
G75*
G02*
X92920165Y-33555000I272665J0D01*
G01*
X93601835Y-33555000D01*
G75*
G02*
X93874500Y-33827665I0J-272665D01*
G01*
X93874500Y-36784335D01*
G75*
G02*
X93601835Y-37057000I-272665J0D01*
G01*
X92920165Y-37057000D01*
G75*
G02*
X92647500Y-36784335I0J272665D01*
G01*
G37*
G36*
G01*
X96922500Y-36784335D02*
X96922500Y-33827665D01*
G75*
G02*
X97195165Y-33555000I272665J0D01*
G01*
X97876835Y-33555000D01*
G75*
G02*
X98149500Y-33827665I0J-272665D01*
G01*
X98149500Y-36784335D01*
G75*
G02*
X97876835Y-37057000I-272665J0D01*
G01*
X97195165Y-37057000D01*
G75*
G02*
X96922500Y-36784335I0J272665D01*
G01*
G37*
G36*
G01*
X17348000Y-30988000D02*
X17348000Y-29972000D01*
G75*
G02*
X17399000Y-29921000I51000J0D01*
G01*
X18161000Y-29921000D01*
G75*
G02*
X18212000Y-29972000I0J-51000D01*
G01*
X18212000Y-30988000D01*
G75*
G02*
X18161000Y-31039000I-51000J0D01*
G01*
X17399000Y-31039000D01*
G75*
G02*
X17348000Y-30988000I0J51000D01*
G01*
G37*
G36*
G01*
X16014500Y-30226001D02*
X16014500Y-29971999D01*
G75*
G02*
X16065499Y-29921000I50999J0D01*
G01*
X17208501Y-29921000D01*
G75*
G02*
X17259500Y-29971999I0J-50999D01*
G01*
X17259500Y-30226001D01*
G75*
G02*
X17208501Y-30277000I-50999J0D01*
G01*
X16065499Y-30277000D01*
G75*
G02*
X16014500Y-30226001I0J50999D01*
G01*
G37*
G36*
G01*
X15824000Y-30988000D02*
X15824000Y-29972000D01*
G75*
G02*
X15875000Y-29921000I51000J0D01*
G01*
X16637000Y-29921000D01*
G75*
G02*
X16688000Y-29972000I0J-51000D01*
G01*
X16688000Y-30988000D01*
G75*
G02*
X16637000Y-31039000I-51000J0D01*
G01*
X15875000Y-31039000D01*
G75*
G02*
X15824000Y-30988000I0J51000D01*
G01*
G37*
G36*
G01*
X16014500Y-30988001D02*
X16014500Y-30733999D01*
G75*
G02*
X16065499Y-30683000I50999J0D01*
G01*
X17208501Y-30683000D01*
G75*
G02*
X17259500Y-30733999I0J-50999D01*
G01*
X17259500Y-30988001D01*
G75*
G02*
X17208501Y-31039000I-50999J0D01*
G01*
X16065499Y-31039000D01*
G75*
G02*
X16014500Y-30988001I0J50999D01*
G01*
G37*
G36*
G01*
X16875000Y-30607001D02*
X16875000Y-30352999D01*
G75*
G02*
X16925999Y-30302000I50999J0D01*
G01*
X18126001Y-30302000D01*
G75*
G02*
X18177000Y-30352999I0J-50999D01*
G01*
X18177000Y-30607001D01*
G75*
G02*
X18126001Y-30658000I-50999J0D01*
G01*
X16925999Y-30658000D01*
G75*
G02*
X16875000Y-30607001I0J50999D01*
G01*
G37*
D18*
X78740000Y-6985000D03*
X78740000Y-4445000D03*
G36*
G01*
X77740000Y-901500D02*
X79740000Y-901500D01*
G75*
G02*
X79791000Y-952500I0J-51000D01*
G01*
X79791000Y-2857500D01*
G75*
G02*
X79740000Y-2908500I-51000J0D01*
G01*
X77740000Y-2908500D01*
G75*
G02*
X77689000Y-2857500I0J51000D01*
G01*
X77689000Y-952500D01*
G75*
G02*
X77740000Y-901500I51000J0D01*
G01*
G37*
G36*
G01*
X77740000Y-13601500D02*
X79740000Y-13601500D01*
G75*
G02*
X79791000Y-13652500I0J-51000D01*
G01*
X79791000Y-15557500D01*
G75*
G02*
X79740000Y-15608500I-51000J0D01*
G01*
X77740000Y-15608500D01*
G75*
G02*
X77689000Y-15557500I0J51000D01*
G01*
X77689000Y-13652500D01*
G75*
G02*
X77740000Y-13601500I51000J0D01*
G01*
G37*
X78740000Y-17145000D03*
X78740000Y-19685000D03*
G36*
G01*
X77740000Y-26301500D02*
X79740000Y-26301500D01*
G75*
G02*
X79791000Y-26352500I0J-51000D01*
G01*
X79791000Y-28257500D01*
G75*
G02*
X79740000Y-28308500I-51000J0D01*
G01*
X77740000Y-28308500D01*
G75*
G02*
X77689000Y-28257500I0J51000D01*
G01*
X77689000Y-26352500D01*
G75*
G02*
X77740000Y-26301500I51000J0D01*
G01*
G37*
X78740000Y-29845000D03*
X78740000Y-32385000D03*
D12*
X74930000Y-10795000D03*
D11*
X74930000Y-635000D03*
D12*
X88900000Y-10795000D03*
D11*
X88900000Y-635000D03*
X66040000Y-13335000D03*
D12*
X66040000Y-23495000D03*
D11*
X74930000Y-13335000D03*
D12*
X74930000Y-23495000D03*
D11*
X66040000Y-26035000D03*
D12*
X66040000Y-36195000D03*
X74930000Y-36195000D03*
D11*
X74930000Y-26035000D03*
D19*
X86360000Y-73660000D03*
X87630000Y-72390000D03*
G36*
G01*
X88331000Y-74280000D02*
X88331000Y-75580000D01*
G75*
G02*
X88280000Y-75631000I-51000J0D01*
G01*
X86980000Y-75631000D01*
G75*
G02*
X86929000Y-75580000I0J51000D01*
G01*
X86929000Y-74280000D01*
G75*
G02*
X86980000Y-74229000I51000J0D01*
G01*
X88280000Y-74229000D01*
G75*
G02*
X88331000Y-74280000I0J-51000D01*
G01*
G37*
D14*
X77216000Y-94996000D03*
X77216000Y-89916000D03*
X63754000Y-86106000D03*
X61214000Y-86106000D03*
X66294000Y-86106000D03*
X68834000Y-86106000D03*
X58674000Y-86106000D03*
X56134000Y-86106000D03*
D20*
X94996000Y-56134000D03*
G36*
G01*
X96496000Y-62765000D02*
X93496000Y-62765000D01*
G75*
G02*
X93445000Y-62714000I0J51000D01*
G01*
X93445000Y-59714000D01*
G75*
G02*
X93496000Y-59663000I51000J0D01*
G01*
X96496000Y-59663000D01*
G75*
G02*
X96547000Y-59714000I0J-51000D01*
G01*
X96547000Y-62714000D01*
G75*
G02*
X96496000Y-62765000I-51000J0D01*
G01*
G37*
X94996000Y-45720000D03*
G36*
G01*
X96496000Y-52351000D02*
X93496000Y-52351000D01*
G75*
G02*
X93445000Y-52300000I0J51000D01*
G01*
X93445000Y-49300000D01*
G75*
G02*
X93496000Y-49249000I51000J0D01*
G01*
X96496000Y-49249000D01*
G75*
G02*
X96547000Y-49300000I0J-51000D01*
G01*
X96547000Y-52300000D01*
G75*
G02*
X96496000Y-52351000I-51000J0D01*
G01*
G37*
X94996000Y-8890000D03*
X94996000Y-13970000D03*
G36*
G01*
X96496000Y-30761000D02*
X93496000Y-30761000D01*
G75*
G02*
X93445000Y-30710000I0J51000D01*
G01*
X93445000Y-27710000D01*
G75*
G02*
X93496000Y-27659000I51000J0D01*
G01*
X96496000Y-27659000D01*
G75*
G02*
X96547000Y-27710000I0J-51000D01*
G01*
X96547000Y-30710000D01*
G75*
G02*
X96496000Y-30761000I-51000J0D01*
G01*
G37*
X94996000Y-19050000D03*
X94996000Y-24130000D03*
G36*
G01*
X96496000Y-72925000D02*
X93496000Y-72925000D01*
G75*
G02*
X93445000Y-72874000I0J51000D01*
G01*
X93445000Y-69874000D01*
G75*
G02*
X93496000Y-69823000I51000J0D01*
G01*
X96496000Y-69823000D01*
G75*
G02*
X96547000Y-69874000I0J-51000D01*
G01*
X96547000Y-72874000D01*
G75*
G02*
X96496000Y-72925000I-51000J0D01*
G01*
G37*
X94996000Y-66294000D03*
X25527000Y-93726000D03*
X20447000Y-93726000D03*
G36*
G01*
X32158000Y-92226000D02*
X32158000Y-95226000D01*
G75*
G02*
X32107000Y-95277000I-51000J0D01*
G01*
X29107000Y-95277000D01*
G75*
G02*
X29056000Y-95226000I0J51000D01*
G01*
X29056000Y-92226000D01*
G75*
G02*
X29107000Y-92175000I51000J0D01*
G01*
X32107000Y-92175000D01*
G75*
G02*
X32158000Y-92226000I0J-51000D01*
G01*
G37*
X15367000Y-93726000D03*
X10287000Y-93726000D03*
G36*
G01*
X72798000Y-92226000D02*
X72798000Y-95226000D01*
G75*
G02*
X72747000Y-95277000I-51000J0D01*
G01*
X69747000Y-95277000D01*
G75*
G02*
X69696000Y-95226000I0J51000D01*
G01*
X69696000Y-92226000D01*
G75*
G02*
X69747000Y-92175000I51000J0D01*
G01*
X72747000Y-92175000D01*
G75*
G02*
X72798000Y-92226000I0J-51000D01*
G01*
G37*
X66167000Y-93726000D03*
G36*
G01*
X2564000Y-58139000D02*
X5564000Y-58139000D01*
G75*
G02*
X5615000Y-58190000I0J-51000D01*
G01*
X5615000Y-61190000D01*
G75*
G02*
X5564000Y-61241000I-51000J0D01*
G01*
X2564000Y-61241000D01*
G75*
G02*
X2513000Y-61190000I0J51000D01*
G01*
X2513000Y-58190000D01*
G75*
G02*
X2564000Y-58139000I51000J0D01*
G01*
G37*
X4064000Y-64770000D03*
G36*
G01*
X2564000Y-79475000D02*
X5564000Y-79475000D01*
G75*
G02*
X5615000Y-79526000I0J-51000D01*
G01*
X5615000Y-82526000D01*
G75*
G02*
X5564000Y-82577000I-51000J0D01*
G01*
X2564000Y-82577000D01*
G75*
G02*
X2513000Y-82526000I0J51000D01*
G01*
X2513000Y-79526000D01*
G75*
G02*
X2564000Y-79475000I51000J0D01*
G01*
G37*
X4064000Y-86106000D03*
X4064000Y-75438000D03*
G36*
G01*
X2564000Y-68807000D02*
X5564000Y-68807000D01*
G75*
G02*
X5615000Y-68858000I0J-51000D01*
G01*
X5615000Y-71858000D01*
G75*
G02*
X5564000Y-71909000I-51000J0D01*
G01*
X2564000Y-71909000D01*
G75*
G02*
X2513000Y-71858000I0J51000D01*
G01*
X2513000Y-68858000D01*
G75*
G02*
X2564000Y-68807000I51000J0D01*
G01*
G37*
G36*
G01*
X95834000Y-35814000D02*
X95834000Y-34798000D01*
G75*
G02*
X95885000Y-34747000I51000J0D01*
G01*
X96647000Y-34747000D01*
G75*
G02*
X96698000Y-34798000I0J-51000D01*
G01*
X96698000Y-35814000D01*
G75*
G02*
X96647000Y-35865000I-51000J0D01*
G01*
X95885000Y-35865000D01*
G75*
G02*
X95834000Y-35814000I0J51000D01*
G01*
G37*
G36*
G01*
X94500500Y-35052001D02*
X94500500Y-34797999D01*
G75*
G02*
X94551499Y-34747000I50999J0D01*
G01*
X95694501Y-34747000D01*
G75*
G02*
X95745500Y-34797999I0J-50999D01*
G01*
X95745500Y-35052001D01*
G75*
G02*
X95694501Y-35103000I-50999J0D01*
G01*
X94551499Y-35103000D01*
G75*
G02*
X94500500Y-35052001I0J50999D01*
G01*
G37*
G36*
G01*
X94310000Y-35814000D02*
X94310000Y-34798000D01*
G75*
G02*
X94361000Y-34747000I51000J0D01*
G01*
X95123000Y-34747000D01*
G75*
G02*
X95174000Y-34798000I0J-51000D01*
G01*
X95174000Y-35814000D01*
G75*
G02*
X95123000Y-35865000I-51000J0D01*
G01*
X94361000Y-35865000D01*
G75*
G02*
X94310000Y-35814000I0J51000D01*
G01*
G37*
G36*
G01*
X94500500Y-35814001D02*
X94500500Y-35559999D01*
G75*
G02*
X94551499Y-35509000I50999J0D01*
G01*
X95694501Y-35509000D01*
G75*
G02*
X95745500Y-35559999I0J-50999D01*
G01*
X95745500Y-35814001D01*
G75*
G02*
X95694501Y-35865000I-50999J0D01*
G01*
X94551499Y-35865000D01*
G75*
G02*
X94500500Y-35814001I0J50999D01*
G01*
G37*
G36*
G01*
X95361000Y-35433001D02*
X95361000Y-35178999D01*
G75*
G02*
X95411999Y-35128000I50999J0D01*
G01*
X96612001Y-35128000D01*
G75*
G02*
X96663000Y-35178999I0J-50999D01*
G01*
X96663000Y-35433001D01*
G75*
G02*
X96612001Y-35484000I-50999J0D01*
G01*
X95411999Y-35484000D01*
G75*
G02*
X95361000Y-35433001I0J50999D01*
G01*
G37*
D14*
X54737000Y-44831000D03*
X54737000Y-39751000D03*
X62103000Y-39751000D03*
X62103000Y-44831000D03*
X59182000Y-67310000D03*
X59182000Y-62230000D03*
X68834000Y-49616360D03*
X68834000Y-54696360D03*
X75184000Y-62738000D03*
X80264000Y-62738000D03*
D13*
X67564000Y-63072000D03*
X67564000Y-68072000D03*
G36*
G01*
X61738000Y-47116999D02*
X61738000Y-47371001D01*
G75*
G02*
X61687001Y-47422000I-50999J0D01*
G01*
X60486999Y-47422000D01*
G75*
G02*
X60436000Y-47371001I0J50999D01*
G01*
X60436000Y-47116999D01*
G75*
G02*
X60486999Y-47066000I50999J0D01*
G01*
X61687001Y-47066000D01*
G75*
G02*
X61738000Y-47116999I0J-50999D01*
G01*
G37*
G36*
G01*
X62598500Y-46735999D02*
X62598500Y-46990001D01*
G75*
G02*
X62547501Y-47041000I-50999J0D01*
G01*
X61404499Y-47041000D01*
G75*
G02*
X61353500Y-46990001I0J50999D01*
G01*
X61353500Y-46735999D01*
G75*
G02*
X61404499Y-46685000I50999J0D01*
G01*
X62547501Y-46685000D01*
G75*
G02*
X62598500Y-46735999I0J-50999D01*
G01*
G37*
G36*
G01*
X62789000Y-46736000D02*
X62789000Y-47752000D01*
G75*
G02*
X62738000Y-47803000I-51000J0D01*
G01*
X61976000Y-47803000D01*
G75*
G02*
X61925000Y-47752000I0J51000D01*
G01*
X61925000Y-46736000D01*
G75*
G02*
X61976000Y-46685000I51000J0D01*
G01*
X62738000Y-46685000D01*
G75*
G02*
X62789000Y-46736000I0J-51000D01*
G01*
G37*
G36*
G01*
X62598500Y-47497999D02*
X62598500Y-47752001D01*
G75*
G02*
X62547501Y-47803000I-50999J0D01*
G01*
X61404499Y-47803000D01*
G75*
G02*
X61353500Y-47752001I0J50999D01*
G01*
X61353500Y-47497999D01*
G75*
G02*
X61404499Y-47447000I50999J0D01*
G01*
X62547501Y-47447000D01*
G75*
G02*
X62598500Y-47497999I0J-50999D01*
G01*
G37*
G36*
G01*
X61265000Y-46736000D02*
X61265000Y-47752000D01*
G75*
G02*
X61214000Y-47803000I-51000J0D01*
G01*
X60452000Y-47803000D01*
G75*
G02*
X60401000Y-47752000I0J51000D01*
G01*
X60401000Y-46736000D01*
G75*
G02*
X60452000Y-46685000I51000J0D01*
G01*
X61214000Y-46685000D01*
G75*
G02*
X61265000Y-46736000I0J-51000D01*
G01*
G37*
G36*
G01*
X53162000Y-47752000D02*
X53162000Y-46736000D01*
G75*
G02*
X53213000Y-46685000I51000J0D01*
G01*
X53975000Y-46685000D01*
G75*
G02*
X54026000Y-46736000I0J-51000D01*
G01*
X54026000Y-47752000D01*
G75*
G02*
X53975000Y-47803000I-51000J0D01*
G01*
X53213000Y-47803000D01*
G75*
G02*
X53162000Y-47752000I0J51000D01*
G01*
G37*
G36*
G01*
X51828500Y-46990001D02*
X51828500Y-46735999D01*
G75*
G02*
X51879499Y-46685000I50999J0D01*
G01*
X53022501Y-46685000D01*
G75*
G02*
X53073500Y-46735999I0J-50999D01*
G01*
X53073500Y-46990001D01*
G75*
G02*
X53022501Y-47041000I-50999J0D01*
G01*
X51879499Y-47041000D01*
G75*
G02*
X51828500Y-46990001I0J50999D01*
G01*
G37*
G36*
G01*
X51638000Y-47752000D02*
X51638000Y-46736000D01*
G75*
G02*
X51689000Y-46685000I51000J0D01*
G01*
X52451000Y-46685000D01*
G75*
G02*
X52502000Y-46736000I0J-51000D01*
G01*
X52502000Y-47752000D01*
G75*
G02*
X52451000Y-47803000I-51000J0D01*
G01*
X51689000Y-47803000D01*
G75*
G02*
X51638000Y-47752000I0J51000D01*
G01*
G37*
G36*
G01*
X51828500Y-47752001D02*
X51828500Y-47497999D01*
G75*
G02*
X51879499Y-47447000I50999J0D01*
G01*
X53022501Y-47447000D01*
G75*
G02*
X53073500Y-47497999I0J-50999D01*
G01*
X53073500Y-47752001D01*
G75*
G02*
X53022501Y-47803000I-50999J0D01*
G01*
X51879499Y-47803000D01*
G75*
G02*
X51828500Y-47752001I0J50999D01*
G01*
G37*
G36*
G01*
X52689000Y-47371001D02*
X52689000Y-47116999D01*
G75*
G02*
X52739999Y-47066000I50999J0D01*
G01*
X53940001Y-47066000D01*
G75*
G02*
X53991000Y-47116999I0J-50999D01*
G01*
X53991000Y-47371001D01*
G75*
G02*
X53940001Y-47422000I-50999J0D01*
G01*
X52739999Y-47422000D01*
G75*
G02*
X52689000Y-47371001I0J50999D01*
G01*
G37*
G36*
G01*
X59004000Y-47752000D02*
X59004000Y-46736000D01*
G75*
G02*
X59055000Y-46685000I51000J0D01*
G01*
X59817000Y-46685000D01*
G75*
G02*
X59868000Y-46736000I0J-51000D01*
G01*
X59868000Y-47752000D01*
G75*
G02*
X59817000Y-47803000I-51000J0D01*
G01*
X59055000Y-47803000D01*
G75*
G02*
X59004000Y-47752000I0J51000D01*
G01*
G37*
G36*
G01*
X57670500Y-46990001D02*
X57670500Y-46735999D01*
G75*
G02*
X57721499Y-46685000I50999J0D01*
G01*
X58864501Y-46685000D01*
G75*
G02*
X58915500Y-46735999I0J-50999D01*
G01*
X58915500Y-46990001D01*
G75*
G02*
X58864501Y-47041000I-50999J0D01*
G01*
X57721499Y-47041000D01*
G75*
G02*
X57670500Y-46990001I0J50999D01*
G01*
G37*
G36*
G01*
X57480000Y-47752000D02*
X57480000Y-46736000D01*
G75*
G02*
X57531000Y-46685000I51000J0D01*
G01*
X58293000Y-46685000D01*
G75*
G02*
X58344000Y-46736000I0J-51000D01*
G01*
X58344000Y-47752000D01*
G75*
G02*
X58293000Y-47803000I-51000J0D01*
G01*
X57531000Y-47803000D01*
G75*
G02*
X57480000Y-47752000I0J51000D01*
G01*
G37*
G36*
G01*
X57670500Y-47752001D02*
X57670500Y-47497999D01*
G75*
G02*
X57721499Y-47447000I50999J0D01*
G01*
X58864501Y-47447000D01*
G75*
G02*
X58915500Y-47497999I0J-50999D01*
G01*
X58915500Y-47752001D01*
G75*
G02*
X58864501Y-47803000I-50999J0D01*
G01*
X57721499Y-47803000D01*
G75*
G02*
X57670500Y-47752001I0J50999D01*
G01*
G37*
G36*
G01*
X58531000Y-47371001D02*
X58531000Y-47116999D01*
G75*
G02*
X58581999Y-47066000I50999J0D01*
G01*
X59782001Y-47066000D01*
G75*
G02*
X59833000Y-47116999I0J-50999D01*
G01*
X59833000Y-47371001D01*
G75*
G02*
X59782001Y-47422000I-50999J0D01*
G01*
X58581999Y-47422000D01*
G75*
G02*
X58531000Y-47371001I0J50999D01*
G01*
G37*
G36*
G01*
X56083000Y-47752000D02*
X56083000Y-46736000D01*
G75*
G02*
X56134000Y-46685000I51000J0D01*
G01*
X56896000Y-46685000D01*
G75*
G02*
X56947000Y-46736000I0J-51000D01*
G01*
X56947000Y-47752000D01*
G75*
G02*
X56896000Y-47803000I-51000J0D01*
G01*
X56134000Y-47803000D01*
G75*
G02*
X56083000Y-47752000I0J51000D01*
G01*
G37*
G36*
G01*
X54749500Y-46990001D02*
X54749500Y-46735999D01*
G75*
G02*
X54800499Y-46685000I50999J0D01*
G01*
X55943501Y-46685000D01*
G75*
G02*
X55994500Y-46735999I0J-50999D01*
G01*
X55994500Y-46990001D01*
G75*
G02*
X55943501Y-47041000I-50999J0D01*
G01*
X54800499Y-47041000D01*
G75*
G02*
X54749500Y-46990001I0J50999D01*
G01*
G37*
G36*
G01*
X54559000Y-47752000D02*
X54559000Y-46736000D01*
G75*
G02*
X54610000Y-46685000I51000J0D01*
G01*
X55372000Y-46685000D01*
G75*
G02*
X55423000Y-46736000I0J-51000D01*
G01*
X55423000Y-47752000D01*
G75*
G02*
X55372000Y-47803000I-51000J0D01*
G01*
X54610000Y-47803000D01*
G75*
G02*
X54559000Y-47752000I0J51000D01*
G01*
G37*
G36*
G01*
X54749500Y-47752001D02*
X54749500Y-47497999D01*
G75*
G02*
X54800499Y-47447000I50999J0D01*
G01*
X55943501Y-47447000D01*
G75*
G02*
X55994500Y-47497999I0J-50999D01*
G01*
X55994500Y-47752001D01*
G75*
G02*
X55943501Y-47803000I-50999J0D01*
G01*
X54800499Y-47803000D01*
G75*
G02*
X54749500Y-47752001I0J50999D01*
G01*
G37*
G36*
G01*
X55610000Y-47371001D02*
X55610000Y-47116999D01*
G75*
G02*
X55660999Y-47066000I50999J0D01*
G01*
X56861001Y-47066000D01*
G75*
G02*
X56912000Y-47116999I0J-50999D01*
G01*
X56912000Y-47371001D01*
G75*
G02*
X56861001Y-47422000I-50999J0D01*
G01*
X55660999Y-47422000D01*
G75*
G02*
X55610000Y-47371001I0J50999D01*
G01*
G37*
G36*
G01*
X2909000Y-42760000D02*
X2909000Y-41060000D01*
G75*
G02*
X2960000Y-41009000I51000J0D01*
G01*
X4660000Y-41009000D01*
G75*
G02*
X4711000Y-41060000I0J-51000D01*
G01*
X4711000Y-42760000D01*
G75*
G02*
X4660000Y-42811000I-51000J0D01*
G01*
X2960000Y-42811000D01*
G75*
G02*
X2909000Y-42760000I0J51000D01*
G01*
G37*
D17*
X6350000Y-41910000D03*
X3810000Y-44450000D03*
X6350000Y-44450000D03*
X3810000Y-46990000D03*
X6350000Y-46990000D03*
X3810000Y-49530000D03*
X6350000Y-49530000D03*
D20*
X56007000Y-93726000D03*
X50927000Y-93726000D03*
G36*
G01*
X62638000Y-92226000D02*
X62638000Y-95226000D01*
G75*
G02*
X62587000Y-95277000I-51000J0D01*
G01*
X59587000Y-95277000D01*
G75*
G02*
X59536000Y-95226000I0J51000D01*
G01*
X59536000Y-92226000D01*
G75*
G02*
X59587000Y-92175000I51000J0D01*
G01*
X62587000Y-92175000D01*
G75*
G02*
X62638000Y-92226000I0J-51000D01*
G01*
G37*
X45847000Y-93726000D03*
X40767000Y-93726000D03*
X35687000Y-93726000D03*
G36*
G01*
X17348000Y-36068000D02*
X17348000Y-35052000D01*
G75*
G02*
X17399000Y-35001000I51000J0D01*
G01*
X18161000Y-35001000D01*
G75*
G02*
X18212000Y-35052000I0J-51000D01*
G01*
X18212000Y-36068000D01*
G75*
G02*
X18161000Y-36119000I-51000J0D01*
G01*
X17399000Y-36119000D01*
G75*
G02*
X17348000Y-36068000I0J51000D01*
G01*
G37*
G36*
G01*
X16014500Y-35306001D02*
X16014500Y-35051999D01*
G75*
G02*
X16065499Y-35001000I50999J0D01*
G01*
X17208501Y-35001000D01*
G75*
G02*
X17259500Y-35051999I0J-50999D01*
G01*
X17259500Y-35306001D01*
G75*
G02*
X17208501Y-35357000I-50999J0D01*
G01*
X16065499Y-35357000D01*
G75*
G02*
X16014500Y-35306001I0J50999D01*
G01*
G37*
G36*
G01*
X15824000Y-36068000D02*
X15824000Y-35052000D01*
G75*
G02*
X15875000Y-35001000I51000J0D01*
G01*
X16637000Y-35001000D01*
G75*
G02*
X16688000Y-35052000I0J-51000D01*
G01*
X16688000Y-36068000D01*
G75*
G02*
X16637000Y-36119000I-51000J0D01*
G01*
X15875000Y-36119000D01*
G75*
G02*
X15824000Y-36068000I0J51000D01*
G01*
G37*
G36*
G01*
X16014500Y-36068001D02*
X16014500Y-35813999D01*
G75*
G02*
X16065499Y-35763000I50999J0D01*
G01*
X17208501Y-35763000D01*
G75*
G02*
X17259500Y-35813999I0J-50999D01*
G01*
X17259500Y-36068001D01*
G75*
G02*
X17208501Y-36119000I-50999J0D01*
G01*
X16065499Y-36119000D01*
G75*
G02*
X16014500Y-36068001I0J50999D01*
G01*
G37*
G36*
G01*
X16875000Y-35687001D02*
X16875000Y-35432999D01*
G75*
G02*
X16925999Y-35382000I50999J0D01*
G01*
X18126001Y-35382000D01*
G75*
G02*
X18177000Y-35432999I0J-50999D01*
G01*
X18177000Y-35687001D01*
G75*
G02*
X18126001Y-35738000I-50999J0D01*
G01*
X16925999Y-35738000D01*
G75*
G02*
X16875000Y-35687001I0J50999D01*
G01*
G37*
D21*
G36*
X9158232Y-90245000D02*
G01*
X9158500Y-90246000D01*
X9158500Y-90600000D01*
X9728000Y-90600000D01*
X9729732Y-90601000D01*
X9730000Y-90602000D01*
X9730000Y-91008000D01*
X9729000Y-91009732D01*
X9728000Y-91010000D01*
X9158500Y-91010000D01*
X9158500Y-91364000D01*
X9157500Y-91365732D01*
X9156500Y-91366000D01*
X9068000Y-91366000D01*
X9066268Y-91365000D01*
X9066000Y-91364000D01*
X9066000Y-90983000D01*
X9067000Y-90981268D01*
X9068000Y-90981000D01*
X9539000Y-90981000D01*
X9539000Y-90629000D01*
X9068000Y-90629000D01*
X9066268Y-90628000D01*
X9066000Y-90627000D01*
X9066000Y-90246000D01*
X9067000Y-90244268D01*
X9068000Y-90244000D01*
X9156500Y-90244000D01*
X9158232Y-90245000D01*
G37*
G36*
X26620732Y-84251000D02*
G01*
X26621000Y-84252000D01*
X26621000Y-84821500D01*
X26975000Y-84821500D01*
X26976732Y-84822500D01*
X26977000Y-84823500D01*
X26977000Y-84912000D01*
X26976000Y-84913732D01*
X26975000Y-84914000D01*
X26594000Y-84914000D01*
X26592268Y-84913000D01*
X26592000Y-84912000D01*
X26592000Y-84441000D01*
X26240000Y-84441000D01*
X26240000Y-84912000D01*
X26239000Y-84913732D01*
X26238000Y-84914000D01*
X25857000Y-84914000D01*
X25855268Y-84913000D01*
X25855000Y-84912000D01*
X25855000Y-84823500D01*
X25856000Y-84821768D01*
X25857000Y-84821500D01*
X26211000Y-84821500D01*
X26211000Y-84252000D01*
X26212000Y-84250268D01*
X26213000Y-84250000D01*
X26619000Y-84250000D01*
X26620732Y-84251000D01*
G37*
G36*
X17476732Y-84251000D02*
G01*
X17477000Y-84252000D01*
X17477000Y-84821500D01*
X17831000Y-84821500D01*
X17832732Y-84822500D01*
X17833000Y-84823500D01*
X17833000Y-84912000D01*
X17832000Y-84913732D01*
X17831000Y-84914000D01*
X17450000Y-84914000D01*
X17448268Y-84913000D01*
X17448000Y-84912000D01*
X17448000Y-84441000D01*
X17096000Y-84441000D01*
X17096000Y-84912000D01*
X17095000Y-84913732D01*
X17094000Y-84914000D01*
X16713000Y-84914000D01*
X16711268Y-84913000D01*
X16711000Y-84912000D01*
X16711000Y-84823500D01*
X16712000Y-84821768D01*
X16713000Y-84821500D01*
X17067000Y-84821500D01*
X17067000Y-84252000D01*
X17068000Y-84250268D01*
X17069000Y-84250000D01*
X17475000Y-84250000D01*
X17476732Y-84251000D01*
G37*
G36*
X17476732Y-75615000D02*
G01*
X17477000Y-75616000D01*
X17477000Y-76185500D01*
X17831000Y-76185500D01*
X17832732Y-76186500D01*
X17833000Y-76187500D01*
X17833000Y-76276000D01*
X17832000Y-76277732D01*
X17831000Y-76278000D01*
X17450000Y-76278000D01*
X17448268Y-76277000D01*
X17448000Y-76276000D01*
X17448000Y-75805000D01*
X17096000Y-75805000D01*
X17096000Y-76276000D01*
X17095000Y-76277732D01*
X17094000Y-76278000D01*
X16713000Y-76278000D01*
X16711268Y-76277000D01*
X16711000Y-76276000D01*
X16711000Y-76187500D01*
X16712000Y-76185768D01*
X16713000Y-76185500D01*
X17067000Y-76185500D01*
X17067000Y-75616000D01*
X17068000Y-75614268D01*
X17069000Y-75614000D01*
X17475000Y-75614000D01*
X17476732Y-75615000D01*
G37*
G36*
X26620732Y-75361000D02*
G01*
X26621000Y-75362000D01*
X26621000Y-75931500D01*
X26975000Y-75931500D01*
X26976732Y-75932500D01*
X26977000Y-75933500D01*
X26977000Y-76022000D01*
X26976000Y-76023732D01*
X26975000Y-76024000D01*
X26594000Y-76024000D01*
X26592268Y-76023000D01*
X26592000Y-76022000D01*
X26592000Y-75551000D01*
X26240000Y-75551000D01*
X26240000Y-76022000D01*
X26239000Y-76023732D01*
X26238000Y-76024000D01*
X25857000Y-76024000D01*
X25855268Y-76023000D01*
X25855000Y-76022000D01*
X25855000Y-75933500D01*
X25856000Y-75931768D01*
X25857000Y-75931500D01*
X26211000Y-75931500D01*
X26211000Y-75362000D01*
X26212000Y-75360268D01*
X26213000Y-75360000D01*
X26619000Y-75360000D01*
X26620732Y-75361000D01*
G37*
G36*
X86946932Y-74039084D02*
G01*
X86946902Y-74040912D01*
X86938338Y-74056935D01*
X86931338Y-74080010D01*
X86928975Y-74104001D01*
X86931338Y-74127993D01*
X86938338Y-74151067D01*
X86949703Y-74172331D01*
X86964999Y-74190968D01*
X86983636Y-74206263D01*
X87004899Y-74217628D01*
X87027974Y-74224628D01*
X87052161Y-74227010D01*
X87053787Y-74228175D01*
X87053591Y-74230165D01*
X87051965Y-74231000D01*
X86931000Y-74231000D01*
X86931000Y-74351965D01*
X86930000Y-74353697D01*
X86928000Y-74353697D01*
X86927010Y-74352161D01*
X86924628Y-74327974D01*
X86917628Y-74304899D01*
X86906263Y-74283635D01*
X86890968Y-74264998D01*
X86872331Y-74249703D01*
X86851067Y-74238338D01*
X86827992Y-74231338D01*
X86804001Y-74228975D01*
X86780010Y-74231338D01*
X86756935Y-74238338D01*
X86740912Y-74246902D01*
X86738913Y-74246836D01*
X86737970Y-74245073D01*
X86738858Y-74243475D01*
X86803436Y-74200326D01*
X86900326Y-74103436D01*
X86943475Y-74038858D01*
X86945269Y-74037973D01*
X86946932Y-74039084D01*
G37*
G36*
X86596732Y-62940000D02*
G01*
X86597000Y-62941000D01*
X86597000Y-63322000D01*
X86596000Y-63323732D01*
X86595000Y-63324000D01*
X86124000Y-63324000D01*
X86124000Y-63676000D01*
X86595000Y-63676000D01*
X86596732Y-63677000D01*
X86597000Y-63678000D01*
X86597000Y-64059000D01*
X86596000Y-64060732D01*
X86595000Y-64061000D01*
X86506500Y-64061000D01*
X86504768Y-64060000D01*
X86504500Y-64059000D01*
X86504500Y-63705000D01*
X85935000Y-63705000D01*
X85933268Y-63704000D01*
X85933000Y-63703000D01*
X85933000Y-63297000D01*
X85934000Y-63295268D01*
X85935000Y-63295000D01*
X86504500Y-63295000D01*
X86504500Y-62941000D01*
X86505500Y-62939268D01*
X86506500Y-62939000D01*
X86595000Y-62939000D01*
X86596732Y-62940000D01*
G37*
G36*
X85875490Y-58116805D02*
G01*
X85877872Y-58140992D01*
X85884872Y-58164067D01*
X85896237Y-58185331D01*
X85911532Y-58203968D01*
X85930169Y-58219263D01*
X85951433Y-58230628D01*
X85974508Y-58237628D01*
X85998593Y-58240000D01*
X86055000Y-58240000D01*
X86056732Y-58241000D01*
X86057000Y-58242000D01*
X86057000Y-59360000D01*
X86056000Y-59361732D01*
X86055000Y-59362000D01*
X85998593Y-59362000D01*
X85974508Y-59364372D01*
X85951433Y-59371372D01*
X85930169Y-59382737D01*
X85911532Y-59398032D01*
X85896237Y-59416669D01*
X85884872Y-59437933D01*
X85877872Y-59461008D01*
X85875490Y-59485195D01*
X85874325Y-59486821D01*
X85872335Y-59486625D01*
X85871500Y-59484999D01*
X85871500Y-58117001D01*
X85872500Y-58115269D01*
X85874500Y-58115269D01*
X85875490Y-58116805D01*
G37*
G36*
X87580732Y-58241000D02*
G01*
X87581000Y-58242000D01*
X87581000Y-58623000D01*
X87580000Y-58624732D01*
X87579000Y-58625000D01*
X87108000Y-58625000D01*
X87108000Y-58977000D01*
X87579000Y-58977000D01*
X87580732Y-58978000D01*
X87581000Y-58979000D01*
X87581000Y-59360000D01*
X87580000Y-59361732D01*
X87579000Y-59362000D01*
X87490500Y-59362000D01*
X87488768Y-59361000D01*
X87488500Y-59360000D01*
X87488500Y-59006000D01*
X86919000Y-59006000D01*
X86917268Y-59005000D01*
X86917000Y-59004000D01*
X86917000Y-58598000D01*
X86918000Y-58596268D01*
X86919000Y-58596000D01*
X87488500Y-58596000D01*
X87488500Y-58242000D01*
X87489500Y-58240268D01*
X87490500Y-58240000D01*
X87579000Y-58240000D01*
X87580732Y-58241000D01*
G37*
G36*
X53163732Y-46684000D02*
G01*
X53164000Y-46685000D01*
X53164000Y-47066000D01*
X53163000Y-47067732D01*
X53162000Y-47068000D01*
X52691000Y-47068000D01*
X52691000Y-47420000D01*
X53162000Y-47420000D01*
X53163732Y-47421000D01*
X53164000Y-47422000D01*
X53164000Y-47803000D01*
X53163000Y-47804732D01*
X53162000Y-47805000D01*
X53073500Y-47805000D01*
X53071768Y-47804000D01*
X53071500Y-47803000D01*
X53071500Y-47449000D01*
X52502000Y-47449000D01*
X52500268Y-47448000D01*
X52500000Y-47447000D01*
X52500000Y-47041000D01*
X52501000Y-47039268D01*
X52502000Y-47039000D01*
X53071500Y-47039000D01*
X53071500Y-46685000D01*
X53072500Y-46683268D01*
X53073500Y-46683000D01*
X53162000Y-46683000D01*
X53163732Y-46684000D01*
G37*
G36*
X59005732Y-46684000D02*
G01*
X59006000Y-46685000D01*
X59006000Y-47066000D01*
X59005000Y-47067732D01*
X59004000Y-47068000D01*
X58533000Y-47068000D01*
X58533000Y-47420000D01*
X59004000Y-47420000D01*
X59005732Y-47421000D01*
X59006000Y-47422000D01*
X59006000Y-47803000D01*
X59005000Y-47804732D01*
X59004000Y-47805000D01*
X58915500Y-47805000D01*
X58913768Y-47804000D01*
X58913500Y-47803000D01*
X58913500Y-47449000D01*
X58344000Y-47449000D01*
X58342268Y-47448000D01*
X58342000Y-47447000D01*
X58342000Y-47041000D01*
X58343000Y-47039268D01*
X58344000Y-47039000D01*
X58913500Y-47039000D01*
X58913500Y-46685000D01*
X58914500Y-46683268D01*
X58915500Y-46683000D01*
X59004000Y-46683000D01*
X59005732Y-46684000D01*
G37*
G36*
X61355232Y-46684000D02*
G01*
X61355500Y-46685000D01*
X61355500Y-47039000D01*
X61925000Y-47039000D01*
X61926732Y-47040000D01*
X61927000Y-47041000D01*
X61927000Y-47447000D01*
X61926000Y-47448732D01*
X61925000Y-47449000D01*
X61355500Y-47449000D01*
X61355500Y-47803000D01*
X61354500Y-47804732D01*
X61353500Y-47805000D01*
X61265000Y-47805000D01*
X61263268Y-47804000D01*
X61263000Y-47803000D01*
X61263000Y-47422000D01*
X61264000Y-47420268D01*
X61265000Y-47420000D01*
X61736000Y-47420000D01*
X61736000Y-47068000D01*
X61265000Y-47068000D01*
X61263268Y-47067000D01*
X61263000Y-47066000D01*
X61263000Y-46685000D01*
X61264000Y-46683268D01*
X61265000Y-46683000D01*
X61353500Y-46683000D01*
X61355232Y-46684000D01*
G37*
G36*
X56084732Y-46684000D02*
G01*
X56085000Y-46685000D01*
X56085000Y-47066000D01*
X56084000Y-47067732D01*
X56083000Y-47068000D01*
X55612000Y-47068000D01*
X55612000Y-47420000D01*
X56083000Y-47420000D01*
X56084732Y-47421000D01*
X56085000Y-47422000D01*
X56085000Y-47803000D01*
X56084000Y-47804732D01*
X56083000Y-47805000D01*
X55994500Y-47805000D01*
X55992768Y-47804000D01*
X55992500Y-47803000D01*
X55992500Y-47449000D01*
X55423000Y-47449000D01*
X55421268Y-47448000D01*
X55421000Y-47447000D01*
X55421000Y-47041000D01*
X55422000Y-47039268D01*
X55423000Y-47039000D01*
X55992500Y-47039000D01*
X55992500Y-46685000D01*
X55993500Y-46683268D01*
X55994500Y-46683000D01*
X56083000Y-46683000D01*
X56084732Y-46684000D01*
G37*
G36*
X50623732Y-46151000D02*
G01*
X50624000Y-46152000D01*
X50624000Y-46721500D01*
X50978000Y-46721500D01*
X50979732Y-46722500D01*
X50980000Y-46723500D01*
X50980000Y-46812000D01*
X50979000Y-46813732D01*
X50978000Y-46814000D01*
X50597000Y-46814000D01*
X50595268Y-46813000D01*
X50595000Y-46812000D01*
X50595000Y-46341000D01*
X50243000Y-46341000D01*
X50243000Y-46812000D01*
X50242000Y-46813732D01*
X50241000Y-46814000D01*
X49860000Y-46814000D01*
X49858268Y-46813000D01*
X49858000Y-46812000D01*
X49858000Y-46723500D01*
X49859000Y-46721768D01*
X49860000Y-46721500D01*
X50214000Y-46721500D01*
X50214000Y-46152000D01*
X50215000Y-46150268D01*
X50216000Y-46150000D01*
X50622000Y-46150000D01*
X50623732Y-46151000D01*
G37*
G36*
X17349732Y-35000000D02*
G01*
X17350000Y-35001000D01*
X17350000Y-35382000D01*
X17349000Y-35383732D01*
X17348000Y-35384000D01*
X16877000Y-35384000D01*
X16877000Y-35736000D01*
X17348000Y-35736000D01*
X17349732Y-35737000D01*
X17350000Y-35738000D01*
X17350000Y-36119000D01*
X17349000Y-36120732D01*
X17348000Y-36121000D01*
X17259500Y-36121000D01*
X17257768Y-36120000D01*
X17257500Y-36119000D01*
X17257500Y-35765000D01*
X16688000Y-35765000D01*
X16686268Y-35764000D01*
X16686000Y-35763000D01*
X16686000Y-35357000D01*
X16687000Y-35355268D01*
X16688000Y-35355000D01*
X17257500Y-35355000D01*
X17257500Y-35001000D01*
X17258500Y-34999268D01*
X17259500Y-34999000D01*
X17348000Y-34999000D01*
X17349732Y-35000000D01*
G37*
G36*
X96923665Y-34620375D02*
G01*
X96924500Y-34622001D01*
X96924500Y-35989999D01*
X96923500Y-35991731D01*
X96921500Y-35991731D01*
X96920510Y-35990195D01*
X96918128Y-35966008D01*
X96911128Y-35942933D01*
X96899763Y-35921669D01*
X96884468Y-35903032D01*
X96865831Y-35887737D01*
X96844567Y-35876372D01*
X96821492Y-35869372D01*
X96797407Y-35867000D01*
X96698000Y-35867000D01*
X96696268Y-35866000D01*
X96696000Y-35865000D01*
X96696000Y-34747000D01*
X96697000Y-34745268D01*
X96698000Y-34745000D01*
X96797407Y-34745000D01*
X96821492Y-34742628D01*
X96844567Y-34735628D01*
X96865831Y-34724263D01*
X96884468Y-34708968D01*
X96899763Y-34690331D01*
X96911128Y-34669067D01*
X96918128Y-34645992D01*
X96920510Y-34621805D01*
X96921675Y-34620179D01*
X96923665Y-34620375D01*
G37*
G36*
X95835732Y-34746000D02*
G01*
X95836000Y-34747000D01*
X95836000Y-35128000D01*
X95835000Y-35129732D01*
X95834000Y-35130000D01*
X95363000Y-35130000D01*
X95363000Y-35482000D01*
X95834000Y-35482000D01*
X95835732Y-35483000D01*
X95836000Y-35484000D01*
X95836000Y-35865000D01*
X95835000Y-35866732D01*
X95834000Y-35867000D01*
X95745500Y-35867000D01*
X95743768Y-35866000D01*
X95743500Y-35865000D01*
X95743500Y-35511000D01*
X95174000Y-35511000D01*
X95172268Y-35510000D01*
X95172000Y-35509000D01*
X95172000Y-35103000D01*
X95173000Y-35101268D01*
X95174000Y-35101000D01*
X95743500Y-35101000D01*
X95743500Y-34747000D01*
X95744500Y-34745268D01*
X95745500Y-34745000D01*
X95834000Y-34745000D01*
X95835732Y-34746000D01*
G37*
G36*
X17349732Y-29920000D02*
G01*
X17350000Y-29921000D01*
X17350000Y-30302000D01*
X17349000Y-30303732D01*
X17348000Y-30304000D01*
X16877000Y-30304000D01*
X16877000Y-30656000D01*
X17348000Y-30656000D01*
X17349732Y-30657000D01*
X17350000Y-30658000D01*
X17350000Y-31039000D01*
X17349000Y-31040732D01*
X17348000Y-31041000D01*
X17259500Y-31041000D01*
X17257768Y-31040000D01*
X17257500Y-31039000D01*
X17257500Y-30685000D01*
X16688000Y-30685000D01*
X16686268Y-30684000D01*
X16686000Y-30683000D01*
X16686000Y-30277000D01*
X16687000Y-30275268D01*
X16688000Y-30275000D01*
X17257500Y-30275000D01*
X17257500Y-29921000D01*
X17258500Y-29919268D01*
X17259500Y-29919000D01*
X17348000Y-29919000D01*
X17349732Y-29920000D01*
G37*
G36*
X17349732Y-27380000D02*
G01*
X17350000Y-27381000D01*
X17350000Y-27762000D01*
X17349000Y-27763732D01*
X17348000Y-27764000D01*
X16877000Y-27764000D01*
X16877000Y-28116000D01*
X17348000Y-28116000D01*
X17349732Y-28117000D01*
X17350000Y-28118000D01*
X17350000Y-28499000D01*
X17349000Y-28500732D01*
X17348000Y-28501000D01*
X17259500Y-28501000D01*
X17257768Y-28500000D01*
X17257500Y-28499000D01*
X17257500Y-28145000D01*
X16688000Y-28145000D01*
X16686268Y-28144000D01*
X16686000Y-28143000D01*
X16686000Y-27737000D01*
X16687000Y-27735268D01*
X16688000Y-27735000D01*
X17257500Y-27735000D01*
X17257500Y-27381000D01*
X17258500Y-27379268D01*
X17259500Y-27379000D01*
X17348000Y-27379000D01*
X17349732Y-27380000D01*
G37*
G36*
X17349732Y-24840000D02*
G01*
X17350000Y-24841000D01*
X17350000Y-25222000D01*
X17349000Y-25223732D01*
X17348000Y-25224000D01*
X16877000Y-25224000D01*
X16877000Y-25576000D01*
X17348000Y-25576000D01*
X17349732Y-25577000D01*
X17350000Y-25578000D01*
X17350000Y-25959000D01*
X17349000Y-25960732D01*
X17348000Y-25961000D01*
X17259500Y-25961000D01*
X17257768Y-25960000D01*
X17257500Y-25959000D01*
X17257500Y-25605000D01*
X16688000Y-25605000D01*
X16686268Y-25604000D01*
X16686000Y-25603000D01*
X16686000Y-25197000D01*
X16687000Y-25195268D01*
X16688000Y-25195000D01*
X17257500Y-25195000D01*
X17257500Y-24841000D01*
X17258500Y-24839268D01*
X17259500Y-24839000D01*
X17348000Y-24839000D01*
X17349732Y-24840000D01*
G37*
G36*
X17349732Y-22300000D02*
G01*
X17350000Y-22301000D01*
X17350000Y-22682000D01*
X17349000Y-22683732D01*
X17348000Y-22684000D01*
X16877000Y-22684000D01*
X16877000Y-23036000D01*
X17348000Y-23036000D01*
X17349732Y-23037000D01*
X17350000Y-23038000D01*
X17350000Y-23419000D01*
X17349000Y-23420732D01*
X17348000Y-23421000D01*
X17259500Y-23421000D01*
X17257768Y-23420000D01*
X17257500Y-23419000D01*
X17257500Y-23065000D01*
X16688000Y-23065000D01*
X16686268Y-23064000D01*
X16686000Y-23063000D01*
X16686000Y-22657000D01*
X16687000Y-22655268D01*
X16688000Y-22655000D01*
X17257500Y-22655000D01*
X17257500Y-22301000D01*
X17258500Y-22299268D01*
X17259500Y-22299000D01*
X17348000Y-22299000D01*
X17349732Y-22300000D01*
G37*
G36*
X21667732Y-22300000D02*
G01*
X21668000Y-22301000D01*
X21668000Y-22682000D01*
X21667000Y-22683732D01*
X21666000Y-22684000D01*
X21195000Y-22684000D01*
X21195000Y-23036000D01*
X21666000Y-23036000D01*
X21667732Y-23037000D01*
X21668000Y-23038000D01*
X21668000Y-23419000D01*
X21667000Y-23420732D01*
X21666000Y-23421000D01*
X21577500Y-23421000D01*
X21575768Y-23420000D01*
X21575500Y-23419000D01*
X21575500Y-23065000D01*
X21006000Y-23065000D01*
X21004268Y-23064000D01*
X21004000Y-23063000D01*
X21004000Y-22657000D01*
X21005000Y-22655268D01*
X21006000Y-22655000D01*
X21575500Y-22655000D01*
X21575500Y-22301000D01*
X21576500Y-22299268D01*
X21577500Y-22299000D01*
X21666000Y-22299000D01*
X21667732Y-22300000D01*
G37*
G36*
X21667732Y-19760000D02*
G01*
X21668000Y-19761000D01*
X21668000Y-20142000D01*
X21667000Y-20143732D01*
X21666000Y-20144000D01*
X21195000Y-20144000D01*
X21195000Y-20496000D01*
X21666000Y-20496000D01*
X21667732Y-20497000D01*
X21668000Y-20498000D01*
X21668000Y-20879000D01*
X21667000Y-20880732D01*
X21666000Y-20881000D01*
X21577500Y-20881000D01*
X21575768Y-20880000D01*
X21575500Y-20879000D01*
X21575500Y-20525000D01*
X21006000Y-20525000D01*
X21004268Y-20524000D01*
X21004000Y-20523000D01*
X21004000Y-20117000D01*
X21005000Y-20115268D01*
X21006000Y-20115000D01*
X21575500Y-20115000D01*
X21575500Y-19761000D01*
X21576500Y-19759268D01*
X21577500Y-19759000D01*
X21666000Y-19759000D01*
X21667732Y-19760000D01*
G37*
M02*
