G04 #@! TF.GenerationSoftware,KiCad,Pcbnew,5.1.9-73d0e3b20d~88~ubuntu20.04.1*
G04 #@! TF.CreationDate,2021-03-09T21:18:06-03:00*
G04 #@! TF.ProjectId,std_board,7374645f-626f-4617-9264-2e6b69636164,rev?*
G04 #@! TF.SameCoordinates,Original*
G04 #@! TF.FileFunction,Soldermask,Top*
G04 #@! TF.FilePolarity,Negative*
%FSLAX46Y46*%
G04 Gerber Fmt 4.6, Leading zero omitted, Abs format (unit mm)*
G04 Created by KiCad (PCBNEW 5.1.9-73d0e3b20d~88~ubuntu20.04.1) date 2021-03-09 21:18:06*
%MOMM*%
%LPD*%
G01*
G04 APERTURE LIST*
%ADD10O,2.102000X1.302000*%
%ADD11C,1.702000*%
%ADD12O,1.702000X1.702000*%
%ADD13C,2.702000*%
%ADD14C,1.626000*%
%ADD15C,6.102000*%
%ADD16C,1.902000*%
%ADD17O,1.802000X1.802000*%
%ADD18C,0.100000*%
%ADD19O,2.102000X2.007000*%
%ADD20C,1.402000*%
%ADD21C,3.102000*%
G04 APERTURE END LIST*
D10*
X38100000Y0D03*
X12700000Y0D03*
X38100000Y-2540000D03*
X12700000Y-2540000D03*
X38100000Y-5080000D03*
X12700000Y-5080000D03*
X38100000Y-7620000D03*
X12700000Y-7620000D03*
X38100000Y-10160000D03*
X12700000Y-10160000D03*
X38100000Y-12700000D03*
X12700000Y-12700000D03*
X38100000Y-15240000D03*
X12700000Y-15240000D03*
X38100000Y-17780000D03*
X12700000Y-17780000D03*
X38100000Y-20320000D03*
X12700000Y-20320000D03*
X38100000Y-22860000D03*
X12700000Y-22860000D03*
X38100000Y-25400000D03*
X12700000Y-25400000D03*
X38100000Y-27940000D03*
X12700000Y-27940000D03*
X38100000Y-30480000D03*
X12700000Y-30480000D03*
X38100000Y-33020000D03*
X12700000Y-33020000D03*
X38100000Y-35560000D03*
X12700000Y-35560000D03*
X38100000Y-38100000D03*
X12700000Y-38100000D03*
X38100000Y-40640000D03*
X12700000Y-40640000D03*
X38100000Y-43180000D03*
X12700000Y-43180000D03*
X38100000Y-45720000D03*
X12700000Y-45720000D03*
D11*
X89916000Y-83820000D03*
D12*
X89916000Y-93980000D03*
G36*
G01*
X92482250Y-78201500D02*
X93445750Y-78201500D01*
G75*
G02*
X93715000Y-78470750I0J-269250D01*
G01*
X93715000Y-79009250D01*
G75*
G02*
X93445750Y-79278500I-269250J0D01*
G01*
X92482250Y-79278500D01*
G75*
G02*
X92213000Y-79009250I0J269250D01*
G01*
X92213000Y-78470750D01*
G75*
G02*
X92482250Y-78201500I269250J0D01*
G01*
G37*
G36*
G01*
X92482250Y-80076500D02*
X93445750Y-80076500D01*
G75*
G02*
X93715000Y-80345750I0J-269250D01*
G01*
X93715000Y-80884250D01*
G75*
G02*
X93445750Y-81153500I-269250J0D01*
G01*
X92482250Y-81153500D01*
G75*
G02*
X92213000Y-80884250I0J269250D01*
G01*
X92213000Y-80345750D01*
G75*
G02*
X92482250Y-80076500I269250J0D01*
G01*
G37*
D13*
X77978000Y-42164000D03*
X82978000Y-42164000D03*
D14*
X61976000Y-54610000D03*
X61976000Y-49530000D03*
G36*
G01*
X62776100Y-55820510D02*
X61175900Y-55820510D01*
G75*
G02*
X61124900Y-55769510I0J51000D01*
G01*
X61124900Y-52769770D01*
G75*
G02*
X61175900Y-52718770I51000J0D01*
G01*
X62776100Y-52718770D01*
G75*
G02*
X62827100Y-52769770I0J-51000D01*
G01*
X62827100Y-55769510D01*
G75*
G02*
X62776100Y-55820510I-51000J0D01*
G01*
G37*
G36*
G01*
X62776100Y-51421230D02*
X61175900Y-51421230D01*
G75*
G02*
X61124900Y-51370230I0J51000D01*
G01*
X61124900Y-48370490D01*
G75*
G02*
X61175900Y-48319490I51000J0D01*
G01*
X62776100Y-48319490D01*
G75*
G02*
X62827100Y-48370490I0J-51000D01*
G01*
X62827100Y-51370230D01*
G75*
G02*
X62776100Y-51421230I-51000J0D01*
G01*
G37*
D11*
X66040000Y-635000D03*
D12*
X66040000Y-10795000D03*
X62865000Y-2540000D03*
X55245000Y-7620000D03*
X62865000Y-5080000D03*
X55245000Y-5080000D03*
X62865000Y-7620000D03*
G36*
G01*
X54394000Y-3340000D02*
X54394000Y-1740000D01*
G75*
G02*
X54445000Y-1689000I51000J0D01*
G01*
X56045000Y-1689000D01*
G75*
G02*
X56096000Y-1740000I0J-51000D01*
G01*
X56096000Y-3340000D01*
G75*
G02*
X56045000Y-3391000I-51000J0D01*
G01*
X54445000Y-3391000D01*
G75*
G02*
X54394000Y-3340000I0J51000D01*
G01*
G37*
G36*
G01*
X17125000Y-61235000D02*
X17125000Y-60685000D01*
G75*
G02*
X17176000Y-60634000I51000J0D01*
G01*
X18926000Y-60634000D01*
G75*
G02*
X18977000Y-60685000I0J-51000D01*
G01*
X18977000Y-61235000D01*
G75*
G02*
X18926000Y-61286000I-51000J0D01*
G01*
X17176000Y-61286000D01*
G75*
G02*
X17125000Y-61235000I0J51000D01*
G01*
G37*
G36*
G01*
X17125000Y-62505000D02*
X17125000Y-61955000D01*
G75*
G02*
X17176000Y-61904000I51000J0D01*
G01*
X18926000Y-61904000D01*
G75*
G02*
X18977000Y-61955000I0J-51000D01*
G01*
X18977000Y-62505000D01*
G75*
G02*
X18926000Y-62556000I-51000J0D01*
G01*
X17176000Y-62556000D01*
G75*
G02*
X17125000Y-62505000I0J51000D01*
G01*
G37*
G36*
G01*
X17125000Y-63775000D02*
X17125000Y-63225000D01*
G75*
G02*
X17176000Y-63174000I51000J0D01*
G01*
X18926000Y-63174000D01*
G75*
G02*
X18977000Y-63225000I0J-51000D01*
G01*
X18977000Y-63775000D01*
G75*
G02*
X18926000Y-63826000I-51000J0D01*
G01*
X17176000Y-63826000D01*
G75*
G02*
X17125000Y-63775000I0J51000D01*
G01*
G37*
G36*
G01*
X17125000Y-65045000D02*
X17125000Y-64495000D01*
G75*
G02*
X17176000Y-64444000I51000J0D01*
G01*
X18926000Y-64444000D01*
G75*
G02*
X18977000Y-64495000I0J-51000D01*
G01*
X18977000Y-65045000D01*
G75*
G02*
X18926000Y-65096000I-51000J0D01*
G01*
X17176000Y-65096000D01*
G75*
G02*
X17125000Y-65045000I0J51000D01*
G01*
G37*
G36*
G01*
X9725000Y-65045000D02*
X9725000Y-64495000D01*
G75*
G02*
X9776000Y-64444000I51000J0D01*
G01*
X11526000Y-64444000D01*
G75*
G02*
X11577000Y-64495000I0J-51000D01*
G01*
X11577000Y-65045000D01*
G75*
G02*
X11526000Y-65096000I-51000J0D01*
G01*
X9776000Y-65096000D01*
G75*
G02*
X9725000Y-65045000I0J51000D01*
G01*
G37*
G36*
G01*
X9725000Y-63775000D02*
X9725000Y-63225000D01*
G75*
G02*
X9776000Y-63174000I51000J0D01*
G01*
X11526000Y-63174000D01*
G75*
G02*
X11577000Y-63225000I0J-51000D01*
G01*
X11577000Y-63775000D01*
G75*
G02*
X11526000Y-63826000I-51000J0D01*
G01*
X9776000Y-63826000D01*
G75*
G02*
X9725000Y-63775000I0J51000D01*
G01*
G37*
G36*
G01*
X9725000Y-62505000D02*
X9725000Y-61955000D01*
G75*
G02*
X9776000Y-61904000I51000J0D01*
G01*
X11526000Y-61904000D01*
G75*
G02*
X11577000Y-61955000I0J-51000D01*
G01*
X11577000Y-62505000D01*
G75*
G02*
X11526000Y-62556000I-51000J0D01*
G01*
X9776000Y-62556000D01*
G75*
G02*
X9725000Y-62505000I0J51000D01*
G01*
G37*
G36*
G01*
X9725000Y-61235000D02*
X9725000Y-60685000D01*
G75*
G02*
X9776000Y-60634000I51000J0D01*
G01*
X11526000Y-60634000D01*
G75*
G02*
X11577000Y-60685000I0J-51000D01*
G01*
X11577000Y-61235000D01*
G75*
G02*
X11526000Y-61286000I-51000J0D01*
G01*
X9776000Y-61286000D01*
G75*
G02*
X9725000Y-61235000I0J51000D01*
G01*
G37*
G36*
G01*
X49048250Y-87442500D02*
X50011750Y-87442500D01*
G75*
G02*
X50281000Y-87711750I0J-269250D01*
G01*
X50281000Y-88250250D01*
G75*
G02*
X50011750Y-88519500I-269250J0D01*
G01*
X49048250Y-88519500D01*
G75*
G02*
X48779000Y-88250250I0J269250D01*
G01*
X48779000Y-87711750D01*
G75*
G02*
X49048250Y-87442500I269250J0D01*
G01*
G37*
G36*
G01*
X49048250Y-85567500D02*
X50011750Y-85567500D01*
G75*
G02*
X50281000Y-85836750I0J-269250D01*
G01*
X50281000Y-86375250D01*
G75*
G02*
X50011750Y-86644500I-269250J0D01*
G01*
X49048250Y-86644500D01*
G75*
G02*
X48779000Y-86375250I0J269250D01*
G01*
X48779000Y-85836750D01*
G75*
G02*
X49048250Y-85567500I269250J0D01*
G01*
G37*
D11*
X88900000Y-13335000D03*
D12*
X88900000Y-23495000D03*
X88900000Y-36322000D03*
D11*
X88900000Y-26162000D03*
G36*
G01*
X51334250Y-6924500D02*
X52297750Y-6924500D01*
G75*
G02*
X52567000Y-7193750I0J-269250D01*
G01*
X52567000Y-7732250D01*
G75*
G02*
X52297750Y-8001500I-269250J0D01*
G01*
X51334250Y-8001500D01*
G75*
G02*
X51065000Y-7732250I0J269250D01*
G01*
X51065000Y-7193750D01*
G75*
G02*
X51334250Y-6924500I269250J0D01*
G01*
G37*
G36*
G01*
X51334250Y-5049500D02*
X52297750Y-5049500D01*
G75*
G02*
X52567000Y-5318750I0J-269250D01*
G01*
X52567000Y-5857250D01*
G75*
G02*
X52297750Y-6126500I-269250J0D01*
G01*
X51334250Y-6126500D01*
G75*
G02*
X51065000Y-5857250I0J269250D01*
G01*
X51065000Y-5318750D01*
G75*
G02*
X51334250Y-5049500I269250J0D01*
G01*
G37*
G36*
G01*
X86841750Y-90581500D02*
X85878250Y-90581500D01*
G75*
G02*
X85609000Y-90312250I0J269250D01*
G01*
X85609000Y-89773750D01*
G75*
G02*
X85878250Y-89504500I269250J0D01*
G01*
X86841750Y-89504500D01*
G75*
G02*
X87111000Y-89773750I0J-269250D01*
G01*
X87111000Y-90312250D01*
G75*
G02*
X86841750Y-90581500I-269250J0D01*
G01*
G37*
G36*
G01*
X86841750Y-92456500D02*
X85878250Y-92456500D01*
G75*
G02*
X85609000Y-92187250I0J269250D01*
G01*
X85609000Y-91648750D01*
G75*
G02*
X85878250Y-91379500I269250J0D01*
G01*
X86841750Y-91379500D01*
G75*
G02*
X87111000Y-91648750I0J-269250D01*
G01*
X87111000Y-92187250D01*
G75*
G02*
X86841750Y-92456500I-269250J0D01*
G01*
G37*
D15*
X3556000Y-94234000D03*
X3556000Y-2286000D03*
G36*
G01*
X41428250Y-87442500D02*
X42391750Y-87442500D01*
G75*
G02*
X42661000Y-87711750I0J-269250D01*
G01*
X42661000Y-88250250D01*
G75*
G02*
X42391750Y-88519500I-269250J0D01*
G01*
X41428250Y-88519500D01*
G75*
G02*
X41159000Y-88250250I0J269250D01*
G01*
X41159000Y-87711750D01*
G75*
G02*
X41428250Y-87442500I269250J0D01*
G01*
G37*
G36*
G01*
X41428250Y-85567500D02*
X42391750Y-85567500D01*
G75*
G02*
X42661000Y-85836750I0J-269250D01*
G01*
X42661000Y-86375250D01*
G75*
G02*
X42391750Y-86644500I-269250J0D01*
G01*
X41428250Y-86644500D01*
G75*
G02*
X41159000Y-86375250I0J269250D01*
G01*
X41159000Y-85836750D01*
G75*
G02*
X41428250Y-85567500I269250J0D01*
G01*
G37*
G36*
G01*
X45238250Y-87442500D02*
X46201750Y-87442500D01*
G75*
G02*
X46471000Y-87711750I0J-269250D01*
G01*
X46471000Y-88250250D01*
G75*
G02*
X46201750Y-88519500I-269250J0D01*
G01*
X45238250Y-88519500D01*
G75*
G02*
X44969000Y-88250250I0J269250D01*
G01*
X44969000Y-87711750D01*
G75*
G02*
X45238250Y-87442500I269250J0D01*
G01*
G37*
G36*
G01*
X45238250Y-85567500D02*
X46201750Y-85567500D01*
G75*
G02*
X46471000Y-85836750I0J-269250D01*
G01*
X46471000Y-86375250D01*
G75*
G02*
X46201750Y-86644500I-269250J0D01*
G01*
X45238250Y-86644500D01*
G75*
G02*
X44969000Y-86375250I0J269250D01*
G01*
X44969000Y-85836750D01*
G75*
G02*
X45238250Y-85567500I269250J0D01*
G01*
G37*
G36*
G01*
X32993750Y-86390500D02*
X32030250Y-86390500D01*
G75*
G02*
X31761000Y-86121250I0J269250D01*
G01*
X31761000Y-85582750D01*
G75*
G02*
X32030250Y-85313500I269250J0D01*
G01*
X32993750Y-85313500D01*
G75*
G02*
X33263000Y-85582750I0J-269250D01*
G01*
X33263000Y-86121250D01*
G75*
G02*
X32993750Y-86390500I-269250J0D01*
G01*
G37*
G36*
G01*
X32993750Y-88265500D02*
X32030250Y-88265500D01*
G75*
G02*
X31761000Y-87996250I0J269250D01*
G01*
X31761000Y-87457750D01*
G75*
G02*
X32030250Y-87188500I269250J0D01*
G01*
X32993750Y-87188500D01*
G75*
G02*
X33263000Y-87457750I0J-269250D01*
G01*
X33263000Y-87996250D01*
G75*
G02*
X32993750Y-88265500I-269250J0D01*
G01*
G37*
G36*
G01*
X26823250Y-69311500D02*
X27786750Y-69311500D01*
G75*
G02*
X28056000Y-69580750I0J-269250D01*
G01*
X28056000Y-70119250D01*
G75*
G02*
X27786750Y-70388500I-269250J0D01*
G01*
X26823250Y-70388500D01*
G75*
G02*
X26554000Y-70119250I0J269250D01*
G01*
X26554000Y-69580750D01*
G75*
G02*
X26823250Y-69311500I269250J0D01*
G01*
G37*
G36*
G01*
X26823250Y-67436500D02*
X27786750Y-67436500D01*
G75*
G02*
X28056000Y-67705750I0J-269250D01*
G01*
X28056000Y-68244250D01*
G75*
G02*
X27786750Y-68513500I-269250J0D01*
G01*
X26823250Y-68513500D01*
G75*
G02*
X26554000Y-68244250I0J269250D01*
G01*
X26554000Y-67705750D01*
G75*
G02*
X26823250Y-67436500I269250J0D01*
G01*
G37*
G36*
G01*
X51942999Y-2651000D02*
X52197001Y-2651000D01*
G75*
G02*
X52248000Y-2701999I0J-50999D01*
G01*
X52248000Y-3902001D01*
G75*
G02*
X52197001Y-3953000I-50999J0D01*
G01*
X51942999Y-3953000D01*
G75*
G02*
X51892000Y-3902001I0J50999D01*
G01*
X51892000Y-2701999D01*
G75*
G02*
X51942999Y-2651000I50999J0D01*
G01*
G37*
G36*
G01*
X52323999Y-1790500D02*
X52578001Y-1790500D01*
G75*
G02*
X52629000Y-1841499I0J-50999D01*
G01*
X52629000Y-2984501D01*
G75*
G02*
X52578001Y-3035500I-50999J0D01*
G01*
X52323999Y-3035500D01*
G75*
G02*
X52273000Y-2984501I0J50999D01*
G01*
X52273000Y-1841499D01*
G75*
G02*
X52323999Y-1790500I50999J0D01*
G01*
G37*
G36*
G01*
X51562000Y-1600000D02*
X52578000Y-1600000D01*
G75*
G02*
X52629000Y-1651000I0J-51000D01*
G01*
X52629000Y-2413000D01*
G75*
G02*
X52578000Y-2464000I-51000J0D01*
G01*
X51562000Y-2464000D01*
G75*
G02*
X51511000Y-2413000I0J51000D01*
G01*
X51511000Y-1651000D01*
G75*
G02*
X51562000Y-1600000I51000J0D01*
G01*
G37*
G36*
G01*
X51561999Y-1790500D02*
X51816001Y-1790500D01*
G75*
G02*
X51867000Y-1841499I0J-50999D01*
G01*
X51867000Y-2984501D01*
G75*
G02*
X51816001Y-3035500I-50999J0D01*
G01*
X51561999Y-3035500D01*
G75*
G02*
X51511000Y-2984501I0J50999D01*
G01*
X51511000Y-1841499D01*
G75*
G02*
X51561999Y-1790500I50999J0D01*
G01*
G37*
G36*
G01*
X51562000Y-3124000D02*
X52578000Y-3124000D01*
G75*
G02*
X52629000Y-3175000I0J-51000D01*
G01*
X52629000Y-3937000D01*
G75*
G02*
X52578000Y-3988000I-51000J0D01*
G01*
X51562000Y-3988000D01*
G75*
G02*
X51511000Y-3937000I0J51000D01*
G01*
X51511000Y-3175000D01*
G75*
G02*
X51562000Y-3124000I51000J0D01*
G01*
G37*
G36*
G01*
X52197001Y-28337000D02*
X51942999Y-28337000D01*
G75*
G02*
X51892000Y-28286001I0J50999D01*
G01*
X51892000Y-27085999D01*
G75*
G02*
X51942999Y-27035000I50999J0D01*
G01*
X52197001Y-27035000D01*
G75*
G02*
X52248000Y-27085999I0J-50999D01*
G01*
X52248000Y-28286001D01*
G75*
G02*
X52197001Y-28337000I-50999J0D01*
G01*
G37*
G36*
G01*
X51816001Y-29197500D02*
X51561999Y-29197500D01*
G75*
G02*
X51511000Y-29146501I0J50999D01*
G01*
X51511000Y-28003499D01*
G75*
G02*
X51561999Y-27952500I50999J0D01*
G01*
X51816001Y-27952500D01*
G75*
G02*
X51867000Y-28003499I0J-50999D01*
G01*
X51867000Y-29146501D01*
G75*
G02*
X51816001Y-29197500I-50999J0D01*
G01*
G37*
G36*
G01*
X52578000Y-29388000D02*
X51562000Y-29388000D01*
G75*
G02*
X51511000Y-29337000I0J51000D01*
G01*
X51511000Y-28575000D01*
G75*
G02*
X51562000Y-28524000I51000J0D01*
G01*
X52578000Y-28524000D01*
G75*
G02*
X52629000Y-28575000I0J-51000D01*
G01*
X52629000Y-29337000D01*
G75*
G02*
X52578000Y-29388000I-51000J0D01*
G01*
G37*
G36*
G01*
X52578001Y-29197500D02*
X52323999Y-29197500D01*
G75*
G02*
X52273000Y-29146501I0J50999D01*
G01*
X52273000Y-28003499D01*
G75*
G02*
X52323999Y-27952500I50999J0D01*
G01*
X52578001Y-27952500D01*
G75*
G02*
X52629000Y-28003499I0J-50999D01*
G01*
X52629000Y-29146501D01*
G75*
G02*
X52578001Y-29197500I-50999J0D01*
G01*
G37*
G36*
G01*
X52578000Y-27864000D02*
X51562000Y-27864000D01*
G75*
G02*
X51511000Y-27813000I0J51000D01*
G01*
X51511000Y-27051000D01*
G75*
G02*
X51562000Y-27000000I51000J0D01*
G01*
X52578000Y-27000000D01*
G75*
G02*
X52629000Y-27051000I0J-51000D01*
G01*
X52629000Y-27813000D01*
G75*
G02*
X52578000Y-27864000I-51000J0D01*
G01*
G37*
G36*
G01*
X52197001Y-15637000D02*
X51942999Y-15637000D01*
G75*
G02*
X51892000Y-15586001I0J50999D01*
G01*
X51892000Y-14385999D01*
G75*
G02*
X51942999Y-14335000I50999J0D01*
G01*
X52197001Y-14335000D01*
G75*
G02*
X52248000Y-14385999I0J-50999D01*
G01*
X52248000Y-15586001D01*
G75*
G02*
X52197001Y-15637000I-50999J0D01*
G01*
G37*
G36*
G01*
X51816001Y-16497500D02*
X51561999Y-16497500D01*
G75*
G02*
X51511000Y-16446501I0J50999D01*
G01*
X51511000Y-15303499D01*
G75*
G02*
X51561999Y-15252500I50999J0D01*
G01*
X51816001Y-15252500D01*
G75*
G02*
X51867000Y-15303499I0J-50999D01*
G01*
X51867000Y-16446501D01*
G75*
G02*
X51816001Y-16497500I-50999J0D01*
G01*
G37*
G36*
G01*
X52578000Y-16688000D02*
X51562000Y-16688000D01*
G75*
G02*
X51511000Y-16637000I0J51000D01*
G01*
X51511000Y-15875000D01*
G75*
G02*
X51562000Y-15824000I51000J0D01*
G01*
X52578000Y-15824000D01*
G75*
G02*
X52629000Y-15875000I0J-51000D01*
G01*
X52629000Y-16637000D01*
G75*
G02*
X52578000Y-16688000I-51000J0D01*
G01*
G37*
G36*
G01*
X52578001Y-16497500D02*
X52323999Y-16497500D01*
G75*
G02*
X52273000Y-16446501I0J50999D01*
G01*
X52273000Y-15303499D01*
G75*
G02*
X52323999Y-15252500I50999J0D01*
G01*
X52578001Y-15252500D01*
G75*
G02*
X52629000Y-15303499I0J-50999D01*
G01*
X52629000Y-16446501D01*
G75*
G02*
X52578001Y-16497500I-50999J0D01*
G01*
G37*
G36*
G01*
X52578000Y-15164000D02*
X51562000Y-15164000D01*
G75*
G02*
X51511000Y-15113000I0J51000D01*
G01*
X51511000Y-14351000D01*
G75*
G02*
X51562000Y-14300000I51000J0D01*
G01*
X52578000Y-14300000D01*
G75*
G02*
X52629000Y-14351000I0J-51000D01*
G01*
X52629000Y-15113000D01*
G75*
G02*
X52578000Y-15164000I-51000J0D01*
G01*
G37*
G36*
G01*
X41529001Y-72787000D02*
X41274999Y-72787000D01*
G75*
G02*
X41224000Y-72736001I0J50999D01*
G01*
X41224000Y-71535999D01*
G75*
G02*
X41274999Y-71485000I50999J0D01*
G01*
X41529001Y-71485000D01*
G75*
G02*
X41580000Y-71535999I0J-50999D01*
G01*
X41580000Y-72736001D01*
G75*
G02*
X41529001Y-72787000I-50999J0D01*
G01*
G37*
G36*
G01*
X41148001Y-73647500D02*
X40893999Y-73647500D01*
G75*
G02*
X40843000Y-73596501I0J50999D01*
G01*
X40843000Y-72453499D01*
G75*
G02*
X40893999Y-72402500I50999J0D01*
G01*
X41148001Y-72402500D01*
G75*
G02*
X41199000Y-72453499I0J-50999D01*
G01*
X41199000Y-73596501D01*
G75*
G02*
X41148001Y-73647500I-50999J0D01*
G01*
G37*
G36*
G01*
X41910000Y-73838000D02*
X40894000Y-73838000D01*
G75*
G02*
X40843000Y-73787000I0J51000D01*
G01*
X40843000Y-73025000D01*
G75*
G02*
X40894000Y-72974000I51000J0D01*
G01*
X41910000Y-72974000D01*
G75*
G02*
X41961000Y-73025000I0J-51000D01*
G01*
X41961000Y-73787000D01*
G75*
G02*
X41910000Y-73838000I-51000J0D01*
G01*
G37*
G36*
G01*
X41910001Y-73647500D02*
X41655999Y-73647500D01*
G75*
G02*
X41605000Y-73596501I0J50999D01*
G01*
X41605000Y-72453499D01*
G75*
G02*
X41655999Y-72402500I50999J0D01*
G01*
X41910001Y-72402500D01*
G75*
G02*
X41961000Y-72453499I0J-50999D01*
G01*
X41961000Y-73596501D01*
G75*
G02*
X41910001Y-73647500I-50999J0D01*
G01*
G37*
G36*
G01*
X41910000Y-72314000D02*
X40894000Y-72314000D01*
G75*
G02*
X40843000Y-72263000I0J51000D01*
G01*
X40843000Y-71501000D01*
G75*
G02*
X40894000Y-71450000I51000J0D01*
G01*
X41910000Y-71450000D01*
G75*
G02*
X41961000Y-71501000I0J-51000D01*
G01*
X41961000Y-72263000D01*
G75*
G02*
X41910000Y-72314000I-51000J0D01*
G01*
G37*
G36*
G01*
X49675000Y-15721750D02*
X49675000Y-14758250D01*
G75*
G02*
X49944250Y-14489000I269250J0D01*
G01*
X50482750Y-14489000D01*
G75*
G02*
X50752000Y-14758250I0J-269250D01*
G01*
X50752000Y-15721750D01*
G75*
G02*
X50482750Y-15991000I-269250J0D01*
G01*
X49944250Y-15991000D01*
G75*
G02*
X49675000Y-15721750I0J269250D01*
G01*
G37*
G36*
G01*
X47800000Y-15721750D02*
X47800000Y-14758250D01*
G75*
G02*
X48069250Y-14489000I269250J0D01*
G01*
X48607750Y-14489000D01*
G75*
G02*
X48877000Y-14758250I0J-269250D01*
G01*
X48877000Y-15721750D01*
G75*
G02*
X48607750Y-15991000I-269250J0D01*
G01*
X48069250Y-15991000D01*
G75*
G02*
X47800000Y-15721750I0J269250D01*
G01*
G37*
G36*
G01*
X16536250Y-81074000D02*
X17499750Y-81074000D01*
G75*
G02*
X17769000Y-81343250I0J-269250D01*
G01*
X17769000Y-81881750D01*
G75*
G02*
X17499750Y-82151000I-269250J0D01*
G01*
X16536250Y-82151000D01*
G75*
G02*
X16267000Y-81881750I0J269250D01*
G01*
X16267000Y-81343250D01*
G75*
G02*
X16536250Y-81074000I269250J0D01*
G01*
G37*
G36*
G01*
X16536250Y-82949000D02*
X17499750Y-82949000D01*
G75*
G02*
X17769000Y-83218250I0J-269250D01*
G01*
X17769000Y-83756750D01*
G75*
G02*
X17499750Y-84026000I-269250J0D01*
G01*
X16536250Y-84026000D01*
G75*
G02*
X16267000Y-83756750I0J269250D01*
G01*
X16267000Y-83218250D01*
G75*
G02*
X16536250Y-82949000I269250J0D01*
G01*
G37*
G36*
G01*
X16790250Y-74391500D02*
X17753750Y-74391500D01*
G75*
G02*
X18023000Y-74660750I0J-269250D01*
G01*
X18023000Y-75199250D01*
G75*
G02*
X17753750Y-75468500I-269250J0D01*
G01*
X16790250Y-75468500D01*
G75*
G02*
X16521000Y-75199250I0J269250D01*
G01*
X16521000Y-74660750D01*
G75*
G02*
X16790250Y-74391500I269250J0D01*
G01*
G37*
G36*
G01*
X16790250Y-72516500D02*
X17753750Y-72516500D01*
G75*
G02*
X18023000Y-72785750I0J-269250D01*
G01*
X18023000Y-73324250D01*
G75*
G02*
X17753750Y-73593500I-269250J0D01*
G01*
X16790250Y-73593500D01*
G75*
G02*
X16521000Y-73324250I0J269250D01*
G01*
X16521000Y-72785750D01*
G75*
G02*
X16790250Y-72516500I269250J0D01*
G01*
G37*
G36*
G01*
X20801750Y-77500500D02*
X19838250Y-77500500D01*
G75*
G02*
X19569000Y-77231250I0J269250D01*
G01*
X19569000Y-76692750D01*
G75*
G02*
X19838250Y-76423500I269250J0D01*
G01*
X20801750Y-76423500D01*
G75*
G02*
X21071000Y-76692750I0J-269250D01*
G01*
X21071000Y-77231250D01*
G75*
G02*
X20801750Y-77500500I-269250J0D01*
G01*
G37*
G36*
G01*
X20801750Y-79375500D02*
X19838250Y-79375500D01*
G75*
G02*
X19569000Y-79106250I0J269250D01*
G01*
X19569000Y-78567750D01*
G75*
G02*
X19838250Y-78298500I269250J0D01*
G01*
X20801750Y-78298500D01*
G75*
G02*
X21071000Y-78567750I0J-269250D01*
G01*
X21071000Y-79106250D01*
G75*
G02*
X20801750Y-79375500I-269250J0D01*
G01*
G37*
G36*
G01*
X20674750Y-86390500D02*
X19711250Y-86390500D01*
G75*
G02*
X19442000Y-86121250I0J269250D01*
G01*
X19442000Y-85582750D01*
G75*
G02*
X19711250Y-85313500I269250J0D01*
G01*
X20674750Y-85313500D01*
G75*
G02*
X20944000Y-85582750I0J-269250D01*
G01*
X20944000Y-86121250D01*
G75*
G02*
X20674750Y-86390500I-269250J0D01*
G01*
G37*
G36*
G01*
X20674750Y-88265500D02*
X19711250Y-88265500D01*
G75*
G02*
X19442000Y-87996250I0J269250D01*
G01*
X19442000Y-87457750D01*
G75*
G02*
X19711250Y-87188500I269250J0D01*
G01*
X20674750Y-87188500D01*
G75*
G02*
X20944000Y-87457750I0J-269250D01*
G01*
X20944000Y-87996250D01*
G75*
G02*
X20674750Y-88265500I-269250J0D01*
G01*
G37*
G36*
G01*
X17753750Y-77403500D02*
X16790250Y-77403500D01*
G75*
G02*
X16521000Y-77134250I0J269250D01*
G01*
X16521000Y-76595750D01*
G75*
G02*
X16790250Y-76326500I269250J0D01*
G01*
X17753750Y-76326500D01*
G75*
G02*
X18023000Y-76595750I0J-269250D01*
G01*
X18023000Y-77134250D01*
G75*
G02*
X17753750Y-77403500I-269250J0D01*
G01*
G37*
G36*
G01*
X17753750Y-79278500D02*
X16790250Y-79278500D01*
G75*
G02*
X16521000Y-79009250I0J269250D01*
G01*
X16521000Y-78470750D01*
G75*
G02*
X16790250Y-78201500I269250J0D01*
G01*
X17753750Y-78201500D01*
G75*
G02*
X18023000Y-78470750I0J-269250D01*
G01*
X18023000Y-79009250D01*
G75*
G02*
X17753750Y-79278500I-269250J0D01*
G01*
G37*
G36*
G01*
X26897750Y-82151000D02*
X25934250Y-82151000D01*
G75*
G02*
X25665000Y-81881750I0J269250D01*
G01*
X25665000Y-81343250D01*
G75*
G02*
X25934250Y-81074000I269250J0D01*
G01*
X26897750Y-81074000D01*
G75*
G02*
X27167000Y-81343250I0J-269250D01*
G01*
X27167000Y-81881750D01*
G75*
G02*
X26897750Y-82151000I-269250J0D01*
G01*
G37*
G36*
G01*
X26897750Y-84026000D02*
X25934250Y-84026000D01*
G75*
G02*
X25665000Y-83756750I0J269250D01*
G01*
X25665000Y-83218250D01*
G75*
G02*
X25934250Y-82949000I269250J0D01*
G01*
X26897750Y-82949000D01*
G75*
G02*
X27167000Y-83218250I0J-269250D01*
G01*
X27167000Y-83756750D01*
G75*
G02*
X26897750Y-84026000I-269250J0D01*
G01*
G37*
G36*
G01*
X26897750Y-73593500D02*
X25934250Y-73593500D01*
G75*
G02*
X25665000Y-73324250I0J269250D01*
G01*
X25665000Y-72785750D01*
G75*
G02*
X25934250Y-72516500I269250J0D01*
G01*
X26897750Y-72516500D01*
G75*
G02*
X27167000Y-72785750I0J-269250D01*
G01*
X27167000Y-73324250D01*
G75*
G02*
X26897750Y-73593500I-269250J0D01*
G01*
G37*
G36*
G01*
X26897750Y-75468500D02*
X25934250Y-75468500D01*
G75*
G02*
X25665000Y-75199250I0J269250D01*
G01*
X25665000Y-74660750D01*
G75*
G02*
X25934250Y-74391500I269250J0D01*
G01*
X26897750Y-74391500D01*
G75*
G02*
X27167000Y-74660750I0J-269250D01*
G01*
X27167000Y-75199250D01*
G75*
G02*
X26897750Y-75468500I-269250J0D01*
G01*
G37*
G36*
G01*
X37872250Y-73297000D02*
X38835750Y-73297000D01*
G75*
G02*
X39105000Y-73566250I0J-269250D01*
G01*
X39105000Y-74104750D01*
G75*
G02*
X38835750Y-74374000I-269250J0D01*
G01*
X37872250Y-74374000D01*
G75*
G02*
X37603000Y-74104750I0J269250D01*
G01*
X37603000Y-73566250D01*
G75*
G02*
X37872250Y-73297000I269250J0D01*
G01*
G37*
G36*
G01*
X37872250Y-71422000D02*
X38835750Y-71422000D01*
G75*
G02*
X39105000Y-71691250I0J-269250D01*
G01*
X39105000Y-72229750D01*
G75*
G02*
X38835750Y-72499000I-269250J0D01*
G01*
X37872250Y-72499000D01*
G75*
G02*
X37603000Y-72229750I0J269250D01*
G01*
X37603000Y-71691250D01*
G75*
G02*
X37872250Y-71422000I269250J0D01*
G01*
G37*
G36*
G01*
X26897750Y-86390500D02*
X25934250Y-86390500D01*
G75*
G02*
X25665000Y-86121250I0J269250D01*
G01*
X25665000Y-85582750D01*
G75*
G02*
X25934250Y-85313500I269250J0D01*
G01*
X26897750Y-85313500D01*
G75*
G02*
X27167000Y-85582750I0J-269250D01*
G01*
X27167000Y-86121250D01*
G75*
G02*
X26897750Y-86390500I-269250J0D01*
G01*
G37*
G36*
G01*
X26897750Y-88265500D02*
X25934250Y-88265500D01*
G75*
G02*
X25665000Y-87996250I0J269250D01*
G01*
X25665000Y-87457750D01*
G75*
G02*
X25934250Y-87188500I269250J0D01*
G01*
X26897750Y-87188500D01*
G75*
G02*
X27167000Y-87457750I0J-269250D01*
G01*
X27167000Y-87996250D01*
G75*
G02*
X26897750Y-88265500I-269250J0D01*
G01*
G37*
G36*
G01*
X29945750Y-77500500D02*
X28982250Y-77500500D01*
G75*
G02*
X28713000Y-77231250I0J269250D01*
G01*
X28713000Y-76692750D01*
G75*
G02*
X28982250Y-76423500I269250J0D01*
G01*
X29945750Y-76423500D01*
G75*
G02*
X30215000Y-76692750I0J-269250D01*
G01*
X30215000Y-77231250D01*
G75*
G02*
X29945750Y-77500500I-269250J0D01*
G01*
G37*
G36*
G01*
X29945750Y-79375500D02*
X28982250Y-79375500D01*
G75*
G02*
X28713000Y-79106250I0J269250D01*
G01*
X28713000Y-78567750D01*
G75*
G02*
X28982250Y-78298500I269250J0D01*
G01*
X29945750Y-78298500D01*
G75*
G02*
X30215000Y-78567750I0J-269250D01*
G01*
X30215000Y-79106250D01*
G75*
G02*
X29945750Y-79375500I-269250J0D01*
G01*
G37*
G36*
G01*
X29945750Y-86390500D02*
X28982250Y-86390500D01*
G75*
G02*
X28713000Y-86121250I0J269250D01*
G01*
X28713000Y-85582750D01*
G75*
G02*
X28982250Y-85313500I269250J0D01*
G01*
X29945750Y-85313500D01*
G75*
G02*
X30215000Y-85582750I0J-269250D01*
G01*
X30215000Y-86121250D01*
G75*
G02*
X29945750Y-86390500I-269250J0D01*
G01*
G37*
G36*
G01*
X29945750Y-88265500D02*
X28982250Y-88265500D01*
G75*
G02*
X28713000Y-87996250I0J269250D01*
G01*
X28713000Y-87457750D01*
G75*
G02*
X28982250Y-87188500I269250J0D01*
G01*
X29945750Y-87188500D01*
G75*
G02*
X30215000Y-87457750I0J-269250D01*
G01*
X30215000Y-87996250D01*
G75*
G02*
X29945750Y-88265500I-269250J0D01*
G01*
G37*
G36*
G01*
X26897750Y-77500500D02*
X25934250Y-77500500D01*
G75*
G02*
X25665000Y-77231250I0J269250D01*
G01*
X25665000Y-76692750D01*
G75*
G02*
X25934250Y-76423500I269250J0D01*
G01*
X26897750Y-76423500D01*
G75*
G02*
X27167000Y-76692750I0J-269250D01*
G01*
X27167000Y-77231250D01*
G75*
G02*
X26897750Y-77500500I-269250J0D01*
G01*
G37*
G36*
G01*
X26897750Y-79375500D02*
X25934250Y-79375500D01*
G75*
G02*
X25665000Y-79106250I0J269250D01*
G01*
X25665000Y-78567750D01*
G75*
G02*
X25934250Y-78298500I269250J0D01*
G01*
X26897750Y-78298500D01*
G75*
G02*
X27167000Y-78567750I0J-269250D01*
G01*
X27167000Y-79106250D01*
G75*
G02*
X26897750Y-79375500I-269250J0D01*
G01*
G37*
G36*
G01*
X41047250Y-77282500D02*
X42010750Y-77282500D01*
G75*
G02*
X42280000Y-77551750I0J-269250D01*
G01*
X42280000Y-78090250D01*
G75*
G02*
X42010750Y-78359500I-269250J0D01*
G01*
X41047250Y-78359500D01*
G75*
G02*
X40778000Y-78090250I0J269250D01*
G01*
X40778000Y-77551750D01*
G75*
G02*
X41047250Y-77282500I269250J0D01*
G01*
G37*
G36*
G01*
X41047250Y-75407500D02*
X42010750Y-75407500D01*
G75*
G02*
X42280000Y-75676750I0J-269250D01*
G01*
X42280000Y-76215250D01*
G75*
G02*
X42010750Y-76484500I-269250J0D01*
G01*
X41047250Y-76484500D01*
G75*
G02*
X40778000Y-76215250I0J269250D01*
G01*
X40778000Y-75676750D01*
G75*
G02*
X41047250Y-75407500I269250J0D01*
G01*
G37*
G36*
G01*
X10186250Y-78679500D02*
X11149750Y-78679500D01*
G75*
G02*
X11419000Y-78948750I0J-269250D01*
G01*
X11419000Y-79487250D01*
G75*
G02*
X11149750Y-79756500I-269250J0D01*
G01*
X10186250Y-79756500D01*
G75*
G02*
X9917000Y-79487250I0J269250D01*
G01*
X9917000Y-78948750D01*
G75*
G02*
X10186250Y-78679500I269250J0D01*
G01*
G37*
G36*
G01*
X10186250Y-76804500D02*
X11149750Y-76804500D01*
G75*
G02*
X11419000Y-77073750I0J-269250D01*
G01*
X11419000Y-77612250D01*
G75*
G02*
X11149750Y-77881500I-269250J0D01*
G01*
X10186250Y-77881500D01*
G75*
G02*
X9917000Y-77612250I0J269250D01*
G01*
X9917000Y-77073750D01*
G75*
G02*
X10186250Y-76804500I269250J0D01*
G01*
G37*
D16*
X96400000Y-41278000D03*
X88900000Y-39878000D03*
X88265000Y-45720000D03*
X86865000Y-53220000D03*
D12*
X62865000Y-27940000D03*
X55245000Y-33020000D03*
X62865000Y-30480000D03*
X55245000Y-30480000D03*
X62865000Y-33020000D03*
G36*
G01*
X54394000Y-28740000D02*
X54394000Y-27140000D01*
G75*
G02*
X54445000Y-27089000I51000J0D01*
G01*
X56045000Y-27089000D01*
G75*
G02*
X56096000Y-27140000I0J-51000D01*
G01*
X56096000Y-28740000D01*
G75*
G02*
X56045000Y-28791000I-51000J0D01*
G01*
X54445000Y-28791000D01*
G75*
G02*
X54394000Y-28740000I0J51000D01*
G01*
G37*
X62865000Y-15240000D03*
X55245000Y-20320000D03*
X62865000Y-17780000D03*
X55245000Y-17780000D03*
X62865000Y-20320000D03*
G36*
G01*
X54394000Y-16040000D02*
X54394000Y-14440000D01*
G75*
G02*
X54445000Y-14389000I51000J0D01*
G01*
X56045000Y-14389000D01*
G75*
G02*
X56096000Y-14440000I0J-51000D01*
G01*
X56096000Y-16040000D01*
G75*
G02*
X56045000Y-16091000I-51000J0D01*
G01*
X54445000Y-16091000D01*
G75*
G02*
X54394000Y-16040000I0J51000D01*
G01*
G37*
G36*
G01*
X45238250Y-83124500D02*
X46201750Y-83124500D01*
G75*
G02*
X46471000Y-83393750I0J-269250D01*
G01*
X46471000Y-83932250D01*
G75*
G02*
X46201750Y-84201500I-269250J0D01*
G01*
X45238250Y-84201500D01*
G75*
G02*
X44969000Y-83932250I0J269250D01*
G01*
X44969000Y-83393750D01*
G75*
G02*
X45238250Y-83124500I269250J0D01*
G01*
G37*
G36*
G01*
X45238250Y-81249500D02*
X46201750Y-81249500D01*
G75*
G02*
X46471000Y-81518750I0J-269250D01*
G01*
X46471000Y-82057250D01*
G75*
G02*
X46201750Y-82326500I-269250J0D01*
G01*
X45238250Y-82326500D01*
G75*
G02*
X44969000Y-82057250I0J269250D01*
G01*
X44969000Y-81518750D01*
G75*
G02*
X45238250Y-81249500I269250J0D01*
G01*
G37*
G36*
G01*
X51334250Y-19624500D02*
X52297750Y-19624500D01*
G75*
G02*
X52567000Y-19893750I0J-269250D01*
G01*
X52567000Y-20432250D01*
G75*
G02*
X52297750Y-20701500I-269250J0D01*
G01*
X51334250Y-20701500D01*
G75*
G02*
X51065000Y-20432250I0J269250D01*
G01*
X51065000Y-19893750D01*
G75*
G02*
X51334250Y-19624500I269250J0D01*
G01*
G37*
G36*
G01*
X51334250Y-17749500D02*
X52297750Y-17749500D01*
G75*
G02*
X52567000Y-18018750I0J-269250D01*
G01*
X52567000Y-18557250D01*
G75*
G02*
X52297750Y-18826500I-269250J0D01*
G01*
X51334250Y-18826500D01*
G75*
G02*
X51065000Y-18557250I0J269250D01*
G01*
X51065000Y-18018750D01*
G75*
G02*
X51334250Y-17749500I269250J0D01*
G01*
G37*
G36*
G01*
X42829500Y-30887250D02*
X42829500Y-31850750D01*
G75*
G02*
X42560250Y-32120000I-269250J0D01*
G01*
X42021750Y-32120000D01*
G75*
G02*
X41752500Y-31850750I0J269250D01*
G01*
X41752500Y-30887250D01*
G75*
G02*
X42021750Y-30618000I269250J0D01*
G01*
X42560250Y-30618000D01*
G75*
G02*
X42829500Y-30887250I0J-269250D01*
G01*
G37*
G36*
G01*
X44704500Y-30887250D02*
X44704500Y-31850750D01*
G75*
G02*
X44435250Y-32120000I-269250J0D01*
G01*
X43896750Y-32120000D01*
G75*
G02*
X43627500Y-31850750I0J269250D01*
G01*
X43627500Y-30887250D01*
G75*
G02*
X43896750Y-30618000I269250J0D01*
G01*
X44435250Y-30618000D01*
G75*
G02*
X44704500Y-30887250I0J-269250D01*
G01*
G37*
G36*
G01*
X13234250Y-82489500D02*
X14197750Y-82489500D01*
G75*
G02*
X14467000Y-82758750I0J-269250D01*
G01*
X14467000Y-83297250D01*
G75*
G02*
X14197750Y-83566500I-269250J0D01*
G01*
X13234250Y-83566500D01*
G75*
G02*
X12965000Y-83297250I0J269250D01*
G01*
X12965000Y-82758750D01*
G75*
G02*
X13234250Y-82489500I269250J0D01*
G01*
G37*
G36*
G01*
X13234250Y-80614500D02*
X14197750Y-80614500D01*
G75*
G02*
X14467000Y-80883750I0J-269250D01*
G01*
X14467000Y-81422250D01*
G75*
G02*
X14197750Y-81691500I-269250J0D01*
G01*
X13234250Y-81691500D01*
G75*
G02*
X12965000Y-81422250I0J269250D01*
G01*
X12965000Y-80883750D01*
G75*
G02*
X13234250Y-80614500I269250J0D01*
G01*
G37*
G36*
G01*
X23849750Y-86390500D02*
X22886250Y-86390500D01*
G75*
G02*
X22617000Y-86121250I0J269250D01*
G01*
X22617000Y-85582750D01*
G75*
G02*
X22886250Y-85313500I269250J0D01*
G01*
X23849750Y-85313500D01*
G75*
G02*
X24119000Y-85582750I0J-269250D01*
G01*
X24119000Y-86121250D01*
G75*
G02*
X23849750Y-86390500I-269250J0D01*
G01*
G37*
G36*
G01*
X23849750Y-88265500D02*
X22886250Y-88265500D01*
G75*
G02*
X22617000Y-87996250I0J269250D01*
G01*
X22617000Y-87457750D01*
G75*
G02*
X22886250Y-87188500I269250J0D01*
G01*
X23849750Y-87188500D01*
G75*
G02*
X24119000Y-87457750I0J-269250D01*
G01*
X24119000Y-87996250D01*
G75*
G02*
X23849750Y-88265500I-269250J0D01*
G01*
G37*
G36*
G01*
X20473250Y-69311500D02*
X21436750Y-69311500D01*
G75*
G02*
X21706000Y-69580750I0J-269250D01*
G01*
X21706000Y-70119250D01*
G75*
G02*
X21436750Y-70388500I-269250J0D01*
G01*
X20473250Y-70388500D01*
G75*
G02*
X20204000Y-70119250I0J269250D01*
G01*
X20204000Y-69580750D01*
G75*
G02*
X20473250Y-69311500I269250J0D01*
G01*
G37*
G36*
G01*
X20473250Y-67436500D02*
X21436750Y-67436500D01*
G75*
G02*
X21706000Y-67705750I0J-269250D01*
G01*
X21706000Y-68244250D01*
G75*
G02*
X21436750Y-68513500I-269250J0D01*
G01*
X20473250Y-68513500D01*
G75*
G02*
X20204000Y-68244250I0J269250D01*
G01*
X20204000Y-67705750D01*
G75*
G02*
X20473250Y-67436500I269250J0D01*
G01*
G37*
G36*
G01*
X47721500Y-28421750D02*
X47721500Y-27458250D01*
G75*
G02*
X47990750Y-27189000I269250J0D01*
G01*
X48529250Y-27189000D01*
G75*
G02*
X48798500Y-27458250I0J-269250D01*
G01*
X48798500Y-28421750D01*
G75*
G02*
X48529250Y-28691000I-269250J0D01*
G01*
X47990750Y-28691000D01*
G75*
G02*
X47721500Y-28421750I0J269250D01*
G01*
G37*
G36*
G01*
X49596500Y-28421750D02*
X49596500Y-27458250D01*
G75*
G02*
X49865750Y-27189000I269250J0D01*
G01*
X50404250Y-27189000D01*
G75*
G02*
X50673500Y-27458250I0J-269250D01*
G01*
X50673500Y-28421750D01*
G75*
G02*
X50404250Y-28691000I-269250J0D01*
G01*
X49865750Y-28691000D01*
G75*
G02*
X49596500Y-28421750I0J269250D01*
G01*
G37*
G36*
G01*
X41428250Y-83124500D02*
X42391750Y-83124500D01*
G75*
G02*
X42661000Y-83393750I0J-269250D01*
G01*
X42661000Y-83932250D01*
G75*
G02*
X42391750Y-84201500I-269250J0D01*
G01*
X41428250Y-84201500D01*
G75*
G02*
X41159000Y-83932250I0J269250D01*
G01*
X41159000Y-83393750D01*
G75*
G02*
X41428250Y-83124500I269250J0D01*
G01*
G37*
G36*
G01*
X41428250Y-81249500D02*
X42391750Y-81249500D01*
G75*
G02*
X42661000Y-81518750I0J-269250D01*
G01*
X42661000Y-82057250D01*
G75*
G02*
X42391750Y-82326500I-269250J0D01*
G01*
X41428250Y-82326500D01*
G75*
G02*
X41159000Y-82057250I0J269250D01*
G01*
X41159000Y-81518750D01*
G75*
G02*
X41428250Y-81249500I269250J0D01*
G01*
G37*
G36*
G01*
X10186250Y-70424500D02*
X11149750Y-70424500D01*
G75*
G02*
X11419000Y-70693750I0J-269250D01*
G01*
X11419000Y-71232250D01*
G75*
G02*
X11149750Y-71501500I-269250J0D01*
G01*
X10186250Y-71501500D01*
G75*
G02*
X9917000Y-71232250I0J269250D01*
G01*
X9917000Y-70693750D01*
G75*
G02*
X10186250Y-70424500I269250J0D01*
G01*
G37*
G36*
G01*
X10186250Y-68549500D02*
X11149750Y-68549500D01*
G75*
G02*
X11419000Y-68818750I0J-269250D01*
G01*
X11419000Y-69357250D01*
G75*
G02*
X11149750Y-69626500I-269250J0D01*
G01*
X10186250Y-69626500D01*
G75*
G02*
X9917000Y-69357250I0J269250D01*
G01*
X9917000Y-68818750D01*
G75*
G02*
X10186250Y-68549500I269250J0D01*
G01*
G37*
G36*
G01*
X13234250Y-70424500D02*
X14197750Y-70424500D01*
G75*
G02*
X14467000Y-70693750I0J-269250D01*
G01*
X14467000Y-71232250D01*
G75*
G02*
X14197750Y-71501500I-269250J0D01*
G01*
X13234250Y-71501500D01*
G75*
G02*
X12965000Y-71232250I0J269250D01*
G01*
X12965000Y-70693750D01*
G75*
G02*
X13234250Y-70424500I269250J0D01*
G01*
G37*
G36*
G01*
X13234250Y-68549500D02*
X14197750Y-68549500D01*
G75*
G02*
X14467000Y-68818750I0J-269250D01*
G01*
X14467000Y-69357250D01*
G75*
G02*
X14197750Y-69626500I-269250J0D01*
G01*
X13234250Y-69626500D01*
G75*
G02*
X12965000Y-69357250I0J269250D01*
G01*
X12965000Y-68818750D01*
G75*
G02*
X13234250Y-68549500I269250J0D01*
G01*
G37*
G36*
G01*
X23648250Y-69281500D02*
X24611750Y-69281500D01*
G75*
G02*
X24881000Y-69550750I0J-269250D01*
G01*
X24881000Y-70089250D01*
G75*
G02*
X24611750Y-70358500I-269250J0D01*
G01*
X23648250Y-70358500D01*
G75*
G02*
X23379000Y-70089250I0J269250D01*
G01*
X23379000Y-69550750D01*
G75*
G02*
X23648250Y-69281500I269250J0D01*
G01*
G37*
G36*
G01*
X23648250Y-67406500D02*
X24611750Y-67406500D01*
G75*
G02*
X24881000Y-67675750I0J-269250D01*
G01*
X24881000Y-68214250D01*
G75*
G02*
X24611750Y-68483500I-269250J0D01*
G01*
X23648250Y-68483500D01*
G75*
G02*
X23379000Y-68214250I0J269250D01*
G01*
X23379000Y-67675750D01*
G75*
G02*
X23648250Y-67406500I269250J0D01*
G01*
G37*
G36*
G01*
X37618250Y-87442500D02*
X38581750Y-87442500D01*
G75*
G02*
X38851000Y-87711750I0J-269250D01*
G01*
X38851000Y-88250250D01*
G75*
G02*
X38581750Y-88519500I-269250J0D01*
G01*
X37618250Y-88519500D01*
G75*
G02*
X37349000Y-88250250I0J269250D01*
G01*
X37349000Y-87711750D01*
G75*
G02*
X37618250Y-87442500I269250J0D01*
G01*
G37*
G36*
G01*
X37618250Y-85567500D02*
X38581750Y-85567500D01*
G75*
G02*
X38851000Y-85836750I0J-269250D01*
G01*
X38851000Y-86375250D01*
G75*
G02*
X38581750Y-86644500I-269250J0D01*
G01*
X37618250Y-86644500D01*
G75*
G02*
X37349000Y-86375250I0J269250D01*
G01*
X37349000Y-85836750D01*
G75*
G02*
X37618250Y-85567500I269250J0D01*
G01*
G37*
G36*
G01*
X23849750Y-77500500D02*
X22886250Y-77500500D01*
G75*
G02*
X22617000Y-77231250I0J269250D01*
G01*
X22617000Y-76692750D01*
G75*
G02*
X22886250Y-76423500I269250J0D01*
G01*
X23849750Y-76423500D01*
G75*
G02*
X24119000Y-76692750I0J-269250D01*
G01*
X24119000Y-77231250D01*
G75*
G02*
X23849750Y-77500500I-269250J0D01*
G01*
G37*
G36*
G01*
X23849750Y-79375500D02*
X22886250Y-79375500D01*
G75*
G02*
X22617000Y-79106250I0J269250D01*
G01*
X22617000Y-78567750D01*
G75*
G02*
X22886250Y-78298500I269250J0D01*
G01*
X23849750Y-78298500D01*
G75*
G02*
X24119000Y-78567750I0J-269250D01*
G01*
X24119000Y-79106250D01*
G75*
G02*
X23849750Y-79375500I-269250J0D01*
G01*
G37*
G36*
G01*
X32993750Y-77500500D02*
X32030250Y-77500500D01*
G75*
G02*
X31761000Y-77231250I0J269250D01*
G01*
X31761000Y-76692750D01*
G75*
G02*
X32030250Y-76423500I269250J0D01*
G01*
X32993750Y-76423500D01*
G75*
G02*
X33263000Y-76692750I0J-269250D01*
G01*
X33263000Y-77231250D01*
G75*
G02*
X32993750Y-77500500I-269250J0D01*
G01*
G37*
G36*
G01*
X32993750Y-79375500D02*
X32030250Y-79375500D01*
G75*
G02*
X31761000Y-79106250I0J269250D01*
G01*
X31761000Y-78567750D01*
G75*
G02*
X32030250Y-78298500I269250J0D01*
G01*
X32993750Y-78298500D01*
G75*
G02*
X33263000Y-78567750I0J-269250D01*
G01*
X33263000Y-79106250D01*
G75*
G02*
X32993750Y-79375500I-269250J0D01*
G01*
G37*
G36*
G01*
X37872250Y-77282500D02*
X38835750Y-77282500D01*
G75*
G02*
X39105000Y-77551750I0J-269250D01*
G01*
X39105000Y-78090250D01*
G75*
G02*
X38835750Y-78359500I-269250J0D01*
G01*
X37872250Y-78359500D01*
G75*
G02*
X37603000Y-78090250I0J269250D01*
G01*
X37603000Y-77551750D01*
G75*
G02*
X37872250Y-77282500I269250J0D01*
G01*
G37*
G36*
G01*
X37872250Y-75407500D02*
X38835750Y-75407500D01*
G75*
G02*
X39105000Y-75676750I0J-269250D01*
G01*
X39105000Y-76215250D01*
G75*
G02*
X38835750Y-76484500I-269250J0D01*
G01*
X37872250Y-76484500D01*
G75*
G02*
X37603000Y-76215250I0J269250D01*
G01*
X37603000Y-75676750D01*
G75*
G02*
X37872250Y-75407500I269250J0D01*
G01*
G37*
G36*
G01*
X51334250Y-32324500D02*
X52297750Y-32324500D01*
G75*
G02*
X52567000Y-32593750I0J-269250D01*
G01*
X52567000Y-33132250D01*
G75*
G02*
X52297750Y-33401500I-269250J0D01*
G01*
X51334250Y-33401500D01*
G75*
G02*
X51065000Y-33132250I0J269250D01*
G01*
X51065000Y-32593750D01*
G75*
G02*
X51334250Y-32324500I269250J0D01*
G01*
G37*
G36*
G01*
X51334250Y-30449500D02*
X52297750Y-30449500D01*
G75*
G02*
X52567000Y-30718750I0J-269250D01*
G01*
X52567000Y-31257250D01*
G75*
G02*
X52297750Y-31526500I-269250J0D01*
G01*
X51334250Y-31526500D01*
G75*
G02*
X51065000Y-31257250I0J269250D01*
G01*
X51065000Y-30718750D01*
G75*
G02*
X51334250Y-30449500I269250J0D01*
G01*
G37*
G36*
G01*
X49596500Y-3021750D02*
X49596500Y-2058250D01*
G75*
G02*
X49865750Y-1789000I269250J0D01*
G01*
X50404250Y-1789000D01*
G75*
G02*
X50673500Y-2058250I0J-269250D01*
G01*
X50673500Y-3021750D01*
G75*
G02*
X50404250Y-3291000I-269250J0D01*
G01*
X49865750Y-3291000D01*
G75*
G02*
X49596500Y-3021750I0J269250D01*
G01*
G37*
G36*
G01*
X47721500Y-3021750D02*
X47721500Y-2058250D01*
G75*
G02*
X47990750Y-1789000I269250J0D01*
G01*
X48529250Y-1789000D01*
G75*
G02*
X48798500Y-2058250I0J-269250D01*
G01*
X48798500Y-3021750D01*
G75*
G02*
X48529250Y-3291000I-269250J0D01*
G01*
X47990750Y-3291000D01*
G75*
G02*
X47721500Y-3021750I0J269250D01*
G01*
G37*
G36*
G01*
X48286250Y-32324500D02*
X49249750Y-32324500D01*
G75*
G02*
X49519000Y-32593750I0J-269250D01*
G01*
X49519000Y-33132250D01*
G75*
G02*
X49249750Y-33401500I-269250J0D01*
G01*
X48286250Y-33401500D01*
G75*
G02*
X48017000Y-33132250I0J269250D01*
G01*
X48017000Y-32593750D01*
G75*
G02*
X48286250Y-32324500I269250J0D01*
G01*
G37*
G36*
G01*
X48286250Y-30449500D02*
X49249750Y-30449500D01*
G75*
G02*
X49519000Y-30718750I0J-269250D01*
G01*
X49519000Y-31257250D01*
G75*
G02*
X49249750Y-31526500I-269250J0D01*
G01*
X48286250Y-31526500D01*
G75*
G02*
X48017000Y-31257250I0J269250D01*
G01*
X48017000Y-30718750D01*
G75*
G02*
X48286250Y-30449500I269250J0D01*
G01*
G37*
G36*
G01*
X48286250Y-19624500D02*
X49249750Y-19624500D01*
G75*
G02*
X49519000Y-19893750I0J-269250D01*
G01*
X49519000Y-20432250D01*
G75*
G02*
X49249750Y-20701500I-269250J0D01*
G01*
X48286250Y-20701500D01*
G75*
G02*
X48017000Y-20432250I0J269250D01*
G01*
X48017000Y-19893750D01*
G75*
G02*
X48286250Y-19624500I269250J0D01*
G01*
G37*
G36*
G01*
X48286250Y-17749500D02*
X49249750Y-17749500D01*
G75*
G02*
X49519000Y-18018750I0J-269250D01*
G01*
X49519000Y-18557250D01*
G75*
G02*
X49249750Y-18826500I-269250J0D01*
G01*
X48286250Y-18826500D01*
G75*
G02*
X48017000Y-18557250I0J269250D01*
G01*
X48017000Y-18018750D01*
G75*
G02*
X48286250Y-17749500I269250J0D01*
G01*
G37*
G36*
G01*
X37618250Y-83124500D02*
X38581750Y-83124500D01*
G75*
G02*
X38851000Y-83393750I0J-269250D01*
G01*
X38851000Y-83932250D01*
G75*
G02*
X38581750Y-84201500I-269250J0D01*
G01*
X37618250Y-84201500D01*
G75*
G02*
X37349000Y-83932250I0J269250D01*
G01*
X37349000Y-83393750D01*
G75*
G02*
X37618250Y-83124500I269250J0D01*
G01*
G37*
G36*
G01*
X37618250Y-81249500D02*
X38581750Y-81249500D01*
G75*
G02*
X38851000Y-81518750I0J-269250D01*
G01*
X38851000Y-82057250D01*
G75*
G02*
X38581750Y-82326500I-269250J0D01*
G01*
X37618250Y-82326500D01*
G75*
G02*
X37349000Y-82057250I0J269250D01*
G01*
X37349000Y-81518750D01*
G75*
G02*
X37618250Y-81249500I269250J0D01*
G01*
G37*
G36*
G01*
X49048250Y-83124500D02*
X50011750Y-83124500D01*
G75*
G02*
X50281000Y-83393750I0J-269250D01*
G01*
X50281000Y-83932250D01*
G75*
G02*
X50011750Y-84201500I-269250J0D01*
G01*
X49048250Y-84201500D01*
G75*
G02*
X48779000Y-83932250I0J269250D01*
G01*
X48779000Y-83393750D01*
G75*
G02*
X49048250Y-83124500I269250J0D01*
G01*
G37*
G36*
G01*
X49048250Y-81249500D02*
X50011750Y-81249500D01*
G75*
G02*
X50281000Y-81518750I0J-269250D01*
G01*
X50281000Y-82057250D01*
G75*
G02*
X50011750Y-82326500I-269250J0D01*
G01*
X49048250Y-82326500D01*
G75*
G02*
X48779000Y-82057250I0J269250D01*
G01*
X48779000Y-81518750D01*
G75*
G02*
X49048250Y-81249500I269250J0D01*
G01*
G37*
G36*
G01*
X17499750Y-86390500D02*
X16536250Y-86390500D01*
G75*
G02*
X16267000Y-86121250I0J269250D01*
G01*
X16267000Y-85582750D01*
G75*
G02*
X16536250Y-85313500I269250J0D01*
G01*
X17499750Y-85313500D01*
G75*
G02*
X17769000Y-85582750I0J-269250D01*
G01*
X17769000Y-86121250D01*
G75*
G02*
X17499750Y-86390500I-269250J0D01*
G01*
G37*
G36*
G01*
X17499750Y-88265500D02*
X16536250Y-88265500D01*
G75*
G02*
X16267000Y-87996250I0J269250D01*
G01*
X16267000Y-87457750D01*
G75*
G02*
X16536250Y-87188500I269250J0D01*
G01*
X17499750Y-87188500D01*
G75*
G02*
X17769000Y-87457750I0J-269250D01*
G01*
X17769000Y-87996250D01*
G75*
G02*
X17499750Y-88265500I-269250J0D01*
G01*
G37*
G36*
G01*
X13234250Y-78679500D02*
X14197750Y-78679500D01*
G75*
G02*
X14467000Y-78948750I0J-269250D01*
G01*
X14467000Y-79487250D01*
G75*
G02*
X14197750Y-79756500I-269250J0D01*
G01*
X13234250Y-79756500D01*
G75*
G02*
X12965000Y-79487250I0J269250D01*
G01*
X12965000Y-78948750D01*
G75*
G02*
X13234250Y-78679500I269250J0D01*
G01*
G37*
G36*
G01*
X13234250Y-76804500D02*
X14197750Y-76804500D01*
G75*
G02*
X14467000Y-77073750I0J-269250D01*
G01*
X14467000Y-77612250D01*
G75*
G02*
X14197750Y-77881500I-269250J0D01*
G01*
X13234250Y-77881500D01*
G75*
G02*
X12965000Y-77612250I0J269250D01*
G01*
X12965000Y-77073750D01*
G75*
G02*
X13234250Y-76804500I269250J0D01*
G01*
G37*
G36*
G01*
X43627500Y-28421750D02*
X43627500Y-27458250D01*
G75*
G02*
X43896750Y-27189000I269250J0D01*
G01*
X44435250Y-27189000D01*
G75*
G02*
X44704500Y-27458250I0J-269250D01*
G01*
X44704500Y-28421750D01*
G75*
G02*
X44435250Y-28691000I-269250J0D01*
G01*
X43896750Y-28691000D01*
G75*
G02*
X43627500Y-28421750I0J269250D01*
G01*
G37*
G36*
G01*
X41752500Y-28421750D02*
X41752500Y-27458250D01*
G75*
G02*
X42021750Y-27189000I269250J0D01*
G01*
X42560250Y-27189000D01*
G75*
G02*
X42829500Y-27458250I0J-269250D01*
G01*
X42829500Y-28421750D01*
G75*
G02*
X42560250Y-28691000I-269250J0D01*
G01*
X42021750Y-28691000D01*
G75*
G02*
X41752500Y-28421750I0J269250D01*
G01*
G37*
G36*
G01*
X13234250Y-74264500D02*
X14197750Y-74264500D01*
G75*
G02*
X14467000Y-74533750I0J-269250D01*
G01*
X14467000Y-75072250D01*
G75*
G02*
X14197750Y-75341500I-269250J0D01*
G01*
X13234250Y-75341500D01*
G75*
G02*
X12965000Y-75072250I0J269250D01*
G01*
X12965000Y-74533750D01*
G75*
G02*
X13234250Y-74264500I269250J0D01*
G01*
G37*
G36*
G01*
X13234250Y-72389500D02*
X14197750Y-72389500D01*
G75*
G02*
X14467000Y-72658750I0J-269250D01*
G01*
X14467000Y-73197250D01*
G75*
G02*
X14197750Y-73466500I-269250J0D01*
G01*
X13234250Y-73466500D01*
G75*
G02*
X12965000Y-73197250I0J269250D01*
G01*
X12965000Y-72658750D01*
G75*
G02*
X13234250Y-72389500I269250J0D01*
G01*
G37*
G36*
G01*
X10186250Y-82489500D02*
X11149750Y-82489500D01*
G75*
G02*
X11419000Y-82758750I0J-269250D01*
G01*
X11419000Y-83297250D01*
G75*
G02*
X11149750Y-83566500I-269250J0D01*
G01*
X10186250Y-83566500D01*
G75*
G02*
X9917000Y-83297250I0J269250D01*
G01*
X9917000Y-82758750D01*
G75*
G02*
X10186250Y-82489500I269250J0D01*
G01*
G37*
G36*
G01*
X10186250Y-80614500D02*
X11149750Y-80614500D01*
G75*
G02*
X11419000Y-80883750I0J-269250D01*
G01*
X11419000Y-81422250D01*
G75*
G02*
X11149750Y-81691500I-269250J0D01*
G01*
X10186250Y-81691500D01*
G75*
G02*
X9917000Y-81422250I0J269250D01*
G01*
X9917000Y-80883750D01*
G75*
G02*
X10186250Y-80614500I269250J0D01*
G01*
G37*
G36*
G01*
X93091001Y-85487000D02*
X92836999Y-85487000D01*
G75*
G02*
X92786000Y-85436001I0J50999D01*
G01*
X92786000Y-84235999D01*
G75*
G02*
X92836999Y-84185000I50999J0D01*
G01*
X93091001Y-84185000D01*
G75*
G02*
X93142000Y-84235999I0J-50999D01*
G01*
X93142000Y-85436001D01*
G75*
G02*
X93091001Y-85487000I-50999J0D01*
G01*
G37*
G36*
G01*
X92710001Y-86347500D02*
X92455999Y-86347500D01*
G75*
G02*
X92405000Y-86296501I0J50999D01*
G01*
X92405000Y-85153499D01*
G75*
G02*
X92455999Y-85102500I50999J0D01*
G01*
X92710001Y-85102500D01*
G75*
G02*
X92761000Y-85153499I0J-50999D01*
G01*
X92761000Y-86296501D01*
G75*
G02*
X92710001Y-86347500I-50999J0D01*
G01*
G37*
G36*
G01*
X93472000Y-86538000D02*
X92456000Y-86538000D01*
G75*
G02*
X92405000Y-86487000I0J51000D01*
G01*
X92405000Y-85725000D01*
G75*
G02*
X92456000Y-85674000I51000J0D01*
G01*
X93472000Y-85674000D01*
G75*
G02*
X93523000Y-85725000I0J-51000D01*
G01*
X93523000Y-86487000D01*
G75*
G02*
X93472000Y-86538000I-51000J0D01*
G01*
G37*
G36*
G01*
X93472001Y-86347500D02*
X93217999Y-86347500D01*
G75*
G02*
X93167000Y-86296501I0J50999D01*
G01*
X93167000Y-85153499D01*
G75*
G02*
X93217999Y-85102500I50999J0D01*
G01*
X93472001Y-85102500D01*
G75*
G02*
X93523000Y-85153499I0J-50999D01*
G01*
X93523000Y-86296501D01*
G75*
G02*
X93472001Y-86347500I-50999J0D01*
G01*
G37*
G36*
G01*
X93472000Y-85014000D02*
X92456000Y-85014000D01*
G75*
G02*
X92405000Y-84963000I0J51000D01*
G01*
X92405000Y-84201000D01*
G75*
G02*
X92456000Y-84150000I51000J0D01*
G01*
X93472000Y-84150000D01*
G75*
G02*
X93523000Y-84201000I0J-51000D01*
G01*
X93523000Y-84963000D01*
G75*
G02*
X93472000Y-85014000I-51000J0D01*
G01*
G37*
G36*
G01*
X82322250Y-86172500D02*
X83285750Y-86172500D01*
G75*
G02*
X83555000Y-86441750I0J-269250D01*
G01*
X83555000Y-86980250D01*
G75*
G02*
X83285750Y-87249500I-269250J0D01*
G01*
X82322250Y-87249500D01*
G75*
G02*
X82053000Y-86980250I0J269250D01*
G01*
X82053000Y-86441750D01*
G75*
G02*
X82322250Y-86172500I269250J0D01*
G01*
G37*
G36*
G01*
X82322250Y-84297500D02*
X83285750Y-84297500D01*
G75*
G02*
X83555000Y-84566750I0J-269250D01*
G01*
X83555000Y-85105250D01*
G75*
G02*
X83285750Y-85374500I-269250J0D01*
G01*
X82322250Y-85374500D01*
G75*
G02*
X82053000Y-85105250I0J269250D01*
G01*
X82053000Y-84566750D01*
G75*
G02*
X82322250Y-84297500I269250J0D01*
G01*
G37*
G36*
G01*
X82322250Y-82187000D02*
X83285750Y-82187000D01*
G75*
G02*
X83555000Y-82456250I0J-269250D01*
G01*
X83555000Y-82994750D01*
G75*
G02*
X83285750Y-83264000I-269250J0D01*
G01*
X82322250Y-83264000D01*
G75*
G02*
X82053000Y-82994750I0J269250D01*
G01*
X82053000Y-82456250D01*
G75*
G02*
X82322250Y-82187000I269250J0D01*
G01*
G37*
G36*
G01*
X82322250Y-80312000D02*
X83285750Y-80312000D01*
G75*
G02*
X83555000Y-80581250I0J-269250D01*
G01*
X83555000Y-81119750D01*
G75*
G02*
X83285750Y-81389000I-269250J0D01*
G01*
X82322250Y-81389000D01*
G75*
G02*
X82053000Y-81119750I0J269250D01*
G01*
X82053000Y-80581250D01*
G75*
G02*
X82322250Y-80312000I269250J0D01*
G01*
G37*
G36*
G01*
X48286250Y-6924500D02*
X49249750Y-6924500D01*
G75*
G02*
X49519000Y-7193750I0J-269250D01*
G01*
X49519000Y-7732250D01*
G75*
G02*
X49249750Y-8001500I-269250J0D01*
G01*
X48286250Y-8001500D01*
G75*
G02*
X48017000Y-7732250I0J269250D01*
G01*
X48017000Y-7193750D01*
G75*
G02*
X48286250Y-6924500I269250J0D01*
G01*
G37*
G36*
G01*
X48286250Y-5049500D02*
X49249750Y-5049500D01*
G75*
G02*
X49519000Y-5318750I0J-269250D01*
G01*
X49519000Y-5857250D01*
G75*
G02*
X49249750Y-6126500I-269250J0D01*
G01*
X48286250Y-6126500D01*
G75*
G02*
X48017000Y-5857250I0J269250D01*
G01*
X48017000Y-5318750D01*
G75*
G02*
X48286250Y-5049500I269250J0D01*
G01*
G37*
D11*
X84836000Y-10635000D03*
X84836000Y-635000D03*
X70612000Y-8255000D03*
X70612000Y-755000D03*
X84836000Y-23462000D03*
X84836000Y-13462000D03*
X70612000Y-13455000D03*
X70612000Y-20955000D03*
X84836000Y-26670000D03*
X84836000Y-36670000D03*
X70612000Y-33655000D03*
X70612000Y-26155000D03*
G36*
G01*
X10768750Y-87503500D02*
X9805250Y-87503500D01*
G75*
G02*
X9536000Y-87234250I0J269250D01*
G01*
X9536000Y-86695750D01*
G75*
G02*
X9805250Y-86426500I269250J0D01*
G01*
X10768750Y-86426500D01*
G75*
G02*
X11038000Y-86695750I0J-269250D01*
G01*
X11038000Y-87234250D01*
G75*
G02*
X10768750Y-87503500I-269250J0D01*
G01*
G37*
G36*
G01*
X10768750Y-85628500D02*
X9805250Y-85628500D01*
G75*
G02*
X9536000Y-85359250I0J269250D01*
G01*
X9536000Y-84820750D01*
G75*
G02*
X9805250Y-84551500I269250J0D01*
G01*
X10768750Y-84551500D01*
G75*
G02*
X11038000Y-84820750I0J-269250D01*
G01*
X11038000Y-85359250D01*
G75*
G02*
X10768750Y-85628500I-269250J0D01*
G01*
G37*
G36*
G01*
X83285750Y-94518500D02*
X82322250Y-94518500D01*
G75*
G02*
X82053000Y-94249250I0J269250D01*
G01*
X82053000Y-93710750D01*
G75*
G02*
X82322250Y-93441500I269250J0D01*
G01*
X83285750Y-93441500D01*
G75*
G02*
X83555000Y-93710750I0J-269250D01*
G01*
X83555000Y-94249250D01*
G75*
G02*
X83285750Y-94518500I-269250J0D01*
G01*
G37*
G36*
G01*
X83285750Y-96393500D02*
X82322250Y-96393500D01*
G75*
G02*
X82053000Y-96124250I0J269250D01*
G01*
X82053000Y-95585750D01*
G75*
G02*
X82322250Y-95316500I269250J0D01*
G01*
X83285750Y-95316500D01*
G75*
G02*
X83555000Y-95585750I0J-269250D01*
G01*
X83555000Y-96124250D01*
G75*
G02*
X83285750Y-96393500I-269250J0D01*
G01*
G37*
G36*
G01*
X83285750Y-90581500D02*
X82322250Y-90581500D01*
G75*
G02*
X82053000Y-90312250I0J269250D01*
G01*
X82053000Y-89773750D01*
G75*
G02*
X82322250Y-89504500I269250J0D01*
G01*
X83285750Y-89504500D01*
G75*
G02*
X83555000Y-89773750I0J-269250D01*
G01*
X83555000Y-90312250D01*
G75*
G02*
X83285750Y-90581500I-269250J0D01*
G01*
G37*
G36*
G01*
X83285750Y-92456500D02*
X82322250Y-92456500D01*
G75*
G02*
X82053000Y-92187250I0J269250D01*
G01*
X82053000Y-91648750D01*
G75*
G02*
X82322250Y-91379500I269250J0D01*
G01*
X83285750Y-91379500D01*
G75*
G02*
X83555000Y-91648750I0J-269250D01*
G01*
X83555000Y-92187250D01*
G75*
G02*
X83285750Y-92456500I-269250J0D01*
G01*
G37*
G36*
G01*
X44057000Y-73748000D02*
X44057000Y-72048000D01*
G75*
G02*
X44108000Y-71997000I51000J0D01*
G01*
X45808000Y-71997000D01*
G75*
G02*
X45859000Y-72048000I0J-51000D01*
G01*
X45859000Y-73748000D01*
G75*
G02*
X45808000Y-73799000I-51000J0D01*
G01*
X44108000Y-73799000D01*
G75*
G02*
X44057000Y-73748000I0J51000D01*
G01*
G37*
D17*
X44958000Y-75438000D03*
X44958000Y-77978000D03*
G36*
G01*
X53366250Y-76169500D02*
X54329750Y-76169500D01*
G75*
G02*
X54599000Y-76438750I0J-269250D01*
G01*
X54599000Y-76977250D01*
G75*
G02*
X54329750Y-77246500I-269250J0D01*
G01*
X53366250Y-77246500D01*
G75*
G02*
X53097000Y-76977250I0J269250D01*
G01*
X53097000Y-76438750D01*
G75*
G02*
X53366250Y-76169500I269250J0D01*
G01*
G37*
G36*
G01*
X53366250Y-78044500D02*
X54329750Y-78044500D01*
G75*
G02*
X54599000Y-78313750I0J-269250D01*
G01*
X54599000Y-78852250D01*
G75*
G02*
X54329750Y-79121500I-269250J0D01*
G01*
X53366250Y-79121500D01*
G75*
G02*
X53097000Y-78852250I0J269250D01*
G01*
X53097000Y-78313750D01*
G75*
G02*
X53366250Y-78044500I269250J0D01*
G01*
G37*
G36*
G01*
X56896000Y-73203000D02*
X55880000Y-73203000D01*
G75*
G02*
X55829000Y-73152000I0J51000D01*
G01*
X55829000Y-72390000D01*
G75*
G02*
X55880000Y-72339000I51000J0D01*
G01*
X56896000Y-72339000D01*
G75*
G02*
X56947000Y-72390000I0J-51000D01*
G01*
X56947000Y-73152000D01*
G75*
G02*
X56896000Y-73203000I-51000J0D01*
G01*
G37*
G36*
G01*
X56896001Y-74536500D02*
X56641999Y-74536500D01*
G75*
G02*
X56591000Y-74485501I0J50999D01*
G01*
X56591000Y-73342499D01*
G75*
G02*
X56641999Y-73291500I50999J0D01*
G01*
X56896001Y-73291500D01*
G75*
G02*
X56947000Y-73342499I0J-50999D01*
G01*
X56947000Y-74485501D01*
G75*
G02*
X56896001Y-74536500I-50999J0D01*
G01*
G37*
G36*
G01*
X56896000Y-74727000D02*
X55880000Y-74727000D01*
G75*
G02*
X55829000Y-74676000I0J51000D01*
G01*
X55829000Y-73914000D01*
G75*
G02*
X55880000Y-73863000I51000J0D01*
G01*
X56896000Y-73863000D01*
G75*
G02*
X56947000Y-73914000I0J-51000D01*
G01*
X56947000Y-74676000D01*
G75*
G02*
X56896000Y-74727000I-51000J0D01*
G01*
G37*
G36*
G01*
X56134001Y-74536500D02*
X55879999Y-74536500D01*
G75*
G02*
X55829000Y-74485501I0J50999D01*
G01*
X55829000Y-73342499D01*
G75*
G02*
X55879999Y-73291500I50999J0D01*
G01*
X56134001Y-73291500D01*
G75*
G02*
X56185000Y-73342499I0J-50999D01*
G01*
X56185000Y-74485501D01*
G75*
G02*
X56134001Y-74536500I-50999J0D01*
G01*
G37*
G36*
G01*
X56515001Y-73676000D02*
X56260999Y-73676000D01*
G75*
G02*
X56210000Y-73625001I0J50999D01*
G01*
X56210000Y-72424999D01*
G75*
G02*
X56260999Y-72374000I50999J0D01*
G01*
X56515001Y-72374000D01*
G75*
G02*
X56566000Y-72424999I0J-50999D01*
G01*
X56566000Y-73625001D01*
G75*
G02*
X56515001Y-73676000I-50999J0D01*
G01*
G37*
G36*
G01*
X53366250Y-71597500D02*
X54329750Y-71597500D01*
G75*
G02*
X54599000Y-71866750I0J-269250D01*
G01*
X54599000Y-72405250D01*
G75*
G02*
X54329750Y-72674500I-269250J0D01*
G01*
X53366250Y-72674500D01*
G75*
G02*
X53097000Y-72405250I0J269250D01*
G01*
X53097000Y-71866750D01*
G75*
G02*
X53366250Y-71597500I269250J0D01*
G01*
G37*
G36*
G01*
X53366250Y-73472500D02*
X54329750Y-73472500D01*
G75*
G02*
X54599000Y-73741750I0J-269250D01*
G01*
X54599000Y-74280250D01*
G75*
G02*
X54329750Y-74549500I-269250J0D01*
G01*
X53366250Y-74549500D01*
G75*
G02*
X53097000Y-74280250I0J269250D01*
G01*
X53097000Y-73741750D01*
G75*
G02*
X53366250Y-73472500I269250J0D01*
G01*
G37*
G36*
G01*
X55906250Y-78044500D02*
X56869750Y-78044500D01*
G75*
G02*
X57139000Y-78313750I0J-269250D01*
G01*
X57139000Y-78852250D01*
G75*
G02*
X56869750Y-79121500I-269250J0D01*
G01*
X55906250Y-79121500D01*
G75*
G02*
X55637000Y-78852250I0J269250D01*
G01*
X55637000Y-78313750D01*
G75*
G02*
X55906250Y-78044500I269250J0D01*
G01*
G37*
G36*
G01*
X55906250Y-76169500D02*
X56869750Y-76169500D01*
G75*
G02*
X57139000Y-76438750I0J-269250D01*
G01*
X57139000Y-76977250D01*
G75*
G02*
X56869750Y-77246500I-269250J0D01*
G01*
X55906250Y-77246500D01*
G75*
G02*
X55637000Y-76977250I0J269250D01*
G01*
X55637000Y-76438750D01*
G75*
G02*
X55906250Y-76169500I269250J0D01*
G01*
G37*
G36*
G01*
X49010000Y-73748000D02*
X49010000Y-72048000D01*
G75*
G02*
X49061000Y-71997000I51000J0D01*
G01*
X50761000Y-71997000D01*
G75*
G02*
X50812000Y-72048000I0J-51000D01*
G01*
X50812000Y-73748000D01*
G75*
G02*
X50761000Y-73799000I-51000J0D01*
G01*
X49061000Y-73799000D01*
G75*
G02*
X49010000Y-73748000I0J51000D01*
G01*
G37*
X49911000Y-75438000D03*
X49911000Y-77978000D03*
X77216000Y-85852000D03*
X77216000Y-83312000D03*
G36*
G01*
X76315000Y-81622000D02*
X76315000Y-79922000D01*
G75*
G02*
X76366000Y-79871000I51000J0D01*
G01*
X78066000Y-79871000D01*
G75*
G02*
X78117000Y-79922000I0J-51000D01*
G01*
X78117000Y-81622000D01*
G75*
G02*
X78066000Y-81673000I-51000J0D01*
G01*
X76366000Y-81673000D01*
G75*
G02*
X76315000Y-81622000I0J51000D01*
G01*
G37*
G36*
G01*
X95111000Y-79590000D02*
X95111000Y-77890000D01*
G75*
G02*
X95162000Y-77839000I51000J0D01*
G01*
X96862000Y-77839000D01*
G75*
G02*
X96913000Y-77890000I0J-51000D01*
G01*
X96913000Y-79590000D01*
G75*
G02*
X96862000Y-79641000I-51000J0D01*
G01*
X95162000Y-79641000D01*
G75*
G02*
X95111000Y-79590000I0J51000D01*
G01*
G37*
X96012000Y-81280000D03*
X96012000Y-83820000D03*
X96012000Y-86360000D03*
X85852000Y-86360000D03*
X85852000Y-83820000D03*
X85852000Y-81280000D03*
G36*
G01*
X84951000Y-79590000D02*
X84951000Y-77890000D01*
G75*
G02*
X85002000Y-77839000I51000J0D01*
G01*
X86702000Y-77839000D01*
G75*
G02*
X86753000Y-77890000I0J-51000D01*
G01*
X86753000Y-79590000D01*
G75*
G02*
X86702000Y-79641000I-51000J0D01*
G01*
X85002000Y-79641000D01*
G75*
G02*
X84951000Y-79590000I0J51000D01*
G01*
G37*
G36*
G01*
X10186250Y-72389500D02*
X11149750Y-72389500D01*
G75*
G02*
X11419000Y-72658750I0J-269250D01*
G01*
X11419000Y-73197250D01*
G75*
G02*
X11149750Y-73466500I-269250J0D01*
G01*
X10186250Y-73466500D01*
G75*
G02*
X9917000Y-73197250I0J269250D01*
G01*
X9917000Y-72658750D01*
G75*
G02*
X10186250Y-72389500I269250J0D01*
G01*
G37*
G36*
G01*
X10186250Y-74264500D02*
X11149750Y-74264500D01*
G75*
G02*
X11419000Y-74533750I0J-269250D01*
G01*
X11419000Y-75072250D01*
G75*
G02*
X11149750Y-75341500I-269250J0D01*
G01*
X10186250Y-75341500D01*
G75*
G02*
X9917000Y-75072250I0J269250D01*
G01*
X9917000Y-74533750D01*
G75*
G02*
X10186250Y-74264500I269250J0D01*
G01*
G37*
D15*
X95504000Y-2286000D03*
X95504000Y-94234000D03*
G36*
G01*
X52259000Y-50258000D02*
X52259000Y-49358000D01*
G75*
G02*
X52310000Y-49307000I51000J0D01*
G01*
X53610000Y-49307000D01*
G75*
G02*
X53661000Y-49358000I0J-51000D01*
G01*
X53661000Y-50258000D01*
G75*
G02*
X53610000Y-50309000I-51000J0D01*
G01*
X52310000Y-50309000D01*
G75*
G02*
X52259000Y-50258000I0J51000D01*
G01*
G37*
G36*
G01*
X52259000Y-53258000D02*
X52259000Y-52358000D01*
G75*
G02*
X52310000Y-52307000I51000J0D01*
G01*
X53610000Y-52307000D01*
G75*
G02*
X53661000Y-52358000I0J-51000D01*
G01*
X53661000Y-53258000D01*
G75*
G02*
X53610000Y-53309000I-51000J0D01*
G01*
X52310000Y-53309000D01*
G75*
G02*
X52259000Y-53258000I0J51000D01*
G01*
G37*
D18*
G36*
X56919950Y-50391480D02*
G01*
X56929517Y-50394382D01*
X56938334Y-50399095D01*
X56946062Y-50405438D01*
X56952405Y-50413166D01*
X56957118Y-50421983D01*
X56960020Y-50431550D01*
X56961000Y-50441500D01*
X56961000Y-52174500D01*
X56960020Y-52184450D01*
X56957118Y-52194017D01*
X56952405Y-52202834D01*
X56946062Y-52210562D01*
X56938334Y-52216905D01*
X56929517Y-52221618D01*
X56919950Y-52224520D01*
X56910000Y-52225500D01*
X53785000Y-52225500D01*
X53775050Y-52224520D01*
X53765483Y-52221618D01*
X53756666Y-52216905D01*
X53748938Y-52210562D01*
X53742595Y-52202834D01*
X53737882Y-52194017D01*
X53734980Y-52184450D01*
X53734000Y-52174500D01*
X53734000Y-51809000D01*
X52310000Y-51809000D01*
X52300050Y-51808020D01*
X52290483Y-51805118D01*
X52281666Y-51800405D01*
X52273938Y-51794062D01*
X52267595Y-51786334D01*
X52262882Y-51777517D01*
X52259980Y-51767950D01*
X52259000Y-51758000D01*
X52259000Y-50858000D01*
X52259980Y-50848050D01*
X52262882Y-50838483D01*
X52267595Y-50829666D01*
X52273938Y-50821938D01*
X52281666Y-50815595D01*
X52290483Y-50810882D01*
X52300050Y-50807980D01*
X52310000Y-50807000D01*
X53734000Y-50807000D01*
X53734000Y-50441500D01*
X53734980Y-50431550D01*
X53737882Y-50421983D01*
X53742595Y-50413166D01*
X53748938Y-50405438D01*
X53756666Y-50399095D01*
X53765483Y-50394382D01*
X53775050Y-50391480D01*
X53785000Y-50390500D01*
X56910000Y-50390500D01*
X56919950Y-50391480D01*
G37*
G36*
G01*
X79426000Y-43942000D02*
X79426000Y-44958000D01*
G75*
G02*
X79375000Y-45009000I-51000J0D01*
G01*
X78613000Y-45009000D01*
G75*
G02*
X78562000Y-44958000I0J51000D01*
G01*
X78562000Y-43942000D01*
G75*
G02*
X78613000Y-43891000I51000J0D01*
G01*
X79375000Y-43891000D01*
G75*
G02*
X79426000Y-43942000I0J-51000D01*
G01*
G37*
G36*
G01*
X80759500Y-43941999D02*
X80759500Y-44196001D01*
G75*
G02*
X80708501Y-44247000I-50999J0D01*
G01*
X79565499Y-44247000D01*
G75*
G02*
X79514500Y-44196001I0J50999D01*
G01*
X79514500Y-43941999D01*
G75*
G02*
X79565499Y-43891000I50999J0D01*
G01*
X80708501Y-43891000D01*
G75*
G02*
X80759500Y-43941999I0J-50999D01*
G01*
G37*
G36*
G01*
X80950000Y-43942000D02*
X80950000Y-44958000D01*
G75*
G02*
X80899000Y-45009000I-51000J0D01*
G01*
X80137000Y-45009000D01*
G75*
G02*
X80086000Y-44958000I0J51000D01*
G01*
X80086000Y-43942000D01*
G75*
G02*
X80137000Y-43891000I51000J0D01*
G01*
X80899000Y-43891000D01*
G75*
G02*
X80950000Y-43942000I0J-51000D01*
G01*
G37*
G36*
G01*
X80759500Y-44703999D02*
X80759500Y-44958001D01*
G75*
G02*
X80708501Y-45009000I-50999J0D01*
G01*
X79565499Y-45009000D01*
G75*
G02*
X79514500Y-44958001I0J50999D01*
G01*
X79514500Y-44703999D01*
G75*
G02*
X79565499Y-44653000I50999J0D01*
G01*
X80708501Y-44653000D01*
G75*
G02*
X80759500Y-44703999I0J-50999D01*
G01*
G37*
G36*
G01*
X79899000Y-44322999D02*
X79899000Y-44577001D01*
G75*
G02*
X79848001Y-44628000I-50999J0D01*
G01*
X78647999Y-44628000D01*
G75*
G02*
X78597000Y-44577001I0J50999D01*
G01*
X78597000Y-44322999D01*
G75*
G02*
X78647999Y-44272000I50999J0D01*
G01*
X79848001Y-44272000D01*
G75*
G02*
X79899000Y-44322999I0J-50999D01*
G01*
G37*
D13*
X68406000Y-42164000D03*
X73406000Y-42164000D03*
G36*
G01*
X74649750Y-83185500D02*
X73686250Y-83185500D01*
G75*
G02*
X73417000Y-82916250I0J269250D01*
G01*
X73417000Y-82377750D01*
G75*
G02*
X73686250Y-82108500I269250J0D01*
G01*
X74649750Y-82108500D01*
G75*
G02*
X74919000Y-82377750I0J-269250D01*
G01*
X74919000Y-82916250D01*
G75*
G02*
X74649750Y-83185500I-269250J0D01*
G01*
G37*
G36*
G01*
X74649750Y-81310500D02*
X73686250Y-81310500D01*
G75*
G02*
X73417000Y-81041250I0J269250D01*
G01*
X73417000Y-80502750D01*
G75*
G02*
X73686250Y-80233500I269250J0D01*
G01*
X74649750Y-80233500D01*
G75*
G02*
X74919000Y-80502750I0J-269250D01*
G01*
X74919000Y-81041250D01*
G75*
G02*
X74649750Y-81310500I-269250J0D01*
G01*
G37*
G36*
G01*
X33540000Y-66968000D02*
X33540000Y-68668000D01*
G75*
G02*
X33489000Y-68719000I-51000J0D01*
G01*
X31789000Y-68719000D01*
G75*
G02*
X31738000Y-68668000I0J51000D01*
G01*
X31738000Y-66968000D01*
G75*
G02*
X31789000Y-66917000I51000J0D01*
G01*
X33489000Y-66917000D01*
G75*
G02*
X33540000Y-66968000I0J-51000D01*
G01*
G37*
D17*
X32639000Y-65278000D03*
X32639000Y-62738000D03*
G36*
G01*
X27813000Y-64567000D02*
X26797000Y-64567000D01*
G75*
G02*
X26746000Y-64516000I0J51000D01*
G01*
X26746000Y-63754000D01*
G75*
G02*
X26797000Y-63703000I51000J0D01*
G01*
X27813000Y-63703000D01*
G75*
G02*
X27864000Y-63754000I0J-51000D01*
G01*
X27864000Y-64516000D01*
G75*
G02*
X27813000Y-64567000I-51000J0D01*
G01*
G37*
G36*
G01*
X27813001Y-65900500D02*
X27558999Y-65900500D01*
G75*
G02*
X27508000Y-65849501I0J50999D01*
G01*
X27508000Y-64706499D01*
G75*
G02*
X27558999Y-64655500I50999J0D01*
G01*
X27813001Y-64655500D01*
G75*
G02*
X27864000Y-64706499I0J-50999D01*
G01*
X27864000Y-65849501D01*
G75*
G02*
X27813001Y-65900500I-50999J0D01*
G01*
G37*
G36*
G01*
X27813000Y-66091000D02*
X26797000Y-66091000D01*
G75*
G02*
X26746000Y-66040000I0J51000D01*
G01*
X26746000Y-65278000D01*
G75*
G02*
X26797000Y-65227000I51000J0D01*
G01*
X27813000Y-65227000D01*
G75*
G02*
X27864000Y-65278000I0J-51000D01*
G01*
X27864000Y-66040000D01*
G75*
G02*
X27813000Y-66091000I-51000J0D01*
G01*
G37*
G36*
G01*
X27051001Y-65900500D02*
X26796999Y-65900500D01*
G75*
G02*
X26746000Y-65849501I0J50999D01*
G01*
X26746000Y-64706499D01*
G75*
G02*
X26796999Y-64655500I50999J0D01*
G01*
X27051001Y-64655500D01*
G75*
G02*
X27102000Y-64706499I0J-50999D01*
G01*
X27102000Y-65849501D01*
G75*
G02*
X27051001Y-65900500I-50999J0D01*
G01*
G37*
G36*
G01*
X27432001Y-65040000D02*
X27177999Y-65040000D01*
G75*
G02*
X27127000Y-64989001I0J50999D01*
G01*
X27127000Y-63788999D01*
G75*
G02*
X27177999Y-63738000I50999J0D01*
G01*
X27432001Y-63738000D01*
G75*
G02*
X27483000Y-63788999I0J-50999D01*
G01*
X27483000Y-64989001D01*
G75*
G02*
X27432001Y-65040000I-50999J0D01*
G01*
G37*
G36*
G01*
X21082001Y-65040000D02*
X20827999Y-65040000D01*
G75*
G02*
X20777000Y-64989001I0J50999D01*
G01*
X20777000Y-63788999D01*
G75*
G02*
X20827999Y-63738000I50999J0D01*
G01*
X21082001Y-63738000D01*
G75*
G02*
X21133000Y-63788999I0J-50999D01*
G01*
X21133000Y-64989001D01*
G75*
G02*
X21082001Y-65040000I-50999J0D01*
G01*
G37*
G36*
G01*
X20701001Y-65900500D02*
X20446999Y-65900500D01*
G75*
G02*
X20396000Y-65849501I0J50999D01*
G01*
X20396000Y-64706499D01*
G75*
G02*
X20446999Y-64655500I50999J0D01*
G01*
X20701001Y-64655500D01*
G75*
G02*
X20752000Y-64706499I0J-50999D01*
G01*
X20752000Y-65849501D01*
G75*
G02*
X20701001Y-65900500I-50999J0D01*
G01*
G37*
G36*
G01*
X21463000Y-66091000D02*
X20447000Y-66091000D01*
G75*
G02*
X20396000Y-66040000I0J51000D01*
G01*
X20396000Y-65278000D01*
G75*
G02*
X20447000Y-65227000I51000J0D01*
G01*
X21463000Y-65227000D01*
G75*
G02*
X21514000Y-65278000I0J-51000D01*
G01*
X21514000Y-66040000D01*
G75*
G02*
X21463000Y-66091000I-51000J0D01*
G01*
G37*
G36*
G01*
X21463001Y-65900500D02*
X21208999Y-65900500D01*
G75*
G02*
X21158000Y-65849501I0J50999D01*
G01*
X21158000Y-64706499D01*
G75*
G02*
X21208999Y-64655500I50999J0D01*
G01*
X21463001Y-64655500D01*
G75*
G02*
X21514000Y-64706499I0J-50999D01*
G01*
X21514000Y-65849501D01*
G75*
G02*
X21463001Y-65900500I-50999J0D01*
G01*
G37*
G36*
G01*
X21463000Y-64567000D02*
X20447000Y-64567000D01*
G75*
G02*
X20396000Y-64516000I0J51000D01*
G01*
X20396000Y-63754000D01*
G75*
G02*
X20447000Y-63703000I51000J0D01*
G01*
X21463000Y-63703000D01*
G75*
G02*
X21514000Y-63754000I0J-51000D01*
G01*
X21514000Y-64516000D01*
G75*
G02*
X21463000Y-64567000I-51000J0D01*
G01*
G37*
G36*
G01*
X17780000Y-68910000D02*
X18796000Y-68910000D01*
G75*
G02*
X18847000Y-68961000I0J-51000D01*
G01*
X18847000Y-69723000D01*
G75*
G02*
X18796000Y-69774000I-51000J0D01*
G01*
X17780000Y-69774000D01*
G75*
G02*
X17729000Y-69723000I0J51000D01*
G01*
X17729000Y-68961000D01*
G75*
G02*
X17780000Y-68910000I51000J0D01*
G01*
G37*
G36*
G01*
X17779999Y-67576500D02*
X18034001Y-67576500D01*
G75*
G02*
X18085000Y-67627499I0J-50999D01*
G01*
X18085000Y-68770501D01*
G75*
G02*
X18034001Y-68821500I-50999J0D01*
G01*
X17779999Y-68821500D01*
G75*
G02*
X17729000Y-68770501I0J50999D01*
G01*
X17729000Y-67627499D01*
G75*
G02*
X17779999Y-67576500I50999J0D01*
G01*
G37*
G36*
G01*
X17780000Y-67386000D02*
X18796000Y-67386000D01*
G75*
G02*
X18847000Y-67437000I0J-51000D01*
G01*
X18847000Y-68199000D01*
G75*
G02*
X18796000Y-68250000I-51000J0D01*
G01*
X17780000Y-68250000D01*
G75*
G02*
X17729000Y-68199000I0J51000D01*
G01*
X17729000Y-67437000D01*
G75*
G02*
X17780000Y-67386000I51000J0D01*
G01*
G37*
G36*
G01*
X18541999Y-67576500D02*
X18796001Y-67576500D01*
G75*
G02*
X18847000Y-67627499I0J-50999D01*
G01*
X18847000Y-68770501D01*
G75*
G02*
X18796001Y-68821500I-50999J0D01*
G01*
X18541999Y-68821500D01*
G75*
G02*
X18491000Y-68770501I0J50999D01*
G01*
X18491000Y-67627499D01*
G75*
G02*
X18541999Y-67576500I50999J0D01*
G01*
G37*
G36*
G01*
X18160999Y-68437000D02*
X18415001Y-68437000D01*
G75*
G02*
X18466000Y-68487999I0J-50999D01*
G01*
X18466000Y-69688001D01*
G75*
G02*
X18415001Y-69739000I-50999J0D01*
G01*
X18160999Y-69739000D01*
G75*
G02*
X18110000Y-69688001I0J50999D01*
G01*
X18110000Y-68487999D01*
G75*
G02*
X18160999Y-68437000I50999J0D01*
G01*
G37*
G36*
G01*
X23648250Y-62991500D02*
X24611750Y-62991500D01*
G75*
G02*
X24881000Y-63260750I0J-269250D01*
G01*
X24881000Y-63799250D01*
G75*
G02*
X24611750Y-64068500I-269250J0D01*
G01*
X23648250Y-64068500D01*
G75*
G02*
X23379000Y-63799250I0J269250D01*
G01*
X23379000Y-63260750D01*
G75*
G02*
X23648250Y-62991500I269250J0D01*
G01*
G37*
G36*
G01*
X23648250Y-64866500D02*
X24611750Y-64866500D01*
G75*
G02*
X24881000Y-65135750I0J-269250D01*
G01*
X24881000Y-65674250D01*
G75*
G02*
X24611750Y-65943500I-269250J0D01*
G01*
X23648250Y-65943500D01*
G75*
G02*
X23379000Y-65674250I0J269250D01*
G01*
X23379000Y-65135750D01*
G75*
G02*
X23648250Y-64866500I269250J0D01*
G01*
G37*
G36*
G01*
X12735000Y-84590000D02*
X13935000Y-84590000D01*
G75*
G02*
X13986000Y-84641000I0J-51000D01*
G01*
X13986000Y-85541000D01*
G75*
G02*
X13935000Y-85592000I-51000J0D01*
G01*
X12735000Y-85592000D01*
G75*
G02*
X12684000Y-85541000I0J51000D01*
G01*
X12684000Y-84641000D01*
G75*
G02*
X12735000Y-84590000I51000J0D01*
G01*
G37*
G36*
G01*
X12735000Y-87890000D02*
X13935000Y-87890000D01*
G75*
G02*
X13986000Y-87941000I0J-51000D01*
G01*
X13986000Y-88841000D01*
G75*
G02*
X13935000Y-88892000I-51000J0D01*
G01*
X12735000Y-88892000D01*
G75*
G02*
X12684000Y-88841000I0J51000D01*
G01*
X12684000Y-87941000D01*
G75*
G02*
X12735000Y-87890000I51000J0D01*
G01*
G37*
G36*
G01*
X35687000Y-79959000D02*
X36703000Y-79959000D01*
G75*
G02*
X36754000Y-80010000I0J-51000D01*
G01*
X36754000Y-80772000D01*
G75*
G02*
X36703000Y-80823000I-51000J0D01*
G01*
X35687000Y-80823000D01*
G75*
G02*
X35636000Y-80772000I0J51000D01*
G01*
X35636000Y-80010000D01*
G75*
G02*
X35687000Y-79959000I51000J0D01*
G01*
G37*
G36*
G01*
X35686999Y-78625500D02*
X35941001Y-78625500D01*
G75*
G02*
X35992000Y-78676499I0J-50999D01*
G01*
X35992000Y-79819501D01*
G75*
G02*
X35941001Y-79870500I-50999J0D01*
G01*
X35686999Y-79870500D01*
G75*
G02*
X35636000Y-79819501I0J50999D01*
G01*
X35636000Y-78676499D01*
G75*
G02*
X35686999Y-78625500I50999J0D01*
G01*
G37*
G36*
G01*
X35687000Y-78435000D02*
X36703000Y-78435000D01*
G75*
G02*
X36754000Y-78486000I0J-51000D01*
G01*
X36754000Y-79248000D01*
G75*
G02*
X36703000Y-79299000I-51000J0D01*
G01*
X35687000Y-79299000D01*
G75*
G02*
X35636000Y-79248000I0J51000D01*
G01*
X35636000Y-78486000D01*
G75*
G02*
X35687000Y-78435000I51000J0D01*
G01*
G37*
G36*
G01*
X36448999Y-78625500D02*
X36703001Y-78625500D01*
G75*
G02*
X36754000Y-78676499I0J-50999D01*
G01*
X36754000Y-79819501D01*
G75*
G02*
X36703001Y-79870500I-50999J0D01*
G01*
X36448999Y-79870500D01*
G75*
G02*
X36398000Y-79819501I0J50999D01*
G01*
X36398000Y-78676499D01*
G75*
G02*
X36448999Y-78625500I50999J0D01*
G01*
G37*
G36*
G01*
X36067999Y-79486000D02*
X36322001Y-79486000D01*
G75*
G02*
X36373000Y-79536999I0J-50999D01*
G01*
X36373000Y-80737001D01*
G75*
G02*
X36322001Y-80788000I-50999J0D01*
G01*
X36067999Y-80788000D01*
G75*
G02*
X36017000Y-80737001I0J50999D01*
G01*
X36017000Y-79536999D01*
G75*
G02*
X36067999Y-79486000I50999J0D01*
G01*
G37*
G36*
G01*
X33909000Y-79959000D02*
X34925000Y-79959000D01*
G75*
G02*
X34976000Y-80010000I0J-51000D01*
G01*
X34976000Y-80772000D01*
G75*
G02*
X34925000Y-80823000I-51000J0D01*
G01*
X33909000Y-80823000D01*
G75*
G02*
X33858000Y-80772000I0J51000D01*
G01*
X33858000Y-80010000D01*
G75*
G02*
X33909000Y-79959000I51000J0D01*
G01*
G37*
G36*
G01*
X33908999Y-78625500D02*
X34163001Y-78625500D01*
G75*
G02*
X34214000Y-78676499I0J-50999D01*
G01*
X34214000Y-79819501D01*
G75*
G02*
X34163001Y-79870500I-50999J0D01*
G01*
X33908999Y-79870500D01*
G75*
G02*
X33858000Y-79819501I0J50999D01*
G01*
X33858000Y-78676499D01*
G75*
G02*
X33908999Y-78625500I50999J0D01*
G01*
G37*
G36*
G01*
X33909000Y-78435000D02*
X34925000Y-78435000D01*
G75*
G02*
X34976000Y-78486000I0J-51000D01*
G01*
X34976000Y-79248000D01*
G75*
G02*
X34925000Y-79299000I-51000J0D01*
G01*
X33909000Y-79299000D01*
G75*
G02*
X33858000Y-79248000I0J51000D01*
G01*
X33858000Y-78486000D01*
G75*
G02*
X33909000Y-78435000I51000J0D01*
G01*
G37*
G36*
G01*
X34670999Y-78625500D02*
X34925001Y-78625500D01*
G75*
G02*
X34976000Y-78676499I0J-50999D01*
G01*
X34976000Y-79819501D01*
G75*
G02*
X34925001Y-79870500I-50999J0D01*
G01*
X34670999Y-79870500D01*
G75*
G02*
X34620000Y-79819501I0J50999D01*
G01*
X34620000Y-78676499D01*
G75*
G02*
X34670999Y-78625500I50999J0D01*
G01*
G37*
G36*
G01*
X34289999Y-79486000D02*
X34544001Y-79486000D01*
G75*
G02*
X34595000Y-79536999I0J-50999D01*
G01*
X34595000Y-80737001D01*
G75*
G02*
X34544001Y-80788000I-50999J0D01*
G01*
X34289999Y-80788000D01*
G75*
G02*
X34239000Y-80737001I0J50999D01*
G01*
X34239000Y-79536999D01*
G75*
G02*
X34289999Y-79486000I50999J0D01*
G01*
G37*
G36*
G01*
X21548000Y-84051000D02*
X20748000Y-84051000D01*
G75*
G02*
X20697000Y-84000000I0J51000D01*
G01*
X20697000Y-83100000D01*
G75*
G02*
X20748000Y-83049000I51000J0D01*
G01*
X21548000Y-83049000D01*
G75*
G02*
X21599000Y-83100000I0J-51000D01*
G01*
X21599000Y-84000000D01*
G75*
G02*
X21548000Y-84051000I-51000J0D01*
G01*
G37*
G36*
G01*
X23448000Y-84051000D02*
X22648000Y-84051000D01*
G75*
G02*
X22597000Y-84000000I0J51000D01*
G01*
X22597000Y-83100000D01*
G75*
G02*
X22648000Y-83049000I51000J0D01*
G01*
X23448000Y-83049000D01*
G75*
G02*
X23499000Y-83100000I0J-51000D01*
G01*
X23499000Y-84000000D01*
G75*
G02*
X23448000Y-84051000I-51000J0D01*
G01*
G37*
G36*
G01*
X22498000Y-82051000D02*
X21698000Y-82051000D01*
G75*
G02*
X21647000Y-82000000I0J51000D01*
G01*
X21647000Y-81100000D01*
G75*
G02*
X21698000Y-81049000I51000J0D01*
G01*
X22498000Y-81049000D01*
G75*
G02*
X22549000Y-81100000I0J-51000D01*
G01*
X22549000Y-82000000D01*
G75*
G02*
X22498000Y-82051000I-51000J0D01*
G01*
G37*
G36*
G01*
X21548000Y-75415000D02*
X20748000Y-75415000D01*
G75*
G02*
X20697000Y-75364000I0J51000D01*
G01*
X20697000Y-74464000D01*
G75*
G02*
X20748000Y-74413000I51000J0D01*
G01*
X21548000Y-74413000D01*
G75*
G02*
X21599000Y-74464000I0J-51000D01*
G01*
X21599000Y-75364000D01*
G75*
G02*
X21548000Y-75415000I-51000J0D01*
G01*
G37*
G36*
G01*
X23448000Y-75415000D02*
X22648000Y-75415000D01*
G75*
G02*
X22597000Y-75364000I0J51000D01*
G01*
X22597000Y-74464000D01*
G75*
G02*
X22648000Y-74413000I51000J0D01*
G01*
X23448000Y-74413000D01*
G75*
G02*
X23499000Y-74464000I0J-51000D01*
G01*
X23499000Y-75364000D01*
G75*
G02*
X23448000Y-75415000I-51000J0D01*
G01*
G37*
G36*
G01*
X22498000Y-73415000D02*
X21698000Y-73415000D01*
G75*
G02*
X21647000Y-73364000I0J51000D01*
G01*
X21647000Y-72464000D01*
G75*
G02*
X21698000Y-72413000I51000J0D01*
G01*
X22498000Y-72413000D01*
G75*
G02*
X22549000Y-72464000I0J-51000D01*
G01*
X22549000Y-73364000D01*
G75*
G02*
X22498000Y-73415000I-51000J0D01*
G01*
G37*
G36*
G01*
X31642000Y-82051000D02*
X30842000Y-82051000D01*
G75*
G02*
X30791000Y-82000000I0J51000D01*
G01*
X30791000Y-81100000D01*
G75*
G02*
X30842000Y-81049000I51000J0D01*
G01*
X31642000Y-81049000D01*
G75*
G02*
X31693000Y-81100000I0J-51000D01*
G01*
X31693000Y-82000000D01*
G75*
G02*
X31642000Y-82051000I-51000J0D01*
G01*
G37*
G36*
G01*
X32592000Y-84051000D02*
X31792000Y-84051000D01*
G75*
G02*
X31741000Y-84000000I0J51000D01*
G01*
X31741000Y-83100000D01*
G75*
G02*
X31792000Y-83049000I51000J0D01*
G01*
X32592000Y-83049000D01*
G75*
G02*
X32643000Y-83100000I0J-51000D01*
G01*
X32643000Y-84000000D01*
G75*
G02*
X32592000Y-84051000I-51000J0D01*
G01*
G37*
G36*
G01*
X30692000Y-84051000D02*
X29892000Y-84051000D01*
G75*
G02*
X29841000Y-84000000I0J51000D01*
G01*
X29841000Y-83100000D01*
G75*
G02*
X29892000Y-83049000I51000J0D01*
G01*
X30692000Y-83049000D01*
G75*
G02*
X30743000Y-83100000I0J-51000D01*
G01*
X30743000Y-84000000D01*
G75*
G02*
X30692000Y-84051000I-51000J0D01*
G01*
G37*
G36*
G01*
X31642000Y-73415000D02*
X30842000Y-73415000D01*
G75*
G02*
X30791000Y-73364000I0J51000D01*
G01*
X30791000Y-72464000D01*
G75*
G02*
X30842000Y-72413000I51000J0D01*
G01*
X31642000Y-72413000D01*
G75*
G02*
X31693000Y-72464000I0J-51000D01*
G01*
X31693000Y-73364000D01*
G75*
G02*
X31642000Y-73415000I-51000J0D01*
G01*
G37*
G36*
G01*
X32592000Y-75415000D02*
X31792000Y-75415000D01*
G75*
G02*
X31741000Y-75364000I0J51000D01*
G01*
X31741000Y-74464000D01*
G75*
G02*
X31792000Y-74413000I51000J0D01*
G01*
X32592000Y-74413000D01*
G75*
G02*
X32643000Y-74464000I0J-51000D01*
G01*
X32643000Y-75364000D01*
G75*
G02*
X32592000Y-75415000I-51000J0D01*
G01*
G37*
G36*
G01*
X30692000Y-75415000D02*
X29892000Y-75415000D01*
G75*
G02*
X29841000Y-75364000I0J51000D01*
G01*
X29841000Y-74464000D01*
G75*
G02*
X29892000Y-74413000I51000J0D01*
G01*
X30692000Y-74413000D01*
G75*
G02*
X30743000Y-74464000I0J-51000D01*
G01*
X30743000Y-75364000D01*
G75*
G02*
X30692000Y-75415000I-51000J0D01*
G01*
G37*
D19*
X78740000Y-6985000D03*
X78740000Y-4445000D03*
G36*
G01*
X77740000Y-901500D02*
X79740000Y-901500D01*
G75*
G02*
X79791000Y-952500I0J-51000D01*
G01*
X79791000Y-2857500D01*
G75*
G02*
X79740000Y-2908500I-51000J0D01*
G01*
X77740000Y-2908500D01*
G75*
G02*
X77689000Y-2857500I0J51000D01*
G01*
X77689000Y-952500D01*
G75*
G02*
X77740000Y-901500I51000J0D01*
G01*
G37*
G36*
G01*
X77740000Y-13601500D02*
X79740000Y-13601500D01*
G75*
G02*
X79791000Y-13652500I0J-51000D01*
G01*
X79791000Y-15557500D01*
G75*
G02*
X79740000Y-15608500I-51000J0D01*
G01*
X77740000Y-15608500D01*
G75*
G02*
X77689000Y-15557500I0J51000D01*
G01*
X77689000Y-13652500D01*
G75*
G02*
X77740000Y-13601500I51000J0D01*
G01*
G37*
X78740000Y-17145000D03*
X78740000Y-19685000D03*
G36*
G01*
X77740000Y-26301500D02*
X79740000Y-26301500D01*
G75*
G02*
X79791000Y-26352500I0J-51000D01*
G01*
X79791000Y-28257500D01*
G75*
G02*
X79740000Y-28308500I-51000J0D01*
G01*
X77740000Y-28308500D01*
G75*
G02*
X77689000Y-28257500I0J51000D01*
G01*
X77689000Y-26352500D01*
G75*
G02*
X77740000Y-26301500I51000J0D01*
G01*
G37*
X78740000Y-29845000D03*
X78740000Y-32385000D03*
D12*
X74930000Y-10795000D03*
D11*
X74930000Y-635000D03*
D12*
X88900000Y-10795000D03*
D11*
X88900000Y-635000D03*
X66040000Y-13335000D03*
D12*
X66040000Y-23495000D03*
D11*
X74930000Y-13335000D03*
D12*
X74930000Y-23495000D03*
D11*
X66040000Y-26035000D03*
D12*
X66040000Y-36195000D03*
X74930000Y-36195000D03*
D11*
X74930000Y-26035000D03*
G36*
G01*
X78816000Y-50546000D02*
X78816000Y-49530000D01*
G75*
G02*
X78867000Y-49479000I51000J0D01*
G01*
X79629000Y-49479000D01*
G75*
G02*
X79680000Y-49530000I0J-51000D01*
G01*
X79680000Y-50546000D01*
G75*
G02*
X79629000Y-50597000I-51000J0D01*
G01*
X78867000Y-50597000D01*
G75*
G02*
X78816000Y-50546000I0J51000D01*
G01*
G37*
G36*
G01*
X77482500Y-50546001D02*
X77482500Y-50291999D01*
G75*
G02*
X77533499Y-50241000I50999J0D01*
G01*
X78676501Y-50241000D01*
G75*
G02*
X78727500Y-50291999I0J-50999D01*
G01*
X78727500Y-50546001D01*
G75*
G02*
X78676501Y-50597000I-50999J0D01*
G01*
X77533499Y-50597000D01*
G75*
G02*
X77482500Y-50546001I0J50999D01*
G01*
G37*
G36*
G01*
X77292000Y-50546000D02*
X77292000Y-49530000D01*
G75*
G02*
X77343000Y-49479000I51000J0D01*
G01*
X78105000Y-49479000D01*
G75*
G02*
X78156000Y-49530000I0J-51000D01*
G01*
X78156000Y-50546000D01*
G75*
G02*
X78105000Y-50597000I-51000J0D01*
G01*
X77343000Y-50597000D01*
G75*
G02*
X77292000Y-50546000I0J51000D01*
G01*
G37*
G36*
G01*
X77482500Y-49784001D02*
X77482500Y-49529999D01*
G75*
G02*
X77533499Y-49479000I50999J0D01*
G01*
X78676501Y-49479000D01*
G75*
G02*
X78727500Y-49529999I0J-50999D01*
G01*
X78727500Y-49784001D01*
G75*
G02*
X78676501Y-49835000I-50999J0D01*
G01*
X77533499Y-49835000D01*
G75*
G02*
X77482500Y-49784001I0J50999D01*
G01*
G37*
G36*
G01*
X78343000Y-50165001D02*
X78343000Y-49910999D01*
G75*
G02*
X78393999Y-49860000I50999J0D01*
G01*
X79594001Y-49860000D01*
G75*
G02*
X79645000Y-49910999I0J-50999D01*
G01*
X79645000Y-50165001D01*
G75*
G02*
X79594001Y-50216000I-50999J0D01*
G01*
X78393999Y-50216000D01*
G75*
G02*
X78343000Y-50165001I0J50999D01*
G01*
G37*
G36*
G01*
X81600500Y-75665750D02*
X81600500Y-74702250D01*
G75*
G02*
X81869750Y-74433000I269250J0D01*
G01*
X82408250Y-74433000D01*
G75*
G02*
X82677500Y-74702250I0J-269250D01*
G01*
X82677500Y-75665750D01*
G75*
G02*
X82408250Y-75935000I-269250J0D01*
G01*
X81869750Y-75935000D01*
G75*
G02*
X81600500Y-75665750I0J269250D01*
G01*
G37*
G36*
G01*
X79725500Y-75665750D02*
X79725500Y-74702250D01*
G75*
G02*
X79994750Y-74433000I269250J0D01*
G01*
X80533250Y-74433000D01*
G75*
G02*
X80802500Y-74702250I0J-269250D01*
G01*
X80802500Y-75665750D01*
G75*
G02*
X80533250Y-75935000I-269250J0D01*
G01*
X79994750Y-75935000D01*
G75*
G02*
X79725500Y-75665750I0J269250D01*
G01*
G37*
G36*
G01*
X82677500Y-77496250D02*
X82677500Y-78459750D01*
G75*
G02*
X82408250Y-78729000I-269250J0D01*
G01*
X81869750Y-78729000D01*
G75*
G02*
X81600500Y-78459750I0J269250D01*
G01*
X81600500Y-77496250D01*
G75*
G02*
X81869750Y-77227000I269250J0D01*
G01*
X82408250Y-77227000D01*
G75*
G02*
X82677500Y-77496250I0J-269250D01*
G01*
G37*
G36*
G01*
X80802500Y-77496250D02*
X80802500Y-78459750D01*
G75*
G02*
X80533250Y-78729000I-269250J0D01*
G01*
X79994750Y-78729000D01*
G75*
G02*
X79725500Y-78459750I0J269250D01*
G01*
X79725500Y-77496250D01*
G75*
G02*
X79994750Y-77227000I269250J0D01*
G01*
X80533250Y-77227000D01*
G75*
G02*
X80802500Y-77496250I0J-269250D01*
G01*
G37*
G36*
G01*
X73633750Y-76073500D02*
X72670250Y-76073500D01*
G75*
G02*
X72401000Y-75804250I0J269250D01*
G01*
X72401000Y-75265750D01*
G75*
G02*
X72670250Y-74996500I269250J0D01*
G01*
X73633750Y-74996500D01*
G75*
G02*
X73903000Y-75265750I0J-269250D01*
G01*
X73903000Y-75804250D01*
G75*
G02*
X73633750Y-76073500I-269250J0D01*
G01*
G37*
G36*
G01*
X73633750Y-74198500D02*
X72670250Y-74198500D01*
G75*
G02*
X72401000Y-73929250I0J269250D01*
G01*
X72401000Y-73390750D01*
G75*
G02*
X72670250Y-73121500I269250J0D01*
G01*
X73633750Y-73121500D01*
G75*
G02*
X73903000Y-73390750I0J-269250D01*
G01*
X73903000Y-73929250D01*
G75*
G02*
X73633750Y-74198500I-269250J0D01*
G01*
G37*
G36*
G01*
X87910250Y-68295500D02*
X88873750Y-68295500D01*
G75*
G02*
X89143000Y-68564750I0J-269250D01*
G01*
X89143000Y-69103250D01*
G75*
G02*
X88873750Y-69372500I-269250J0D01*
G01*
X87910250Y-69372500D01*
G75*
G02*
X87641000Y-69103250I0J269250D01*
G01*
X87641000Y-68564750D01*
G75*
G02*
X87910250Y-68295500I269250J0D01*
G01*
G37*
G36*
G01*
X87910250Y-66420500D02*
X88873750Y-66420500D01*
G75*
G02*
X89143000Y-66689750I0J-269250D01*
G01*
X89143000Y-67228250D01*
G75*
G02*
X88873750Y-67497500I-269250J0D01*
G01*
X87910250Y-67497500D01*
G75*
G02*
X87641000Y-67228250I0J269250D01*
G01*
X87641000Y-66689750D01*
G75*
G02*
X87910250Y-66420500I269250J0D01*
G01*
G37*
G36*
G01*
X85370250Y-66420500D02*
X86333750Y-66420500D01*
G75*
G02*
X86603000Y-66689750I0J-269250D01*
G01*
X86603000Y-67228250D01*
G75*
G02*
X86333750Y-67497500I-269250J0D01*
G01*
X85370250Y-67497500D01*
G75*
G02*
X85101000Y-67228250I0J269250D01*
G01*
X85101000Y-66689750D01*
G75*
G02*
X85370250Y-66420500I269250J0D01*
G01*
G37*
G36*
G01*
X85370250Y-68295500D02*
X86333750Y-68295500D01*
G75*
G02*
X86603000Y-68564750I0J-269250D01*
G01*
X86603000Y-69103250D01*
G75*
G02*
X86333750Y-69372500I-269250J0D01*
G01*
X85370250Y-69372500D01*
G75*
G02*
X85101000Y-69103250I0J269250D01*
G01*
X85101000Y-68564750D01*
G75*
G02*
X85370250Y-68295500I269250J0D01*
G01*
G37*
G36*
G01*
X82830250Y-68295500D02*
X83793750Y-68295500D01*
G75*
G02*
X84063000Y-68564750I0J-269250D01*
G01*
X84063000Y-69103250D01*
G75*
G02*
X83793750Y-69372500I-269250J0D01*
G01*
X82830250Y-69372500D01*
G75*
G02*
X82561000Y-69103250I0J269250D01*
G01*
X82561000Y-68564750D01*
G75*
G02*
X82830250Y-68295500I269250J0D01*
G01*
G37*
G36*
G01*
X82830250Y-66420500D02*
X83793750Y-66420500D01*
G75*
G02*
X84063000Y-66689750I0J-269250D01*
G01*
X84063000Y-67228250D01*
G75*
G02*
X83793750Y-67497500I-269250J0D01*
G01*
X82830250Y-67497500D01*
G75*
G02*
X82561000Y-67228250I0J269250D01*
G01*
X82561000Y-66689750D01*
G75*
G02*
X82830250Y-66420500I269250J0D01*
G01*
G37*
G36*
G01*
X80290250Y-66420500D02*
X81253750Y-66420500D01*
G75*
G02*
X81523000Y-66689750I0J-269250D01*
G01*
X81523000Y-67228250D01*
G75*
G02*
X81253750Y-67497500I-269250J0D01*
G01*
X80290250Y-67497500D01*
G75*
G02*
X80021000Y-67228250I0J269250D01*
G01*
X80021000Y-66689750D01*
G75*
G02*
X80290250Y-66420500I269250J0D01*
G01*
G37*
G36*
G01*
X80290250Y-68295500D02*
X81253750Y-68295500D01*
G75*
G02*
X81523000Y-68564750I0J-269250D01*
G01*
X81523000Y-69103250D01*
G75*
G02*
X81253750Y-69372500I-269250J0D01*
G01*
X80290250Y-69372500D01*
G75*
G02*
X80021000Y-69103250I0J269250D01*
G01*
X80021000Y-68564750D01*
G75*
G02*
X80290250Y-68295500I269250J0D01*
G01*
G37*
G36*
G01*
X77750250Y-68295500D02*
X78713750Y-68295500D01*
G75*
G02*
X78983000Y-68564750I0J-269250D01*
G01*
X78983000Y-69103250D01*
G75*
G02*
X78713750Y-69372500I-269250J0D01*
G01*
X77750250Y-69372500D01*
G75*
G02*
X77481000Y-69103250I0J269250D01*
G01*
X77481000Y-68564750D01*
G75*
G02*
X77750250Y-68295500I269250J0D01*
G01*
G37*
G36*
G01*
X77750250Y-66420500D02*
X78713750Y-66420500D01*
G75*
G02*
X78983000Y-66689750I0J-269250D01*
G01*
X78983000Y-67228250D01*
G75*
G02*
X78713750Y-67497500I-269250J0D01*
G01*
X77750250Y-67497500D01*
G75*
G02*
X77481000Y-67228250I0J269250D01*
G01*
X77481000Y-66689750D01*
G75*
G02*
X77750250Y-66420500I269250J0D01*
G01*
G37*
G36*
G01*
X74956250Y-66420500D02*
X75919750Y-66420500D01*
G75*
G02*
X76189000Y-66689750I0J-269250D01*
G01*
X76189000Y-67228250D01*
G75*
G02*
X75919750Y-67497500I-269250J0D01*
G01*
X74956250Y-67497500D01*
G75*
G02*
X74687000Y-67228250I0J269250D01*
G01*
X74687000Y-66689750D01*
G75*
G02*
X74956250Y-66420500I269250J0D01*
G01*
G37*
G36*
G01*
X74956250Y-68295500D02*
X75919750Y-68295500D01*
G75*
G02*
X76189000Y-68564750I0J-269250D01*
G01*
X76189000Y-69103250D01*
G75*
G02*
X75919750Y-69372500I-269250J0D01*
G01*
X74956250Y-69372500D01*
G75*
G02*
X74687000Y-69103250I0J269250D01*
G01*
X74687000Y-68564750D01*
G75*
G02*
X74956250Y-68295500I269250J0D01*
G01*
G37*
D20*
X86360000Y-73660000D03*
X87630000Y-72390000D03*
G36*
G01*
X88331000Y-74280000D02*
X88331000Y-75580000D01*
G75*
G02*
X88280000Y-75631000I-51000J0D01*
G01*
X86980000Y-75631000D01*
G75*
G02*
X86929000Y-75580000I0J51000D01*
G01*
X86929000Y-74280000D01*
G75*
G02*
X86980000Y-74229000I51000J0D01*
G01*
X88280000Y-74229000D01*
G75*
G02*
X88331000Y-74280000I0J-51000D01*
G01*
G37*
G36*
G01*
X75191000Y-73872000D02*
X75191000Y-73072000D01*
G75*
G02*
X75242000Y-73021000I51000J0D01*
G01*
X76142000Y-73021000D01*
G75*
G02*
X76193000Y-73072000I0J-51000D01*
G01*
X76193000Y-73872000D01*
G75*
G02*
X76142000Y-73923000I-51000J0D01*
G01*
X75242000Y-73923000D01*
G75*
G02*
X75191000Y-73872000I0J51000D01*
G01*
G37*
G36*
G01*
X75191000Y-75772000D02*
X75191000Y-74972000D01*
G75*
G02*
X75242000Y-74921000I51000J0D01*
G01*
X76142000Y-74921000D01*
G75*
G02*
X76193000Y-74972000I0J-51000D01*
G01*
X76193000Y-75772000D01*
G75*
G02*
X76142000Y-75823000I-51000J0D01*
G01*
X75242000Y-75823000D01*
G75*
G02*
X75191000Y-75772000I0J51000D01*
G01*
G37*
G36*
G01*
X77191000Y-74822000D02*
X77191000Y-74022000D01*
G75*
G02*
X77242000Y-73971000I51000J0D01*
G01*
X78142000Y-73971000D01*
G75*
G02*
X78193000Y-74022000I0J-51000D01*
G01*
X78193000Y-74822000D01*
G75*
G02*
X78142000Y-74873000I-51000J0D01*
G01*
X77242000Y-74873000D01*
G75*
G02*
X77191000Y-74822000I0J51000D01*
G01*
G37*
G36*
G01*
X76415900Y-93104770D02*
X78016100Y-93104770D01*
G75*
G02*
X78067100Y-93155770I0J-51000D01*
G01*
X78067100Y-96155510D01*
G75*
G02*
X78016100Y-96206510I-51000J0D01*
G01*
X76415900Y-96206510D01*
G75*
G02*
X76364900Y-96155510I0J51000D01*
G01*
X76364900Y-93155770D01*
G75*
G02*
X76415900Y-93104770I51000J0D01*
G01*
G37*
G36*
G01*
X76415900Y-88705490D02*
X78016100Y-88705490D01*
G75*
G02*
X78067100Y-88756490I0J-51000D01*
G01*
X78067100Y-91756230D01*
G75*
G02*
X78016100Y-91807230I-51000J0D01*
G01*
X76415900Y-91807230D01*
G75*
G02*
X76364900Y-91756230I0J51000D01*
G01*
X76364900Y-88756490D01*
G75*
G02*
X76415900Y-88705490I51000J0D01*
G01*
G37*
D14*
X77216000Y-94996000D03*
X77216000Y-89916000D03*
G36*
G01*
X55218750Y-41813500D02*
X54255250Y-41813500D01*
G75*
G02*
X53986000Y-41544250I0J269250D01*
G01*
X53986000Y-41005750D01*
G75*
G02*
X54255250Y-40736500I269250J0D01*
G01*
X55218750Y-40736500D01*
G75*
G02*
X55488000Y-41005750I0J-269250D01*
G01*
X55488000Y-41544250D01*
G75*
G02*
X55218750Y-41813500I-269250J0D01*
G01*
G37*
G36*
G01*
X55218750Y-43688500D02*
X54255250Y-43688500D01*
G75*
G02*
X53986000Y-43419250I0J269250D01*
G01*
X53986000Y-42880750D01*
G75*
G02*
X54255250Y-42611500I269250J0D01*
G01*
X55218750Y-42611500D01*
G75*
G02*
X55488000Y-42880750I0J-269250D01*
G01*
X55488000Y-43419250D01*
G75*
G02*
X55218750Y-43688500I-269250J0D01*
G01*
G37*
G36*
G01*
X73065000Y-50143000D02*
X73065000Y-48643000D01*
G75*
G02*
X73116000Y-48592000I51000J0D01*
G01*
X75116000Y-48592000D01*
G75*
G02*
X75167000Y-48643000I0J-51000D01*
G01*
X75167000Y-50143000D01*
G75*
G02*
X75116000Y-50194000I-51000J0D01*
G01*
X73116000Y-50194000D01*
G75*
G02*
X73065000Y-50143000I0J51000D01*
G01*
G37*
G36*
G01*
X73065000Y-55243000D02*
X73065000Y-53743000D01*
G75*
G02*
X73116000Y-53692000I51000J0D01*
G01*
X75116000Y-53692000D01*
G75*
G02*
X75167000Y-53743000I0J-51000D01*
G01*
X75167000Y-55243000D01*
G75*
G02*
X75116000Y-55294000I-51000J0D01*
G01*
X73116000Y-55294000D01*
G75*
G02*
X73065000Y-55243000I0J51000D01*
G01*
G37*
G36*
G01*
X81805000Y-55243000D02*
X81805000Y-53743000D01*
G75*
G02*
X81856000Y-53692000I51000J0D01*
G01*
X83856000Y-53692000D01*
G75*
G02*
X83907000Y-53743000I0J-51000D01*
G01*
X83907000Y-55243000D01*
G75*
G02*
X83856000Y-55294000I-51000J0D01*
G01*
X81856000Y-55294000D01*
G75*
G02*
X81805000Y-55243000I0J51000D01*
G01*
G37*
G36*
G01*
X81805000Y-50143000D02*
X81805000Y-48643000D01*
G75*
G02*
X81856000Y-48592000I51000J0D01*
G01*
X83856000Y-48592000D01*
G75*
G02*
X83907000Y-48643000I0J-51000D01*
G01*
X83907000Y-50143000D01*
G75*
G02*
X83856000Y-50194000I-51000J0D01*
G01*
X81856000Y-50194000D01*
G75*
G02*
X81805000Y-50143000I0J51000D01*
G01*
G37*
X63754000Y-86106000D03*
X61214000Y-86106000D03*
X66294000Y-86106000D03*
X68834000Y-86106000D03*
X58674000Y-86106000D03*
X56134000Y-86106000D03*
D21*
X94996000Y-56134000D03*
G36*
G01*
X96496000Y-62765000D02*
X93496000Y-62765000D01*
G75*
G02*
X93445000Y-62714000I0J51000D01*
G01*
X93445000Y-59714000D01*
G75*
G02*
X93496000Y-59663000I51000J0D01*
G01*
X96496000Y-59663000D01*
G75*
G02*
X96547000Y-59714000I0J-51000D01*
G01*
X96547000Y-62714000D01*
G75*
G02*
X96496000Y-62765000I-51000J0D01*
G01*
G37*
X94996000Y-45720000D03*
G36*
G01*
X96496000Y-52351000D02*
X93496000Y-52351000D01*
G75*
G02*
X93445000Y-52300000I0J51000D01*
G01*
X93445000Y-49300000D01*
G75*
G02*
X93496000Y-49249000I51000J0D01*
G01*
X96496000Y-49249000D01*
G75*
G02*
X96547000Y-49300000I0J-51000D01*
G01*
X96547000Y-52300000D01*
G75*
G02*
X96496000Y-52351000I-51000J0D01*
G01*
G37*
X94996000Y-8890000D03*
X94996000Y-13970000D03*
G36*
G01*
X96496000Y-30761000D02*
X93496000Y-30761000D01*
G75*
G02*
X93445000Y-30710000I0J51000D01*
G01*
X93445000Y-27710000D01*
G75*
G02*
X93496000Y-27659000I51000J0D01*
G01*
X96496000Y-27659000D01*
G75*
G02*
X96547000Y-27710000I0J-51000D01*
G01*
X96547000Y-30710000D01*
G75*
G02*
X96496000Y-30761000I-51000J0D01*
G01*
G37*
X94996000Y-19050000D03*
X94996000Y-24130000D03*
G36*
G01*
X96496000Y-72925000D02*
X93496000Y-72925000D01*
G75*
G02*
X93445000Y-72874000I0J51000D01*
G01*
X93445000Y-69874000D01*
G75*
G02*
X93496000Y-69823000I51000J0D01*
G01*
X96496000Y-69823000D01*
G75*
G02*
X96547000Y-69874000I0J-51000D01*
G01*
X96547000Y-72874000D01*
G75*
G02*
X96496000Y-72925000I-51000J0D01*
G01*
G37*
X94996000Y-66294000D03*
X25527000Y-93726000D03*
X20447000Y-93726000D03*
G36*
G01*
X32158000Y-92226000D02*
X32158000Y-95226000D01*
G75*
G02*
X32107000Y-95277000I-51000J0D01*
G01*
X29107000Y-95277000D01*
G75*
G02*
X29056000Y-95226000I0J51000D01*
G01*
X29056000Y-92226000D01*
G75*
G02*
X29107000Y-92175000I51000J0D01*
G01*
X32107000Y-92175000D01*
G75*
G02*
X32158000Y-92226000I0J-51000D01*
G01*
G37*
X15367000Y-93726000D03*
X10287000Y-93726000D03*
G36*
G01*
X72798000Y-92226000D02*
X72798000Y-95226000D01*
G75*
G02*
X72747000Y-95277000I-51000J0D01*
G01*
X69747000Y-95277000D01*
G75*
G02*
X69696000Y-95226000I0J51000D01*
G01*
X69696000Y-92226000D01*
G75*
G02*
X69747000Y-92175000I51000J0D01*
G01*
X72747000Y-92175000D01*
G75*
G02*
X72798000Y-92226000I0J-51000D01*
G01*
G37*
X66167000Y-93726000D03*
G36*
G01*
X2564000Y-58139000D02*
X5564000Y-58139000D01*
G75*
G02*
X5615000Y-58190000I0J-51000D01*
G01*
X5615000Y-61190000D01*
G75*
G02*
X5564000Y-61241000I-51000J0D01*
G01*
X2564000Y-61241000D01*
G75*
G02*
X2513000Y-61190000I0J51000D01*
G01*
X2513000Y-58190000D01*
G75*
G02*
X2564000Y-58139000I51000J0D01*
G01*
G37*
X4064000Y-64770000D03*
G36*
G01*
X2564000Y-79475000D02*
X5564000Y-79475000D01*
G75*
G02*
X5615000Y-79526000I0J-51000D01*
G01*
X5615000Y-82526000D01*
G75*
G02*
X5564000Y-82577000I-51000J0D01*
G01*
X2564000Y-82577000D01*
G75*
G02*
X2513000Y-82526000I0J51000D01*
G01*
X2513000Y-79526000D01*
G75*
G02*
X2564000Y-79475000I51000J0D01*
G01*
G37*
X4064000Y-86106000D03*
X4064000Y-75438000D03*
G36*
G01*
X2564000Y-68807000D02*
X5564000Y-68807000D01*
G75*
G02*
X5615000Y-68858000I0J-51000D01*
G01*
X5615000Y-71858000D01*
G75*
G02*
X5564000Y-71909000I-51000J0D01*
G01*
X2564000Y-71909000D01*
G75*
G02*
X2513000Y-71858000I0J51000D01*
G01*
X2513000Y-68858000D01*
G75*
G02*
X2564000Y-68807000I51000J0D01*
G01*
G37*
G36*
G01*
X53936900Y-42939770D02*
X55537100Y-42939770D01*
G75*
G02*
X55588100Y-42990770I0J-51000D01*
G01*
X55588100Y-45990510D01*
G75*
G02*
X55537100Y-46041510I-51000J0D01*
G01*
X53936900Y-46041510D01*
G75*
G02*
X53885900Y-45990510I0J51000D01*
G01*
X53885900Y-42990770D01*
G75*
G02*
X53936900Y-42939770I51000J0D01*
G01*
G37*
G36*
G01*
X53936900Y-38540490D02*
X55537100Y-38540490D01*
G75*
G02*
X55588100Y-38591490I0J-51000D01*
G01*
X55588100Y-41591230D01*
G75*
G02*
X55537100Y-41642230I-51000J0D01*
G01*
X53936900Y-41642230D01*
G75*
G02*
X53885900Y-41591230I0J51000D01*
G01*
X53885900Y-38591490D01*
G75*
G02*
X53936900Y-38540490I51000J0D01*
G01*
G37*
D14*
X54737000Y-44831000D03*
X54737000Y-39751000D03*
X62103000Y-39751000D03*
X62103000Y-44831000D03*
G36*
G01*
X61302900Y-38540490D02*
X62903100Y-38540490D01*
G75*
G02*
X62954100Y-38591490I0J-51000D01*
G01*
X62954100Y-41591230D01*
G75*
G02*
X62903100Y-41642230I-51000J0D01*
G01*
X61302900Y-41642230D01*
G75*
G02*
X61251900Y-41591230I0J51000D01*
G01*
X61251900Y-38591490D01*
G75*
G02*
X61302900Y-38540490I51000J0D01*
G01*
G37*
G36*
G01*
X61302900Y-42939770D02*
X62903100Y-42939770D01*
G75*
G02*
X62954100Y-42990770I0J-51000D01*
G01*
X62954100Y-45990510D01*
G75*
G02*
X62903100Y-46041510I-51000J0D01*
G01*
X61302900Y-46041510D01*
G75*
G02*
X61251900Y-45990510I0J51000D01*
G01*
X61251900Y-42990770D01*
G75*
G02*
X61302900Y-42939770I51000J0D01*
G01*
G37*
G36*
G01*
X54059000Y-59174500D02*
X54059000Y-58173500D01*
G75*
G02*
X54334500Y-57898000I275500J0D01*
G01*
X54885500Y-57898000D01*
G75*
G02*
X55161000Y-58173500I0J-275500D01*
G01*
X55161000Y-59174500D01*
G75*
G02*
X54885500Y-59450000I-275500J0D01*
G01*
X54334500Y-59450000D01*
G75*
G02*
X54059000Y-59174500I0J275500D01*
G01*
G37*
G36*
G01*
X52159000Y-59174500D02*
X52159000Y-58173500D01*
G75*
G02*
X52434500Y-57898000I275500J0D01*
G01*
X52985500Y-57898000D01*
G75*
G02*
X53261000Y-58173500I0J-275500D01*
G01*
X53261000Y-59174500D01*
G75*
G02*
X52985500Y-59450000I-275500J0D01*
G01*
X52434500Y-59450000D01*
G75*
G02*
X52159000Y-59174500I0J275500D01*
G01*
G37*
X59182000Y-67310000D03*
X59182000Y-62230000D03*
G36*
G01*
X59982100Y-68520510D02*
X58381900Y-68520510D01*
G75*
G02*
X58330900Y-68469510I0J51000D01*
G01*
X58330900Y-65469770D01*
G75*
G02*
X58381900Y-65418770I51000J0D01*
G01*
X59982100Y-65418770D01*
G75*
G02*
X60033100Y-65469770I0J-51000D01*
G01*
X60033100Y-68469510D01*
G75*
G02*
X59982100Y-68520510I-51000J0D01*
G01*
G37*
G36*
G01*
X59982100Y-64121230D02*
X58381900Y-64121230D01*
G75*
G02*
X58330900Y-64070230I0J51000D01*
G01*
X58330900Y-61070490D01*
G75*
G02*
X58381900Y-61019490I51000J0D01*
G01*
X59982100Y-61019490D01*
G75*
G02*
X60033100Y-61070490I0J-51000D01*
G01*
X60033100Y-64070230D01*
G75*
G02*
X59982100Y-64121230I-51000J0D01*
G01*
G37*
G36*
G01*
X69634100Y-51507590D02*
X68033900Y-51507590D01*
G75*
G02*
X67982900Y-51456590I0J51000D01*
G01*
X67982900Y-48456850D01*
G75*
G02*
X68033900Y-48405850I51000J0D01*
G01*
X69634100Y-48405850D01*
G75*
G02*
X69685100Y-48456850I0J-51000D01*
G01*
X69685100Y-51456590D01*
G75*
G02*
X69634100Y-51507590I-51000J0D01*
G01*
G37*
G36*
G01*
X69634100Y-55906870D02*
X68033900Y-55906870D01*
G75*
G02*
X67982900Y-55855870I0J51000D01*
G01*
X67982900Y-52856130D01*
G75*
G02*
X68033900Y-52805130I51000J0D01*
G01*
X69634100Y-52805130D01*
G75*
G02*
X69685100Y-52856130I0J-51000D01*
G01*
X69685100Y-55855870D01*
G75*
G02*
X69634100Y-55906870I-51000J0D01*
G01*
G37*
X68834000Y-49616360D03*
X68834000Y-54696360D03*
G36*
G01*
X77075230Y-61937900D02*
X77075230Y-63538100D01*
G75*
G02*
X77024230Y-63589100I-51000J0D01*
G01*
X74024490Y-63589100D01*
G75*
G02*
X73973490Y-63538100I0J51000D01*
G01*
X73973490Y-61937900D01*
G75*
G02*
X74024490Y-61886900I51000J0D01*
G01*
X77024230Y-61886900D01*
G75*
G02*
X77075230Y-61937900I0J-51000D01*
G01*
G37*
G36*
G01*
X81474510Y-61937900D02*
X81474510Y-63538100D01*
G75*
G02*
X81423510Y-63589100I-51000J0D01*
G01*
X78423770Y-63589100D01*
G75*
G02*
X78372770Y-63538100I0J51000D01*
G01*
X78372770Y-61937900D01*
G75*
G02*
X78423770Y-61886900I51000J0D01*
G01*
X81423510Y-61886900D01*
G75*
G02*
X81474510Y-61937900I0J-51000D01*
G01*
G37*
X75184000Y-62738000D03*
X80264000Y-62738000D03*
G36*
G01*
X66611000Y-57774000D02*
X66611000Y-59574000D01*
G75*
G02*
X66560000Y-59625000I-51000J0D01*
G01*
X64060000Y-59625000D01*
G75*
G02*
X64009000Y-59574000I0J51000D01*
G01*
X64009000Y-57774000D01*
G75*
G02*
X64060000Y-57723000I51000J0D01*
G01*
X66560000Y-57723000D01*
G75*
G02*
X66611000Y-57774000I0J-51000D01*
G01*
G37*
G36*
G01*
X70611000Y-57774000D02*
X70611000Y-59574000D01*
G75*
G02*
X70560000Y-59625000I-51000J0D01*
G01*
X68060000Y-59625000D01*
G75*
G02*
X68009000Y-59574000I0J51000D01*
G01*
X68009000Y-57774000D01*
G75*
G02*
X68060000Y-57723000I51000J0D01*
G01*
X70560000Y-57723000D01*
G75*
G02*
X70611000Y-57774000I0J-51000D01*
G01*
G37*
G36*
G01*
X54494000Y-67849000D02*
X52694000Y-67849000D01*
G75*
G02*
X52643000Y-67798000I0J51000D01*
G01*
X52643000Y-65298000D01*
G75*
G02*
X52694000Y-65247000I51000J0D01*
G01*
X54494000Y-65247000D01*
G75*
G02*
X54545000Y-65298000I0J-51000D01*
G01*
X54545000Y-67798000D01*
G75*
G02*
X54494000Y-67849000I-51000J0D01*
G01*
G37*
G36*
G01*
X54494000Y-63849000D02*
X52694000Y-63849000D01*
G75*
G02*
X52643000Y-63798000I0J51000D01*
G01*
X52643000Y-61298000D01*
G75*
G02*
X52694000Y-61247000I51000J0D01*
G01*
X54494000Y-61247000D01*
G75*
G02*
X54545000Y-61298000I0J-51000D01*
G01*
X54545000Y-63798000D01*
G75*
G02*
X54494000Y-63849000I-51000J0D01*
G01*
G37*
G36*
G01*
X61967500Y-59150124D02*
X61967500Y-58197876D01*
G75*
G02*
X62242376Y-57923000I274876J0D01*
G01*
X62819624Y-57923000D01*
G75*
G02*
X63094500Y-58197876I0J-274876D01*
G01*
X63094500Y-59150124D01*
G75*
G02*
X62819624Y-59425000I-274876J0D01*
G01*
X62242376Y-59425000D01*
G75*
G02*
X61967500Y-59150124I0J274876D01*
G01*
G37*
G36*
G01*
X60142500Y-59150124D02*
X60142500Y-58197876D01*
G75*
G02*
X60417376Y-57923000I274876J0D01*
G01*
X60994624Y-57923000D01*
G75*
G02*
X61269500Y-58197876I0J-274876D01*
G01*
X61269500Y-59150124D01*
G75*
G02*
X60994624Y-59425000I-274876J0D01*
G01*
X60417376Y-59425000D01*
G75*
G02*
X60142500Y-59150124I0J274876D01*
G01*
G37*
G36*
G01*
X59491500Y-58197876D02*
X59491500Y-59150124D01*
G75*
G02*
X59216624Y-59425000I-274876J0D01*
G01*
X58639376Y-59425000D01*
G75*
G02*
X58364500Y-59150124I0J274876D01*
G01*
X58364500Y-58197876D01*
G75*
G02*
X58639376Y-57923000I274876J0D01*
G01*
X59216624Y-57923000D01*
G75*
G02*
X59491500Y-58197876I0J-274876D01*
G01*
G37*
G36*
G01*
X57666500Y-58197876D02*
X57666500Y-59150124D01*
G75*
G02*
X57391624Y-59425000I-274876J0D01*
G01*
X56814376Y-59425000D01*
G75*
G02*
X56539500Y-59150124I0J274876D01*
G01*
X56539500Y-58197876D01*
G75*
G02*
X56814376Y-57923000I274876J0D01*
G01*
X57391624Y-57923000D01*
G75*
G02*
X57666500Y-58197876I0J-274876D01*
G01*
G37*
G36*
G01*
X80208500Y-58642124D02*
X80208500Y-57689876D01*
G75*
G02*
X80483376Y-57415000I274876J0D01*
G01*
X81060624Y-57415000D01*
G75*
G02*
X81335500Y-57689876I0J-274876D01*
G01*
X81335500Y-58642124D01*
G75*
G02*
X81060624Y-58917000I-274876J0D01*
G01*
X80483376Y-58917000D01*
G75*
G02*
X80208500Y-58642124I0J274876D01*
G01*
G37*
G36*
G01*
X78383500Y-58642124D02*
X78383500Y-57689876D01*
G75*
G02*
X78658376Y-57415000I274876J0D01*
G01*
X79235624Y-57415000D01*
G75*
G02*
X79510500Y-57689876I0J-274876D01*
G01*
X79510500Y-58642124D01*
G75*
G02*
X79235624Y-58917000I-274876J0D01*
G01*
X78658376Y-58917000D01*
G75*
G02*
X78383500Y-58642124I0J274876D01*
G01*
G37*
D13*
X67564000Y-63072000D03*
X67564000Y-68072000D03*
G36*
G01*
X76311000Y-58293001D02*
X76311000Y-58038999D01*
G75*
G02*
X76361999Y-57988000I50999J0D01*
G01*
X77562001Y-57988000D01*
G75*
G02*
X77613000Y-58038999I0J-50999D01*
G01*
X77613000Y-58293001D01*
G75*
G02*
X77562001Y-58344000I-50999J0D01*
G01*
X76361999Y-58344000D01*
G75*
G02*
X76311000Y-58293001I0J50999D01*
G01*
G37*
G36*
G01*
X75450500Y-57912001D02*
X75450500Y-57657999D01*
G75*
G02*
X75501499Y-57607000I50999J0D01*
G01*
X76644501Y-57607000D01*
G75*
G02*
X76695500Y-57657999I0J-50999D01*
G01*
X76695500Y-57912001D01*
G75*
G02*
X76644501Y-57963000I-50999J0D01*
G01*
X75501499Y-57963000D01*
G75*
G02*
X75450500Y-57912001I0J50999D01*
G01*
G37*
G36*
G01*
X75260000Y-58674000D02*
X75260000Y-57658000D01*
G75*
G02*
X75311000Y-57607000I51000J0D01*
G01*
X76073000Y-57607000D01*
G75*
G02*
X76124000Y-57658000I0J-51000D01*
G01*
X76124000Y-58674000D01*
G75*
G02*
X76073000Y-58725000I-51000J0D01*
G01*
X75311000Y-58725000D01*
G75*
G02*
X75260000Y-58674000I0J51000D01*
G01*
G37*
G36*
G01*
X75450500Y-58674001D02*
X75450500Y-58419999D01*
G75*
G02*
X75501499Y-58369000I50999J0D01*
G01*
X76644501Y-58369000D01*
G75*
G02*
X76695500Y-58419999I0J-50999D01*
G01*
X76695500Y-58674001D01*
G75*
G02*
X76644501Y-58725000I-50999J0D01*
G01*
X75501499Y-58725000D01*
G75*
G02*
X75450500Y-58674001I0J50999D01*
G01*
G37*
G36*
G01*
X76784000Y-58674000D02*
X76784000Y-57658000D01*
G75*
G02*
X76835000Y-57607000I51000J0D01*
G01*
X77597000Y-57607000D01*
G75*
G02*
X77648000Y-57658000I0J-51000D01*
G01*
X77648000Y-58674000D01*
G75*
G02*
X77597000Y-58725000I-51000J0D01*
G01*
X76835000Y-58725000D01*
G75*
G02*
X76784000Y-58674000I0J51000D01*
G01*
G37*
G36*
G01*
X78816000Y-55118000D02*
X78816000Y-54102000D01*
G75*
G02*
X78867000Y-54051000I51000J0D01*
G01*
X79629000Y-54051000D01*
G75*
G02*
X79680000Y-54102000I0J-51000D01*
G01*
X79680000Y-55118000D01*
G75*
G02*
X79629000Y-55169000I-51000J0D01*
G01*
X78867000Y-55169000D01*
G75*
G02*
X78816000Y-55118000I0J51000D01*
G01*
G37*
G36*
G01*
X77482500Y-55118001D02*
X77482500Y-54863999D01*
G75*
G02*
X77533499Y-54813000I50999J0D01*
G01*
X78676501Y-54813000D01*
G75*
G02*
X78727500Y-54863999I0J-50999D01*
G01*
X78727500Y-55118001D01*
G75*
G02*
X78676501Y-55169000I-50999J0D01*
G01*
X77533499Y-55169000D01*
G75*
G02*
X77482500Y-55118001I0J50999D01*
G01*
G37*
G36*
G01*
X77292000Y-55118000D02*
X77292000Y-54102000D01*
G75*
G02*
X77343000Y-54051000I51000J0D01*
G01*
X78105000Y-54051000D01*
G75*
G02*
X78156000Y-54102000I0J-51000D01*
G01*
X78156000Y-55118000D01*
G75*
G02*
X78105000Y-55169000I-51000J0D01*
G01*
X77343000Y-55169000D01*
G75*
G02*
X77292000Y-55118000I0J51000D01*
G01*
G37*
G36*
G01*
X77482500Y-54356001D02*
X77482500Y-54101999D01*
G75*
G02*
X77533499Y-54051000I50999J0D01*
G01*
X78676501Y-54051000D01*
G75*
G02*
X78727500Y-54101999I0J-50999D01*
G01*
X78727500Y-54356001D01*
G75*
G02*
X78676501Y-54407000I-50999J0D01*
G01*
X77533499Y-54407000D01*
G75*
G02*
X77482500Y-54356001I0J50999D01*
G01*
G37*
G36*
G01*
X78343000Y-54737001D02*
X78343000Y-54482999D01*
G75*
G02*
X78393999Y-54432000I50999J0D01*
G01*
X79594001Y-54432000D01*
G75*
G02*
X79645000Y-54482999I0J-50999D01*
G01*
X79645000Y-54737001D01*
G75*
G02*
X79594001Y-54788000I-50999J0D01*
G01*
X78393999Y-54788000D01*
G75*
G02*
X78343000Y-54737001I0J50999D01*
G01*
G37*
G36*
G01*
X80136999Y-71993000D02*
X80391001Y-71993000D01*
G75*
G02*
X80442000Y-72043999I0J-50999D01*
G01*
X80442000Y-73244001D01*
G75*
G02*
X80391001Y-73295000I-50999J0D01*
G01*
X80136999Y-73295000D01*
G75*
G02*
X80086000Y-73244001I0J50999D01*
G01*
X80086000Y-72043999D01*
G75*
G02*
X80136999Y-71993000I50999J0D01*
G01*
G37*
G36*
G01*
X80517999Y-71132500D02*
X80772001Y-71132500D01*
G75*
G02*
X80823000Y-71183499I0J-50999D01*
G01*
X80823000Y-72326501D01*
G75*
G02*
X80772001Y-72377500I-50999J0D01*
G01*
X80517999Y-72377500D01*
G75*
G02*
X80467000Y-72326501I0J50999D01*
G01*
X80467000Y-71183499D01*
G75*
G02*
X80517999Y-71132500I50999J0D01*
G01*
G37*
G36*
G01*
X79756000Y-70942000D02*
X80772000Y-70942000D01*
G75*
G02*
X80823000Y-70993000I0J-51000D01*
G01*
X80823000Y-71755000D01*
G75*
G02*
X80772000Y-71806000I-51000J0D01*
G01*
X79756000Y-71806000D01*
G75*
G02*
X79705000Y-71755000I0J51000D01*
G01*
X79705000Y-70993000D01*
G75*
G02*
X79756000Y-70942000I51000J0D01*
G01*
G37*
G36*
G01*
X79755999Y-71132500D02*
X80010001Y-71132500D01*
G75*
G02*
X80061000Y-71183499I0J-50999D01*
G01*
X80061000Y-72326501D01*
G75*
G02*
X80010001Y-72377500I-50999J0D01*
G01*
X79755999Y-72377500D01*
G75*
G02*
X79705000Y-72326501I0J50999D01*
G01*
X79705000Y-71183499D01*
G75*
G02*
X79755999Y-71132500I50999J0D01*
G01*
G37*
G36*
G01*
X79756000Y-72466000D02*
X80772000Y-72466000D01*
G75*
G02*
X80823000Y-72517000I0J-51000D01*
G01*
X80823000Y-73279000D01*
G75*
G02*
X80772000Y-73330000I-51000J0D01*
G01*
X79756000Y-73330000D01*
G75*
G02*
X79705000Y-73279000I0J51000D01*
G01*
X79705000Y-72517000D01*
G75*
G02*
X79756000Y-72466000I51000J0D01*
G01*
G37*
G36*
G01*
X82676999Y-71993000D02*
X82931001Y-71993000D01*
G75*
G02*
X82982000Y-72043999I0J-50999D01*
G01*
X82982000Y-73244001D01*
G75*
G02*
X82931001Y-73295000I-50999J0D01*
G01*
X82676999Y-73295000D01*
G75*
G02*
X82626000Y-73244001I0J50999D01*
G01*
X82626000Y-72043999D01*
G75*
G02*
X82676999Y-71993000I50999J0D01*
G01*
G37*
G36*
G01*
X83057999Y-71132500D02*
X83312001Y-71132500D01*
G75*
G02*
X83363000Y-71183499I0J-50999D01*
G01*
X83363000Y-72326501D01*
G75*
G02*
X83312001Y-72377500I-50999J0D01*
G01*
X83057999Y-72377500D01*
G75*
G02*
X83007000Y-72326501I0J50999D01*
G01*
X83007000Y-71183499D01*
G75*
G02*
X83057999Y-71132500I50999J0D01*
G01*
G37*
G36*
G01*
X82296000Y-70942000D02*
X83312000Y-70942000D01*
G75*
G02*
X83363000Y-70993000I0J-51000D01*
G01*
X83363000Y-71755000D01*
G75*
G02*
X83312000Y-71806000I-51000J0D01*
G01*
X82296000Y-71806000D01*
G75*
G02*
X82245000Y-71755000I0J51000D01*
G01*
X82245000Y-70993000D01*
G75*
G02*
X82296000Y-70942000I51000J0D01*
G01*
G37*
G36*
G01*
X82295999Y-71132500D02*
X82550001Y-71132500D01*
G75*
G02*
X82601000Y-71183499I0J-50999D01*
G01*
X82601000Y-72326501D01*
G75*
G02*
X82550001Y-72377500I-50999J0D01*
G01*
X82295999Y-72377500D01*
G75*
G02*
X82245000Y-72326501I0J50999D01*
G01*
X82245000Y-71183499D01*
G75*
G02*
X82295999Y-71132500I50999J0D01*
G01*
G37*
G36*
G01*
X82296000Y-72466000D02*
X83312000Y-72466000D01*
G75*
G02*
X83363000Y-72517000I0J-51000D01*
G01*
X83363000Y-73279000D01*
G75*
G02*
X83312000Y-73330000I-51000J0D01*
G01*
X82296000Y-73330000D01*
G75*
G02*
X82245000Y-73279000I0J51000D01*
G01*
X82245000Y-72517000D01*
G75*
G02*
X82296000Y-72466000I51000J0D01*
G01*
G37*
G36*
G01*
X70434000Y-44958000D02*
X70434000Y-43942000D01*
G75*
G02*
X70485000Y-43891000I51000J0D01*
G01*
X71247000Y-43891000D01*
G75*
G02*
X71298000Y-43942000I0J-51000D01*
G01*
X71298000Y-44958000D01*
G75*
G02*
X71247000Y-45009000I-51000J0D01*
G01*
X70485000Y-45009000D01*
G75*
G02*
X70434000Y-44958000I0J51000D01*
G01*
G37*
G36*
G01*
X69100500Y-44958001D02*
X69100500Y-44703999D01*
G75*
G02*
X69151499Y-44653000I50999J0D01*
G01*
X70294501Y-44653000D01*
G75*
G02*
X70345500Y-44703999I0J-50999D01*
G01*
X70345500Y-44958001D01*
G75*
G02*
X70294501Y-45009000I-50999J0D01*
G01*
X69151499Y-45009000D01*
G75*
G02*
X69100500Y-44958001I0J50999D01*
G01*
G37*
G36*
G01*
X68910000Y-44958000D02*
X68910000Y-43942000D01*
G75*
G02*
X68961000Y-43891000I51000J0D01*
G01*
X69723000Y-43891000D01*
G75*
G02*
X69774000Y-43942000I0J-51000D01*
G01*
X69774000Y-44958000D01*
G75*
G02*
X69723000Y-45009000I-51000J0D01*
G01*
X68961000Y-45009000D01*
G75*
G02*
X68910000Y-44958000I0J51000D01*
G01*
G37*
G36*
G01*
X69100500Y-44196001D02*
X69100500Y-43941999D01*
G75*
G02*
X69151499Y-43891000I50999J0D01*
G01*
X70294501Y-43891000D01*
G75*
G02*
X70345500Y-43941999I0J-50999D01*
G01*
X70345500Y-44196001D01*
G75*
G02*
X70294501Y-44247000I-50999J0D01*
G01*
X69151499Y-44247000D01*
G75*
G02*
X69100500Y-44196001I0J50999D01*
G01*
G37*
G36*
G01*
X69961000Y-44577001D02*
X69961000Y-44322999D01*
G75*
G02*
X70011999Y-44272000I50999J0D01*
G01*
X71212001Y-44272000D01*
G75*
G02*
X71263000Y-44322999I0J-50999D01*
G01*
X71263000Y-44577001D01*
G75*
G02*
X71212001Y-44628000I-50999J0D01*
G01*
X70011999Y-44628000D01*
G75*
G02*
X69961000Y-44577001I0J50999D01*
G01*
G37*
G36*
G01*
X48183000Y-66495000D02*
X49353000Y-66495000D01*
G75*
G02*
X49404000Y-66546000I0J-51000D01*
G01*
X49404000Y-68546000D01*
G75*
G02*
X49353000Y-68597000I-51000J0D01*
G01*
X48183000Y-68597000D01*
G75*
G02*
X48132000Y-68546000I0J51000D01*
G01*
X48132000Y-66546000D01*
G75*
G02*
X48183000Y-66495000I51000J0D01*
G01*
G37*
G36*
G01*
X45467999Y-66495000D02*
X46988001Y-66495000D01*
G75*
G02*
X47039000Y-66545999I0J-50999D01*
G01*
X47039000Y-68546001D01*
G75*
G02*
X46988001Y-68597000I-50999J0D01*
G01*
X45467999Y-68597000D01*
G75*
G02*
X45417000Y-68546001I0J50999D01*
G01*
X45417000Y-66545999D01*
G75*
G02*
X45467999Y-66495000I50999J0D01*
G01*
G37*
G36*
G01*
X40563000Y-66495000D02*
X41733000Y-66495000D01*
G75*
G02*
X41784000Y-66546000I0J-51000D01*
G01*
X41784000Y-68546000D01*
G75*
G02*
X41733000Y-68597000I-51000J0D01*
G01*
X40563000Y-68597000D01*
G75*
G02*
X40512000Y-68546000I0J51000D01*
G01*
X40512000Y-66546000D01*
G75*
G02*
X40563000Y-66495000I51000J0D01*
G01*
G37*
G36*
G01*
X40563000Y-57895000D02*
X41733000Y-57895000D01*
G75*
G02*
X41784000Y-57946000I0J-51000D01*
G01*
X41784000Y-59946000D01*
G75*
G02*
X41733000Y-59997000I-51000J0D01*
G01*
X40563000Y-59997000D01*
G75*
G02*
X40512000Y-59946000I0J51000D01*
G01*
X40512000Y-57946000D01*
G75*
G02*
X40563000Y-57895000I51000J0D01*
G01*
G37*
G36*
G01*
X42927999Y-57895000D02*
X44448001Y-57895000D01*
G75*
G02*
X44499000Y-57945999I0J-50999D01*
G01*
X44499000Y-59946001D01*
G75*
G02*
X44448001Y-59997000I-50999J0D01*
G01*
X42927999Y-59997000D01*
G75*
G02*
X42877000Y-59946001I0J50999D01*
G01*
X42877000Y-57945999D01*
G75*
G02*
X42927999Y-57895000I50999J0D01*
G01*
G37*
G36*
G01*
X45467999Y-57895000D02*
X46988001Y-57895000D01*
G75*
G02*
X47039000Y-57945999I0J-50999D01*
G01*
X47039000Y-59946001D01*
G75*
G02*
X46988001Y-59997000I-50999J0D01*
G01*
X45467999Y-59997000D01*
G75*
G02*
X45417000Y-59946001I0J50999D01*
G01*
X45417000Y-57945999D01*
G75*
G02*
X45467999Y-57895000I50999J0D01*
G01*
G37*
G36*
G01*
X48183000Y-57895000D02*
X49353000Y-57895000D01*
G75*
G02*
X49404000Y-57946000I0J-51000D01*
G01*
X49404000Y-59946000D01*
G75*
G02*
X49353000Y-59997000I-51000J0D01*
G01*
X48183000Y-59997000D01*
G75*
G02*
X48132000Y-59946000I0J51000D01*
G01*
X48132000Y-57946000D01*
G75*
G02*
X48183000Y-57895000I51000J0D01*
G01*
G37*
G36*
G01*
X92634000Y-89535000D02*
X92634000Y-90551000D01*
G75*
G02*
X92583000Y-90602000I-51000J0D01*
G01*
X91821000Y-90602000D01*
G75*
G02*
X91770000Y-90551000I0J51000D01*
G01*
X91770000Y-89535000D01*
G75*
G02*
X91821000Y-89484000I51000J0D01*
G01*
X92583000Y-89484000D01*
G75*
G02*
X92634000Y-89535000I0J-51000D01*
G01*
G37*
G36*
G01*
X93967500Y-89534999D02*
X93967500Y-89789001D01*
G75*
G02*
X93916501Y-89840000I-50999J0D01*
G01*
X92773499Y-89840000D01*
G75*
G02*
X92722500Y-89789001I0J50999D01*
G01*
X92722500Y-89534999D01*
G75*
G02*
X92773499Y-89484000I50999J0D01*
G01*
X93916501Y-89484000D01*
G75*
G02*
X93967500Y-89534999I0J-50999D01*
G01*
G37*
G36*
G01*
X94158000Y-89535000D02*
X94158000Y-90551000D01*
G75*
G02*
X94107000Y-90602000I-51000J0D01*
G01*
X93345000Y-90602000D01*
G75*
G02*
X93294000Y-90551000I0J51000D01*
G01*
X93294000Y-89535000D01*
G75*
G02*
X93345000Y-89484000I51000J0D01*
G01*
X94107000Y-89484000D01*
G75*
G02*
X94158000Y-89535000I0J-51000D01*
G01*
G37*
G36*
G01*
X93967500Y-90296999D02*
X93967500Y-90551001D01*
G75*
G02*
X93916501Y-90602000I-50999J0D01*
G01*
X92773499Y-90602000D01*
G75*
G02*
X92722500Y-90551001I0J50999D01*
G01*
X92722500Y-90296999D01*
G75*
G02*
X92773499Y-90246000I50999J0D01*
G01*
X93916501Y-90246000D01*
G75*
G02*
X93967500Y-90296999I0J-50999D01*
G01*
G37*
G36*
G01*
X93107000Y-89915999D02*
X93107000Y-90170001D01*
G75*
G02*
X93056001Y-90221000I-50999J0D01*
G01*
X91855999Y-90221000D01*
G75*
G02*
X91805000Y-90170001I0J50999D01*
G01*
X91805000Y-89915999D01*
G75*
G02*
X91855999Y-89865000I50999J0D01*
G01*
X93056001Y-89865000D01*
G75*
G02*
X93107000Y-89915999I0J-50999D01*
G01*
G37*
G36*
G01*
X2909000Y-42760000D02*
X2909000Y-41060000D01*
G75*
G02*
X2960000Y-41009000I51000J0D01*
G01*
X4660000Y-41009000D01*
G75*
G02*
X4711000Y-41060000I0J-51000D01*
G01*
X4711000Y-42760000D01*
G75*
G02*
X4660000Y-42811000I-51000J0D01*
G01*
X2960000Y-42811000D01*
G75*
G02*
X2909000Y-42760000I0J51000D01*
G01*
G37*
D17*
X6350000Y-41910000D03*
X3810000Y-44450000D03*
X6350000Y-44450000D03*
X3810000Y-46990000D03*
X6350000Y-46990000D03*
X3810000Y-49530000D03*
X6350000Y-49530000D03*
D21*
X56007000Y-93726000D03*
X50927000Y-93726000D03*
G36*
G01*
X62638000Y-92226000D02*
X62638000Y-95226000D01*
G75*
G02*
X62587000Y-95277000I-51000J0D01*
G01*
X59587000Y-95277000D01*
G75*
G02*
X59536000Y-95226000I0J51000D01*
G01*
X59536000Y-92226000D01*
G75*
G02*
X59587000Y-92175000I51000J0D01*
G01*
X62587000Y-92175000D01*
G75*
G02*
X62638000Y-92226000I0J-51000D01*
G01*
G37*
X45847000Y-93726000D03*
X40767000Y-93726000D03*
X35687000Y-93726000D03*
G36*
G01*
X86284000Y-96012000D02*
X86284000Y-97028000D01*
G75*
G02*
X86233000Y-97079000I-51000J0D01*
G01*
X85471000Y-97079000D01*
G75*
G02*
X85420000Y-97028000I0J51000D01*
G01*
X85420000Y-96012000D01*
G75*
G02*
X85471000Y-95961000I51000J0D01*
G01*
X86233000Y-95961000D01*
G75*
G02*
X86284000Y-96012000I0J-51000D01*
G01*
G37*
G36*
G01*
X87617500Y-96011999D02*
X87617500Y-96266001D01*
G75*
G02*
X87566501Y-96317000I-50999J0D01*
G01*
X86423499Y-96317000D01*
G75*
G02*
X86372500Y-96266001I0J50999D01*
G01*
X86372500Y-96011999D01*
G75*
G02*
X86423499Y-95961000I50999J0D01*
G01*
X87566501Y-95961000D01*
G75*
G02*
X87617500Y-96011999I0J-50999D01*
G01*
G37*
G36*
G01*
X87808000Y-96012000D02*
X87808000Y-97028000D01*
G75*
G02*
X87757000Y-97079000I-51000J0D01*
G01*
X86995000Y-97079000D01*
G75*
G02*
X86944000Y-97028000I0J51000D01*
G01*
X86944000Y-96012000D01*
G75*
G02*
X86995000Y-95961000I51000J0D01*
G01*
X87757000Y-95961000D01*
G75*
G02*
X87808000Y-96012000I0J-51000D01*
G01*
G37*
G36*
G01*
X87617500Y-96773999D02*
X87617500Y-97028001D01*
G75*
G02*
X87566501Y-97079000I-50999J0D01*
G01*
X86423499Y-97079000D01*
G75*
G02*
X86372500Y-97028001I0J50999D01*
G01*
X86372500Y-96773999D01*
G75*
G02*
X86423499Y-96723000I50999J0D01*
G01*
X87566501Y-96723000D01*
G75*
G02*
X87617500Y-96773999I0J-50999D01*
G01*
G37*
G36*
G01*
X86757000Y-96392999D02*
X86757000Y-96647001D01*
G75*
G02*
X86706001Y-96698000I-50999J0D01*
G01*
X85505999Y-96698000D01*
G75*
G02*
X85455000Y-96647001I0J50999D01*
G01*
X85455000Y-96392999D01*
G75*
G02*
X85505999Y-96342000I50999J0D01*
G01*
X86706001Y-96342000D01*
G75*
G02*
X86757000Y-96392999I0J-50999D01*
G01*
G37*
G36*
G01*
X55657876Y-83256500D02*
X56610124Y-83256500D01*
G75*
G02*
X56885000Y-83531376I0J-274876D01*
G01*
X56885000Y-84108624D01*
G75*
G02*
X56610124Y-84383500I-274876J0D01*
G01*
X55657876Y-84383500D01*
G75*
G02*
X55383000Y-84108624I0J274876D01*
G01*
X55383000Y-83531376D01*
G75*
G02*
X55657876Y-83256500I274876J0D01*
G01*
G37*
G36*
G01*
X55657876Y-81431500D02*
X56610124Y-81431500D01*
G75*
G02*
X56885000Y-81706376I0J-274876D01*
G01*
X56885000Y-82283624D01*
G75*
G02*
X56610124Y-82558500I-274876J0D01*
G01*
X55657876Y-82558500D01*
G75*
G02*
X55383000Y-82283624I0J274876D01*
G01*
X55383000Y-81706376D01*
G75*
G02*
X55657876Y-81431500I274876J0D01*
G01*
G37*
G36*
G01*
X58197876Y-81478500D02*
X59150124Y-81478500D01*
G75*
G02*
X59425000Y-81753376I0J-274876D01*
G01*
X59425000Y-82330624D01*
G75*
G02*
X59150124Y-82605500I-274876J0D01*
G01*
X58197876Y-82605500D01*
G75*
G02*
X57923000Y-82330624I0J274876D01*
G01*
X57923000Y-81753376D01*
G75*
G02*
X58197876Y-81478500I274876J0D01*
G01*
G37*
G36*
G01*
X58197876Y-83303500D02*
X59150124Y-83303500D01*
G75*
G02*
X59425000Y-83578376I0J-274876D01*
G01*
X59425000Y-84155624D01*
G75*
G02*
X59150124Y-84430500I-274876J0D01*
G01*
X58197876Y-84430500D01*
G75*
G02*
X57923000Y-84155624I0J274876D01*
G01*
X57923000Y-83578376D01*
G75*
G02*
X58197876Y-83303500I274876J0D01*
G01*
G37*
D18*
G36*
X86374232Y-95960000D02*
G01*
X86374500Y-95961000D01*
X86374500Y-96315000D01*
X86944000Y-96315000D01*
X86945732Y-96316000D01*
X86946000Y-96317000D01*
X86946000Y-96723000D01*
X86945000Y-96724732D01*
X86944000Y-96725000D01*
X86374500Y-96725000D01*
X86374500Y-97079000D01*
X86373500Y-97080732D01*
X86372500Y-97081000D01*
X86284000Y-97081000D01*
X86282268Y-97080000D01*
X86282000Y-97079000D01*
X86282000Y-96698000D01*
X86283000Y-96696268D01*
X86284000Y-96696000D01*
X86755000Y-96696000D01*
X86755000Y-96344000D01*
X86284000Y-96344000D01*
X86282268Y-96343000D01*
X86282000Y-96342000D01*
X86282000Y-95961000D01*
X86283000Y-95959268D01*
X86284000Y-95959000D01*
X86372500Y-95959000D01*
X86374232Y-95960000D01*
G37*
G36*
X92724232Y-89483000D02*
G01*
X92724500Y-89484000D01*
X92724500Y-89838000D01*
X93294000Y-89838000D01*
X93295732Y-89839000D01*
X93296000Y-89840000D01*
X93296000Y-90246000D01*
X93295000Y-90247732D01*
X93294000Y-90248000D01*
X92724500Y-90248000D01*
X92724500Y-90602000D01*
X92723500Y-90603732D01*
X92722500Y-90604000D01*
X92634000Y-90604000D01*
X92632268Y-90603000D01*
X92632000Y-90602000D01*
X92632000Y-90221000D01*
X92633000Y-90219268D01*
X92634000Y-90219000D01*
X93105000Y-90219000D01*
X93105000Y-89867000D01*
X92634000Y-89867000D01*
X92632268Y-89866000D01*
X92632000Y-89865000D01*
X92632000Y-89484000D01*
X92633000Y-89482268D01*
X92634000Y-89482000D01*
X92722500Y-89482000D01*
X92724232Y-89483000D01*
G37*
G36*
X92787732Y-85013000D02*
G01*
X92788000Y-85014000D01*
X92788000Y-85485000D01*
X93140000Y-85485000D01*
X93140000Y-85014000D01*
X93141000Y-85012268D01*
X93142000Y-85012000D01*
X93523000Y-85012000D01*
X93524732Y-85013000D01*
X93525000Y-85014000D01*
X93525000Y-85102500D01*
X93524000Y-85104232D01*
X93523000Y-85104500D01*
X93169000Y-85104500D01*
X93169000Y-85674000D01*
X93168000Y-85675732D01*
X93167000Y-85676000D01*
X92761000Y-85676000D01*
X92759268Y-85675000D01*
X92759000Y-85674000D01*
X92759000Y-85104500D01*
X92405000Y-85104500D01*
X92403268Y-85103500D01*
X92403000Y-85102500D01*
X92403000Y-85014000D01*
X92404000Y-85012268D01*
X92405000Y-85012000D01*
X92786000Y-85012000D01*
X92787732Y-85013000D01*
G37*
G36*
X34621732Y-79298000D02*
G01*
X34622000Y-79299000D01*
X34622000Y-79868500D01*
X34976000Y-79868500D01*
X34977732Y-79869500D01*
X34978000Y-79870500D01*
X34978000Y-79959000D01*
X34977000Y-79960732D01*
X34976000Y-79961000D01*
X34595000Y-79961000D01*
X34593268Y-79960000D01*
X34593000Y-79959000D01*
X34593000Y-79488000D01*
X34241000Y-79488000D01*
X34241000Y-79959000D01*
X34240000Y-79960732D01*
X34239000Y-79961000D01*
X33858000Y-79961000D01*
X33856268Y-79960000D01*
X33856000Y-79959000D01*
X33856000Y-79870500D01*
X33857000Y-79868768D01*
X33858000Y-79868500D01*
X34212000Y-79868500D01*
X34212000Y-79299000D01*
X34213000Y-79297268D01*
X34214000Y-79297000D01*
X34620000Y-79297000D01*
X34621732Y-79298000D01*
G37*
G36*
X36399732Y-79298000D02*
G01*
X36400000Y-79299000D01*
X36400000Y-79868500D01*
X36754000Y-79868500D01*
X36755732Y-79869500D01*
X36756000Y-79870500D01*
X36756000Y-79959000D01*
X36755000Y-79960732D01*
X36754000Y-79961000D01*
X36373000Y-79961000D01*
X36371268Y-79960000D01*
X36371000Y-79959000D01*
X36371000Y-79488000D01*
X36019000Y-79488000D01*
X36019000Y-79959000D01*
X36018000Y-79960732D01*
X36017000Y-79961000D01*
X35636000Y-79961000D01*
X35634268Y-79960000D01*
X35634000Y-79959000D01*
X35634000Y-79870500D01*
X35635000Y-79868768D01*
X35636000Y-79868500D01*
X35990000Y-79868500D01*
X35990000Y-79299000D01*
X35991000Y-79297268D01*
X35992000Y-79297000D01*
X36398000Y-79297000D01*
X36399732Y-79298000D01*
G37*
G36*
X86946932Y-74039084D02*
G01*
X86946902Y-74040912D01*
X86938338Y-74056935D01*
X86931338Y-74080010D01*
X86928975Y-74104001D01*
X86931338Y-74127993D01*
X86938338Y-74151067D01*
X86949703Y-74172331D01*
X86964999Y-74190968D01*
X86983636Y-74206263D01*
X87004899Y-74217628D01*
X87027974Y-74224628D01*
X87052161Y-74227010D01*
X87053787Y-74228175D01*
X87053591Y-74230165D01*
X87051965Y-74231000D01*
X86931000Y-74231000D01*
X86931000Y-74351965D01*
X86930000Y-74353697D01*
X86928000Y-74353697D01*
X86927010Y-74352161D01*
X86924628Y-74327974D01*
X86917628Y-74304899D01*
X86906263Y-74283635D01*
X86890968Y-74264998D01*
X86872331Y-74249703D01*
X86851067Y-74238338D01*
X86827992Y-74231338D01*
X86804001Y-74228975D01*
X86780010Y-74231338D01*
X86756935Y-74238338D01*
X86740912Y-74246902D01*
X86738913Y-74246836D01*
X86737970Y-74245073D01*
X86738858Y-74243475D01*
X86803436Y-74200326D01*
X86900326Y-74103436D01*
X86943475Y-74038858D01*
X86945269Y-74037973D01*
X86946932Y-74039084D01*
G37*
G36*
X56211732Y-73202000D02*
G01*
X56212000Y-73203000D01*
X56212000Y-73674000D01*
X56564000Y-73674000D01*
X56564000Y-73203000D01*
X56565000Y-73201268D01*
X56566000Y-73201000D01*
X56947000Y-73201000D01*
X56948732Y-73202000D01*
X56949000Y-73203000D01*
X56949000Y-73291500D01*
X56948000Y-73293232D01*
X56947000Y-73293500D01*
X56593000Y-73293500D01*
X56593000Y-73863000D01*
X56592000Y-73864732D01*
X56591000Y-73865000D01*
X56185000Y-73865000D01*
X56183268Y-73864000D01*
X56183000Y-73863000D01*
X56183000Y-73293500D01*
X55829000Y-73293500D01*
X55827268Y-73292500D01*
X55827000Y-73291500D01*
X55827000Y-73203000D01*
X55828000Y-73201268D01*
X55829000Y-73201000D01*
X56210000Y-73201000D01*
X56211732Y-73202000D01*
G37*
G36*
X41225732Y-72313000D02*
G01*
X41226000Y-72314000D01*
X41226000Y-72785000D01*
X41578000Y-72785000D01*
X41578000Y-72314000D01*
X41579000Y-72312268D01*
X41580000Y-72312000D01*
X41961000Y-72312000D01*
X41962732Y-72313000D01*
X41963000Y-72314000D01*
X41963000Y-72402500D01*
X41962000Y-72404232D01*
X41961000Y-72404500D01*
X41607000Y-72404500D01*
X41607000Y-72974000D01*
X41606000Y-72975732D01*
X41605000Y-72976000D01*
X41199000Y-72976000D01*
X41197268Y-72975000D01*
X41197000Y-72974000D01*
X41197000Y-72404500D01*
X40843000Y-72404500D01*
X40841268Y-72403500D01*
X40841000Y-72402500D01*
X40841000Y-72314000D01*
X40842000Y-72312268D01*
X40843000Y-72312000D01*
X41224000Y-72312000D01*
X41225732Y-72313000D01*
G37*
G36*
X83008732Y-71805000D02*
G01*
X83009000Y-71806000D01*
X83009000Y-72375500D01*
X83363000Y-72375500D01*
X83364732Y-72376500D01*
X83365000Y-72377500D01*
X83365000Y-72466000D01*
X83364000Y-72467732D01*
X83363000Y-72468000D01*
X82982000Y-72468000D01*
X82980268Y-72467000D01*
X82980000Y-72466000D01*
X82980000Y-71995000D01*
X82628000Y-71995000D01*
X82628000Y-72466000D01*
X82627000Y-72467732D01*
X82626000Y-72468000D01*
X82245000Y-72468000D01*
X82243268Y-72467000D01*
X82243000Y-72466000D01*
X82243000Y-72377500D01*
X82244000Y-72375768D01*
X82245000Y-72375500D01*
X82599000Y-72375500D01*
X82599000Y-71806000D01*
X82600000Y-71804268D01*
X82601000Y-71804000D01*
X83007000Y-71804000D01*
X83008732Y-71805000D01*
G37*
G36*
X80468732Y-71805000D02*
G01*
X80469000Y-71806000D01*
X80469000Y-72375500D01*
X80823000Y-72375500D01*
X80824732Y-72376500D01*
X80825000Y-72377500D01*
X80825000Y-72466000D01*
X80824000Y-72467732D01*
X80823000Y-72468000D01*
X80442000Y-72468000D01*
X80440268Y-72467000D01*
X80440000Y-72466000D01*
X80440000Y-71995000D01*
X80088000Y-71995000D01*
X80088000Y-72466000D01*
X80087000Y-72467732D01*
X80086000Y-72468000D01*
X79705000Y-72468000D01*
X79703268Y-72467000D01*
X79703000Y-72466000D01*
X79703000Y-72377500D01*
X79704000Y-72375768D01*
X79705000Y-72375500D01*
X80059000Y-72375500D01*
X80059000Y-71806000D01*
X80060000Y-71804268D01*
X80061000Y-71804000D01*
X80467000Y-71804000D01*
X80468732Y-71805000D01*
G37*
G36*
X18492732Y-68249000D02*
G01*
X18493000Y-68250000D01*
X18493000Y-68819500D01*
X18847000Y-68819500D01*
X18848732Y-68820500D01*
X18849000Y-68821500D01*
X18849000Y-68910000D01*
X18848000Y-68911732D01*
X18847000Y-68912000D01*
X18466000Y-68912000D01*
X18464268Y-68911000D01*
X18464000Y-68910000D01*
X18464000Y-68439000D01*
X18112000Y-68439000D01*
X18112000Y-68910000D01*
X18111000Y-68911732D01*
X18110000Y-68912000D01*
X17729000Y-68912000D01*
X17727268Y-68911000D01*
X17727000Y-68910000D01*
X17727000Y-68821500D01*
X17728000Y-68819768D01*
X17729000Y-68819500D01*
X18083000Y-68819500D01*
X18083000Y-68250000D01*
X18084000Y-68248268D01*
X18085000Y-68248000D01*
X18491000Y-68248000D01*
X18492732Y-68249000D01*
G37*
G36*
X20778732Y-64566000D02*
G01*
X20779000Y-64567000D01*
X20779000Y-65038000D01*
X21131000Y-65038000D01*
X21131000Y-64567000D01*
X21132000Y-64565268D01*
X21133000Y-64565000D01*
X21514000Y-64565000D01*
X21515732Y-64566000D01*
X21516000Y-64567000D01*
X21516000Y-64655500D01*
X21515000Y-64657232D01*
X21514000Y-64657500D01*
X21160000Y-64657500D01*
X21160000Y-65227000D01*
X21159000Y-65228732D01*
X21158000Y-65229000D01*
X20752000Y-65229000D01*
X20750268Y-65228000D01*
X20750000Y-65227000D01*
X20750000Y-64657500D01*
X20396000Y-64657500D01*
X20394268Y-64656500D01*
X20394000Y-64655500D01*
X20394000Y-64567000D01*
X20395000Y-64565268D01*
X20396000Y-64565000D01*
X20777000Y-64565000D01*
X20778732Y-64566000D01*
G37*
G36*
X27128732Y-64566000D02*
G01*
X27129000Y-64567000D01*
X27129000Y-65038000D01*
X27481000Y-65038000D01*
X27481000Y-64567000D01*
X27482000Y-64565268D01*
X27483000Y-64565000D01*
X27864000Y-64565000D01*
X27865732Y-64566000D01*
X27866000Y-64567000D01*
X27866000Y-64655500D01*
X27865000Y-64657232D01*
X27864000Y-64657500D01*
X27510000Y-64657500D01*
X27510000Y-65227000D01*
X27509000Y-65228732D01*
X27508000Y-65229000D01*
X27102000Y-65229000D01*
X27100268Y-65228000D01*
X27100000Y-65227000D01*
X27100000Y-64657500D01*
X26746000Y-64657500D01*
X26744268Y-64656500D01*
X26744000Y-64655500D01*
X26744000Y-64567000D01*
X26745000Y-64565268D01*
X26746000Y-64565000D01*
X27127000Y-64565000D01*
X27128732Y-64566000D01*
G37*
G36*
X76785732Y-57606000D02*
G01*
X76786000Y-57607000D01*
X76786000Y-57988000D01*
X76785000Y-57989732D01*
X76784000Y-57990000D01*
X76313000Y-57990000D01*
X76313000Y-58342000D01*
X76784000Y-58342000D01*
X76785732Y-58343000D01*
X76786000Y-58344000D01*
X76786000Y-58725000D01*
X76785000Y-58726732D01*
X76784000Y-58727000D01*
X76695500Y-58727000D01*
X76693768Y-58726000D01*
X76693500Y-58725000D01*
X76693500Y-58371000D01*
X76124000Y-58371000D01*
X76122268Y-58370000D01*
X76122000Y-58369000D01*
X76122000Y-57963000D01*
X76123000Y-57961268D01*
X76124000Y-57961000D01*
X76693500Y-57961000D01*
X76693500Y-57607000D01*
X76694500Y-57605268D01*
X76695500Y-57605000D01*
X76784000Y-57605000D01*
X76785732Y-57606000D01*
G37*
G36*
X78817732Y-54050000D02*
G01*
X78818000Y-54051000D01*
X78818000Y-54432000D01*
X78817000Y-54433732D01*
X78816000Y-54434000D01*
X78345000Y-54434000D01*
X78345000Y-54786000D01*
X78816000Y-54786000D01*
X78817732Y-54787000D01*
X78818000Y-54788000D01*
X78818000Y-55169000D01*
X78817000Y-55170732D01*
X78816000Y-55171000D01*
X78727500Y-55171000D01*
X78725768Y-55170000D01*
X78725500Y-55169000D01*
X78725500Y-54815000D01*
X78156000Y-54815000D01*
X78154268Y-54814000D01*
X78154000Y-54813000D01*
X78154000Y-54407000D01*
X78155000Y-54405268D01*
X78156000Y-54405000D01*
X78725500Y-54405000D01*
X78725500Y-54051000D01*
X78726500Y-54049268D01*
X78727500Y-54049000D01*
X78816000Y-54049000D01*
X78817732Y-54050000D01*
G37*
G36*
X78817732Y-49478000D02*
G01*
X78818000Y-49479000D01*
X78818000Y-49860000D01*
X78817000Y-49861732D01*
X78816000Y-49862000D01*
X78345000Y-49862000D01*
X78345000Y-50214000D01*
X78816000Y-50214000D01*
X78817732Y-50215000D01*
X78818000Y-50216000D01*
X78818000Y-50597000D01*
X78817000Y-50598732D01*
X78816000Y-50599000D01*
X78727500Y-50599000D01*
X78725768Y-50598000D01*
X78725500Y-50597000D01*
X78725500Y-50243000D01*
X78156000Y-50243000D01*
X78154268Y-50242000D01*
X78154000Y-50241000D01*
X78154000Y-49835000D01*
X78155000Y-49833268D01*
X78156000Y-49833000D01*
X78725500Y-49833000D01*
X78725500Y-49479000D01*
X78726500Y-49477268D01*
X78727500Y-49477000D01*
X78816000Y-49477000D01*
X78817732Y-49478000D01*
G37*
G36*
X70435732Y-43890000D02*
G01*
X70436000Y-43891000D01*
X70436000Y-44272000D01*
X70435000Y-44273732D01*
X70434000Y-44274000D01*
X69963000Y-44274000D01*
X69963000Y-44626000D01*
X70434000Y-44626000D01*
X70435732Y-44627000D01*
X70436000Y-44628000D01*
X70436000Y-45009000D01*
X70435000Y-45010732D01*
X70434000Y-45011000D01*
X70345500Y-45011000D01*
X70343768Y-45010000D01*
X70343500Y-45009000D01*
X70343500Y-44655000D01*
X69774000Y-44655000D01*
X69772268Y-44654000D01*
X69772000Y-44653000D01*
X69772000Y-44247000D01*
X69773000Y-44245268D01*
X69774000Y-44245000D01*
X70343500Y-44245000D01*
X70343500Y-43891000D01*
X70344500Y-43889268D01*
X70345500Y-43889000D01*
X70434000Y-43889000D01*
X70435732Y-43890000D01*
G37*
G36*
X79516232Y-43890000D02*
G01*
X79516500Y-43891000D01*
X79516500Y-44245000D01*
X80086000Y-44245000D01*
X80087732Y-44246000D01*
X80088000Y-44247000D01*
X80088000Y-44653000D01*
X80087000Y-44654732D01*
X80086000Y-44655000D01*
X79516500Y-44655000D01*
X79516500Y-45009000D01*
X79515500Y-45010732D01*
X79514500Y-45011000D01*
X79426000Y-45011000D01*
X79424268Y-45010000D01*
X79424000Y-45009000D01*
X79424000Y-44628000D01*
X79425000Y-44626268D01*
X79426000Y-44626000D01*
X79897000Y-44626000D01*
X79897000Y-44274000D01*
X79426000Y-44274000D01*
X79424268Y-44273000D01*
X79424000Y-44272000D01*
X79424000Y-43891000D01*
X79425000Y-43889268D01*
X79426000Y-43889000D01*
X79514500Y-43889000D01*
X79516232Y-43890000D01*
G37*
G36*
X54256982Y-42610500D02*
G01*
X54256982Y-42612500D01*
X54255446Y-42613490D01*
X54203117Y-42618644D01*
X54152981Y-42633852D01*
X54106779Y-42658548D01*
X54066282Y-42691782D01*
X54033048Y-42732279D01*
X54008352Y-42778481D01*
X53993144Y-42828617D01*
X53988000Y-42880844D01*
X53988000Y-42939770D01*
X53987000Y-42941502D01*
X53986000Y-42941770D01*
X53885900Y-42941770D01*
X53884168Y-42940770D01*
X53883900Y-42939770D01*
X53883900Y-42937316D01*
X53885319Y-42935402D01*
X53908410Y-42928398D01*
X53929674Y-42917033D01*
X53948311Y-42901738D01*
X53963606Y-42883101D01*
X53974971Y-42861837D01*
X53981985Y-42838713D01*
X53983756Y-42826777D01*
X53988575Y-42777836D01*
X53988651Y-42777451D01*
X54000382Y-42738781D01*
X54000532Y-42738419D01*
X54019582Y-42702780D01*
X54019800Y-42702454D01*
X54045437Y-42671214D01*
X54045714Y-42670937D01*
X54076954Y-42645300D01*
X54077280Y-42645082D01*
X54112919Y-42626032D01*
X54113281Y-42625882D01*
X54151951Y-42614151D01*
X54152336Y-42614075D01*
X54198692Y-42609510D01*
X54198888Y-42609500D01*
X54255250Y-42609500D01*
X54256982Y-42610500D01*
G37*
G36*
X55275308Y-42609510D02*
G01*
X55321664Y-42614075D01*
X55322049Y-42614151D01*
X55360719Y-42625882D01*
X55361081Y-42626032D01*
X55396720Y-42645082D01*
X55397046Y-42645300D01*
X55428286Y-42670937D01*
X55428563Y-42671214D01*
X55454200Y-42702454D01*
X55454418Y-42702780D01*
X55473468Y-42738419D01*
X55473618Y-42738781D01*
X55485349Y-42777451D01*
X55485425Y-42777836D01*
X55490239Y-42826720D01*
X55494963Y-42850473D01*
X55504189Y-42872747D01*
X55517583Y-42892794D01*
X55534630Y-42909841D01*
X55554677Y-42923237D01*
X55576951Y-42932463D01*
X55588490Y-42934759D01*
X55590100Y-42936721D01*
X55590100Y-42939770D01*
X55589100Y-42941502D01*
X55588100Y-42941770D01*
X55488000Y-42941770D01*
X55486268Y-42940770D01*
X55486000Y-42939770D01*
X55486000Y-42880844D01*
X55480856Y-42828617D01*
X55465648Y-42778481D01*
X55440952Y-42732279D01*
X55407718Y-42691782D01*
X55367221Y-42658548D01*
X55321019Y-42633852D01*
X55270883Y-42618644D01*
X55218554Y-42613490D01*
X55216928Y-42612325D01*
X55217124Y-42610335D01*
X55218750Y-42609500D01*
X55275112Y-42609500D01*
X55275308Y-42609510D01*
G37*
G36*
X51893732Y-27863000D02*
G01*
X51894000Y-27864000D01*
X51894000Y-28335000D01*
X52246000Y-28335000D01*
X52246000Y-27864000D01*
X52247000Y-27862268D01*
X52248000Y-27862000D01*
X52629000Y-27862000D01*
X52630732Y-27863000D01*
X52631000Y-27864000D01*
X52631000Y-27952500D01*
X52630000Y-27954232D01*
X52629000Y-27954500D01*
X52275000Y-27954500D01*
X52275000Y-28524000D01*
X52274000Y-28525732D01*
X52273000Y-28526000D01*
X51867000Y-28526000D01*
X51865268Y-28525000D01*
X51865000Y-28524000D01*
X51865000Y-27954500D01*
X51511000Y-27954500D01*
X51509268Y-27953500D01*
X51509000Y-27952500D01*
X51509000Y-27864000D01*
X51510000Y-27862268D01*
X51511000Y-27862000D01*
X51892000Y-27862000D01*
X51893732Y-27863000D01*
G37*
G36*
X51893732Y-15163000D02*
G01*
X51894000Y-15164000D01*
X51894000Y-15635000D01*
X52246000Y-15635000D01*
X52246000Y-15164000D01*
X52247000Y-15162268D01*
X52248000Y-15162000D01*
X52629000Y-15162000D01*
X52630732Y-15163000D01*
X52631000Y-15164000D01*
X52631000Y-15252500D01*
X52630000Y-15254232D01*
X52629000Y-15254500D01*
X52275000Y-15254500D01*
X52275000Y-15824000D01*
X52274000Y-15825732D01*
X52273000Y-15826000D01*
X51867000Y-15826000D01*
X51865268Y-15825000D01*
X51865000Y-15824000D01*
X51865000Y-15254500D01*
X51511000Y-15254500D01*
X51509268Y-15253500D01*
X51509000Y-15252500D01*
X51509000Y-15164000D01*
X51510000Y-15162268D01*
X51511000Y-15162000D01*
X51892000Y-15162000D01*
X51893732Y-15163000D01*
G37*
G36*
X52274732Y-2463000D02*
G01*
X52275000Y-2464000D01*
X52275000Y-3033500D01*
X52629000Y-3033500D01*
X52630732Y-3034500D01*
X52631000Y-3035500D01*
X52631000Y-3124000D01*
X52630000Y-3125732D01*
X52629000Y-3126000D01*
X52248000Y-3126000D01*
X52246268Y-3125000D01*
X52246000Y-3124000D01*
X52246000Y-2653000D01*
X51894000Y-2653000D01*
X51894000Y-3124000D01*
X51893000Y-3125732D01*
X51892000Y-3126000D01*
X51511000Y-3126000D01*
X51509268Y-3125000D01*
X51509000Y-3124000D01*
X51509000Y-3035500D01*
X51510000Y-3033768D01*
X51511000Y-3033500D01*
X51865000Y-3033500D01*
X51865000Y-2464000D01*
X51866000Y-2462268D01*
X51867000Y-2462000D01*
X52273000Y-2462000D01*
X52274732Y-2463000D01*
G37*
M02*
