G04 #@! TF.GenerationSoftware,KiCad,Pcbnew,5.1.9-73d0e3b20d~88~ubuntu20.04.1*
G04 #@! TF.CreationDate,2021-03-09T21:18:06-03:00*
G04 #@! TF.ProjectId,std_board,7374645f-626f-4617-9264-2e6b69636164,rev?*
G04 #@! TF.SameCoordinates,Original*
G04 #@! TF.FileFunction,Paste,Top*
G04 #@! TF.FilePolarity,Positive*
%FSLAX46Y46*%
G04 Gerber Fmt 4.6, Leading zero omitted, Abs format (unit mm)*
G04 Created by KiCad (PCBNEW 5.1.9-73d0e3b20d~88~ubuntu20.04.1) date 2021-03-09 21:18:06*
%MOMM*%
%LPD*%
G01*
G04 APERTURE LIST*
%ADD10R,1.600200X2.999740*%
%ADD11R,1.750000X0.550000*%
%ADD12R,0.254000X1.200000*%
%ADD13R,0.254000X1.143000*%
%ADD14R,1.016000X0.762000*%
%ADD15R,1.300000X0.900000*%
%ADD16C,0.100000*%
%ADD17R,0.762000X1.016000*%
%ADD18R,1.143000X0.254000*%
%ADD19R,1.200000X0.254000*%
%ADD20R,1.200000X0.900000*%
%ADD21R,0.800000X0.900000*%
%ADD22R,0.900000X0.800000*%
%ADD23R,2.000000X1.500000*%
%ADD24R,2.999740X1.600200*%
%ADD25R,2.500000X1.800000*%
%ADD26R,1.800000X2.500000*%
%ADD27R,1.170000X2.000000*%
%ADD28R,1.520000X2.000000*%
G04 APERTURE END LIST*
G36*
G01*
X92507750Y-78252500D02*
X93420250Y-78252500D01*
G75*
G02*
X93664000Y-78496250I0J-243750D01*
G01*
X93664000Y-78983750D01*
G75*
G02*
X93420250Y-79227500I-243750J0D01*
G01*
X92507750Y-79227500D01*
G75*
G02*
X92264000Y-78983750I0J243750D01*
G01*
X92264000Y-78496250D01*
G75*
G02*
X92507750Y-78252500I243750J0D01*
G01*
G37*
G36*
G01*
X92507750Y-80127500D02*
X93420250Y-80127500D01*
G75*
G02*
X93664000Y-80371250I0J-243750D01*
G01*
X93664000Y-80858750D01*
G75*
G02*
X93420250Y-81102500I-243750J0D01*
G01*
X92507750Y-81102500D01*
G75*
G02*
X92264000Y-80858750I0J243750D01*
G01*
X92264000Y-80371250D01*
G75*
G02*
X92507750Y-80127500I243750J0D01*
G01*
G37*
D10*
X61976000Y-54269640D03*
X61976000Y-49870360D03*
D11*
X18051000Y-60960000D03*
X18051000Y-62230000D03*
X18051000Y-63500000D03*
X18051000Y-64770000D03*
X10651000Y-64770000D03*
X10651000Y-63500000D03*
X10651000Y-62230000D03*
X10651000Y-60960000D03*
G36*
G01*
X49073750Y-87493500D02*
X49986250Y-87493500D01*
G75*
G02*
X50230000Y-87737250I0J-243750D01*
G01*
X50230000Y-88224750D01*
G75*
G02*
X49986250Y-88468500I-243750J0D01*
G01*
X49073750Y-88468500D01*
G75*
G02*
X48830000Y-88224750I0J243750D01*
G01*
X48830000Y-87737250D01*
G75*
G02*
X49073750Y-87493500I243750J0D01*
G01*
G37*
G36*
G01*
X49073750Y-85618500D02*
X49986250Y-85618500D01*
G75*
G02*
X50230000Y-85862250I0J-243750D01*
G01*
X50230000Y-86349750D01*
G75*
G02*
X49986250Y-86593500I-243750J0D01*
G01*
X49073750Y-86593500D01*
G75*
G02*
X48830000Y-86349750I0J243750D01*
G01*
X48830000Y-85862250D01*
G75*
G02*
X49073750Y-85618500I243750J0D01*
G01*
G37*
G36*
G01*
X51359750Y-6975500D02*
X52272250Y-6975500D01*
G75*
G02*
X52516000Y-7219250I0J-243750D01*
G01*
X52516000Y-7706750D01*
G75*
G02*
X52272250Y-7950500I-243750J0D01*
G01*
X51359750Y-7950500D01*
G75*
G02*
X51116000Y-7706750I0J243750D01*
G01*
X51116000Y-7219250D01*
G75*
G02*
X51359750Y-6975500I243750J0D01*
G01*
G37*
G36*
G01*
X51359750Y-5100500D02*
X52272250Y-5100500D01*
G75*
G02*
X52516000Y-5344250I0J-243750D01*
G01*
X52516000Y-5831750D01*
G75*
G02*
X52272250Y-6075500I-243750J0D01*
G01*
X51359750Y-6075500D01*
G75*
G02*
X51116000Y-5831750I0J243750D01*
G01*
X51116000Y-5344250D01*
G75*
G02*
X51359750Y-5100500I243750J0D01*
G01*
G37*
G36*
G01*
X86816250Y-90530500D02*
X85903750Y-90530500D01*
G75*
G02*
X85660000Y-90286750I0J243750D01*
G01*
X85660000Y-89799250D01*
G75*
G02*
X85903750Y-89555500I243750J0D01*
G01*
X86816250Y-89555500D01*
G75*
G02*
X87060000Y-89799250I0J-243750D01*
G01*
X87060000Y-90286750D01*
G75*
G02*
X86816250Y-90530500I-243750J0D01*
G01*
G37*
G36*
G01*
X86816250Y-92405500D02*
X85903750Y-92405500D01*
G75*
G02*
X85660000Y-92161750I0J243750D01*
G01*
X85660000Y-91674250D01*
G75*
G02*
X85903750Y-91430500I243750J0D01*
G01*
X86816250Y-91430500D01*
G75*
G02*
X87060000Y-91674250I0J-243750D01*
G01*
X87060000Y-92161750D01*
G75*
G02*
X86816250Y-92405500I-243750J0D01*
G01*
G37*
G36*
G01*
X41453750Y-87493500D02*
X42366250Y-87493500D01*
G75*
G02*
X42610000Y-87737250I0J-243750D01*
G01*
X42610000Y-88224750D01*
G75*
G02*
X42366250Y-88468500I-243750J0D01*
G01*
X41453750Y-88468500D01*
G75*
G02*
X41210000Y-88224750I0J243750D01*
G01*
X41210000Y-87737250D01*
G75*
G02*
X41453750Y-87493500I243750J0D01*
G01*
G37*
G36*
G01*
X41453750Y-85618500D02*
X42366250Y-85618500D01*
G75*
G02*
X42610000Y-85862250I0J-243750D01*
G01*
X42610000Y-86349750D01*
G75*
G02*
X42366250Y-86593500I-243750J0D01*
G01*
X41453750Y-86593500D01*
G75*
G02*
X41210000Y-86349750I0J243750D01*
G01*
X41210000Y-85862250D01*
G75*
G02*
X41453750Y-85618500I243750J0D01*
G01*
G37*
G36*
G01*
X45263750Y-87493500D02*
X46176250Y-87493500D01*
G75*
G02*
X46420000Y-87737250I0J-243750D01*
G01*
X46420000Y-88224750D01*
G75*
G02*
X46176250Y-88468500I-243750J0D01*
G01*
X45263750Y-88468500D01*
G75*
G02*
X45020000Y-88224750I0J243750D01*
G01*
X45020000Y-87737250D01*
G75*
G02*
X45263750Y-87493500I243750J0D01*
G01*
G37*
G36*
G01*
X45263750Y-85618500D02*
X46176250Y-85618500D01*
G75*
G02*
X46420000Y-85862250I0J-243750D01*
G01*
X46420000Y-86349750D01*
G75*
G02*
X46176250Y-86593500I-243750J0D01*
G01*
X45263750Y-86593500D01*
G75*
G02*
X45020000Y-86349750I0J243750D01*
G01*
X45020000Y-85862250D01*
G75*
G02*
X45263750Y-85618500I243750J0D01*
G01*
G37*
G36*
G01*
X32968250Y-86339500D02*
X32055750Y-86339500D01*
G75*
G02*
X31812000Y-86095750I0J243750D01*
G01*
X31812000Y-85608250D01*
G75*
G02*
X32055750Y-85364500I243750J0D01*
G01*
X32968250Y-85364500D01*
G75*
G02*
X33212000Y-85608250I0J-243750D01*
G01*
X33212000Y-86095750D01*
G75*
G02*
X32968250Y-86339500I-243750J0D01*
G01*
G37*
G36*
G01*
X32968250Y-88214500D02*
X32055750Y-88214500D01*
G75*
G02*
X31812000Y-87970750I0J243750D01*
G01*
X31812000Y-87483250D01*
G75*
G02*
X32055750Y-87239500I243750J0D01*
G01*
X32968250Y-87239500D01*
G75*
G02*
X33212000Y-87483250I0J-243750D01*
G01*
X33212000Y-87970750D01*
G75*
G02*
X32968250Y-88214500I-243750J0D01*
G01*
G37*
G36*
G01*
X26848750Y-69362500D02*
X27761250Y-69362500D01*
G75*
G02*
X28005000Y-69606250I0J-243750D01*
G01*
X28005000Y-70093750D01*
G75*
G02*
X27761250Y-70337500I-243750J0D01*
G01*
X26848750Y-70337500D01*
G75*
G02*
X26605000Y-70093750I0J243750D01*
G01*
X26605000Y-69606250D01*
G75*
G02*
X26848750Y-69362500I243750J0D01*
G01*
G37*
G36*
G01*
X26848750Y-67487500D02*
X27761250Y-67487500D01*
G75*
G02*
X28005000Y-67731250I0J-243750D01*
G01*
X28005000Y-68218750D01*
G75*
G02*
X27761250Y-68462500I-243750J0D01*
G01*
X26848750Y-68462500D01*
G75*
G02*
X26605000Y-68218750I0J243750D01*
G01*
X26605000Y-67731250D01*
G75*
G02*
X26848750Y-67487500I243750J0D01*
G01*
G37*
D12*
X52070000Y-3302000D03*
D13*
X52451000Y-2413000D03*
D14*
X52070000Y-2032000D03*
D13*
X51689000Y-2413000D03*
D14*
X52070000Y-3556000D03*
D12*
X52070000Y-27686000D03*
D13*
X51689000Y-28575000D03*
D14*
X52070000Y-28956000D03*
D13*
X52451000Y-28575000D03*
D14*
X52070000Y-27432000D03*
D12*
X52070000Y-14986000D03*
D13*
X51689000Y-15875000D03*
D14*
X52070000Y-16256000D03*
D13*
X52451000Y-15875000D03*
D14*
X52070000Y-14732000D03*
D12*
X41402000Y-72136000D03*
D13*
X41021000Y-73025000D03*
D14*
X41402000Y-73406000D03*
D13*
X41783000Y-73025000D03*
D14*
X41402000Y-71882000D03*
G36*
G01*
X49726000Y-15696250D02*
X49726000Y-14783750D01*
G75*
G02*
X49969750Y-14540000I243750J0D01*
G01*
X50457250Y-14540000D01*
G75*
G02*
X50701000Y-14783750I0J-243750D01*
G01*
X50701000Y-15696250D01*
G75*
G02*
X50457250Y-15940000I-243750J0D01*
G01*
X49969750Y-15940000D01*
G75*
G02*
X49726000Y-15696250I0J243750D01*
G01*
G37*
G36*
G01*
X47851000Y-15696250D02*
X47851000Y-14783750D01*
G75*
G02*
X48094750Y-14540000I243750J0D01*
G01*
X48582250Y-14540000D01*
G75*
G02*
X48826000Y-14783750I0J-243750D01*
G01*
X48826000Y-15696250D01*
G75*
G02*
X48582250Y-15940000I-243750J0D01*
G01*
X48094750Y-15940000D01*
G75*
G02*
X47851000Y-15696250I0J243750D01*
G01*
G37*
G36*
G01*
X16561750Y-81125000D02*
X17474250Y-81125000D01*
G75*
G02*
X17718000Y-81368750I0J-243750D01*
G01*
X17718000Y-81856250D01*
G75*
G02*
X17474250Y-82100000I-243750J0D01*
G01*
X16561750Y-82100000D01*
G75*
G02*
X16318000Y-81856250I0J243750D01*
G01*
X16318000Y-81368750D01*
G75*
G02*
X16561750Y-81125000I243750J0D01*
G01*
G37*
G36*
G01*
X16561750Y-83000000D02*
X17474250Y-83000000D01*
G75*
G02*
X17718000Y-83243750I0J-243750D01*
G01*
X17718000Y-83731250D01*
G75*
G02*
X17474250Y-83975000I-243750J0D01*
G01*
X16561750Y-83975000D01*
G75*
G02*
X16318000Y-83731250I0J243750D01*
G01*
X16318000Y-83243750D01*
G75*
G02*
X16561750Y-83000000I243750J0D01*
G01*
G37*
G36*
G01*
X16815750Y-74442500D02*
X17728250Y-74442500D01*
G75*
G02*
X17972000Y-74686250I0J-243750D01*
G01*
X17972000Y-75173750D01*
G75*
G02*
X17728250Y-75417500I-243750J0D01*
G01*
X16815750Y-75417500D01*
G75*
G02*
X16572000Y-75173750I0J243750D01*
G01*
X16572000Y-74686250D01*
G75*
G02*
X16815750Y-74442500I243750J0D01*
G01*
G37*
G36*
G01*
X16815750Y-72567500D02*
X17728250Y-72567500D01*
G75*
G02*
X17972000Y-72811250I0J-243750D01*
G01*
X17972000Y-73298750D01*
G75*
G02*
X17728250Y-73542500I-243750J0D01*
G01*
X16815750Y-73542500D01*
G75*
G02*
X16572000Y-73298750I0J243750D01*
G01*
X16572000Y-72811250D01*
G75*
G02*
X16815750Y-72567500I243750J0D01*
G01*
G37*
G36*
G01*
X20776250Y-77449500D02*
X19863750Y-77449500D01*
G75*
G02*
X19620000Y-77205750I0J243750D01*
G01*
X19620000Y-76718250D01*
G75*
G02*
X19863750Y-76474500I243750J0D01*
G01*
X20776250Y-76474500D01*
G75*
G02*
X21020000Y-76718250I0J-243750D01*
G01*
X21020000Y-77205750D01*
G75*
G02*
X20776250Y-77449500I-243750J0D01*
G01*
G37*
G36*
G01*
X20776250Y-79324500D02*
X19863750Y-79324500D01*
G75*
G02*
X19620000Y-79080750I0J243750D01*
G01*
X19620000Y-78593250D01*
G75*
G02*
X19863750Y-78349500I243750J0D01*
G01*
X20776250Y-78349500D01*
G75*
G02*
X21020000Y-78593250I0J-243750D01*
G01*
X21020000Y-79080750D01*
G75*
G02*
X20776250Y-79324500I-243750J0D01*
G01*
G37*
G36*
G01*
X20649250Y-86339500D02*
X19736750Y-86339500D01*
G75*
G02*
X19493000Y-86095750I0J243750D01*
G01*
X19493000Y-85608250D01*
G75*
G02*
X19736750Y-85364500I243750J0D01*
G01*
X20649250Y-85364500D01*
G75*
G02*
X20893000Y-85608250I0J-243750D01*
G01*
X20893000Y-86095750D01*
G75*
G02*
X20649250Y-86339500I-243750J0D01*
G01*
G37*
G36*
G01*
X20649250Y-88214500D02*
X19736750Y-88214500D01*
G75*
G02*
X19493000Y-87970750I0J243750D01*
G01*
X19493000Y-87483250D01*
G75*
G02*
X19736750Y-87239500I243750J0D01*
G01*
X20649250Y-87239500D01*
G75*
G02*
X20893000Y-87483250I0J-243750D01*
G01*
X20893000Y-87970750D01*
G75*
G02*
X20649250Y-88214500I-243750J0D01*
G01*
G37*
G36*
G01*
X17728250Y-77352500D02*
X16815750Y-77352500D01*
G75*
G02*
X16572000Y-77108750I0J243750D01*
G01*
X16572000Y-76621250D01*
G75*
G02*
X16815750Y-76377500I243750J0D01*
G01*
X17728250Y-76377500D01*
G75*
G02*
X17972000Y-76621250I0J-243750D01*
G01*
X17972000Y-77108750D01*
G75*
G02*
X17728250Y-77352500I-243750J0D01*
G01*
G37*
G36*
G01*
X17728250Y-79227500D02*
X16815750Y-79227500D01*
G75*
G02*
X16572000Y-78983750I0J243750D01*
G01*
X16572000Y-78496250D01*
G75*
G02*
X16815750Y-78252500I243750J0D01*
G01*
X17728250Y-78252500D01*
G75*
G02*
X17972000Y-78496250I0J-243750D01*
G01*
X17972000Y-78983750D01*
G75*
G02*
X17728250Y-79227500I-243750J0D01*
G01*
G37*
G36*
G01*
X26872250Y-82100000D02*
X25959750Y-82100000D01*
G75*
G02*
X25716000Y-81856250I0J243750D01*
G01*
X25716000Y-81368750D01*
G75*
G02*
X25959750Y-81125000I243750J0D01*
G01*
X26872250Y-81125000D01*
G75*
G02*
X27116000Y-81368750I0J-243750D01*
G01*
X27116000Y-81856250D01*
G75*
G02*
X26872250Y-82100000I-243750J0D01*
G01*
G37*
G36*
G01*
X26872250Y-83975000D02*
X25959750Y-83975000D01*
G75*
G02*
X25716000Y-83731250I0J243750D01*
G01*
X25716000Y-83243750D01*
G75*
G02*
X25959750Y-83000000I243750J0D01*
G01*
X26872250Y-83000000D01*
G75*
G02*
X27116000Y-83243750I0J-243750D01*
G01*
X27116000Y-83731250D01*
G75*
G02*
X26872250Y-83975000I-243750J0D01*
G01*
G37*
G36*
G01*
X26872250Y-73542500D02*
X25959750Y-73542500D01*
G75*
G02*
X25716000Y-73298750I0J243750D01*
G01*
X25716000Y-72811250D01*
G75*
G02*
X25959750Y-72567500I243750J0D01*
G01*
X26872250Y-72567500D01*
G75*
G02*
X27116000Y-72811250I0J-243750D01*
G01*
X27116000Y-73298750D01*
G75*
G02*
X26872250Y-73542500I-243750J0D01*
G01*
G37*
G36*
G01*
X26872250Y-75417500D02*
X25959750Y-75417500D01*
G75*
G02*
X25716000Y-75173750I0J243750D01*
G01*
X25716000Y-74686250D01*
G75*
G02*
X25959750Y-74442500I243750J0D01*
G01*
X26872250Y-74442500D01*
G75*
G02*
X27116000Y-74686250I0J-243750D01*
G01*
X27116000Y-75173750D01*
G75*
G02*
X26872250Y-75417500I-243750J0D01*
G01*
G37*
G36*
G01*
X37897750Y-73348000D02*
X38810250Y-73348000D01*
G75*
G02*
X39054000Y-73591750I0J-243750D01*
G01*
X39054000Y-74079250D01*
G75*
G02*
X38810250Y-74323000I-243750J0D01*
G01*
X37897750Y-74323000D01*
G75*
G02*
X37654000Y-74079250I0J243750D01*
G01*
X37654000Y-73591750D01*
G75*
G02*
X37897750Y-73348000I243750J0D01*
G01*
G37*
G36*
G01*
X37897750Y-71473000D02*
X38810250Y-71473000D01*
G75*
G02*
X39054000Y-71716750I0J-243750D01*
G01*
X39054000Y-72204250D01*
G75*
G02*
X38810250Y-72448000I-243750J0D01*
G01*
X37897750Y-72448000D01*
G75*
G02*
X37654000Y-72204250I0J243750D01*
G01*
X37654000Y-71716750D01*
G75*
G02*
X37897750Y-71473000I243750J0D01*
G01*
G37*
G36*
G01*
X26872250Y-86339500D02*
X25959750Y-86339500D01*
G75*
G02*
X25716000Y-86095750I0J243750D01*
G01*
X25716000Y-85608250D01*
G75*
G02*
X25959750Y-85364500I243750J0D01*
G01*
X26872250Y-85364500D01*
G75*
G02*
X27116000Y-85608250I0J-243750D01*
G01*
X27116000Y-86095750D01*
G75*
G02*
X26872250Y-86339500I-243750J0D01*
G01*
G37*
G36*
G01*
X26872250Y-88214500D02*
X25959750Y-88214500D01*
G75*
G02*
X25716000Y-87970750I0J243750D01*
G01*
X25716000Y-87483250D01*
G75*
G02*
X25959750Y-87239500I243750J0D01*
G01*
X26872250Y-87239500D01*
G75*
G02*
X27116000Y-87483250I0J-243750D01*
G01*
X27116000Y-87970750D01*
G75*
G02*
X26872250Y-88214500I-243750J0D01*
G01*
G37*
G36*
G01*
X29920250Y-77449500D02*
X29007750Y-77449500D01*
G75*
G02*
X28764000Y-77205750I0J243750D01*
G01*
X28764000Y-76718250D01*
G75*
G02*
X29007750Y-76474500I243750J0D01*
G01*
X29920250Y-76474500D01*
G75*
G02*
X30164000Y-76718250I0J-243750D01*
G01*
X30164000Y-77205750D01*
G75*
G02*
X29920250Y-77449500I-243750J0D01*
G01*
G37*
G36*
G01*
X29920250Y-79324500D02*
X29007750Y-79324500D01*
G75*
G02*
X28764000Y-79080750I0J243750D01*
G01*
X28764000Y-78593250D01*
G75*
G02*
X29007750Y-78349500I243750J0D01*
G01*
X29920250Y-78349500D01*
G75*
G02*
X30164000Y-78593250I0J-243750D01*
G01*
X30164000Y-79080750D01*
G75*
G02*
X29920250Y-79324500I-243750J0D01*
G01*
G37*
G36*
G01*
X29920250Y-86339500D02*
X29007750Y-86339500D01*
G75*
G02*
X28764000Y-86095750I0J243750D01*
G01*
X28764000Y-85608250D01*
G75*
G02*
X29007750Y-85364500I243750J0D01*
G01*
X29920250Y-85364500D01*
G75*
G02*
X30164000Y-85608250I0J-243750D01*
G01*
X30164000Y-86095750D01*
G75*
G02*
X29920250Y-86339500I-243750J0D01*
G01*
G37*
G36*
G01*
X29920250Y-88214500D02*
X29007750Y-88214500D01*
G75*
G02*
X28764000Y-87970750I0J243750D01*
G01*
X28764000Y-87483250D01*
G75*
G02*
X29007750Y-87239500I243750J0D01*
G01*
X29920250Y-87239500D01*
G75*
G02*
X30164000Y-87483250I0J-243750D01*
G01*
X30164000Y-87970750D01*
G75*
G02*
X29920250Y-88214500I-243750J0D01*
G01*
G37*
G36*
G01*
X26872250Y-77449500D02*
X25959750Y-77449500D01*
G75*
G02*
X25716000Y-77205750I0J243750D01*
G01*
X25716000Y-76718250D01*
G75*
G02*
X25959750Y-76474500I243750J0D01*
G01*
X26872250Y-76474500D01*
G75*
G02*
X27116000Y-76718250I0J-243750D01*
G01*
X27116000Y-77205750D01*
G75*
G02*
X26872250Y-77449500I-243750J0D01*
G01*
G37*
G36*
G01*
X26872250Y-79324500D02*
X25959750Y-79324500D01*
G75*
G02*
X25716000Y-79080750I0J243750D01*
G01*
X25716000Y-78593250D01*
G75*
G02*
X25959750Y-78349500I243750J0D01*
G01*
X26872250Y-78349500D01*
G75*
G02*
X27116000Y-78593250I0J-243750D01*
G01*
X27116000Y-79080750D01*
G75*
G02*
X26872250Y-79324500I-243750J0D01*
G01*
G37*
G36*
G01*
X41072750Y-77333500D02*
X41985250Y-77333500D01*
G75*
G02*
X42229000Y-77577250I0J-243750D01*
G01*
X42229000Y-78064750D01*
G75*
G02*
X41985250Y-78308500I-243750J0D01*
G01*
X41072750Y-78308500D01*
G75*
G02*
X40829000Y-78064750I0J243750D01*
G01*
X40829000Y-77577250D01*
G75*
G02*
X41072750Y-77333500I243750J0D01*
G01*
G37*
G36*
G01*
X41072750Y-75458500D02*
X41985250Y-75458500D01*
G75*
G02*
X42229000Y-75702250I0J-243750D01*
G01*
X42229000Y-76189750D01*
G75*
G02*
X41985250Y-76433500I-243750J0D01*
G01*
X41072750Y-76433500D01*
G75*
G02*
X40829000Y-76189750I0J243750D01*
G01*
X40829000Y-75702250D01*
G75*
G02*
X41072750Y-75458500I243750J0D01*
G01*
G37*
G36*
G01*
X10211750Y-78730500D02*
X11124250Y-78730500D01*
G75*
G02*
X11368000Y-78974250I0J-243750D01*
G01*
X11368000Y-79461750D01*
G75*
G02*
X11124250Y-79705500I-243750J0D01*
G01*
X10211750Y-79705500D01*
G75*
G02*
X9968000Y-79461750I0J243750D01*
G01*
X9968000Y-78974250D01*
G75*
G02*
X10211750Y-78730500I243750J0D01*
G01*
G37*
G36*
G01*
X10211750Y-76855500D02*
X11124250Y-76855500D01*
G75*
G02*
X11368000Y-77099250I0J-243750D01*
G01*
X11368000Y-77586750D01*
G75*
G02*
X11124250Y-77830500I-243750J0D01*
G01*
X10211750Y-77830500D01*
G75*
G02*
X9968000Y-77586750I0J243750D01*
G01*
X9968000Y-77099250D01*
G75*
G02*
X10211750Y-76855500I243750J0D01*
G01*
G37*
G36*
G01*
X45263750Y-83175500D02*
X46176250Y-83175500D01*
G75*
G02*
X46420000Y-83419250I0J-243750D01*
G01*
X46420000Y-83906750D01*
G75*
G02*
X46176250Y-84150500I-243750J0D01*
G01*
X45263750Y-84150500D01*
G75*
G02*
X45020000Y-83906750I0J243750D01*
G01*
X45020000Y-83419250D01*
G75*
G02*
X45263750Y-83175500I243750J0D01*
G01*
G37*
G36*
G01*
X45263750Y-81300500D02*
X46176250Y-81300500D01*
G75*
G02*
X46420000Y-81544250I0J-243750D01*
G01*
X46420000Y-82031750D01*
G75*
G02*
X46176250Y-82275500I-243750J0D01*
G01*
X45263750Y-82275500D01*
G75*
G02*
X45020000Y-82031750I0J243750D01*
G01*
X45020000Y-81544250D01*
G75*
G02*
X45263750Y-81300500I243750J0D01*
G01*
G37*
G36*
G01*
X51359750Y-19675500D02*
X52272250Y-19675500D01*
G75*
G02*
X52516000Y-19919250I0J-243750D01*
G01*
X52516000Y-20406750D01*
G75*
G02*
X52272250Y-20650500I-243750J0D01*
G01*
X51359750Y-20650500D01*
G75*
G02*
X51116000Y-20406750I0J243750D01*
G01*
X51116000Y-19919250D01*
G75*
G02*
X51359750Y-19675500I243750J0D01*
G01*
G37*
G36*
G01*
X51359750Y-17800500D02*
X52272250Y-17800500D01*
G75*
G02*
X52516000Y-18044250I0J-243750D01*
G01*
X52516000Y-18531750D01*
G75*
G02*
X52272250Y-18775500I-243750J0D01*
G01*
X51359750Y-18775500D01*
G75*
G02*
X51116000Y-18531750I0J243750D01*
G01*
X51116000Y-18044250D01*
G75*
G02*
X51359750Y-17800500I243750J0D01*
G01*
G37*
G36*
G01*
X42778500Y-30912750D02*
X42778500Y-31825250D01*
G75*
G02*
X42534750Y-32069000I-243750J0D01*
G01*
X42047250Y-32069000D01*
G75*
G02*
X41803500Y-31825250I0J243750D01*
G01*
X41803500Y-30912750D01*
G75*
G02*
X42047250Y-30669000I243750J0D01*
G01*
X42534750Y-30669000D01*
G75*
G02*
X42778500Y-30912750I0J-243750D01*
G01*
G37*
G36*
G01*
X44653500Y-30912750D02*
X44653500Y-31825250D01*
G75*
G02*
X44409750Y-32069000I-243750J0D01*
G01*
X43922250Y-32069000D01*
G75*
G02*
X43678500Y-31825250I0J243750D01*
G01*
X43678500Y-30912750D01*
G75*
G02*
X43922250Y-30669000I243750J0D01*
G01*
X44409750Y-30669000D01*
G75*
G02*
X44653500Y-30912750I0J-243750D01*
G01*
G37*
G36*
G01*
X13259750Y-82540500D02*
X14172250Y-82540500D01*
G75*
G02*
X14416000Y-82784250I0J-243750D01*
G01*
X14416000Y-83271750D01*
G75*
G02*
X14172250Y-83515500I-243750J0D01*
G01*
X13259750Y-83515500D01*
G75*
G02*
X13016000Y-83271750I0J243750D01*
G01*
X13016000Y-82784250D01*
G75*
G02*
X13259750Y-82540500I243750J0D01*
G01*
G37*
G36*
G01*
X13259750Y-80665500D02*
X14172250Y-80665500D01*
G75*
G02*
X14416000Y-80909250I0J-243750D01*
G01*
X14416000Y-81396750D01*
G75*
G02*
X14172250Y-81640500I-243750J0D01*
G01*
X13259750Y-81640500D01*
G75*
G02*
X13016000Y-81396750I0J243750D01*
G01*
X13016000Y-80909250D01*
G75*
G02*
X13259750Y-80665500I243750J0D01*
G01*
G37*
G36*
G01*
X23824250Y-86339500D02*
X22911750Y-86339500D01*
G75*
G02*
X22668000Y-86095750I0J243750D01*
G01*
X22668000Y-85608250D01*
G75*
G02*
X22911750Y-85364500I243750J0D01*
G01*
X23824250Y-85364500D01*
G75*
G02*
X24068000Y-85608250I0J-243750D01*
G01*
X24068000Y-86095750D01*
G75*
G02*
X23824250Y-86339500I-243750J0D01*
G01*
G37*
G36*
G01*
X23824250Y-88214500D02*
X22911750Y-88214500D01*
G75*
G02*
X22668000Y-87970750I0J243750D01*
G01*
X22668000Y-87483250D01*
G75*
G02*
X22911750Y-87239500I243750J0D01*
G01*
X23824250Y-87239500D01*
G75*
G02*
X24068000Y-87483250I0J-243750D01*
G01*
X24068000Y-87970750D01*
G75*
G02*
X23824250Y-88214500I-243750J0D01*
G01*
G37*
G36*
G01*
X20498750Y-69362500D02*
X21411250Y-69362500D01*
G75*
G02*
X21655000Y-69606250I0J-243750D01*
G01*
X21655000Y-70093750D01*
G75*
G02*
X21411250Y-70337500I-243750J0D01*
G01*
X20498750Y-70337500D01*
G75*
G02*
X20255000Y-70093750I0J243750D01*
G01*
X20255000Y-69606250D01*
G75*
G02*
X20498750Y-69362500I243750J0D01*
G01*
G37*
G36*
G01*
X20498750Y-67487500D02*
X21411250Y-67487500D01*
G75*
G02*
X21655000Y-67731250I0J-243750D01*
G01*
X21655000Y-68218750D01*
G75*
G02*
X21411250Y-68462500I-243750J0D01*
G01*
X20498750Y-68462500D01*
G75*
G02*
X20255000Y-68218750I0J243750D01*
G01*
X20255000Y-67731250D01*
G75*
G02*
X20498750Y-67487500I243750J0D01*
G01*
G37*
G36*
G01*
X47772500Y-28396250D02*
X47772500Y-27483750D01*
G75*
G02*
X48016250Y-27240000I243750J0D01*
G01*
X48503750Y-27240000D01*
G75*
G02*
X48747500Y-27483750I0J-243750D01*
G01*
X48747500Y-28396250D01*
G75*
G02*
X48503750Y-28640000I-243750J0D01*
G01*
X48016250Y-28640000D01*
G75*
G02*
X47772500Y-28396250I0J243750D01*
G01*
G37*
G36*
G01*
X49647500Y-28396250D02*
X49647500Y-27483750D01*
G75*
G02*
X49891250Y-27240000I243750J0D01*
G01*
X50378750Y-27240000D01*
G75*
G02*
X50622500Y-27483750I0J-243750D01*
G01*
X50622500Y-28396250D01*
G75*
G02*
X50378750Y-28640000I-243750J0D01*
G01*
X49891250Y-28640000D01*
G75*
G02*
X49647500Y-28396250I0J243750D01*
G01*
G37*
G36*
G01*
X41453750Y-83175500D02*
X42366250Y-83175500D01*
G75*
G02*
X42610000Y-83419250I0J-243750D01*
G01*
X42610000Y-83906750D01*
G75*
G02*
X42366250Y-84150500I-243750J0D01*
G01*
X41453750Y-84150500D01*
G75*
G02*
X41210000Y-83906750I0J243750D01*
G01*
X41210000Y-83419250D01*
G75*
G02*
X41453750Y-83175500I243750J0D01*
G01*
G37*
G36*
G01*
X41453750Y-81300500D02*
X42366250Y-81300500D01*
G75*
G02*
X42610000Y-81544250I0J-243750D01*
G01*
X42610000Y-82031750D01*
G75*
G02*
X42366250Y-82275500I-243750J0D01*
G01*
X41453750Y-82275500D01*
G75*
G02*
X41210000Y-82031750I0J243750D01*
G01*
X41210000Y-81544250D01*
G75*
G02*
X41453750Y-81300500I243750J0D01*
G01*
G37*
G36*
G01*
X10211750Y-70475500D02*
X11124250Y-70475500D01*
G75*
G02*
X11368000Y-70719250I0J-243750D01*
G01*
X11368000Y-71206750D01*
G75*
G02*
X11124250Y-71450500I-243750J0D01*
G01*
X10211750Y-71450500D01*
G75*
G02*
X9968000Y-71206750I0J243750D01*
G01*
X9968000Y-70719250D01*
G75*
G02*
X10211750Y-70475500I243750J0D01*
G01*
G37*
G36*
G01*
X10211750Y-68600500D02*
X11124250Y-68600500D01*
G75*
G02*
X11368000Y-68844250I0J-243750D01*
G01*
X11368000Y-69331750D01*
G75*
G02*
X11124250Y-69575500I-243750J0D01*
G01*
X10211750Y-69575500D01*
G75*
G02*
X9968000Y-69331750I0J243750D01*
G01*
X9968000Y-68844250D01*
G75*
G02*
X10211750Y-68600500I243750J0D01*
G01*
G37*
G36*
G01*
X13259750Y-70475500D02*
X14172250Y-70475500D01*
G75*
G02*
X14416000Y-70719250I0J-243750D01*
G01*
X14416000Y-71206750D01*
G75*
G02*
X14172250Y-71450500I-243750J0D01*
G01*
X13259750Y-71450500D01*
G75*
G02*
X13016000Y-71206750I0J243750D01*
G01*
X13016000Y-70719250D01*
G75*
G02*
X13259750Y-70475500I243750J0D01*
G01*
G37*
G36*
G01*
X13259750Y-68600500D02*
X14172250Y-68600500D01*
G75*
G02*
X14416000Y-68844250I0J-243750D01*
G01*
X14416000Y-69331750D01*
G75*
G02*
X14172250Y-69575500I-243750J0D01*
G01*
X13259750Y-69575500D01*
G75*
G02*
X13016000Y-69331750I0J243750D01*
G01*
X13016000Y-68844250D01*
G75*
G02*
X13259750Y-68600500I243750J0D01*
G01*
G37*
G36*
G01*
X23673750Y-69332500D02*
X24586250Y-69332500D01*
G75*
G02*
X24830000Y-69576250I0J-243750D01*
G01*
X24830000Y-70063750D01*
G75*
G02*
X24586250Y-70307500I-243750J0D01*
G01*
X23673750Y-70307500D01*
G75*
G02*
X23430000Y-70063750I0J243750D01*
G01*
X23430000Y-69576250D01*
G75*
G02*
X23673750Y-69332500I243750J0D01*
G01*
G37*
G36*
G01*
X23673750Y-67457500D02*
X24586250Y-67457500D01*
G75*
G02*
X24830000Y-67701250I0J-243750D01*
G01*
X24830000Y-68188750D01*
G75*
G02*
X24586250Y-68432500I-243750J0D01*
G01*
X23673750Y-68432500D01*
G75*
G02*
X23430000Y-68188750I0J243750D01*
G01*
X23430000Y-67701250D01*
G75*
G02*
X23673750Y-67457500I243750J0D01*
G01*
G37*
G36*
G01*
X37643750Y-87493500D02*
X38556250Y-87493500D01*
G75*
G02*
X38800000Y-87737250I0J-243750D01*
G01*
X38800000Y-88224750D01*
G75*
G02*
X38556250Y-88468500I-243750J0D01*
G01*
X37643750Y-88468500D01*
G75*
G02*
X37400000Y-88224750I0J243750D01*
G01*
X37400000Y-87737250D01*
G75*
G02*
X37643750Y-87493500I243750J0D01*
G01*
G37*
G36*
G01*
X37643750Y-85618500D02*
X38556250Y-85618500D01*
G75*
G02*
X38800000Y-85862250I0J-243750D01*
G01*
X38800000Y-86349750D01*
G75*
G02*
X38556250Y-86593500I-243750J0D01*
G01*
X37643750Y-86593500D01*
G75*
G02*
X37400000Y-86349750I0J243750D01*
G01*
X37400000Y-85862250D01*
G75*
G02*
X37643750Y-85618500I243750J0D01*
G01*
G37*
G36*
G01*
X23824250Y-77449500D02*
X22911750Y-77449500D01*
G75*
G02*
X22668000Y-77205750I0J243750D01*
G01*
X22668000Y-76718250D01*
G75*
G02*
X22911750Y-76474500I243750J0D01*
G01*
X23824250Y-76474500D01*
G75*
G02*
X24068000Y-76718250I0J-243750D01*
G01*
X24068000Y-77205750D01*
G75*
G02*
X23824250Y-77449500I-243750J0D01*
G01*
G37*
G36*
G01*
X23824250Y-79324500D02*
X22911750Y-79324500D01*
G75*
G02*
X22668000Y-79080750I0J243750D01*
G01*
X22668000Y-78593250D01*
G75*
G02*
X22911750Y-78349500I243750J0D01*
G01*
X23824250Y-78349500D01*
G75*
G02*
X24068000Y-78593250I0J-243750D01*
G01*
X24068000Y-79080750D01*
G75*
G02*
X23824250Y-79324500I-243750J0D01*
G01*
G37*
G36*
G01*
X32968250Y-77449500D02*
X32055750Y-77449500D01*
G75*
G02*
X31812000Y-77205750I0J243750D01*
G01*
X31812000Y-76718250D01*
G75*
G02*
X32055750Y-76474500I243750J0D01*
G01*
X32968250Y-76474500D01*
G75*
G02*
X33212000Y-76718250I0J-243750D01*
G01*
X33212000Y-77205750D01*
G75*
G02*
X32968250Y-77449500I-243750J0D01*
G01*
G37*
G36*
G01*
X32968250Y-79324500D02*
X32055750Y-79324500D01*
G75*
G02*
X31812000Y-79080750I0J243750D01*
G01*
X31812000Y-78593250D01*
G75*
G02*
X32055750Y-78349500I243750J0D01*
G01*
X32968250Y-78349500D01*
G75*
G02*
X33212000Y-78593250I0J-243750D01*
G01*
X33212000Y-79080750D01*
G75*
G02*
X32968250Y-79324500I-243750J0D01*
G01*
G37*
G36*
G01*
X37897750Y-77333500D02*
X38810250Y-77333500D01*
G75*
G02*
X39054000Y-77577250I0J-243750D01*
G01*
X39054000Y-78064750D01*
G75*
G02*
X38810250Y-78308500I-243750J0D01*
G01*
X37897750Y-78308500D01*
G75*
G02*
X37654000Y-78064750I0J243750D01*
G01*
X37654000Y-77577250D01*
G75*
G02*
X37897750Y-77333500I243750J0D01*
G01*
G37*
G36*
G01*
X37897750Y-75458500D02*
X38810250Y-75458500D01*
G75*
G02*
X39054000Y-75702250I0J-243750D01*
G01*
X39054000Y-76189750D01*
G75*
G02*
X38810250Y-76433500I-243750J0D01*
G01*
X37897750Y-76433500D01*
G75*
G02*
X37654000Y-76189750I0J243750D01*
G01*
X37654000Y-75702250D01*
G75*
G02*
X37897750Y-75458500I243750J0D01*
G01*
G37*
G36*
G01*
X51359750Y-32375500D02*
X52272250Y-32375500D01*
G75*
G02*
X52516000Y-32619250I0J-243750D01*
G01*
X52516000Y-33106750D01*
G75*
G02*
X52272250Y-33350500I-243750J0D01*
G01*
X51359750Y-33350500D01*
G75*
G02*
X51116000Y-33106750I0J243750D01*
G01*
X51116000Y-32619250D01*
G75*
G02*
X51359750Y-32375500I243750J0D01*
G01*
G37*
G36*
G01*
X51359750Y-30500500D02*
X52272250Y-30500500D01*
G75*
G02*
X52516000Y-30744250I0J-243750D01*
G01*
X52516000Y-31231750D01*
G75*
G02*
X52272250Y-31475500I-243750J0D01*
G01*
X51359750Y-31475500D01*
G75*
G02*
X51116000Y-31231750I0J243750D01*
G01*
X51116000Y-30744250D01*
G75*
G02*
X51359750Y-30500500I243750J0D01*
G01*
G37*
G36*
G01*
X49647500Y-2996250D02*
X49647500Y-2083750D01*
G75*
G02*
X49891250Y-1840000I243750J0D01*
G01*
X50378750Y-1840000D01*
G75*
G02*
X50622500Y-2083750I0J-243750D01*
G01*
X50622500Y-2996250D01*
G75*
G02*
X50378750Y-3240000I-243750J0D01*
G01*
X49891250Y-3240000D01*
G75*
G02*
X49647500Y-2996250I0J243750D01*
G01*
G37*
G36*
G01*
X47772500Y-2996250D02*
X47772500Y-2083750D01*
G75*
G02*
X48016250Y-1840000I243750J0D01*
G01*
X48503750Y-1840000D01*
G75*
G02*
X48747500Y-2083750I0J-243750D01*
G01*
X48747500Y-2996250D01*
G75*
G02*
X48503750Y-3240000I-243750J0D01*
G01*
X48016250Y-3240000D01*
G75*
G02*
X47772500Y-2996250I0J243750D01*
G01*
G37*
G36*
G01*
X48311750Y-32375500D02*
X49224250Y-32375500D01*
G75*
G02*
X49468000Y-32619250I0J-243750D01*
G01*
X49468000Y-33106750D01*
G75*
G02*
X49224250Y-33350500I-243750J0D01*
G01*
X48311750Y-33350500D01*
G75*
G02*
X48068000Y-33106750I0J243750D01*
G01*
X48068000Y-32619250D01*
G75*
G02*
X48311750Y-32375500I243750J0D01*
G01*
G37*
G36*
G01*
X48311750Y-30500500D02*
X49224250Y-30500500D01*
G75*
G02*
X49468000Y-30744250I0J-243750D01*
G01*
X49468000Y-31231750D01*
G75*
G02*
X49224250Y-31475500I-243750J0D01*
G01*
X48311750Y-31475500D01*
G75*
G02*
X48068000Y-31231750I0J243750D01*
G01*
X48068000Y-30744250D01*
G75*
G02*
X48311750Y-30500500I243750J0D01*
G01*
G37*
G36*
G01*
X48311750Y-19675500D02*
X49224250Y-19675500D01*
G75*
G02*
X49468000Y-19919250I0J-243750D01*
G01*
X49468000Y-20406750D01*
G75*
G02*
X49224250Y-20650500I-243750J0D01*
G01*
X48311750Y-20650500D01*
G75*
G02*
X48068000Y-20406750I0J243750D01*
G01*
X48068000Y-19919250D01*
G75*
G02*
X48311750Y-19675500I243750J0D01*
G01*
G37*
G36*
G01*
X48311750Y-17800500D02*
X49224250Y-17800500D01*
G75*
G02*
X49468000Y-18044250I0J-243750D01*
G01*
X49468000Y-18531750D01*
G75*
G02*
X49224250Y-18775500I-243750J0D01*
G01*
X48311750Y-18775500D01*
G75*
G02*
X48068000Y-18531750I0J243750D01*
G01*
X48068000Y-18044250D01*
G75*
G02*
X48311750Y-17800500I243750J0D01*
G01*
G37*
G36*
G01*
X37643750Y-83175500D02*
X38556250Y-83175500D01*
G75*
G02*
X38800000Y-83419250I0J-243750D01*
G01*
X38800000Y-83906750D01*
G75*
G02*
X38556250Y-84150500I-243750J0D01*
G01*
X37643750Y-84150500D01*
G75*
G02*
X37400000Y-83906750I0J243750D01*
G01*
X37400000Y-83419250D01*
G75*
G02*
X37643750Y-83175500I243750J0D01*
G01*
G37*
G36*
G01*
X37643750Y-81300500D02*
X38556250Y-81300500D01*
G75*
G02*
X38800000Y-81544250I0J-243750D01*
G01*
X38800000Y-82031750D01*
G75*
G02*
X38556250Y-82275500I-243750J0D01*
G01*
X37643750Y-82275500D01*
G75*
G02*
X37400000Y-82031750I0J243750D01*
G01*
X37400000Y-81544250D01*
G75*
G02*
X37643750Y-81300500I243750J0D01*
G01*
G37*
G36*
G01*
X49073750Y-83175500D02*
X49986250Y-83175500D01*
G75*
G02*
X50230000Y-83419250I0J-243750D01*
G01*
X50230000Y-83906750D01*
G75*
G02*
X49986250Y-84150500I-243750J0D01*
G01*
X49073750Y-84150500D01*
G75*
G02*
X48830000Y-83906750I0J243750D01*
G01*
X48830000Y-83419250D01*
G75*
G02*
X49073750Y-83175500I243750J0D01*
G01*
G37*
G36*
G01*
X49073750Y-81300500D02*
X49986250Y-81300500D01*
G75*
G02*
X50230000Y-81544250I0J-243750D01*
G01*
X50230000Y-82031750D01*
G75*
G02*
X49986250Y-82275500I-243750J0D01*
G01*
X49073750Y-82275500D01*
G75*
G02*
X48830000Y-82031750I0J243750D01*
G01*
X48830000Y-81544250D01*
G75*
G02*
X49073750Y-81300500I243750J0D01*
G01*
G37*
G36*
G01*
X17474250Y-86339500D02*
X16561750Y-86339500D01*
G75*
G02*
X16318000Y-86095750I0J243750D01*
G01*
X16318000Y-85608250D01*
G75*
G02*
X16561750Y-85364500I243750J0D01*
G01*
X17474250Y-85364500D01*
G75*
G02*
X17718000Y-85608250I0J-243750D01*
G01*
X17718000Y-86095750D01*
G75*
G02*
X17474250Y-86339500I-243750J0D01*
G01*
G37*
G36*
G01*
X17474250Y-88214500D02*
X16561750Y-88214500D01*
G75*
G02*
X16318000Y-87970750I0J243750D01*
G01*
X16318000Y-87483250D01*
G75*
G02*
X16561750Y-87239500I243750J0D01*
G01*
X17474250Y-87239500D01*
G75*
G02*
X17718000Y-87483250I0J-243750D01*
G01*
X17718000Y-87970750D01*
G75*
G02*
X17474250Y-88214500I-243750J0D01*
G01*
G37*
G36*
G01*
X13259750Y-78730500D02*
X14172250Y-78730500D01*
G75*
G02*
X14416000Y-78974250I0J-243750D01*
G01*
X14416000Y-79461750D01*
G75*
G02*
X14172250Y-79705500I-243750J0D01*
G01*
X13259750Y-79705500D01*
G75*
G02*
X13016000Y-79461750I0J243750D01*
G01*
X13016000Y-78974250D01*
G75*
G02*
X13259750Y-78730500I243750J0D01*
G01*
G37*
G36*
G01*
X13259750Y-76855500D02*
X14172250Y-76855500D01*
G75*
G02*
X14416000Y-77099250I0J-243750D01*
G01*
X14416000Y-77586750D01*
G75*
G02*
X14172250Y-77830500I-243750J0D01*
G01*
X13259750Y-77830500D01*
G75*
G02*
X13016000Y-77586750I0J243750D01*
G01*
X13016000Y-77099250D01*
G75*
G02*
X13259750Y-76855500I243750J0D01*
G01*
G37*
G36*
G01*
X43678500Y-28396250D02*
X43678500Y-27483750D01*
G75*
G02*
X43922250Y-27240000I243750J0D01*
G01*
X44409750Y-27240000D01*
G75*
G02*
X44653500Y-27483750I0J-243750D01*
G01*
X44653500Y-28396250D01*
G75*
G02*
X44409750Y-28640000I-243750J0D01*
G01*
X43922250Y-28640000D01*
G75*
G02*
X43678500Y-28396250I0J243750D01*
G01*
G37*
G36*
G01*
X41803500Y-28396250D02*
X41803500Y-27483750D01*
G75*
G02*
X42047250Y-27240000I243750J0D01*
G01*
X42534750Y-27240000D01*
G75*
G02*
X42778500Y-27483750I0J-243750D01*
G01*
X42778500Y-28396250D01*
G75*
G02*
X42534750Y-28640000I-243750J0D01*
G01*
X42047250Y-28640000D01*
G75*
G02*
X41803500Y-28396250I0J243750D01*
G01*
G37*
G36*
G01*
X13259750Y-74315500D02*
X14172250Y-74315500D01*
G75*
G02*
X14416000Y-74559250I0J-243750D01*
G01*
X14416000Y-75046750D01*
G75*
G02*
X14172250Y-75290500I-243750J0D01*
G01*
X13259750Y-75290500D01*
G75*
G02*
X13016000Y-75046750I0J243750D01*
G01*
X13016000Y-74559250D01*
G75*
G02*
X13259750Y-74315500I243750J0D01*
G01*
G37*
G36*
G01*
X13259750Y-72440500D02*
X14172250Y-72440500D01*
G75*
G02*
X14416000Y-72684250I0J-243750D01*
G01*
X14416000Y-73171750D01*
G75*
G02*
X14172250Y-73415500I-243750J0D01*
G01*
X13259750Y-73415500D01*
G75*
G02*
X13016000Y-73171750I0J243750D01*
G01*
X13016000Y-72684250D01*
G75*
G02*
X13259750Y-72440500I243750J0D01*
G01*
G37*
G36*
G01*
X10211750Y-82540500D02*
X11124250Y-82540500D01*
G75*
G02*
X11368000Y-82784250I0J-243750D01*
G01*
X11368000Y-83271750D01*
G75*
G02*
X11124250Y-83515500I-243750J0D01*
G01*
X10211750Y-83515500D01*
G75*
G02*
X9968000Y-83271750I0J243750D01*
G01*
X9968000Y-82784250D01*
G75*
G02*
X10211750Y-82540500I243750J0D01*
G01*
G37*
G36*
G01*
X10211750Y-80665500D02*
X11124250Y-80665500D01*
G75*
G02*
X11368000Y-80909250I0J-243750D01*
G01*
X11368000Y-81396750D01*
G75*
G02*
X11124250Y-81640500I-243750J0D01*
G01*
X10211750Y-81640500D01*
G75*
G02*
X9968000Y-81396750I0J243750D01*
G01*
X9968000Y-80909250D01*
G75*
G02*
X10211750Y-80665500I243750J0D01*
G01*
G37*
D12*
X92964000Y-84836000D03*
D13*
X92583000Y-85725000D03*
D14*
X92964000Y-86106000D03*
D13*
X93345000Y-85725000D03*
D14*
X92964000Y-84582000D03*
G36*
G01*
X82347750Y-86223500D02*
X83260250Y-86223500D01*
G75*
G02*
X83504000Y-86467250I0J-243750D01*
G01*
X83504000Y-86954750D01*
G75*
G02*
X83260250Y-87198500I-243750J0D01*
G01*
X82347750Y-87198500D01*
G75*
G02*
X82104000Y-86954750I0J243750D01*
G01*
X82104000Y-86467250D01*
G75*
G02*
X82347750Y-86223500I243750J0D01*
G01*
G37*
G36*
G01*
X82347750Y-84348500D02*
X83260250Y-84348500D01*
G75*
G02*
X83504000Y-84592250I0J-243750D01*
G01*
X83504000Y-85079750D01*
G75*
G02*
X83260250Y-85323500I-243750J0D01*
G01*
X82347750Y-85323500D01*
G75*
G02*
X82104000Y-85079750I0J243750D01*
G01*
X82104000Y-84592250D01*
G75*
G02*
X82347750Y-84348500I243750J0D01*
G01*
G37*
G36*
G01*
X82347750Y-82238000D02*
X83260250Y-82238000D01*
G75*
G02*
X83504000Y-82481750I0J-243750D01*
G01*
X83504000Y-82969250D01*
G75*
G02*
X83260250Y-83213000I-243750J0D01*
G01*
X82347750Y-83213000D01*
G75*
G02*
X82104000Y-82969250I0J243750D01*
G01*
X82104000Y-82481750D01*
G75*
G02*
X82347750Y-82238000I243750J0D01*
G01*
G37*
G36*
G01*
X82347750Y-80363000D02*
X83260250Y-80363000D01*
G75*
G02*
X83504000Y-80606750I0J-243750D01*
G01*
X83504000Y-81094250D01*
G75*
G02*
X83260250Y-81338000I-243750J0D01*
G01*
X82347750Y-81338000D01*
G75*
G02*
X82104000Y-81094250I0J243750D01*
G01*
X82104000Y-80606750D01*
G75*
G02*
X82347750Y-80363000I243750J0D01*
G01*
G37*
G36*
G01*
X48311750Y-6975500D02*
X49224250Y-6975500D01*
G75*
G02*
X49468000Y-7219250I0J-243750D01*
G01*
X49468000Y-7706750D01*
G75*
G02*
X49224250Y-7950500I-243750J0D01*
G01*
X48311750Y-7950500D01*
G75*
G02*
X48068000Y-7706750I0J243750D01*
G01*
X48068000Y-7219250D01*
G75*
G02*
X48311750Y-6975500I243750J0D01*
G01*
G37*
G36*
G01*
X48311750Y-5100500D02*
X49224250Y-5100500D01*
G75*
G02*
X49468000Y-5344250I0J-243750D01*
G01*
X49468000Y-5831750D01*
G75*
G02*
X49224250Y-6075500I-243750J0D01*
G01*
X48311750Y-6075500D01*
G75*
G02*
X48068000Y-5831750I0J243750D01*
G01*
X48068000Y-5344250D01*
G75*
G02*
X48311750Y-5100500I243750J0D01*
G01*
G37*
G36*
G01*
X10743250Y-87452500D02*
X9830750Y-87452500D01*
G75*
G02*
X9587000Y-87208750I0J243750D01*
G01*
X9587000Y-86721250D01*
G75*
G02*
X9830750Y-86477500I243750J0D01*
G01*
X10743250Y-86477500D01*
G75*
G02*
X10987000Y-86721250I0J-243750D01*
G01*
X10987000Y-87208750D01*
G75*
G02*
X10743250Y-87452500I-243750J0D01*
G01*
G37*
G36*
G01*
X10743250Y-85577500D02*
X9830750Y-85577500D01*
G75*
G02*
X9587000Y-85333750I0J243750D01*
G01*
X9587000Y-84846250D01*
G75*
G02*
X9830750Y-84602500I243750J0D01*
G01*
X10743250Y-84602500D01*
G75*
G02*
X10987000Y-84846250I0J-243750D01*
G01*
X10987000Y-85333750D01*
G75*
G02*
X10743250Y-85577500I-243750J0D01*
G01*
G37*
G36*
G01*
X83260250Y-94467500D02*
X82347750Y-94467500D01*
G75*
G02*
X82104000Y-94223750I0J243750D01*
G01*
X82104000Y-93736250D01*
G75*
G02*
X82347750Y-93492500I243750J0D01*
G01*
X83260250Y-93492500D01*
G75*
G02*
X83504000Y-93736250I0J-243750D01*
G01*
X83504000Y-94223750D01*
G75*
G02*
X83260250Y-94467500I-243750J0D01*
G01*
G37*
G36*
G01*
X83260250Y-96342500D02*
X82347750Y-96342500D01*
G75*
G02*
X82104000Y-96098750I0J243750D01*
G01*
X82104000Y-95611250D01*
G75*
G02*
X82347750Y-95367500I243750J0D01*
G01*
X83260250Y-95367500D01*
G75*
G02*
X83504000Y-95611250I0J-243750D01*
G01*
X83504000Y-96098750D01*
G75*
G02*
X83260250Y-96342500I-243750J0D01*
G01*
G37*
G36*
G01*
X83260250Y-90530500D02*
X82347750Y-90530500D01*
G75*
G02*
X82104000Y-90286750I0J243750D01*
G01*
X82104000Y-89799250D01*
G75*
G02*
X82347750Y-89555500I243750J0D01*
G01*
X83260250Y-89555500D01*
G75*
G02*
X83504000Y-89799250I0J-243750D01*
G01*
X83504000Y-90286750D01*
G75*
G02*
X83260250Y-90530500I-243750J0D01*
G01*
G37*
G36*
G01*
X83260250Y-92405500D02*
X82347750Y-92405500D01*
G75*
G02*
X82104000Y-92161750I0J243750D01*
G01*
X82104000Y-91674250D01*
G75*
G02*
X82347750Y-91430500I243750J0D01*
G01*
X83260250Y-91430500D01*
G75*
G02*
X83504000Y-91674250I0J-243750D01*
G01*
X83504000Y-92161750D01*
G75*
G02*
X83260250Y-92405500I-243750J0D01*
G01*
G37*
G36*
G01*
X53391750Y-76220500D02*
X54304250Y-76220500D01*
G75*
G02*
X54548000Y-76464250I0J-243750D01*
G01*
X54548000Y-76951750D01*
G75*
G02*
X54304250Y-77195500I-243750J0D01*
G01*
X53391750Y-77195500D01*
G75*
G02*
X53148000Y-76951750I0J243750D01*
G01*
X53148000Y-76464250D01*
G75*
G02*
X53391750Y-76220500I243750J0D01*
G01*
G37*
G36*
G01*
X53391750Y-78095500D02*
X54304250Y-78095500D01*
G75*
G02*
X54548000Y-78339250I0J-243750D01*
G01*
X54548000Y-78826750D01*
G75*
G02*
X54304250Y-79070500I-243750J0D01*
G01*
X53391750Y-79070500D01*
G75*
G02*
X53148000Y-78826750I0J243750D01*
G01*
X53148000Y-78339250D01*
G75*
G02*
X53391750Y-78095500I243750J0D01*
G01*
G37*
X56388000Y-72771000D03*
D13*
X56769000Y-73914000D03*
D14*
X56388000Y-74295000D03*
D13*
X56007000Y-73914000D03*
D12*
X56388000Y-73025000D03*
G36*
G01*
X53391750Y-71648500D02*
X54304250Y-71648500D01*
G75*
G02*
X54548000Y-71892250I0J-243750D01*
G01*
X54548000Y-72379750D01*
G75*
G02*
X54304250Y-72623500I-243750J0D01*
G01*
X53391750Y-72623500D01*
G75*
G02*
X53148000Y-72379750I0J243750D01*
G01*
X53148000Y-71892250D01*
G75*
G02*
X53391750Y-71648500I243750J0D01*
G01*
G37*
G36*
G01*
X53391750Y-73523500D02*
X54304250Y-73523500D01*
G75*
G02*
X54548000Y-73767250I0J-243750D01*
G01*
X54548000Y-74254750D01*
G75*
G02*
X54304250Y-74498500I-243750J0D01*
G01*
X53391750Y-74498500D01*
G75*
G02*
X53148000Y-74254750I0J243750D01*
G01*
X53148000Y-73767250D01*
G75*
G02*
X53391750Y-73523500I243750J0D01*
G01*
G37*
G36*
G01*
X55931750Y-78095500D02*
X56844250Y-78095500D01*
G75*
G02*
X57088000Y-78339250I0J-243750D01*
G01*
X57088000Y-78826750D01*
G75*
G02*
X56844250Y-79070500I-243750J0D01*
G01*
X55931750Y-79070500D01*
G75*
G02*
X55688000Y-78826750I0J243750D01*
G01*
X55688000Y-78339250D01*
G75*
G02*
X55931750Y-78095500I243750J0D01*
G01*
G37*
G36*
G01*
X55931750Y-76220500D02*
X56844250Y-76220500D01*
G75*
G02*
X57088000Y-76464250I0J-243750D01*
G01*
X57088000Y-76951750D01*
G75*
G02*
X56844250Y-77195500I-243750J0D01*
G01*
X55931750Y-77195500D01*
G75*
G02*
X55688000Y-76951750I0J243750D01*
G01*
X55688000Y-76464250D01*
G75*
G02*
X55931750Y-76220500I243750J0D01*
G01*
G37*
G36*
G01*
X10211750Y-72440500D02*
X11124250Y-72440500D01*
G75*
G02*
X11368000Y-72684250I0J-243750D01*
G01*
X11368000Y-73171750D01*
G75*
G02*
X11124250Y-73415500I-243750J0D01*
G01*
X10211750Y-73415500D01*
G75*
G02*
X9968000Y-73171750I0J243750D01*
G01*
X9968000Y-72684250D01*
G75*
G02*
X10211750Y-72440500I243750J0D01*
G01*
G37*
G36*
G01*
X10211750Y-74315500D02*
X11124250Y-74315500D01*
G75*
G02*
X11368000Y-74559250I0J-243750D01*
G01*
X11368000Y-75046750D01*
G75*
G02*
X11124250Y-75290500I-243750J0D01*
G01*
X10211750Y-75290500D01*
G75*
G02*
X9968000Y-75046750I0J243750D01*
G01*
X9968000Y-74559250D01*
G75*
G02*
X10211750Y-74315500I243750J0D01*
G01*
G37*
D15*
X52960000Y-49808000D03*
X52960000Y-52808000D03*
D16*
G36*
X56910000Y-52174500D02*
G01*
X53785000Y-52174500D01*
X53785000Y-51758000D01*
X52310000Y-51758000D01*
X52310000Y-50858000D01*
X53785000Y-50858000D01*
X53785000Y-50441500D01*
X56910000Y-50441500D01*
X56910000Y-52174500D01*
G37*
D17*
X78994000Y-44450000D03*
D18*
X80137000Y-44069000D03*
D17*
X80518000Y-44450000D03*
D18*
X80137000Y-44831000D03*
D19*
X79248000Y-44450000D03*
G36*
G01*
X74624250Y-83134500D02*
X73711750Y-83134500D01*
G75*
G02*
X73468000Y-82890750I0J243750D01*
G01*
X73468000Y-82403250D01*
G75*
G02*
X73711750Y-82159500I243750J0D01*
G01*
X74624250Y-82159500D01*
G75*
G02*
X74868000Y-82403250I0J-243750D01*
G01*
X74868000Y-82890750D01*
G75*
G02*
X74624250Y-83134500I-243750J0D01*
G01*
G37*
G36*
G01*
X74624250Y-81259500D02*
X73711750Y-81259500D01*
G75*
G02*
X73468000Y-81015750I0J243750D01*
G01*
X73468000Y-80528250D01*
G75*
G02*
X73711750Y-80284500I243750J0D01*
G01*
X74624250Y-80284500D01*
G75*
G02*
X74868000Y-80528250I0J-243750D01*
G01*
X74868000Y-81015750D01*
G75*
G02*
X74624250Y-81259500I-243750J0D01*
G01*
G37*
D14*
X27305000Y-64135000D03*
D13*
X27686000Y-65278000D03*
D14*
X27305000Y-65659000D03*
D13*
X26924000Y-65278000D03*
D12*
X27305000Y-64389000D03*
X20955000Y-64389000D03*
D13*
X20574000Y-65278000D03*
D14*
X20955000Y-65659000D03*
D13*
X21336000Y-65278000D03*
D14*
X20955000Y-64135000D03*
X18288000Y-69342000D03*
D13*
X17907000Y-68199000D03*
D14*
X18288000Y-67818000D03*
D13*
X18669000Y-68199000D03*
D12*
X18288000Y-69088000D03*
G36*
G01*
X23673750Y-63042500D02*
X24586250Y-63042500D01*
G75*
G02*
X24830000Y-63286250I0J-243750D01*
G01*
X24830000Y-63773750D01*
G75*
G02*
X24586250Y-64017500I-243750J0D01*
G01*
X23673750Y-64017500D01*
G75*
G02*
X23430000Y-63773750I0J243750D01*
G01*
X23430000Y-63286250D01*
G75*
G02*
X23673750Y-63042500I243750J0D01*
G01*
G37*
G36*
G01*
X23673750Y-64917500D02*
X24586250Y-64917500D01*
G75*
G02*
X24830000Y-65161250I0J-243750D01*
G01*
X24830000Y-65648750D01*
G75*
G02*
X24586250Y-65892500I-243750J0D01*
G01*
X23673750Y-65892500D01*
G75*
G02*
X23430000Y-65648750I0J243750D01*
G01*
X23430000Y-65161250D01*
G75*
G02*
X23673750Y-64917500I243750J0D01*
G01*
G37*
D20*
X13335000Y-85091000D03*
X13335000Y-88391000D03*
D14*
X36195000Y-80391000D03*
D13*
X35814000Y-79248000D03*
D14*
X36195000Y-78867000D03*
D13*
X36576000Y-79248000D03*
D12*
X36195000Y-80137000D03*
D14*
X34417000Y-80391000D03*
D13*
X34036000Y-79248000D03*
D14*
X34417000Y-78867000D03*
D13*
X34798000Y-79248000D03*
D12*
X34417000Y-80137000D03*
D21*
X21148000Y-83550000D03*
X23048000Y-83550000D03*
X22098000Y-81550000D03*
X21148000Y-74914000D03*
X23048000Y-74914000D03*
X22098000Y-72914000D03*
X31242000Y-81550000D03*
X32192000Y-83550000D03*
X30292000Y-83550000D03*
X31242000Y-72914000D03*
X32192000Y-74914000D03*
X30292000Y-74914000D03*
D17*
X79248000Y-50038000D03*
D18*
X78105000Y-50419000D03*
D17*
X77724000Y-50038000D03*
D18*
X78105000Y-49657000D03*
D19*
X78994000Y-50038000D03*
G36*
G01*
X81651500Y-75640250D02*
X81651500Y-74727750D01*
G75*
G02*
X81895250Y-74484000I243750J0D01*
G01*
X82382750Y-74484000D01*
G75*
G02*
X82626500Y-74727750I0J-243750D01*
G01*
X82626500Y-75640250D01*
G75*
G02*
X82382750Y-75884000I-243750J0D01*
G01*
X81895250Y-75884000D01*
G75*
G02*
X81651500Y-75640250I0J243750D01*
G01*
G37*
G36*
G01*
X79776500Y-75640250D02*
X79776500Y-74727750D01*
G75*
G02*
X80020250Y-74484000I243750J0D01*
G01*
X80507750Y-74484000D01*
G75*
G02*
X80751500Y-74727750I0J-243750D01*
G01*
X80751500Y-75640250D01*
G75*
G02*
X80507750Y-75884000I-243750J0D01*
G01*
X80020250Y-75884000D01*
G75*
G02*
X79776500Y-75640250I0J243750D01*
G01*
G37*
G36*
G01*
X82626500Y-77521750D02*
X82626500Y-78434250D01*
G75*
G02*
X82382750Y-78678000I-243750J0D01*
G01*
X81895250Y-78678000D01*
G75*
G02*
X81651500Y-78434250I0J243750D01*
G01*
X81651500Y-77521750D01*
G75*
G02*
X81895250Y-77278000I243750J0D01*
G01*
X82382750Y-77278000D01*
G75*
G02*
X82626500Y-77521750I0J-243750D01*
G01*
G37*
G36*
G01*
X80751500Y-77521750D02*
X80751500Y-78434250D01*
G75*
G02*
X80507750Y-78678000I-243750J0D01*
G01*
X80020250Y-78678000D01*
G75*
G02*
X79776500Y-78434250I0J243750D01*
G01*
X79776500Y-77521750D01*
G75*
G02*
X80020250Y-77278000I243750J0D01*
G01*
X80507750Y-77278000D01*
G75*
G02*
X80751500Y-77521750I0J-243750D01*
G01*
G37*
G36*
G01*
X73608250Y-76022500D02*
X72695750Y-76022500D01*
G75*
G02*
X72452000Y-75778750I0J243750D01*
G01*
X72452000Y-75291250D01*
G75*
G02*
X72695750Y-75047500I243750J0D01*
G01*
X73608250Y-75047500D01*
G75*
G02*
X73852000Y-75291250I0J-243750D01*
G01*
X73852000Y-75778750D01*
G75*
G02*
X73608250Y-76022500I-243750J0D01*
G01*
G37*
G36*
G01*
X73608250Y-74147500D02*
X72695750Y-74147500D01*
G75*
G02*
X72452000Y-73903750I0J243750D01*
G01*
X72452000Y-73416250D01*
G75*
G02*
X72695750Y-73172500I243750J0D01*
G01*
X73608250Y-73172500D01*
G75*
G02*
X73852000Y-73416250I0J-243750D01*
G01*
X73852000Y-73903750D01*
G75*
G02*
X73608250Y-74147500I-243750J0D01*
G01*
G37*
G36*
G01*
X87935750Y-68346500D02*
X88848250Y-68346500D01*
G75*
G02*
X89092000Y-68590250I0J-243750D01*
G01*
X89092000Y-69077750D01*
G75*
G02*
X88848250Y-69321500I-243750J0D01*
G01*
X87935750Y-69321500D01*
G75*
G02*
X87692000Y-69077750I0J243750D01*
G01*
X87692000Y-68590250D01*
G75*
G02*
X87935750Y-68346500I243750J0D01*
G01*
G37*
G36*
G01*
X87935750Y-66471500D02*
X88848250Y-66471500D01*
G75*
G02*
X89092000Y-66715250I0J-243750D01*
G01*
X89092000Y-67202750D01*
G75*
G02*
X88848250Y-67446500I-243750J0D01*
G01*
X87935750Y-67446500D01*
G75*
G02*
X87692000Y-67202750I0J243750D01*
G01*
X87692000Y-66715250D01*
G75*
G02*
X87935750Y-66471500I243750J0D01*
G01*
G37*
G36*
G01*
X85395750Y-66471500D02*
X86308250Y-66471500D01*
G75*
G02*
X86552000Y-66715250I0J-243750D01*
G01*
X86552000Y-67202750D01*
G75*
G02*
X86308250Y-67446500I-243750J0D01*
G01*
X85395750Y-67446500D01*
G75*
G02*
X85152000Y-67202750I0J243750D01*
G01*
X85152000Y-66715250D01*
G75*
G02*
X85395750Y-66471500I243750J0D01*
G01*
G37*
G36*
G01*
X85395750Y-68346500D02*
X86308250Y-68346500D01*
G75*
G02*
X86552000Y-68590250I0J-243750D01*
G01*
X86552000Y-69077750D01*
G75*
G02*
X86308250Y-69321500I-243750J0D01*
G01*
X85395750Y-69321500D01*
G75*
G02*
X85152000Y-69077750I0J243750D01*
G01*
X85152000Y-68590250D01*
G75*
G02*
X85395750Y-68346500I243750J0D01*
G01*
G37*
G36*
G01*
X82855750Y-68346500D02*
X83768250Y-68346500D01*
G75*
G02*
X84012000Y-68590250I0J-243750D01*
G01*
X84012000Y-69077750D01*
G75*
G02*
X83768250Y-69321500I-243750J0D01*
G01*
X82855750Y-69321500D01*
G75*
G02*
X82612000Y-69077750I0J243750D01*
G01*
X82612000Y-68590250D01*
G75*
G02*
X82855750Y-68346500I243750J0D01*
G01*
G37*
G36*
G01*
X82855750Y-66471500D02*
X83768250Y-66471500D01*
G75*
G02*
X84012000Y-66715250I0J-243750D01*
G01*
X84012000Y-67202750D01*
G75*
G02*
X83768250Y-67446500I-243750J0D01*
G01*
X82855750Y-67446500D01*
G75*
G02*
X82612000Y-67202750I0J243750D01*
G01*
X82612000Y-66715250D01*
G75*
G02*
X82855750Y-66471500I243750J0D01*
G01*
G37*
G36*
G01*
X80315750Y-66471500D02*
X81228250Y-66471500D01*
G75*
G02*
X81472000Y-66715250I0J-243750D01*
G01*
X81472000Y-67202750D01*
G75*
G02*
X81228250Y-67446500I-243750J0D01*
G01*
X80315750Y-67446500D01*
G75*
G02*
X80072000Y-67202750I0J243750D01*
G01*
X80072000Y-66715250D01*
G75*
G02*
X80315750Y-66471500I243750J0D01*
G01*
G37*
G36*
G01*
X80315750Y-68346500D02*
X81228250Y-68346500D01*
G75*
G02*
X81472000Y-68590250I0J-243750D01*
G01*
X81472000Y-69077750D01*
G75*
G02*
X81228250Y-69321500I-243750J0D01*
G01*
X80315750Y-69321500D01*
G75*
G02*
X80072000Y-69077750I0J243750D01*
G01*
X80072000Y-68590250D01*
G75*
G02*
X80315750Y-68346500I243750J0D01*
G01*
G37*
G36*
G01*
X77775750Y-68346500D02*
X78688250Y-68346500D01*
G75*
G02*
X78932000Y-68590250I0J-243750D01*
G01*
X78932000Y-69077750D01*
G75*
G02*
X78688250Y-69321500I-243750J0D01*
G01*
X77775750Y-69321500D01*
G75*
G02*
X77532000Y-69077750I0J243750D01*
G01*
X77532000Y-68590250D01*
G75*
G02*
X77775750Y-68346500I243750J0D01*
G01*
G37*
G36*
G01*
X77775750Y-66471500D02*
X78688250Y-66471500D01*
G75*
G02*
X78932000Y-66715250I0J-243750D01*
G01*
X78932000Y-67202750D01*
G75*
G02*
X78688250Y-67446500I-243750J0D01*
G01*
X77775750Y-67446500D01*
G75*
G02*
X77532000Y-67202750I0J243750D01*
G01*
X77532000Y-66715250D01*
G75*
G02*
X77775750Y-66471500I243750J0D01*
G01*
G37*
G36*
G01*
X74981750Y-66471500D02*
X75894250Y-66471500D01*
G75*
G02*
X76138000Y-66715250I0J-243750D01*
G01*
X76138000Y-67202750D01*
G75*
G02*
X75894250Y-67446500I-243750J0D01*
G01*
X74981750Y-67446500D01*
G75*
G02*
X74738000Y-67202750I0J243750D01*
G01*
X74738000Y-66715250D01*
G75*
G02*
X74981750Y-66471500I243750J0D01*
G01*
G37*
G36*
G01*
X74981750Y-68346500D02*
X75894250Y-68346500D01*
G75*
G02*
X76138000Y-68590250I0J-243750D01*
G01*
X76138000Y-69077750D01*
G75*
G02*
X75894250Y-69321500I-243750J0D01*
G01*
X74981750Y-69321500D01*
G75*
G02*
X74738000Y-69077750I0J243750D01*
G01*
X74738000Y-68590250D01*
G75*
G02*
X74981750Y-68346500I243750J0D01*
G01*
G37*
D22*
X75692000Y-73472000D03*
X75692000Y-75372000D03*
X77692000Y-74422000D03*
D10*
X77216000Y-94655640D03*
X77216000Y-90256360D03*
G36*
G01*
X55193250Y-41762500D02*
X54280750Y-41762500D01*
G75*
G02*
X54037000Y-41518750I0J243750D01*
G01*
X54037000Y-41031250D01*
G75*
G02*
X54280750Y-40787500I243750J0D01*
G01*
X55193250Y-40787500D01*
G75*
G02*
X55437000Y-41031250I0J-243750D01*
G01*
X55437000Y-41518750D01*
G75*
G02*
X55193250Y-41762500I-243750J0D01*
G01*
G37*
G36*
G01*
X55193250Y-43637500D02*
X54280750Y-43637500D01*
G75*
G02*
X54037000Y-43393750I0J243750D01*
G01*
X54037000Y-42906250D01*
G75*
G02*
X54280750Y-42662500I243750J0D01*
G01*
X55193250Y-42662500D01*
G75*
G02*
X55437000Y-42906250I0J-243750D01*
G01*
X55437000Y-43393750D01*
G75*
G02*
X55193250Y-43637500I-243750J0D01*
G01*
G37*
D23*
X74116000Y-49393000D03*
X74116000Y-54493000D03*
X82856000Y-54493000D03*
X82856000Y-49393000D03*
D10*
X54737000Y-44490640D03*
X54737000Y-40091360D03*
X62103000Y-40091360D03*
X62103000Y-44490640D03*
G36*
G01*
X54110000Y-59149000D02*
X54110000Y-58199000D01*
G75*
G02*
X54360000Y-57949000I250000J0D01*
G01*
X54860000Y-57949000D01*
G75*
G02*
X55110000Y-58199000I0J-250000D01*
G01*
X55110000Y-59149000D01*
G75*
G02*
X54860000Y-59399000I-250000J0D01*
G01*
X54360000Y-59399000D01*
G75*
G02*
X54110000Y-59149000I0J250000D01*
G01*
G37*
G36*
G01*
X52210000Y-59149000D02*
X52210000Y-58199000D01*
G75*
G02*
X52460000Y-57949000I250000J0D01*
G01*
X52960000Y-57949000D01*
G75*
G02*
X53210000Y-58199000I0J-250000D01*
G01*
X53210000Y-59149000D01*
G75*
G02*
X52960000Y-59399000I-250000J0D01*
G01*
X52460000Y-59399000D01*
G75*
G02*
X52210000Y-59149000I0J250000D01*
G01*
G37*
X59182000Y-66969640D03*
X59182000Y-62570360D03*
X68834000Y-49956720D03*
X68834000Y-54356000D03*
D24*
X75524360Y-62738000D03*
X79923640Y-62738000D03*
D25*
X65310000Y-58674000D03*
X69310000Y-58674000D03*
D26*
X53594000Y-66548000D03*
X53594000Y-62548000D03*
G36*
G01*
X62018500Y-59124001D02*
X62018500Y-58223999D01*
G75*
G02*
X62268499Y-57974000I249999J0D01*
G01*
X62793501Y-57974000D01*
G75*
G02*
X63043500Y-58223999I0J-249999D01*
G01*
X63043500Y-59124001D01*
G75*
G02*
X62793501Y-59374000I-249999J0D01*
G01*
X62268499Y-59374000D01*
G75*
G02*
X62018500Y-59124001I0J249999D01*
G01*
G37*
G36*
G01*
X60193500Y-59124001D02*
X60193500Y-58223999D01*
G75*
G02*
X60443499Y-57974000I249999J0D01*
G01*
X60968501Y-57974000D01*
G75*
G02*
X61218500Y-58223999I0J-249999D01*
G01*
X61218500Y-59124001D01*
G75*
G02*
X60968501Y-59374000I-249999J0D01*
G01*
X60443499Y-59374000D01*
G75*
G02*
X60193500Y-59124001I0J249999D01*
G01*
G37*
G36*
G01*
X59440500Y-58223999D02*
X59440500Y-59124001D01*
G75*
G02*
X59190501Y-59374000I-249999J0D01*
G01*
X58665499Y-59374000D01*
G75*
G02*
X58415500Y-59124001I0J249999D01*
G01*
X58415500Y-58223999D01*
G75*
G02*
X58665499Y-57974000I249999J0D01*
G01*
X59190501Y-57974000D01*
G75*
G02*
X59440500Y-58223999I0J-249999D01*
G01*
G37*
G36*
G01*
X57615500Y-58223999D02*
X57615500Y-59124001D01*
G75*
G02*
X57365501Y-59374000I-249999J0D01*
G01*
X56840499Y-59374000D01*
G75*
G02*
X56590500Y-59124001I0J249999D01*
G01*
X56590500Y-58223999D01*
G75*
G02*
X56840499Y-57974000I249999J0D01*
G01*
X57365501Y-57974000D01*
G75*
G02*
X57615500Y-58223999I0J-249999D01*
G01*
G37*
G36*
G01*
X80259500Y-58616001D02*
X80259500Y-57715999D01*
G75*
G02*
X80509499Y-57466000I249999J0D01*
G01*
X81034501Y-57466000D01*
G75*
G02*
X81284500Y-57715999I0J-249999D01*
G01*
X81284500Y-58616001D01*
G75*
G02*
X81034501Y-58866000I-249999J0D01*
G01*
X80509499Y-58866000D01*
G75*
G02*
X80259500Y-58616001I0J249999D01*
G01*
G37*
G36*
G01*
X78434500Y-58616001D02*
X78434500Y-57715999D01*
G75*
G02*
X78684499Y-57466000I249999J0D01*
G01*
X79209501Y-57466000D01*
G75*
G02*
X79459500Y-57715999I0J-249999D01*
G01*
X79459500Y-58616001D01*
G75*
G02*
X79209501Y-58866000I-249999J0D01*
G01*
X78684499Y-58866000D01*
G75*
G02*
X78434500Y-58616001I0J249999D01*
G01*
G37*
D19*
X76962000Y-58166000D03*
D18*
X76073000Y-57785000D03*
D17*
X75692000Y-58166000D03*
D18*
X76073000Y-58547000D03*
D17*
X77216000Y-58166000D03*
X79248000Y-54610000D03*
D18*
X78105000Y-54991000D03*
D17*
X77724000Y-54610000D03*
D18*
X78105000Y-54229000D03*
D19*
X78994000Y-54610000D03*
D12*
X80264000Y-72644000D03*
D13*
X80645000Y-71755000D03*
D14*
X80264000Y-71374000D03*
D13*
X79883000Y-71755000D03*
D14*
X80264000Y-72898000D03*
D12*
X82804000Y-72644000D03*
D13*
X83185000Y-71755000D03*
D14*
X82804000Y-71374000D03*
D13*
X82423000Y-71755000D03*
D14*
X82804000Y-72898000D03*
D17*
X70866000Y-44450000D03*
D18*
X69723000Y-44831000D03*
D17*
X69342000Y-44450000D03*
D18*
X69723000Y-44069000D03*
D19*
X70612000Y-44450000D03*
D27*
X48768000Y-67546000D03*
D28*
X46228000Y-67546000D03*
D27*
X41148000Y-67546000D03*
X41148000Y-58946000D03*
D28*
X43688000Y-58946000D03*
X46228000Y-58946000D03*
D27*
X48768000Y-58946000D03*
D17*
X92202000Y-90043000D03*
D18*
X93345000Y-89662000D03*
D17*
X93726000Y-90043000D03*
D18*
X93345000Y-90424000D03*
D19*
X92456000Y-90043000D03*
D17*
X85852000Y-96520000D03*
D18*
X86995000Y-96139000D03*
D17*
X87376000Y-96520000D03*
D18*
X86995000Y-96901000D03*
D19*
X86106000Y-96520000D03*
G36*
G01*
X55683999Y-83307500D02*
X56584001Y-83307500D01*
G75*
G02*
X56834000Y-83557499I0J-249999D01*
G01*
X56834000Y-84082501D01*
G75*
G02*
X56584001Y-84332500I-249999J0D01*
G01*
X55683999Y-84332500D01*
G75*
G02*
X55434000Y-84082501I0J249999D01*
G01*
X55434000Y-83557499D01*
G75*
G02*
X55683999Y-83307500I249999J0D01*
G01*
G37*
G36*
G01*
X55683999Y-81482500D02*
X56584001Y-81482500D01*
G75*
G02*
X56834000Y-81732499I0J-249999D01*
G01*
X56834000Y-82257501D01*
G75*
G02*
X56584001Y-82507500I-249999J0D01*
G01*
X55683999Y-82507500D01*
G75*
G02*
X55434000Y-82257501I0J249999D01*
G01*
X55434000Y-81732499D01*
G75*
G02*
X55683999Y-81482500I249999J0D01*
G01*
G37*
G36*
G01*
X58223999Y-81529500D02*
X59124001Y-81529500D01*
G75*
G02*
X59374000Y-81779499I0J-249999D01*
G01*
X59374000Y-82304501D01*
G75*
G02*
X59124001Y-82554500I-249999J0D01*
G01*
X58223999Y-82554500D01*
G75*
G02*
X57974000Y-82304501I0J249999D01*
G01*
X57974000Y-81779499D01*
G75*
G02*
X58223999Y-81529500I249999J0D01*
G01*
G37*
G36*
G01*
X58223999Y-83354500D02*
X59124001Y-83354500D01*
G75*
G02*
X59374000Y-83604499I0J-249999D01*
G01*
X59374000Y-84129501D01*
G75*
G02*
X59124001Y-84379500I-249999J0D01*
G01*
X58223999Y-84379500D01*
G75*
G02*
X57974000Y-84129501I0J249999D01*
G01*
X57974000Y-83604499D01*
G75*
G02*
X58223999Y-83354500I249999J0D01*
G01*
G37*
M02*
